<svg xmlns="http://www.w3.org/2000/svg" width="190" height="110" viewBox="0 0 190 110">
  <g id="Grupo_157066" data-name="Grupo 157066" transform="translate(-180 -397)">
    <rect id="Rectángulo_36775" data-name="Rectángulo 36775" width="190" height="110" transform="translate(180 397)" fill="none"/>
    <g id="Grupo_109187" data-name="Grupo 109187" transform="translate(-3442.279 1027.357)" opacity="0.3">
      <path id="Trazado_158283" data-name="Trazado 158283" d="M3677.784-530.075h0a16.354,16.354,0,0,0,23.129,0l67.216-67.214a16.357,16.357,0,0,0,0-23.129,16.355,16.355,0,0,0-23.129,0L3677.784-553.2A16.353,16.353,0,0,0,3677.784-530.075Z" transform="translate(14.296)" fill="#fc4b52"/>
      <path id="Trazado_158284" data-name="Trazado 158284" d="M3652.069-530.075h0a16.354,16.354,0,0,0,23.129,0l67.216-67.214a16.358,16.358,0,0,0,0-23.129,16.355,16.355,0,0,0-23.129,0L3652.069-553.2A16.354,16.354,0,0,0,3652.069-530.075Z" transform="translate(0)" fill="#feca2e"/>
    </g>
    <g id="Layer_32" data-name="Layer 32" transform="translate(224.206 402)">
      <path id="Trazado_247228" data-name="Trazado 247228" d="M13.024,59.774A8.024,8.024,0,0,1,8.21,45.331a8.024,8.024,0,0,1,0-12.839,8.024,8.024,0,0,1,.112-12.919,9.608,9.608,0,0,1-.112-1.525,11.208,11.208,0,0,1,9.2-11.041A9.658,9.658,0,0,1,25.863,2a9.518,9.518,0,0,1,6.419,2.471A9.518,9.518,0,0,1,38.7,2a9.658,9.658,0,0,1,8.457,5.007,11.208,11.208,0,0,1,9.2,11.041,9.608,9.608,0,0,1-.112,1.525,8.024,8.024,0,0,1,.112,12.919,8.024,8.024,0,0,1,0,12.839A8.024,8.024,0,0,1,51.54,59.774Z" transform="translate(2.419 0.605)" fill="#12263f"/>
      <path id="Trazado_247229" data-name="Trazado 247229" d="M11.815,55.355a4.815,4.815,0,0,1-2.889-8.666l3.413-2.568L8.926,41.553a4.815,4.815,0,0,1,0-7.7l3.413-2.568L8.926,28.714A4.85,4.85,0,0,1,7,24.863a4.79,4.79,0,0,1,2-3.9L10.593,19.8l-.321-1.945a6.608,6.608,0,0,1-.063-1.016,7.992,7.992,0,0,1,6.557-7.883l1.5-.271L19,7.353A6.469,6.469,0,0,1,24.653,4a6.349,6.349,0,0,1,4.266,1.64l2.154,1.951L33.226,5.64A6.349,6.349,0,0,1,37.492,4a6.469,6.469,0,0,1,5.649,3.353l.738,1.332,1.5.271a7.992,7.992,0,0,1,6.557,7.883,6.606,6.606,0,0,1-.071,1.016L51.544,19.8l1.592,1.159a4.79,4.79,0,0,1,2.009,3.9,4.85,4.85,0,0,1-1.926,3.852l-3.413,2.568,3.413,2.568a4.815,4.815,0,0,1,0,7.7l-3.413,2.568,3.413,2.568a4.815,4.815,0,0,1-2.889,8.666Z" transform="translate(3.629 1.815)" fill="#12263f"/>
      <path id="Trazado_247230" data-name="Trazado 247230" d="M27.677,26v9.629L9.514,42.44A11.579,11.579,0,0,0,2,53.282H2V75.75H66.193V53.282A11.579,11.579,0,0,0,58.679,42.44L40.516,35.629V26Z" transform="translate(0.605 15.121)" fill="#fc4b52"/>
      <path id="Trazado_247231" data-name="Trazado 247231" d="M39.677,37.431l-6.419-2.407V27H20.419v8.024L14,37.431V52.677H39.677Z" transform="translate(7.863 15.726)" fill="#e9baa4"/>
      <path id="Trazado_247232" data-name="Trazado 247232" d="M43.472,16H43.7a4.815,4.815,0,0,1,4.815,4.815h0A4.815,4.815,0,0,1,43.7,25.629H14.815A4.815,4.815,0,0,1,10,20.815h0A4.815,4.815,0,0,1,14.815,16Z" transform="translate(5.444 9.073)" fill="#c68f7c"/>
      <path id="Trazado_247233" data-name="Trazado 247233" d="M18,32.312a12.888,12.888,0,0,0,12.839,0V26H18Z" transform="translate(10.282 15.121)" fill="#c68f7c"/>
      <path id="Trazado_247234" data-name="Trazado 247234" d="M13,18.024,14.621,29.37A12.951,12.951,0,0,0,27.444,40.492h0A12.951,12.951,0,0,0,40.266,29.369l1.621-11.345H39.3A12.765,12.765,0,0,1,27.444,10h0a12.765,12.765,0,0,1-11.852,8.024Z" transform="translate(7.258 5.444)" fill="#e9baa4"/>
      <rect id="Rectángulo_89806" data-name="Rectángulo 89806" width="22.468" height="6.419" transform="translate(23.468 61.984)" fill="#c68f7c"/>
      <path id="Trazado_247235" data-name="Trazado 247235" d="M14,41H39.677L30.048,66.677H23.629Z" transform="translate(7.863 24.193)" fill="#feca2e"/>
      <path id="Trazado_247236" data-name="Trazado 247236" d="M12.1,35.308,10,48.933h4.815v8.024L22.839,71.4h4.815L17.747,33.19Z" transform="translate(5.444 19.47)" fill="#fc4b52"/>
      <path id="Trazado_247237" data-name="Trazado 247237" d="M43.924,37.321,32.907,33.19,23,71.4h4.815l8.024-14.444Z" transform="translate(13.306 19.47)" fill="#fc4b52"/>
      <rect id="Rectángulo_89807" data-name="Rectángulo 89807" width="3.21" height="19.258" transform="translate(12.234 71.613)" fill="#12263f"/>
      <circle id="Elipse_5681" data-name="Elipse 5681" cx="25.677" cy="25.677" r="25.677" transform="translate(47.54 47.54)" fill="#a7e446"/>
      <path id="Trazado_247238" data-name="Trazado 247238" d="M53.852,30a25.533,25.533,0,0,0-15.565,5.294,25.645,25.645,0,0,0,35.946,35.95A25.645,25.645,0,0,0,53.852,30Z" transform="translate(19.366 17.54)" fill="#a7e446"/>
      <rect id="Rectángulo_89808" data-name="Rectángulo 89808" width="22.468" height="22.468" transform="translate(60.379 65.193)" fill="#dff7f9"/>
      <path id="Trazado_247239" data-name="Trazado 247239" d="M47.242,59.835a1.6,1.6,0,0,1-1.134-.47L41.293,54.55l2.269-2.269,3.521,3.531L62.018,36.393l2.545,1.958L48.515,59.214a1.6,1.6,0,0,1-1.17.623C47.311,59.835,47.276,59.835,47.242,59.835Z" transform="translate(24.371 21.407)" fill="#99aecd"/>
      <path id="Trazado_247240" data-name="Trazado 247240" d="M73.218,45.935A27.146,27.146,0,0,0,62.578,48.1a9.741,9.741,0,0,0-1.444-2.162,9.616,9.616,0,0,0,0-12.839,9.615,9.615,0,0,0-.78-13.614c.018-.265.027-.541.027-.83A12.807,12.807,0,0,0,50.591,6.187,11.276,11.276,0,0,0,41.121,1,11.147,11.147,0,0,0,34.7,3.025,11.147,11.147,0,0,0,28.282,1a11.276,11.276,0,0,0-9.469,5.187A12.807,12.807,0,0,0,9.024,18.653c0,.289.01.565.027.83A9.615,9.615,0,0,0,8.272,33.1a9.615,9.615,0,0,0,0,12.839,9.687,9.687,0,0,0-2.457,6.419,9.579,9.579,0,0,0,1.371,4.919A13.232,13.232,0,0,0,1,68.4V90.871a1.6,1.6,0,0,0,1.6,1.6H53.913a27.282,27.282,0,1,0,19.3-46.54ZM11.592,44.652a6.419,6.419,0,0,1,0-10.271,1.6,1.6,0,0,0,0-2.568,6.463,6.463,0,0,1-2.568-5.135,6.373,6.373,0,0,1,2.662-5.2,1.6,1.6,0,0,0,.642-1.557,7.7,7.7,0,0,1-.095-1.266A9.6,9.6,0,0,1,20.11,9.185a1.6,1.6,0,0,0,1.123-.8A8.076,8.076,0,0,1,28.282,4.21a7.938,7.938,0,0,1,5.341,2.056,1.6,1.6,0,0,0,2.157,0A7.938,7.938,0,0,1,41.121,4.21a8.076,8.076,0,0,1,7.061,4.173,1.6,1.6,0,0,0,1.123.8,9.6,9.6,0,0,1,7.864,9.469,7.7,7.7,0,0,1-.093,1.266,1.6,1.6,0,0,0,.642,1.557,6.373,6.373,0,0,1,2.661,5.2,6.463,6.463,0,0,1-2.568,5.135,1.6,1.6,0,0,0,0,2.568,6.419,6.419,0,0,1,0,10.271,1.6,1.6,0,0,0,0,2.568,6.479,6.479,0,0,1,1.908,2.324,27.466,27.466,0,0,0-5.708,4.333L42.726,49.639V45.086a14.6,14.6,0,0,0,6.147-8.78h.273a6.406,6.406,0,0,0,1.589-12.616,1.6,1.6,0,0,0-1.589-1.828H46.553a11.1,11.1,0,0,1-10.361-7.016,1.6,1.6,0,0,0-2.982,0A11.1,11.1,0,0,1,22.85,21.863H20.258a1.6,1.6,0,0,0-1.589,1.828,6.407,6.407,0,0,0,1.589,12.616h.273a14.6,14.6,0,0,0,6.147,8.78v4.553l-16.6,6.222a6.381,6.381,0,0,1-1.058-3.507,6.463,6.463,0,0,1,2.568-5.135,1.6,1.6,0,0,0,0-2.568Zm34.8,33.422L40.177,89.266h-1.8l8.939-34.477,4.425,1.659a26.876,26.876,0,0,0-5.351,21.625ZM20.258,66.8H17.315l1.667-10.845,3.1-1.164,8.939,34.477h-1.8L21.863,76.012V68.4A1.6,1.6,0,0,0,20.258,66.8ZM34.7,44.331a11.4,11.4,0,0,1-11.234-9.743l-1.359-9.515h.741A14.283,14.283,0,0,0,34.7,18.838a14.283,14.283,0,0,0,11.852,6.235h.741l-1.359,9.515A11.4,11.4,0,0,1,34.7,44.331ZM29.887,50.75V46.7a14.2,14.2,0,0,0,9.629,0V50.75a1.6,1.6,0,0,0,1.04,1.5l3.741,1.4-2.576,9.932H27.682l-2.576-9.932,3.741-1.4A1.6,1.6,0,0,0,29.887,50.75ZM28.513,66.8H40.89L35.064,89.266h-.725ZM52.355,29.887A3.21,3.21,0,0,1,49.4,33.071l.883-6.177A3.21,3.21,0,0,1,52.355,29.887Zm-33.23-2.993.883,6.177a3.194,3.194,0,0,1-.883-6.177ZM4.21,68.4a10.016,10.016,0,0,1,6.472-9.339l4.855-1.82L13.858,68.158a1.6,1.6,0,0,0,1.586,1.85h3.21v6.419a1.6,1.6,0,0,0,.2.78l6.7,12.059H4.21ZM43.849,89.266,47.6,82.511a27.2,27.2,0,0,0,3.6,6.755ZM73.218,97.29A24.073,24.073,0,1,1,97.29,73.218,24.072,24.072,0,0,1,73.218,97.29Z" transform="translate(0 0)" fill="#12263f"/>
      <path id="Trazado_247241" data-name="Trazado 247241" d="M64.614,36.39l-4.457,5.793H38.6a1.6,1.6,0,0,0-1.6,1.6V66.256a1.6,1.6,0,0,0,1.6,1.6H61.073a1.6,1.6,0,0,0,1.6-1.6V44.175l4.482-5.827ZM59.468,64.651H40.21V45.393H57.69L49.678,55.805l-3.521-3.531-2.269,2.269L48.7,59.358a1.6,1.6,0,0,0,1.136.478h.1a1.6,1.6,0,0,0,1.17-.623l8.356-10.866Z" transform="translate(21.774 21.405)" fill="#12263f"/>
    </g>
  </g>
</svg>
