<svg xmlns="http://www.w3.org/2000/svg" width="89.996" height="86.929" viewBox="0 0 89.996 86.929">
  <g id="Grupo_157659" data-name="Grupo 157659" transform="translate(992.539 5885.464)">
    <g id="Grupo_157649" data-name="Grupo 157649" transform="translate(-1324 -11304)">
      <rect id="Rectángulo_89822" data-name="Rectángulo 89822" width="76" height="71" transform="translate(334 5419)" fill="#fff"/>
      <rect id="Rectángulo_89823" data-name="Rectángulo 89823" width="76" height="8" transform="translate(334 5497)" fill="#fff"/>
      <g id="Layer_2" data-name="Layer 2" transform="translate(331.461 5418.536)">
        <g id="Layer_1" data-name="Layer 1">
          <path id="Trazado_247290" data-name="Trazado 247290" d="M4.45,12.985H66.534V4.81H4.45Z" transform="translate(3.894 4.209)" fill="#a7e446" fill-rule="evenodd"/>
          <path id="Trazado_247291" data-name="Trazado 247291" d="M4.45,50.865H40.076V17.47H4.45Z" transform="translate(3.894 15.287)" fill="#feca2e" fill-rule="evenodd"/>
          <path id="Trazado_247292" data-name="Trazado 247292" d="M76.559,71.253H2.813V2.813H76.559V33.751H79.39V1.406A1.425,1.425,0,0,0,77.965,0H1.406A1.425,1.425,0,0,0,0,1.406V72.659a1.406,1.406,0,0,0,1.406,1.406H77.965a1.406,1.406,0,0,0,1.425-1.406V67.878H76.559Z" fill="#12263f"/>
          <path id="Trazado_247293" data-name="Trazado 247293" d="M77.965,41.18H1.406A1.425,1.425,0,0,0,0,42.586v8.307H2.813v-6.9H76.559v6.9H79.39V42.586A1.425,1.425,0,0,0,77.965,41.18Z" transform="translate(0 36.035)" fill="#12263f"/>
          <path id="Trazado_247294" data-name="Trazado 247294" d="M64.673,44.968,55.3,35.592l6.038-3.75a1.463,1.463,0,0,0,.656-1.313,1.388,1.388,0,0,0-.863-1.181L30.434,16.223a1.388,1.388,0,0,0-1.538.3,1.35,1.35,0,0,0-.3,1.538L41.722,48.774a1.406,1.406,0,0,0,2.494.188l3.75-6.038L57.341,52.3a1.425,1.425,0,0,0,2.006,0l5.288-5.288a1.444,1.444,0,0,0,.037-2.044Zm-6.3,4.313L48.7,39.586a1.406,1.406,0,0,0-.994-.413h-.169a1.369,1.369,0,0,0-1.031.638l-3.281,5.25L32.515,20.1l25.07,10.8-5.25,3.281a1.425,1.425,0,0,0-.375,2.1l9.732,9.619Z" transform="translate(24.918 14.097)" fill="#0e2238"/>
          <rect id="Rectángulo_89821" data-name="Rectángulo 89821" width="35.626" height="2.813" transform="translate(8.344 24.095)" fill="#12263f"/>
        </g>
      </g>
    </g>
  </g>
</svg>
