<svg xmlns="http://www.w3.org/2000/svg" width="98.391" height="87.045" viewBox="0 0 98.391 87.045">
  <g id="Grupo_157661" data-name="Grupo 157661" transform="translate(1002.116 5494.022)">
    <g id="Grupo_157651" data-name="Grupo 157651" transform="translate(-1012.116 -5510.022)">
      <rect id="Rectángulo_89825" data-name="Rectángulo 89825" width="60.874" height="74.302" transform="translate(11 17)" fill="#fff"/>
      <path id="Rectángulo_89826" data-name="Rectángulo 89826" d="M0-1H60.874a1,1,0,0,1,1,1V74.3a1,1,0,0,1-1,1H0a1,1,0,0,1-1-1V0A1,1,0,0,1,0-1ZM59.874,1H1V73.3H59.874Z" transform="translate(11 17)" fill="#12263f"/>
      <path id="Trazado_247298" data-name="Trazado 247298" d="M31.742,44.533H22.79A1.8,1.8,0,0,1,21,42.742V33.79A1.8,1.8,0,0,1,22.79,32h8.952a1.8,1.8,0,0,1,1.79,1.79v8.952A1.8,1.8,0,0,1,31.742,44.533Z" transform="translate(-1.048 -1.572)" fill="#a7e446"/>
      <path id="Trazado_247299" data-name="Trazado 247299" d="M31.563,64.533H22.79A1.8,1.8,0,0,1,21,62.742V53.79A1.8,1.8,0,0,1,22.79,52h8.952a1.8,1.8,0,0,1,1.79,1.79v8.773A1.987,1.987,0,0,1,31.563,64.533Z" transform="translate(-1.048 -3.668)" fill="#a7e446"/>
      <path id="Trazado_247300" data-name="Trazado 247300" d="M31.742,85.533H22.79A1.8,1.8,0,0,1,21,83.742V74.79A1.8,1.8,0,0,1,22.79,73h8.952a1.8,1.8,0,0,1,1.79,1.79v8.952A1.8,1.8,0,0,1,31.742,85.533Z" transform="translate(-1.048 -5.868)" fill="#a7e446"/>
      <path id="Trazado_247301" data-name="Trazado 247301" d="M31.742,45.533H22.79A2.794,2.794,0,0,1,20,42.742V33.79A2.794,2.794,0,0,1,22.79,31h8.952a2.794,2.794,0,0,1,2.79,2.79v8.952A2.794,2.794,0,0,1,31.742,45.533ZM22.79,33a.791.791,0,0,0-.79.79v8.952a.791.791,0,0,0,.79.79h8.952a.791.791,0,0,0,.79-.79V33.79a.791.791,0,0,0-.79-.79Z" transform="translate(-1.048 -1.572)" fill="#12263f"/>
      <path id="Trazado_247302" data-name="Trazado 247302" d="M31.563,65.533H22.79A2.794,2.794,0,0,1,20,62.742V53.79A2.794,2.794,0,0,1,22.79,51h8.952a2.794,2.794,0,0,1,2.79,2.79v8.773a2.987,2.987,0,0,1-2.969,2.969ZM22.79,53a.791.791,0,0,0-.79.79v8.952a.791.791,0,0,0,.79.79h8.773a.982.982,0,0,0,.969-.969V53.79a.791.791,0,0,0-.79-.79Z" transform="translate(-1.048 -3.668)" fill="#12263f"/>
      <path id="Trazado_247303" data-name="Trazado 247303" d="M31.742,86.533H22.79A2.794,2.794,0,0,1,20,83.742V74.79A2.794,2.794,0,0,1,22.79,72h8.952a2.794,2.794,0,0,1,2.79,2.79v8.952A2.794,2.794,0,0,1,31.742,86.533ZM22.79,74a.791.791,0,0,0-.79.79v8.952a.791.791,0,0,0,.79.79h8.952a.791.791,0,0,0,.79-.79V74.79a.791.791,0,0,0-.79-.79Z" transform="translate(-1.048 -5.868)" fill="#12263f"/>
      <rect id="Rectángulo_89827" data-name="Rectángulo 89827" width="60.874" height="74.302" transform="translate(28.904 27.742)" fill="#fff"/>
      <path id="Rectángulo_89828" data-name="Rectángulo 89828" d="M0-1H60.874a1,1,0,0,1,1,1V74.3a1,1,0,0,1-1,1H0a1,1,0,0,1-1-1V0A1,1,0,0,1,0-1ZM59.874,1H1V73.3H59.874Z" transform="translate(28.904 27.742)" fill="#12263f"/>
      <path id="Línea_460" data-name="Línea 460" d="M10.742,1H0A1,1,0,0,1-1,0,1,1,0,0,1,0-1H10.742a1,1,0,0,1,1,1A1,1,0,0,1,10.742,1Z" transform="translate(57.551 49.227)" fill="#12263f"/>
      <path id="Línea_461" data-name="Línea 461" d="M21.485,1H0A1,1,0,0,1-1,0,1,1,0,0,1,0-1H21.485a1,1,0,0,1,1,1A1,1,0,0,1,21.485,1Z" transform="translate(57.551 44.751)" fill="#12263f"/>
      <path id="Trazado_247305" data-name="Trazado 247305" d="M52.742,56.533H43.79A1.8,1.8,0,0,1,42,54.742V45.79A1.8,1.8,0,0,1,43.79,44h8.952a1.8,1.8,0,0,1,1.79,1.79v8.952A1.8,1.8,0,0,1,52.742,56.533Z" transform="translate(-3.249 -2.829)" fill="#a7e446"/>
      <path id="Trazado_247306" data-name="Trazado 247306" d="M47.9,54.792a1,1,0,0,1-.681-.268l-2.6-2.417a1,1,0,1,1,1.363-1.464L47.865,52.4l4.42-4.5a1,1,0,1,1,1.426,1.4l-5.1,5.192A1,1,0,0,1,47.9,54.792Z" transform="translate(-3.594 -3.311)" fill="#12263f"/>
      <path id="Línea_462" data-name="Línea 462" d="M10.742,1H0A1,1,0,0,1-1,0,1,1,0,0,1,0-1H10.742a1,1,0,0,1,1,1A1,1,0,0,1,10.742,1Z" transform="translate(57.551 68.027)" fill="#242c88" opacity="0.2"/>
      <path id="Línea_463" data-name="Línea 463" d="M21.485,1H0A1,1,0,0,1-1,0,1,1,0,0,1,0-1H21.485a1,1,0,0,1,1,1A1,1,0,0,1,21.485,1Z" transform="translate(57.551 62.656)" fill="#12263f"/>
      <path id="Trazado_247307" data-name="Trazado 247307" d="M52.742,76.533H43.79A1.8,1.8,0,0,1,42,74.742V65.79A1.8,1.8,0,0,1,43.79,64h8.773a1.987,1.987,0,0,1,1.969,1.969v8.773A1.8,1.8,0,0,1,52.742,76.533Z" transform="translate(-3.249 -4.925)" fill="#a7e446"/>
      <path id="Trazado_247308" data-name="Trazado 247308" d="M47.9,75a1,1,0,0,1-.681-.268l-2.6-2.417a1,1,0,0,1,1.363-1.464l1.89,1.76,4.42-4.42a1,1,0,1,1,1.414,1.414l-5.1,5.1A1,1,0,0,1,47.9,75Z" transform="translate(-3.594 -5.439)" fill="#12263f"/>
      <path id="Línea_464" data-name="Línea 464" d="M10.742,1H0A1,1,0,0,1-1,0,1,1,0,0,1,0-1H10.742a1,1,0,0,1,1,1A1,1,0,0,1,10.742,1Z" transform="translate(57.551 85.931)" fill="#12263f"/>
      <path id="Línea_465" data-name="Línea 465" d="M21.485,1H0A1,1,0,0,1-1,0,1,1,0,0,1,0-1H21.485a1,1,0,0,1,1,1A1,1,0,0,1,21.485,1Z" transform="translate(57.551 81.455)" fill="#12263f"/>
      <path id="Trazado_247309" data-name="Trazado 247309" d="M52.742,96.533H43.79A1.8,1.8,0,0,1,42,94.742V85.79A1.8,1.8,0,0,1,43.79,84h8.952a1.8,1.8,0,0,1,1.79,1.79v8.952A1.8,1.8,0,0,1,52.742,96.533Z" transform="translate(-3.249 -7.021)" fill="#a7e446"/>
      <path id="Trazado_247310" data-name="Trazado 247310" d="M52.742,57.533H43.79A2.794,2.794,0,0,1,41,54.742V45.79A2.794,2.794,0,0,1,43.79,43h8.952a2.794,2.794,0,0,1,2.79,2.79v8.952A2.794,2.794,0,0,1,52.742,57.533ZM43.79,45a.791.791,0,0,0-.79.79v8.952a.791.791,0,0,0,.79.79h8.952a.791.791,0,0,0,.79-.79V45.79a.791.791,0,0,0-.79-.79Z" transform="translate(-3.249 -2.829)" fill="#12263f"/>
      <path id="Trazado_247311" data-name="Trazado 247311" d="M52.742,77.533H43.79A2.794,2.794,0,0,1,41,74.742V65.79A2.794,2.794,0,0,1,43.79,63h8.773a2.987,2.987,0,0,1,2.969,2.969v8.773A2.794,2.794,0,0,1,52.742,77.533ZM43.79,65a.791.791,0,0,0-.79.79v8.952a.791.791,0,0,0,.79.79h8.952a.791.791,0,0,0,.79-.79V65.969A.982.982,0,0,0,52.563,65Z" transform="translate(-3.249 -4.925)" fill="#12263f"/>
      <path id="Trazado_247312" data-name="Trazado 247312" d="M52.742,97.533H43.79A2.794,2.794,0,0,1,41,94.742V85.79A2.794,2.794,0,0,1,43.79,83h8.952a2.794,2.794,0,0,1,2.79,2.79v8.952A2.794,2.794,0,0,1,52.742,97.533ZM43.79,85a.791.791,0,0,0-.79.79v8.952a.791.791,0,0,0,.79.79h8.952a.791.791,0,0,0,.79-.79V85.79a.791.791,0,0,0-.79-.79Z" transform="translate(-3.249 -7.021)" fill="#12263f"/>
      <g id="Grupo_157091" data-name="Grupo 157091" transform="translate(49.583 28.66)">
        <path id="Trazado_247314" data-name="Trazado 247314" d="M105.4,48.759l-33.66,33.66L54.1,88.6,60.277,70.96,93.937,37.3Z" transform="translate(-54.1 -30.787)" fill="#dff7f9"/>
        <rect id="Rectángulo_89829" data-name="Rectángulo 89829" width="47.625" height="16.203" transform="translate(6.189 40.233) rotate(-45)" fill="#feca2e"/>
        <rect id="Rectángulo_89830" data-name="Rectángulo 89830" width="47.625" height="4.745" transform="translate(14.263 48.325) rotate(-45)" fill="#242c88" opacity="0.2"/>
        <path id="Trazado_247315" data-name="Trazado 247315" d="M56.786,86,54.1,93.52l7.52-2.686Z" transform="translate(-54.1 -35.891)" fill="#727997"/>
        <path id="Trazado_247316" data-name="Trazado 247316" d="M93.937,36.3a1,1,0,0,1,.707.293L106.1,48.052a1,1,0,0,1,0,1.414l-33.66,33.66a1,1,0,0,1-.377.237L54.431,89.539a1,1,0,0,1-1.274-1.274l6.177-17.636a1,1,0,0,1,.237-.377l33.66-33.66A1,1,0,0,1,93.937,36.3Zm10.044,12.459L93.937,38.714,61.145,71.506,55.731,86.965,71.19,81.55Z" transform="translate(-54.1 -30.787)" fill="#12263f"/>
        <path id="Trazado_247317" data-name="Trazado 247317" d="M110.059,48l5.371-5.371a3.73,3.73,0,0,0,0-5.371l-6.087-6.087a3.73,3.73,0,0,0-5.371,0L98.6,36.538Z" transform="translate(-58.763 -30.025)" fill="#fc4b52"/>
        <path id="Trazado_247318" data-name="Trazado 247318" d="M110.059,49a1,1,0,0,1-.707-.293L97.893,37.245a1,1,0,0,1,0-1.414l5.361-5.361a4.6,4.6,0,0,1,3.369-1.444,4.822,4.822,0,0,1,3.426,1.434l6.078,6.078a4.6,4.6,0,0,1,1.444,3.3,4.812,4.812,0,0,1-1.434,3.5L110.766,48.7A1,1,0,0,1,110.059,49ZM100.014,36.538l10.044,10.044,4.664-4.664a2.828,2.828,0,0,0,.848-2.053,2.617,2.617,0,0,0-.826-1.882l-.022-.021-6.087-6.087a2.835,2.835,0,0,0-2.012-.849,2.615,2.615,0,0,0-1.924.827l-.021.022Z" transform="translate(-58.763 -30.025)" fill="#12263f"/>
        <path id="Línea_466" data-name="Línea 466" d="M0,24.544a1,1,0,0,1-.707-.293,1,1,0,0,1,0-1.414L22.837-.707a1,1,0,0,1,1.414,0,1,1,0,0,1,0,1.414L.707,24.251A1,1,0,0,1,0,24.544Z" transform="translate(23.723 15.286)" fill="#12263f"/>
        <path id="Línea_467" data-name="Línea 467" d="M0,6.461a1,1,0,0,1-.707-.293,1,1,0,0,1,0-1.414L4.754-.707a1,1,0,0,1,1.414,0,1,1,0,0,1,0,1.414L.707,6.168A1,1,0,0,1,0,6.461Z" transform="translate(14.234 42.858)" fill="#12263f"/>
        <rect id="Rectángulo_89831" data-name="Rectángulo 89831" width="6.625" height="16.203" transform="translate(37.185 9.277) rotate(-45)" fill="#fff"/>
        <rect id="Rectángulo_89832" data-name="Rectángulo 89832" width="6.625" height="16.203" transform="translate(37.185 9.277) rotate(-45)" fill="#dff7f9" opacity="0.2"/>
        <path id="Rectángulo_89833" data-name="Rectángulo 89833" d="M0-1H6.625a1,1,0,0,1,1,1V16.2a1,1,0,0,1-1,1H0a1,1,0,0,1-1-1V0A1,1,0,0,1,0-1ZM5.625,1H1V15.2H5.625Z" transform="translate(37.185 9.277) rotate(-45)" fill="#12263f"/>
      </g>
    </g>
  </g>
</svg>
