<svg xmlns="http://www.w3.org/2000/svg" xmlns:xlink="http://www.w3.org/1999/xlink" width="122" height="122" viewBox="0 0 122 122">
  <defs>
    <clipPath id="clip-path">
      <circle id="Elipse_5552" data-name="Elipse 5552" cx="52.5" cy="52.5" r="52.5" transform="translate(748 1014)" fill="#a7e446"/>
    </clipPath>
  </defs>
  <g id="Grupo_146847" data-name="Grupo 146847" transform="translate(-740 -1405)">
    <g id="Elipse_5543" data-name="Elipse 5543" transform="translate(740 1405)" fill="#f5feff" stroke="#0082b2" stroke-width="2">
      <circle cx="61" cy="61" r="61" stroke="none"/>
      <circle cx="61" cy="61" r="60" fill="none"/>
    </g>
    <circle id="Elipse_5551" data-name="Elipse 5551" cx="43" cy="43" r="43" transform="translate(758 1423)" fill="#dff7f9"/>
    <g id="Grupo_157109" data-name="Grupo 157109" transform="translate(764.439 1429.637)">
      <g id="Grupo_157107" data-name="Grupo 157107" transform="translate(1.177 1.177)">
        <g id="Grupo_157094" data-name="Grupo 157094" transform="translate(16.484 37.677)">
          <path id="Trazado_247318" data-name="Trazado 247318" d="M31.484,47.129H15V35.355A2.354,2.354,0,0,1,17.355,33H29.129a2.354,2.354,0,0,1,2.355,2.355Z" transform="translate(-15 -33)" fill="#d3a06c"/>
        </g>
        <g id="Grupo_157095" data-name="Grupo 157095" transform="translate(7.065 51.806)">
          <path id="Trazado_247319" data-name="Trazado 247319" d="M14.065,63.839H7V45H21.2a2.412,2.412,0,0,0-2.425,2.425,7.516,7.516,0,0,0,1.26,4.18l.471.695c.2.294.4.589.636.883l-.012.012V63.839Z" transform="translate(-7 -45)" fill="#969faa"/>
        </g>
        <g id="Grupo_157096" data-name="Grupo 157096">
          <path id="Trazado_247320" data-name="Trazado 247320" d="M29.258,9.242a11.671,11.671,0,0,1-1.648,5.993,2.332,2.332,0,0,0-.706-.106H21.758a5.044,5.044,0,0,1-4.474-2.767,3.522,3.522,0,0,0-6.488.459l-.377,1.13L9.972,13.5a2.492,2.492,0,0,0-4.25,1.625H3.355a2.573,2.573,0,0,0-.742.118A9.907,9.907,0,0,1,1,9.819,8.814,8.814,0,0,1,9.819,1H20.11a4.545,4.545,0,0,1,4.3,3.1l.141.436,1.283.318a4.53,4.53,0,0,1,3.426,4.392Z" transform="translate(-1 -1)" fill="#656d78"/>
        </g>
        <g id="Grupo_157097" data-name="Grupo 157097" transform="translate(0 32.968)">
          <path id="Trazado_247321" data-name="Trazado 247321" d="M13.952,41.952v4.71a1.181,1.181,0,0,1-1.177,1.177H8.065A7.07,7.07,0,0,1,1,40.774v-1.86a9.412,9.412,0,0,1,7.371-9.2L11.6,29l.13.247a3.8,3.8,0,0,0,6.805,0l.13-.247,3.226.718a9.377,9.377,0,0,1,5.8,3.991H19.839a2.362,2.362,0,0,0-2.355,2.355v4.71H16.106a2.362,2.362,0,0,0-1.672.695Z" transform="translate(-1 -29)" fill="#a7e446"/>
        </g>
        <g id="Grupo_157098" data-name="Grupo 157098" transform="translate(21.194 37.677)">
          <path id="Trazado_247322" data-name="Trazado 247322" d="M26.065,33v4.71H19V33h7.065Z" transform="translate(-19 -33)" fill="#b27946"/>
        </g>
        <g id="Grupo_157099" data-name="Grupo 157099" transform="translate(58.871 56.516)">
          <path id="Trazado_247323" data-name="Trazado 247323" d="M53.355,49A2.362,2.362,0,0,0,51,51.355v9.419a2.362,2.362,0,0,0,2.355,2.355h9.419V49Z" transform="translate(-51 -49)" fill="#fc4b52"/>
        </g>
        <g id="Grupo_157100" data-name="Grupo 157100" transform="translate(40.032 18.839)">
          <circle id="Elipse_5694" data-name="Elipse 5694" cx="14" cy="14" r="14" transform="translate(0.29 0.484)" fill="#feca2e"/>
        </g>
        <g id="Grupo_157101" data-name="Grupo 157101" transform="translate(18.839 51.806)">
          <path id="Trazado_247324" data-name="Trazado 247324" d="M38.194,54.419a4.7,4.7,0,0,1-4.71-4.71,2.362,2.362,0,0,1,2.355-2.355H47.012a11.766,11.766,0,0,1,7.359,2.579l2.661,2.131v9.419l-3.78,1.507a11.6,11.6,0,0,1-4.38.848h-8.6A25.842,25.842,0,0,1,19.367,53.183c-.235-.294-.436-.589-.636-.883l-.471-.695A7.516,7.516,0,0,1,17,47.425,2.412,2.412,0,0,1,19.425,45a2.481,2.481,0,0,1,1.837.824l2.59,2.967a16.476,16.476,0,0,0,12.4,5.628h1.943Z" transform="translate(-17 -45)" fill="#f0d0b4"/>
        </g>
        <g id="Grupo_157102" data-name="Grupo 157102" transform="translate(11.774 44.742)">
          <path id="Trazado_247325" data-name="Trazado 247325" d="M19.242,41.355V43.71a2.362,2.362,0,0,1-2.355,2.355H11a1.181,1.181,0,0,0,1.177-1.177v-4.71l.483-.483A2.362,2.362,0,0,1,14.332,39h2.555A2.362,2.362,0,0,1,19.242,41.355Z" transform="translate(-11 -39)" fill="#f0d0b4"/>
        </g>
        <g id="Grupo_157103" data-name="Grupo 157103" transform="translate(30.613 44.742)">
          <path id="Trazado_247326" data-name="Trazado 247326" d="M31.71,41.355V43.71a2.362,2.362,0,0,1-2.355,2.355H28.177A1.181,1.181,0,0,1,27,44.887v-4.71A1.181,1.181,0,0,1,28.177,39h1.177A2.362,2.362,0,0,1,31.71,41.355Z" transform="translate(-27 -39)" fill="#f0d0b4"/>
        </g>
        <g id="Grupo_157104" data-name="Grupo 157104" transform="translate(23.548 14.129)">
          <path id="Trazado_247327" data-name="Trazado 247327" d="M24.061,13.118a2.346,2.346,0,0,1,1.648,2.237,2.372,2.372,0,0,1-2.355,2.355H21V13h2.355a2.332,2.332,0,0,1,.706.106Z" transform="translate(-21 -13)" fill="#f0d0b4"/>
        </g>
        <g id="Grupo_157105" data-name="Grupo 157105" transform="translate(4.71 9.419)">
          <path id="Trazado_247328" data-name="Trazado 247328" d="M23.839,18.419v2.4a8.24,8.24,0,0,1-4,7.065l-1.307.789a1.152,1.152,0,0,0-.577,1.013v2.861l-.13.247a3.8,3.8,0,0,1-6.805,0l-.13-.247V29.687a1.152,1.152,0,0,0-.577-1.013L9,27.886a8.24,8.24,0,0,1-4-7.065v-6.97a.573.573,0,0,1,.012-.141,2.492,2.492,0,0,1,4.25-1.625l.447.447.377-1.13a3.522,3.522,0,0,1,6.488-.459,5.044,5.044,0,0,0,4.474,2.767h2.79Z" transform="translate(-5 -9)" fill="#f0d0b4"/>
        </g>
        <g id="Grupo_157106" data-name="Grupo 157106" transform="translate(0 14.129)">
          <path id="Trazado_247329" data-name="Trazado 247329" d="M5.71,13.141V17.71H3.355A2.362,2.362,0,0,1,1,15.355a2.3,2.3,0,0,1,.695-1.66,2.26,2.26,0,0,1,.918-.577A2.573,2.573,0,0,1,3.355,13H5.721A.573.573,0,0,0,5.71,13.141Z" transform="translate(-1 -13)" fill="#f0d0b4"/>
        </g>
      </g>
      <g id="Grupo_157108" data-name="Grupo 157108">
        <path id="Trazado_247330" data-name="Trazado 247330" d="M62.4,56.516a3.53,3.53,0,0,0-2.931,1.564L58.122,57a13,13,0,0,0-8.091-2.839H38.855a3.537,3.537,0,0,0-3.532,3.532,5.845,5.845,0,0,0,.974,3.228A15.307,15.307,0,0,1,27.751,56l-1.607-1.838h8a3.537,3.537,0,0,0,3.532-3.532V48.274a3.527,3.527,0,0,0-2.355-3.316V41.21a3.537,3.537,0,0,0-3.532-3.532H28.464a10.534,10.534,0,0,0-6.15-3.966l-2.3-.511V31.279l1.314-.789A9.464,9.464,0,0,0,25.9,22.415V21.194h1.177a3.517,3.517,0,0,0,2.256-6.227,12.954,12.954,0,0,0,1.276-5.547,5.693,5.693,0,0,0-4.319-5.532l-.659-.165A5.7,5.7,0,0,0,20.287,0H9.99A10,10,0,0,0,0,9.99a11.121,11.121,0,0,0,1.217,5.024,3.518,3.518,0,0,0,2.315,6.179H4.71v1.22a9.469,9.469,0,0,0,4.573,8.078l1.314.788V33.2l-2.3.511A10.533,10.533,0,0,0,0,44.055v1.864a8.249,8.249,0,0,0,7.065,8.148V73H23.547V64.433A27.011,27.011,0,0,0,43.3,73h8.6a12.9,12.9,0,0,0,4.81-.927l2.559-1.023A3.525,3.525,0,0,0,62.4,73H73V56.516ZM35.323,50.629a1.179,1.179,0,0,1-1.177,1.177H32.968V47.1h1.177a1.179,1.179,0,0,1,1.177,1.177ZM32.968,41.21v3.532A2.357,2.357,0,0,0,30.613,47.1v4.71H22.154a3.493,3.493,0,0,0,.217-1.177V48.274a3.537,3.537,0,0,0-3.532-3.532V41.21a1.179,1.179,0,0,1,1.177-1.177h1.177v4.71h9.419v-4.71H31.79A1.179,1.179,0,0,1,32.968,41.21ZM15.306,47.584l.142-.142a1.188,1.188,0,0,1,.832-.345h2.557a1.179,1.179,0,0,1,1.177,1.177v2.355a1.179,1.179,0,0,1-1.177,1.177H15.306Zm12.952-7.552v2.355h-4.71V40.032ZM27.081,18.839H25.9V16.484h1.177a1.177,1.177,0,0,1,0,2.355ZM2.355,9.99A7.644,7.644,0,0,1,9.99,2.355h10.3a3.341,3.341,0,0,1,3.174,2.288L23.812,5.7l1.911.478a3.342,3.342,0,0,1,2.535,3.246,10.59,10.59,0,0,1-1.133,4.714c-.015,0-.029,0-.045,0H25.9a4.716,4.716,0,0,0-4.711-4.71v2.355a2.359,2.359,0,0,1,2.356,2.355H21.931a3.8,3.8,0,0,1-3.42-2.115,4.7,4.7,0,0,0-8.474.154,3.658,3.658,0,0,0-5.07,1.96H3.532c-.039,0-.075.011-.114.012A8.779,8.779,0,0,1,2.355,9.99Zm1.177,8.848a1.177,1.177,0,0,1,0-2.355H4.711v2.355Zm6.962,9.634a7.1,7.1,0,0,1-3.43-6.059V15.448a1.32,1.32,0,0,1,2.252-.934l1.792,1.793.98-2.934a2.34,2.34,0,0,1,4.313-.3,6.148,6.148,0,0,0,5.528,3.416H23.55v5.931a7.1,7.1,0,0,1-3.43,6.057L18.8,29.26a2.367,2.367,0,0,0-1.143,2.019v2.587a2.633,2.633,0,0,1-4.71,0V31.279a2.363,2.363,0,0,0-1.144-2.018ZM2.355,45.919V44.055A8.192,8.192,0,0,1,8.808,36.01l2.369-.526a4.983,4.983,0,0,0,8.258,0l2.369.526a8.209,8.209,0,0,1,3.429,1.667H20.016a3.537,3.537,0,0,0-3.532,3.532v3.532h-.2a3.5,3.5,0,0,0-1.853.536,2.331,2.331,0,0,0-1.476-.536H9.419V43.675a5.139,5.139,0,0,0-2.856-4.621l-.15-.074L5.36,41.086l.15.074a2.8,2.8,0,0,1,1.555,2.515v1.757l-2.01,2.01L6.72,49.107l2.01-2.01h4.222v4.71H8.242A5.894,5.894,0,0,1,2.355,45.919ZM21.192,70.645H16.484V60.536l.832-.832-1.665-1.665-1.522,1.522V70.645H9.419V54.161h9.656a3.571,3.571,0,0,0-.237,1.252,8.687,8.687,0,0,0,1.462,4.83l.465.7c.137.2.285.4.426.6Zm34.637-.758a10.558,10.558,0,0,1-3.936.758H43.3a24.679,24.679,0,0,1-20.574-11.01l-.465-.7a6.338,6.338,0,0,1-1.066-3.524,1.252,1.252,0,0,1,2.194-.824l2.59,2.961A17.667,17.667,0,0,0,39.27,63.581H47.1V61.226H41.21a3.537,3.537,0,0,1-3.532-3.532,1.179,1.179,0,0,1,1.177-1.177H50.031a10.642,10.642,0,0,1,6.619,2.322l2.221,1.777v8.056Zm5.4-.419V60.048A1.179,1.179,0,0,1,62.4,58.871h3.532V70.645H62.4A1.179,1.179,0,0,1,61.226,69.468Zm9.419,1.177H68.29V58.871h2.355Z" fill="#12263f"/>
        <path id="Trazado_247331" data-name="Trazado 247331" d="M12.606,20.941l1.3-.651a2.359,2.359,0,0,0,1.053-3.159l-.526-1.054V14H12.079v2.355a1.18,1.18,0,0,0,.124.526l.651,1.3-1.3.651Z" transform="translate(2.05 2.484)" fill="#12263f"/>
        <path id="Trazado_247332" data-name="Trazado 247332" d="M17.879,23.084,16.465,21.2a4.784,4.784,0,0,1-5.65,0L9.4,23.084a7.068,7.068,0,0,0,8.48,0Z" transform="translate(1.668 3.761)" fill="#12263f"/>
        <path id="Trazado_247333" data-name="Trazado 247333" d="M49.065,36.484H46.71a2.357,2.357,0,0,1-2.355-2.355H42a4.714,4.714,0,0,0,4.71,4.71v2.355h2.355V38.839a4.71,4.71,0,0,0,0-9.419H46.71a2.355,2.355,0,1,1,0-4.71h2.355a2.357,2.357,0,0,1,2.355,2.355h2.355a4.714,4.714,0,0,0-4.71-4.71V20H46.71v2.355a4.71,4.71,0,1,0,0,9.419h2.355a2.355,2.355,0,0,1,0,4.71Z" transform="translate(7.452 3.548)" fill="#12263f"/>
        <path id="Trazado_247334" data-name="Trazado 247334" d="M49.306,46.613A15.306,15.306,0,1,0,34,31.306,15.324,15.324,0,0,0,49.306,46.613Zm0-28.258A12.952,12.952,0,1,1,36.355,31.306,12.967,12.967,0,0,1,49.306,18.355Z" transform="translate(6.032 2.839)" fill="#12263f"/>
      </g>
    </g>
  </g>
</svg>
