<svg xmlns="http://www.w3.org/2000/svg" xmlns:xlink="http://www.w3.org/1999/xlink" width="122" height="122" viewBox="0 0 122 122">
  <defs>
    <clipPath id="clip-path">
      <circle id="Elipse_5552" data-name="Elipse 5552" cx="52.5" cy="52.5" r="52.5" transform="translate(748 1014)" fill="#a7e446"/>
    </clipPath>
  </defs>
  <g id="Grupo_146847" data-name="Grupo 146847" transform="translate(-740 -1405)">
    <g id="Elipse_5543" data-name="Elipse 5543" transform="translate(740 1405)" fill="#f5feff" stroke="#0082b2" stroke-width="2">
      <circle cx="61" cy="61" r="61" stroke="none"/>
      <circle cx="61" cy="61" r="60" fill="none"/>
    </g>
    <circle id="Elipse_5551" data-name="Elipse 5551" cx="43" cy="43" r="43" transform="translate(758 1423)" fill="#dff7f9"/>
    <g id="Grupo_157068" data-name="Grupo 157068" transform="translate(744.448 1413.504)">
      <path id="Trazado_247247" data-name="Trazado 247247" d="M58.669,119.162l-.129.248h50.015l-.129-.248A23.433,23.433,0,0,0,87.6,106.54H79.5A23.433,23.433,0,0,0,58.669,119.162Z" transform="translate(-26.384 -65.343)" fill="#a7e446"/>
      <path id="Trazado_247248" data-name="Trazado 247248" d="M98.6,148.35H38.56A2.723,2.723,0,0,0,35.9,151.6l4.619,23.6a2.723,2.723,0,0,0,2.672,2.2H93.984a2.723,2.723,0,0,0,2.672-2.2l4.6-23.6A2.723,2.723,0,0,0,98.6,148.35Z" transform="translate(-11.418 -92.921)" fill="#fc4b52"/>
      <path id="Trazado_247249" data-name="Trazado 247249" d="M103.643,42.806h0a15.454,15.454,0,1,0-3.169,0Z" transform="translate(-44.895 -2.971)" fill="#a7e446"/>
      <path id="Trazado_247250" data-name="Trazado 247250" d="M158.13,119.162A23.433,23.433,0,0,0,137.3,106.54h-3.4a23.433,23.433,0,0,1,20.826,12.622l.129.248h3.4Z" transform="translate(-76.091 -65.343)" fill="#e4ebed"/>
      <path id="Trazado_247251" data-name="Trazado 247251" d="M204.643,148.35h-3.4a2.723,2.723,0,0,1,2.672,3.247L199.292,175.2a2.723,2.723,0,0,1-2.672,2.2h3.4a2.723,2.723,0,0,0,2.672-2.2L207.3,151.6a2.723,2.723,0,0,0-2.659-3.247Z" transform="translate(-117.462 -92.921)" fill="#feca2e"/>
      <path id="Trazado_247252" data-name="Trazado 247252" d="M128.7,12a15.536,15.536,0,0,0-1.7.1A15.447,15.447,0,0,1,127,42.8h3.292A15.451,15.451,0,0,0,128.7,12Z" transform="translate(-71.54 -2.985)" fill="#e4ebed"/>
      <path id="Trazado_247253" data-name="Trazado 247253" d="M34.937,53.9h-3.4a4.255,4.255,0,0,0-4.177,5.072l4.629,23.607a4.265,4.265,0,0,0,4.177,3.438h50.8a4.262,4.262,0,0,0,4.177-3.438l4.619-23.6A4.255,4.255,0,0,0,91.587,53.9h-3.4A25.091,25.091,0,0,0,68.712,39.862a16.983,16.983,0,1,0-14.3,0A25.088,25.088,0,0,0,34.937,53.9Zm56.646,1.7a2.553,2.553,0,0,1,2.505,3.043L89.476,82.249a2.556,2.556,0,0,1-2.505,2.063H36.159a2.557,2.557,0,0,1-2.509-2.063L29.038,58.642A2.553,2.553,0,0,1,31.543,55.6h60.04Zm-45.3-31.133A15.281,15.281,0,1,1,63.139,39.651H59.987a15.318,15.318,0,0,1-13.7-15.185Zm11.233,16.9h8.1A23.375,23.375,0,0,1,86.29,53.9H36.837A23.375,23.375,0,0,1,57.513,41.353Z" transform="translate(-5.763 0)" fill="#12263f"/>
      <path id="Trazado_247254" data-name="Trazado 247254" d="M94.319,243.5H26a.851.851,0,1,0,0,1.7H94.319a.851.851,0,1,0,0-1.7Z" transform="translate(-4.36 -155.682)" fill="#263238"/>
      <path id="Trazado_247255" data-name="Trazado 247255" d="M74.852,11.53v1.362H73.49a.34.34,0,0,0,0,.681h1.362v1.362a.34.34,0,1,0,.681,0V13.573h1.362a.34.34,0,0,0,0-.681H75.533V11.53a.34.34,0,1,0-.681,0Z" transform="translate(-36.021 -2.45)" fill="#fd0"/>
      <path id="Trazado_247256" data-name="Trazado 247256" d="M222.7,117.73v1.362H221.34a.34.34,0,0,0,0,.681H222.7v1.362a.34.34,0,1,0,.681,0v-1.362h1.362a.34.34,0,1,0,0-.681h-1.362V117.73a.34.34,0,1,0-.681,0Z" transform="translate(-133.543 -72.5)" fill="#fd0"/>
      <path id="Trazado_247257" data-name="Trazado 247257" d="M39.7,100.88v1.362H38.34a.34.34,0,1,0,0,.681H39.7v1.362a.34.34,0,0,0,.681,0v-1.362h1.362a.34.34,0,1,0,0-.681H40.383V100.88a.34.34,0,1,0-.681,0Z" transform="translate(-12.836 -61.386)" fill="#fd0"/>
      <path id="Trazado_247258" data-name="Trazado 247258" d="M22.625,44.042A2.042,2.042,0,1,1,20.582,42,2.042,2.042,0,0,1,22.625,44.042Zm-3.4,0a1.362,1.362,0,1,0,1.362-1.362A1.362,1.362,0,0,0,19.221,44.042Z" transform="translate(0 -22.773)" fill="#40bdff"/>
      <path id="Trazado_247259" data-name="Trazado 247259" d="M231.025,193.332a2.042,2.042,0,1,1-2.042-2.042A2.042,2.042,0,0,1,231.025,193.332Zm-3.4,0a1.362,1.362,0,1,0,1.362-1.362A1.362,1.362,0,0,0,227.621,193.332Z" transform="translate(-137.461 -121.244)" fill="#40bdff"/>
    </g>
  </g>
</svg>
