<svg xmlns="http://www.w3.org/2000/svg" width="122" height="122" viewBox="0 0 122 122">
  <g id="Grupo_146846" data-name="Grupo 146846" transform="translate(-388 -1405)">
    <g id="Elipse_5542" data-name="Elipse 5542" transform="translate(388 1405)" fill="#f5feff" stroke="#0082b2" stroke-width="2">
      <circle cx="61" cy="61" r="61" stroke="none"/>
      <circle cx="61" cy="61" r="60" fill="none"/>
    </g>
    <circle id="Elipse_5683" data-name="Elipse 5683" cx="43" cy="43" r="43" transform="translate(406.172 1423)" fill="#dff7f9"/>
    <g id="Grupo_157067" data-name="Grupo 157067" transform="translate(405.539 1427.979)">
      <g id="Layer_4" data-name="Layer 4" transform="translate(0 1)">
        <path id="Trazado_247244" data-name="Trazado 247244" d="M19.915,17A10.915,10.915,0,1,0,30.83,27.915,10.915,10.915,0,0,0,19.915,17Zm0,14.553a3.638,3.638,0,1,1,3.638-3.638A3.638,3.638,0,0,1,19.915,31.553Z" transform="translate(23.746 41.212)" fill="#12263f"/>
        <path id="Trazado_247245" data-name="Trazado 247245" d="M58.121,16.713a43.568,43.568,0,0,0-49.5,0A10.92,10.92,0,0,0,21.025,34.686a22.193,22.193,0,0,1,24.718,0A11.2,11.2,0,0,0,60.926,31.9,10.915,10.915,0,0,0,58.121,16.713Zm-3.2,11.049a3.722,3.722,0,0,1-5.061.931,30.142,30.142,0,0,0-6.95-3.443,29.451,29.451,0,0,0-26.035,3.443,3.576,3.576,0,0,1-2.714.582,3.638,3.638,0,0,1-2.911-4.239A3.573,3.573,0,0,1,12.762,22.7,36.284,36.284,0,0,1,54,22.7a3.638,3.638,0,0,1,.928,5.057Z" transform="translate(10.28 20.106)" fill="#12263f"/>
        <path id="Trazado_247246" data-name="Trazado 247246" d="M82.186,12.046a72.707,72.707,0,0,0-77.051,0A10.915,10.915,0,1,0,16.7,30.561a50.877,50.877,0,0,1,53.922,0A10.915,10.915,0,0,0,76.4,32.22h0a10.915,10.915,0,0,0,5.785-20.174Zm-2.7,11.18a3.7,3.7,0,0,1-5.014,1.161,58.165,58.165,0,0,0-61.636,0,3.637,3.637,0,0,1-3.853-6.17,65.445,65.445,0,0,1,69.345,0,3.638,3.638,0,0,1,1.157,5.01Z" transform="translate(0 -1)" fill="#12263f"/>
        <path id="Trazado_247260" data-name="Trazado 247260" d="M49.282,30.338A7.218,7.218,0,0,1,45.16,29.05a25.788,25.788,0,0,0-28.851,0A7.276,7.276,0,1,1,8.049,17.069a39.93,39.93,0,0,1,45.369,0,7.277,7.277,0,0,1-4.137,13.269Z" transform="translate(12.934 22.743)" fill="#feca2e"/>
      </g>
      <path id="Trazado_247261" data-name="Trazado 247261" d="M73.77,25.943a7.247,7.247,0,0,1-3.849-1.091,54.53,54.53,0,0,0-57.775,0,7.286,7.286,0,0,1-7.72-12.359,69.083,69.083,0,0,1,73.2,0A7.277,7.277,0,0,1,73.77,25.943Z" transform="translate(2.634 2.639)" fill="#a7e446"/>
      <circle id="Elipse_5684" data-name="Elipse 5684" cx="7.427" cy="7.427" r="7.427" transform="translate(36.397 63.006)" fill="#fc4b52"/>
    </g>
  </g>
</svg>
