<svg xmlns="http://www.w3.org/2000/svg" xmlns:xlink="http://www.w3.org/1999/xlink" width="190" height="244.648" viewBox="0 0 190 244.648">
  <defs>
    <clipPath id="clip-path">
      <rect id="Rectángulo_89851" data-name="Rectángulo 89851" width="7.921" height="3.406" fill="none"/>
    </clipPath>
    <clipPath id="clip-path-2">
      <rect id="Rectángulo_89853" data-name="Rectángulo 89853" width="9.015" height="6.359" fill="none"/>
    </clipPath>
    <clipPath id="clip-path-3">
      <rect id="Rectángulo_89854" data-name="Rectángulo 89854" width="9.162" height="3.324" fill="none"/>
    </clipPath>
    <clipPath id="clip-path-4">
      <rect id="Rectángulo_89855" data-name="Rectángulo 89855" width="3.226" height="6.456" fill="none"/>
    </clipPath>
    <clipPath id="clip-path-5">
      <rect id="Rectángulo_89856" data-name="Rectángulo 89856" width="38.544" height="38.253" fill="none"/>
    </clipPath>
  </defs>
  <g id="Grupo_157149" data-name="Grupo 157149" transform="translate(0 50.178)">
    <g id="Grupo_157150" data-name="Grupo 157150">
      <rect id="Rectángulo_89845" data-name="Rectángulo 89845" width="29.057" height="7.677" transform="translate(62.834 11.78)" fill="#feca2e"/>
      <g id="Grupo_157147" data-name="Grupo 157147">
        <g id="Grupo_157151" data-name="Grupo 157151">
          <path id="Trazado_247366" data-name="Trazado 247366" d="M144.444,52.951a.9.9,0,0,1-.009-.139c0-.1-.005-.232-.009-.394q-.008-.542-.022-1.511c-.012-1.325-.028-3.231-.05-5.633l.09.09-29.055.058c.066-.066-.149.148.147-.148v.984q0,.491,0,.979,0,.976,0,1.938,0,1.922,0,3.776l-.144-.145,20.707.066,6.112.041,1.652.019.433.01a1.087,1.087,0,0,1,.153.009.678.678,0,0,1-.135.009l-.415.01-1.621.019-6.079.041-20.807.066h-.145v-.145q0-1.852,0-3.776,0-.961,0-1.938V45.273c.3-.3.083-.082.15-.148l29.055.058h.091v.09c-.021,2.425-.038,4.348-.05,5.687q-.014.955-.022,1.49c0,.155-.007.28-.01.378a.539.539,0,0,1-.009.122" transform="translate(-64.839 -25.407)" fill="#feca2e"/>
          <rect id="Rectángulo_89846" data-name="Rectángulo 89846" width="50.394" height="52.465" transform="translate(6.7 -40.711)" fill="#a7e446"/>
          <rect id="Rectángulo_89847" data-name="Rectángulo 89847" width="50.393" height="52.465" transform="translate(3.287 -40.711)" fill="#f2fbe3"/>
          <path id="Trazado_247367" data-name="Trazado 247367" d="M57.9,52.5H7.48V0H57.9ZM7.511,52.464H57.873V.031H7.511Z" transform="translate(-4.209)" fill="#e0e0e0"/>
          <rect id="Rectángulo_89848" data-name="Rectángulo 89848" width="36.845" height="38.359" transform="translate(10.061 -33.658)" fill="#fff"/>
          <path id="Trazado_247368" data-name="Trazado 247368" d="M14.353,104.582a6.05,6.05,0,0,1-.909,1.056c-.588.62-1.415,1.459-2.342,2.371s-1.779,1.724-2.407,2.3a5.875,5.875,0,0,1-1.065.886,5.9,5.9,0,0,1,.9-1.051c.589-.62,1.417-1.462,2.347-2.376s1.783-1.729,2.412-2.305a5.753,5.753,0,0,1,1.06-.881" transform="translate(-4.292 -99.626)" fill="#a7e446"/>
          <path id="Trazado_247493" data-name="Trazado 247493" d="M7.629,104.582a6.051,6.051,0,0,0,.909,1.056c.588.62,1.415,1.459,2.342,2.372s1.779,1.725,2.407,2.3a5.875,5.875,0,0,0,1.065.886,5.9,5.9,0,0,0-.9-1.051c-.589-.62-1.417-1.462-2.347-2.376s-1.783-1.729-2.412-2.306a5.754,5.754,0,0,0-1.06-.882" transform="translate(39.176 -99.626)" fill="#a7e446"/>
          <path id="Trazado_247369" data-name="Trazado 247369" d="M107.248,104.367a6.012,6.012,0,0,1,1.057.908c.621.588,1.462,1.413,2.374,2.339s1.727,1.777,2.3,2.4a5.9,5.9,0,0,1,.887,1.063,5.835,5.835,0,0,1-1.053-.9c-.621-.588-1.463-1.416-2.379-2.344s-1.731-1.781-2.308-2.409a5.772,5.772,0,0,1-.883-1.059" transform="translate(-60.342 -58.779)" fill="#e0e0e0"/>
          <path id="Trazado_247370" data-name="Trazado 247370" d="M107.019,7.885a6.008,6.008,0,0,1,.909-1.056c.588-.62,1.415-1.46,2.342-2.371s1.779-1.724,2.407-2.3a5.841,5.841,0,0,1,1.065-.885,5.9,5.9,0,0,1-.9,1.051c-.588.62-1.417,1.461-2.347,2.376S108.707,6.427,108.079,7a5.776,5.776,0,0,1-1.06.881" transform="translate(-60.213 -41.441)" fill="#a7e446"/>
          <path id="Trazado_247371" data-name="Trazado 247371" d="M14.252,7.972a6.012,6.012,0,0,1-1.057-.908c-.621-.587-1.461-1.413-2.374-2.339s-1.726-1.776-2.3-2.4a5.872,5.872,0,0,1-.887-1.063,5.829,5.829,0,0,1,1.053.9c.621.587,1.463,1.416,2.378,2.344s1.731,1.781,2.308,2.409a5.744,5.744,0,0,1,.883,1.058" transform="translate(-4.291 -41.434)" fill="#a7e446"/>
          <path id="Trazado_247372" data-name="Trazado 247372" d="M59.539,54.331a1.806,1.806,0,0,1-.008-.187c0-.131,0-.307-.008-.535,0-.481-.009-1.173-.017-2.071-.008-1.817-.021-4.461-.037-7.818C59.452,37,59.427,27.432,59.4,15.972l.142.142-36.74.021h0l.163-.163c-.009,14.079-.017,27.251-.023,38.359l-.14-.14,26.6.072,7.473.036,1.977.016.511.008a1.647,1.647,0,0,1,.178.008,1.177,1.177,0,0,1-.162.008l-.5.008-1.95.016L49.49,54.4,22.8,54.471h-.14v-.14c-.007-11.108-.014-24.28-.023-38.359v-.163H22.8l36.74.021h.143v.142c-.03,11.5-.055,21.1-.072,27.84-.016,3.343-.029,5.976-.037,7.785q-.011,1.33-.017,2.044c0,.221-.006.393-.008.52a1.3,1.3,0,0,1-.008.17" transform="translate(-12.734 -49.63)" fill="#a7e446"/>
          <rect id="Rectángulo_89849" data-name="Rectángulo 89849" width="12.295" height="12.279" transform="translate(22.336 -20.618)" fill="#c6ed87"/>
          <path id="Trazado_247373" data-name="Trazado 247373" d="M41.688,141.587l7.637-1.738,2.142,15.311-5.1,1.161Zm6.27,22.661a3.425,3.425,0,0,1-1.655-2.268,3.3,3.3,0,0,1,.512-2.744,4.072,4.072,0,0,1,2.548-1.609,4.013,4.013,0,0,1,2.977.352,3.33,3.33,0,0,1,1.634,2.256,3.421,3.421,0,0,1-.508,2.76,3.906,3.906,0,0,1-2.5,1.652,3.953,3.953,0,0,1-3.006-.4" transform="translate(-23.456 -78.763)" fill="#feca2e"/>
          <path id="Trazado_247374" data-name="Trazado 247374" d="M3.115,149.89a2.525,2.525,0,0,1,1.872.875,2.427,2.427,0,0,1,.645,1.95,2.987,2.987,0,0,1-1.071,1.94,2.951,2.951,0,0,1-2.044.829,2.457,2.457,0,0,1-1.855-.875,2.519,2.519,0,0,1-.653-1.959A2.868,2.868,0,0,1,1.036,150.7a2.906,2.906,0,0,1,2.08-.808m12.093,12.385L10.9,166.1l-6.82-9.11,2.877-2.557Z" transform="translate(0 -84.417)" fill="#feca2e"/>
          <rect id="Rectángulo_89850" data-name="Rectángulo 89850" width="29.057" height="7.677" transform="translate(149.929 59.184)" fill="#feca2e"/>
          <path id="Trazado_247375" data-name="Trazado 247375" d="M368.769,277.741a.9.9,0,0,1-.009-.139c0-.1-.005-.232-.009-.394q-.008-.542-.022-1.511c-.012-1.325-.028-3.231-.05-5.633l.09.09-29.055.058c.066-.066-.149.148.147-.148v.984q0,.491,0,.979,0,.976,0,1.938,0,1.922,0,3.776l-.144-.145,20.707.065,6.112.042,1.652.019.433.01a1.081,1.081,0,0,1,.153.009.678.678,0,0,1-.135.009l-.414.01-1.622.019-6.079.041-20.807.066h-.145v-.145q0-1.852,0-3.776,0-.961,0-1.938v-1.963c.3-.3.083-.082.15-.148l29.055.058h.091v.09c-.021,2.425-.038,4.348-.05,5.687q-.014.955-.022,1.49c0,.155-.007.28-.009.378a.551.551,0,0,1-.009.122" transform="translate(-202.07 -202.793)" fill="#feca2e"/>
          <path id="Trazado_247376" data-name="Trazado 247376" d="M344.994,30.167a.927.927,0,0,1-.009-.139c0-.1-.005-.232-.009-.394q-.008-.542-.022-1.511c-.012-1.325-.029-3.231-.05-5.633l.09.09-29.055.058c.066-.066-.149.148.147-.148v.984q0,.491,0,.979,0,.976,0,1.938,0,1.922,0,3.776l-.145-.145,20.707.066,6.112.041,1.652.019.433.01a1.075,1.075,0,0,1,.153.009.674.674,0,0,1-.134.009l-.415.01-1.622.019-6.078.042-20.808.066h-.145v-.145q0-1.852,0-3.776,0-.961,0-1.938V22.489c.3-.3.083-.082.15-.148l29.055.058h.091v.09c-.021,2.425-.038,4.349-.05,5.687q-.014.956-.022,1.49c0,.156-.007.28-.009.378a.543.543,0,0,1-.009.122" transform="translate(-177.679 -64.809)" fill="#feca2e"/>
          <path id="Trazado_247377" data-name="Trazado 247377" d="M368.92,12.566a.86.86,0,0,1-.011-.146c0-.11-.007-.244-.012-.407q-.01-.567-.026-1.539c-.014-1.346-.034-3.247-.057-5.585L368.92,5l-17.457.041c-.133.132.179-.18.147-.147v1q0,.5,0,1,0,.99,0,1.954c0,1.284,0,2.53-.005,3.722l-.141-.141,12.489.067,3.638.039.981.017a3.065,3.065,0,0,1,.351.017,2.11,2.11,0,0,1-.317.017l-.952.017-3.606.039-12.584.067h-.141v-.142c0-1.193,0-2.438-.005-3.722q0-.964,0-1.954,0-.495,0-1v-1c-.033.031.281-.281.149-.149l17.457.041h.108v.106c-.024,2.365-.043,4.288-.057,5.65q-.016.957-.026,1.515a4.406,4.406,0,0,1-.023.512" transform="translate(-197.665 -54.886)" fill="#feca2e"/>
          <path id="Trazado_247378" data-name="Trazado 247378" d="M250.278,375.64a.878.878,0,0,1-.009-.139c0-.1-.006-.232-.01-.394q-.008-.542-.022-1.511c-.012-1.325-.029-3.231-.05-5.633l.09.09-29.055.058c.066-.066-.149.148.146-.148v.984q0,.491,0,.979,0,.976,0,1.938,0,1.922,0,3.776l-.145-.145,20.707.066,6.112.042,1.652.019.433.01a1.069,1.069,0,0,1,.153.009.68.68,0,0,1-.134.009l-.415.01-1.622.019-6.079.041-20.808.066h-.145v-.145q0-1.852,0-3.776,0-.961,0-1.938v-1.963c.3-.3.083-.082.15-.148l29.055.058h.091v.09c-.021,2.425-.038,4.349-.05,5.687q-.014.956-.022,1.49c0,.156-.007.28-.009.378a.551.551,0,0,1-.009.122" transform="translate(-120.057 -265.266)" fill="#feca2e"/>
          <path id="Trazado_247379" data-name="Trazado 247379" d="M274.2,358.038a.856.856,0,0,1-.011-.146c0-.11-.007-.244-.012-.407q-.01-.567-.026-1.539c-.014-1.346-.034-3.247-.057-5.585l.106.106-17.457.042.147-.147v1q0,.5,0,1,0,.99,0,1.954c0,1.284,0,2.529-.005,3.722l-.141-.141,12.489.067,3.638.039.981.017a3.044,3.044,0,0,1,.351.018,2.119,2.119,0,0,1-.317.017l-.952.017-3.606.039-12.584.067H256.6v-.141c0-1.193,0-2.438-.005-3.722q0-.964,0-1.954,0-.495,0-1v-1c-.033.031.281-.28.149-.148l17.457.042h.108v.106c-.024,2.365-.043,4.288-.057,5.65q-.016.957-.026,1.515a4.425,4.425,0,0,1-.023.512" transform="translate(-140.043 -255.342)" fill="#feca2e"/>
          <path id="Trazado_247380" data-name="Trazado 247380" d="M198.639,444.81c0,.063-38.789.114-86.625.114-47.853,0-86.633-.051-86.633-.114s38.78-.114,86.633-.114c47.837,0,86.625.051,86.625.114" transform="translate(-14.28 -250.453)" fill="#12263f"/>
          <path id="Trazado_247381" data-name="Trazado 247381" d="M378.153,330.025a4.856,4.856,0,0,1,.34,2.12,7.058,7.058,0,0,1,.964-2.4c.174-.273.45-.568.764-.488s.416.475.428.8a5.2,5.2,0,0,1-.587,2.582,5.761,5.761,0,0,1,2.187-1.692.52.52,0,0,1,.474-.037c.164.1.168.336.141.527a4.423,4.423,0,0,1-2.688,3.412l-.462.067a4.116,4.116,0,0,1-2.956-4.728c.071-.382.289-.827.679-.834.349-.007.586.348.716.672" transform="translate(-239.622 -200.889)" fill="#fc4b52"/>
          <path id="Trazado_247382" data-name="Trazado 247382" d="M375.157,354.249a13.326,13.326,0,0,0-4.4-1.772,18.051,18.051,0,0,0,.125-9.715,9.3,9.3,0,0,0-1.643-3.5,4.778,4.778,0,0,0-3.306-1.843,4.646,4.646,0,0,0-3.672,1.7l-1.624,3.752a14.489,14.489,0,0,0-.195,1.648,19.782,19.782,0,0,0,2.372,10.494,11.01,11.01,0,0,0-2.973,8.8h19.288a10.651,10.651,0,0,0-3.971-9.57" transform="translate(-226.243 -204.4)" fill="#a7e446"/>
          <path id="Trazado_247383" data-name="Trazado 247383" d="M359.72,367.606c-.008-.006.042-.078.146-.209a5.757,5.757,0,0,1,.477-.554,8.935,8.935,0,0,1,2.139-1.633,10.111,10.111,0,0,1,3.8-1.213,9.216,9.216,0,0,1,8.649,3.724,10.081,10.081,0,0,1,1.729,3.6,8.894,8.894,0,0,1,.28,2.673,5.8,5.8,0,0,1-.075.727.808.808,0,0,1-.053.249,11.719,11.719,0,0,0-.352-3.6,10.2,10.2,0,0,0-1.744-3.486,9.092,9.092,0,0,0-8.405-3.618,10.2,10.2,0,0,0-3.734,1.127,11.756,11.756,0,0,0-2.861,2.214" transform="translate(-224.011 -215.791)" fill="#12263f"/>
          <path id="Trazado_247384" data-name="Trazado 247384" d="M387.124,346.545a4.784,4.784,0,0,1-.035-1.277,11.1,11.1,0,0,1,.52-3.047,6.27,6.27,0,0,1,1.651-2.623,2.639,2.639,0,0,1,1.087-.685c.026.044-.406.278-.943.833a6.886,6.886,0,0,0-1.517,2.569,14.046,14.046,0,0,0-.591,2.969,6.567,6.567,0,0,1-.172,1.261" transform="translate(-253.026 -205.042)" fill="#12263f"/>
          <path id="Trazado_247385" data-name="Trazado 247385" d="M366.774,376.681a76.456,76.456,0,0,1,3.664-3.617,13.418,13.418,0,0,1-3.664,3.617" transform="translate(-221.524 -219.713)" fill="#12263f"/>
          <path id="Trazado_247386" data-name="Trazado 247386" d="M375.346,374.614a12.788,12.788,0,0,1,.911-3.753,12.782,12.782,0,0,1-.911,3.753" transform="translate(-232.246 -218.768)" fill="#12263f"/>
          <path id="Trazado_247387" data-name="Trazado 247387" d="M384.012,373.69A7.591,7.591,0,0,1,385.7,377.4a150.888,150.888,0,0,1-1.687-3.713" transform="translate(-246.639 -219.983)" fill="#12263f"/>
          <path id="Trazado_247388" data-name="Trazado 247388" d="M371.158,355.089A19,19,0,0,1,374,351.334a19.057,19.057,0,0,1-2.843,3.755" transform="translate(-227.591 -210.379)" fill="#12263f"/>
          <path id="Trazado_247389" data-name="Trazado 247389" d="M372.929,343.847a27.379,27.379,0,0,1,3.195-4.657,27.288,27.288,0,0,1-3.195,4.657" transform="translate(-230.724 -205.161)" fill="#12263f"/>
          <path id="Trazado_247390" data-name="Trazado 247390" d="M381.831,350.128a14.477,14.477,0,0,1,.257,4.1,14.459,14.459,0,0,1-.257-4.1" transform="translate(-241.8 -209.861)" fill="#12263f"/>
          <path id="Trazado_247391" data-name="Trazado 247391" d="M388.338,354.929a20.466,20.466,0,0,1,5.233,3.187,76.226,76.226,0,0,1-5.233-3.187" transform="translate(-256.97 -211.922)" fill="#12263f"/>
          <g id="Grupo_157133" data-name="Grupo 157133" transform="translate(136.658 147.411)" opacity="0.3">
            <g id="Grupo_157132" data-name="Grupo 157132" transform="translate(0 0)">
              <g id="Grupo_157131" data-name="Grupo 157131" clip-path="url(#clip-path)">
                <path id="Trazado_247392" data-name="Trazado 247392" d="M376.021,363.436a6.8,6.8,0,0,1,3.127-.771,3.915,3.915,0,0,1,3.141.886v.04a11.689,11.689,0,0,0-7.921,2.468,3.144,3.144,0,0,1,1.652-2.623" transform="translate(-374.369 -362.653)"/>
              </g>
            </g>
          </g>
          <path id="Trazado_247393" data-name="Trazado 247393" d="M362.927,295a3.841,3.841,0,0,1,1.692-.066,5.582,5.582,0,0,1-1.789-.979c-.2-.161-.4-.4-.31-.643s.411-.28.667-.258a4.1,4.1,0,0,1,1.966.7,4.528,4.528,0,0,1-1.119-1.867.41.41,0,0,1,.015-.374c.1-.119.279-.1.426-.06a3.485,3.485,0,0,1,2.418,2.42l.009.367a3.247,3.247,0,0,1-3.98,1.863c-.292-.092-.62-.3-.589-.609.027-.273.328-.424.593-.5" transform="translate(-215.449 -184.643)" fill="#fc4b52"/>
          <path id="Trazado_247394" data-name="Trazado 247394" d="M296.466,254.046a3.817,3.817,0,0,1-.077,1.689,5.575,5.575,0,0,1,1.127-1.7c.178-.183.437-.366.667-.255s.245.434.2.686a4.1,4.1,0,0,1-.865,1.9,4.542,4.542,0,0,1,1.957-.957.412.412,0,0,1,.371.047c.11.1.077.286.025.429a3.486,3.486,0,0,1-2.617,2.2l-.367-.022a3.24,3.24,0,0,1-1.525-4.117c.116-.284.355-.592.657-.536.27.051.4.362.445.633" transform="translate(-110.085 -168.31)" fill="#fc4b52"/>
          <path id="Trazado_247395" data-name="Trazado 247395" d="M306.828,306.825c.286.01.553.044.826.07.5-5.5-1.17-11.091.513-16.352l-.223.286a12.479,12.479,0,0,1-6.047-.541,7.562,7.562,0,0,1-4.374-4.048,5.457,5.457,0,0,1,.932-5.72c1.908-1.99,5.267-1.886,7.66-.515,2.308,1.323,3.926,3.544,5.449,5.733a10.092,10.092,0,0,1,2.634-1.513c-2.659-3.656-5.23-7.495-6.069-11.911-.917-4.831.889-10.556,5.38-12.573,3.824-1.718,8.619-.166,11.315,3.043.211.25.389.522.577.788l-.09-.26a6.966,6.966,0,0,1,3.636-3.825,5.922,5.922,0,0,1,5.22.25,5.142,5.142,0,0,1,2.565,4.474,5.733,5.733,0,0,1-3.322,4.763,8.995,8.995,0,0,1-5.723.529,17.347,17.347,0,0,1-.028,5.132,29.612,29.612,0,0,1-4.354,10.744,9.547,9.547,0,0,1,1.567,1.294c3.466,3.624,3.688,9.442,1.872,14.113s-6.734,8.117-10.146,11.79l0,0a22.261,22.261,0,0,1,2.621,8.219,7.491,7.491,0,0,1,6.6-4.234c1.489.011,3.157.673,3.618,2.087a3.8,3.8,0,0,1-1.165,3.562,9.474,9.474,0,0,1-8.734,2.554l-.038-.91a39.522,39.522,0,0,1-.151,6.28H297.341s-5.882-23.876,9.486-23.308" transform="translate(-147.53 -170.714)" fill="#a7e446"/>
          <rect id="Rectángulo_89852" data-name="Rectángulo 89852" width="52.078" height="9.219" transform="translate(124.581 159.419)" fill="#fc4b52"/>
          <path id="Trazado_247396" data-name="Trazado 247396" d="M369.307,396.66l-6.333,27.548H331.936l-6.928-27.548Z" transform="translate(-196.537 -229.851)" fill="#fc4b52"/>
          <path id="Trazado_247397" data-name="Trazado 247397" d="M317.46,399.749c0,.1,11.747.183,26.234.183s26.237-.082,26.237-.183-11.744-.183-26.237-.183-26.234.082-26.234.183" transform="translate(-192.85 -231.099)" fill="#12263f"/>
          <path id="Trazado_247398" data-name="Trazado 247398" d="M326.383,343.672a1.543,1.543,0,0,1,.3-.172,6.713,6.713,0,0,1,.914-.391,8.954,8.954,0,0,1,3.624-.417,11.042,11.042,0,0,1,5.1,1.783,13.662,13.662,0,0,1,4.381,4.949,20.091,20.091,0,0,1,2.1,6.282,33.661,33.661,0,0,1,.354,5.4c-.009,1.538-.058,2.78-.089,3.637-.017.4-.031.731-.042.988a.174.174,0,1,1-.059,0c0-.257-.007-.585-.013-.988,0-.9,0-2.129,0-3.635a35.579,35.579,0,0,0-.413-5.353,20.287,20.287,0,0,0-2.088-6.187,13.581,13.581,0,0,0-4.273-4.864,11.025,11.025,0,0,0-4.969-1.8,9.288,9.288,0,0,0-3.571.319c-.817.251-1.234.488-1.25.455" transform="translate(-171.169 -206.653)" fill="#12263f"/>
          <path id="Trazado_247399" data-name="Trazado 247399" d="M317.071,314.712a.892.892,0,0,1-.035-.261,7.535,7.535,0,0,1-.03-.753,12.321,12.321,0,0,1,.325-2.752,12.909,12.909,0,0,1,1.529-3.819,10.524,10.524,0,0,1,1.476-1.946,8.713,8.713,0,0,1,4.519-2.576,10.207,10.207,0,0,1,2.443-.181,11.98,11.98,0,0,1,4.008.95,13.51,13.51,0,0,1,2.436,1.326c.275.178.468.346.605.449s.2.167.2.175a9.174,9.174,0,0,1-.864-.528,15.466,15.466,0,0,0-2.452-1.23,12.215,12.215,0,0,0-3.943-.873,10.174,10.174,0,0,0-2.371.192,8.563,8.563,0,0,0-4.371,2.494,10.46,10.46,0,0,0-1.452,1.889,13.2,13.2,0,0,0-1.559,3.728,13.907,13.907,0,0,0-.413,2.707,9.932,9.932,0,0,1-.049,1.01" transform="translate(-157.204 -189.362)" fill="#12263f"/>
          <path id="Trazado_247400" data-name="Trazado 247400" d="M315.781,274.857a10.308,10.308,0,0,1-.187-1.765c-.042-.545-.1-1.19-.218-1.9a9.285,9.285,0,0,0-.624-2.231,22.77,22.77,0,0,0-2.01-3.739c-.6-.909-1.058-1.409-1.025-1.441.014-.013.145.1.362.317a10.66,10.66,0,0,1,.833,1.006,18.521,18.521,0,0,1,2.112,3.747,8.859,8.859,0,0,1,.62,2.3,16.17,16.17,0,0,1,.158,1.929,11.13,11.13,0,0,1-.02,1.776" transform="translate(-135.453 -172.767)" fill="#12263f"/>
          <path id="Trazado_247401" data-name="Trazado 247401" d="M311.829,369.848a11.9,11.9,0,0,1,2.808,2.437,11.855,11.855,0,0,1-2.808-2.437" transform="translate(-134.342 -218.33)" fill="#12263f"/>
          <path id="Trazado_247402" data-name="Trazado 247402" d="M306.929,366.319a12.26,12.26,0,0,1,3.761-.367,12.263,12.263,0,0,1-3.761.367" transform="translate(-127.595 -216.638)" fill="#12263f"/>
          <path id="Trazado_247403" data-name="Trazado 247403" d="M312.277,358.774a307.894,307.894,0,0,1,2.1-2.884,5.67,5.67,0,0,1-2.1,2.884" transform="translate(-134.343 -212.335)" fill="#12263f"/>
          <path id="Trazado_247404" data-name="Trazado 247404" d="M321.233,358.337a15.879,15.879,0,0,1-.966,4.194,15.869,15.869,0,0,1,.966-4.194" transform="translate(-145.764 -213.388)" fill="#12263f"/>
          <path id="Trazado_247405" data-name="Trazado 247405" d="M320.1,370.174c-.054-.06.293-.461.777-.895s.919-.738.973-.678-.293.461-.777.9-.918.738-.973.678" transform="translate(-146.277 -217.794)" fill="#12263f"/>
          <path id="Trazado_247406" data-name="Trazado 247406" d="M332.89,367.192a4.057,4.057,0,0,1,.944-1.194c.58-.6,1.1-1.048,1.155-.992a4.037,4.037,0,0,1-.943,1.194c-.579.6-1.1,1.047-1.155.991" transform="translate(-166.722 -216.251)" fill="#12263f"/>
          <path id="Trazado_247407" data-name="Trazado 247407" d="M336.561,354.426a8.7,8.7,0,0,1,1.661-2.709,8.7,8.7,0,0,1-1.661,2.709" transform="translate(-172.054 -210.543)" fill="#12263f"/>
          <path id="Trazado_247408" data-name="Trazado 247408" d="M347.829,346.393a11.56,11.56,0,0,1,.049,3.669,11.567,11.567,0,0,1-.049-3.669" transform="translate(-188.195 -208.257)" fill="#12263f"/>
          <path id="Trazado_247409" data-name="Trazado 247409" d="M360.931,349.807a61.158,61.158,0,0,1,2.845,3.444,10.011,10.011,0,0,1-2.845-3.444" transform="translate(-211.522 -209.723)" fill="#12263f"/>
          <path id="Trazado_247410" data-name="Trazado 247410" d="M361.926,367.372a11.484,11.484,0,0,1,3.589.693,11.487,11.487,0,0,1-3.589-.693" transform="translate(-213.829 -217.257)" fill="#12263f"/>
          <path id="Trazado_247411" data-name="Trazado 247411" d="M346.3,370.686a8.058,8.058,0,0,1,1.91-3.762,183.5,183.5,0,0,1-1.91,3.762" transform="translate(-187.592 -217.076)" fill="#12263f"/>
          <path id="Trazado_247412" data-name="Trazado 247412" d="M355.806,362.845a7.624,7.624,0,0,1-.066-2.972,7.6,7.6,0,0,1,.066,2.972" transform="translate(-200.638 -214.047)" fill="#12263f"/>
          <path id="Trazado_247413" data-name="Trazado 247413" d="M332.826,377.842a4.945,4.945,0,0,1,1.726-2.807,134.1,134.1,0,0,1-1.726,2.807" transform="translate(-166.245 -220.559)" fill="#12263f"/>
          <path id="Trazado_247414" data-name="Trazado 247414" d="M358.347,378.94a9.065,9.065,0,0,1-1.312-2.971,9.068,9.068,0,0,1,1.312,2.971" transform="translate(-203.874 -220.961)" fill="#12263f"/>
          <path id="Trazado_247415" data-name="Trazado 247415" d="M317.038,341.9a13.955,13.955,0,0,1,4.026.132,13.954,13.954,0,0,1-4.026-.132" transform="translate(-143.742 -206.286)" fill="#12263f"/>
          <path id="Trazado_247416" data-name="Trazado 247416" d="M309.323,326.655a21,21,0,0,1,4.041-2.861,21.008,21.008,0,0,1-4.041,2.861" transform="translate(-131.636 -198.546)" fill="#12263f"/>
          <path id="Trazado_247417" data-name="Trazado 247417" d="M311.668,310.336a886.484,886.484,0,0,0,3.155-2.089,6.217,6.217,0,0,1-3.155,2.089" transform="translate(-134.437 -191.867)" fill="#12263f"/>
          <path id="Trazado_247418" data-name="Trazado 247418" d="M323.8,302.452a19.487,19.487,0,0,1,1.138-4.631,19.478,19.478,0,0,1-1.138,4.631" transform="translate(-151.493 -187.391)" fill="#12263f"/>
          <path id="Trazado_247419" data-name="Trazado 247419" d="M337.295,301.678a9.977,9.977,0,0,1,1.659,2.974,9.979,9.979,0,0,1-1.659-2.974" transform="translate(-173.205 -189.046)" fill="#12263f"/>
          <path id="Trazado_247420" data-name="Trazado 247420" d="M344.763,330.191c.055-.066.992.651,2.226,1.409s2.292,1.279,2.258,1.358a10.911,10.911,0,0,1-4.484-2.766" transform="translate(-187.758 -201.295)" fill="#12263f"/>
          <path id="Trazado_247421" data-name="Trazado 247421" d="M327.288,335.219a10.494,10.494,0,0,1,2.977-1.833,10.521,10.521,0,0,1-2.977,1.833" transform="translate(-158.797 -202.665)" fill="#12263f"/>
          <path id="Trazado_247422" data-name="Trazado 247422" d="M324.692,320.064c-.059-.064.683-.792,1.373-1.854s1.069-2.029,1.152-2a6.459,6.459,0,0,1-2.525,3.854" transform="translate(-154.276 -195.289)" fill="#12263f"/>
          <path id="Trazado_247423" data-name="Trazado 247423" d="M335.367,317.06a12.156,12.156,0,0,1,.175-3.757,12.157,12.157,0,0,1-.175,3.757" transform="translate(-168.723 -194.042)" fill="#12263f"/>
          <path id="Trazado_247424" data-name="Trazado 247424" d="M339.794,330.474a12.835,12.835,0,0,1-.444-3.844,12.84,12.84,0,0,1,.444,3.844" transform="translate(-175.233 -199.766)" fill="#12263f"/>
          <path id="Trazado_247425" data-name="Trazado 247425" d="M347.438,292.761a59725.152,59725.152,0,0,1,1.229,4.3,8.681,8.681,0,0,1-1.229-4.3" transform="translate(-188.701 -185.217)" fill="#12263f"/>
          <path id="Trazado_247426" data-name="Trazado 247426" d="M350.843,314.582a202.719,202.719,0,0,1,3.378-2.457,7.885,7.885,0,0,1-3.378,2.457" transform="translate(-196.209 -193.534)" fill="#12263f"/>
          <path id="Trazado_247427" data-name="Trazado 247427" d="M359.321,308.562a93.067,93.067,0,0,1,4.112-.787,8.273,8.273,0,0,1-4.112.787" transform="translate(-210.26 -191.66)" fill="#12263f"/>
          <path id="Trazado_247428" data-name="Trazado 247428" d="M353.192,301.039a3,3,0,0,1,1.172.576c.6.386,1.058.754,1.015.822a3.018,3.018,0,0,1-1.172-.576c-.6-.386-1.058-.755-1.015-.823" transform="translate(-198.707 -188.768)" fill="#12263f"/>
          <path id="Trazado_247429" data-name="Trazado 247429" d="M357.826,292.273a5.324,5.324,0,0,1,2.244,2.573,122.357,122.357,0,0,1-2.244-2.573" transform="translate(-206.049 -185.005)" fill="#12263f"/>
          <path id="Trazado_247430" data-name="Trazado 247430" d="M361.618,300.623a51.753,51.753,0,0,1,3.774,1.014,7.581,7.581,0,0,1-3.774-1.014" transform="translate(-213.53 -188.588)" fill="#12263f"/>
          <path id="Trazado_247431" data-name="Trazado 247431" d="M317.587,285.585a270.449,270.449,0,0,1,3.356-5.048,16.763,16.763,0,0,1-3.356,5.048" transform="translate(-143.938 -179.964)" fill="#12263f"/>
          <path id="Trazado_247432" data-name="Trazado 247432" d="M325.321,275.9a16.3,16.3,0,0,1,.569-4.321,16.242,16.242,0,0,1-.569,4.321" transform="translate(-153.314 -176.117)" fill="#12263f"/>
          <path id="Trazado_247433" data-name="Trazado 247433" d="M332.758,280.747c.086-.016.324,1.107.886,2.392s1.208,2.232,1.137,2.283a7.768,7.768,0,0,1-2.023-4.675" transform="translate(-166.431 -180.056)" fill="#12263f"/>
          <path id="Trazado_247434" data-name="Trazado 247434" d="M340.673,283.22c.067-.053.9.923,2.046,2s2.171,1.848,2.122,1.918a11.922,11.922,0,0,1-4.169-3.916" transform="translate(-181.017 -181.116)" fill="#12263f"/>
          <path id="Trazado_247435" data-name="Trazado 247435" d="M340.556,262c.084-.014.342,1.216.8,2.689s.934,2.637.856,2.673A12.373,12.373,0,0,1,340.556,262" transform="translate(-178.319 -172.003)" fill="#12263f"/>
          <path id="Trazado_247436" data-name="Trazado 247436" d="M329.481,255.025a16.1,16.1,0,0,1,.264,4.326,16.108,16.108,0,0,1-.264-4.326" transform="translate(-159.558 -169.005)" fill="#12263f"/>
          <path id="Trazado_247437" data-name="Trazado 247437" d="M296.432,272.947a88.794,88.794,0,0,1,3.3.269,5.1,5.1,0,0,1-3.3-.269" transform="translate(-110.645 -176.693)" fill="#12263f"/>
          <path id="Trazado_247438" data-name="Trazado 247438" d="M294.84,264.088a24,24,0,0,1,4.68-2.48,24.083,24.083,0,0,1-4.68,2.48" transform="translate(-109.521 -171.83)" fill="#12263f"/>
          <path id="Trazado_247439" data-name="Trazado 247439" d="M308.345,263.212a14.92,14.92,0,0,1,1.251-3.981,14.905,14.905,0,0,1-1.251,3.981" transform="translate(-127.316 -170.812)" fill="#12263f"/>
          <g id="Grupo_157136" data-name="Grupo 157136" transform="translate(160.001 135.525)" opacity="0.3">
            <g id="Grupo_157135" data-name="Grupo 157135" transform="translate(0 0)">
              <g id="Grupo_157134" data-name="Grupo 157134" clip-path="url(#clip-path-2)">
                <path id="Trazado_247440" data-name="Trazado 247440" d="M340.6,348.174a6.858,6.858,0,0,0-2.932-5.381c-1.734-1.163-4.856-1.277-6.083-.406a9.412,9.412,0,0,1,5.337,1.838,14.951,14.951,0,0,1,3.679,3.948" transform="translate(-331.581 -341.815)"/>
              </g>
            </g>
          </g>
          <g id="Grupo_157139" data-name="Grupo 157139" transform="translate(166.644 111.738)" opacity="0.3">
            <g id="Grupo_157138" data-name="Grupo 157138" transform="translate(0 0)">
              <g id="Grupo_157137" data-name="Grupo 157137" clip-path="url(#clip-path-3)">
                <path id="Trazado_247441" data-name="Trazado 247441" d="M328.855,303.437a5.948,5.948,0,0,0-4.191-3.261c-1.779-.325-4.3.662-4.971,1.778a8.157,8.157,0,0,1,4.874-.383,12.984,12.984,0,0,1,4.287,1.866" transform="translate(-319.693 -300.113)"/>
              </g>
            </g>
          </g>
          <g id="Grupo_157142" data-name="Grupo 157142" transform="translate(177.687 92.732)" opacity="0.3">
            <g id="Grupo_157141" data-name="Grupo 157141" transform="translate(0 0)">
              <g id="Grupo_157140" data-name="Grupo 157140" clip-path="url(#clip-path-4)">
                <path id="Trazado_247442" data-name="Trazado 247442" d="M313.36,273.171a4.7,4.7,0,0,0,.287-4.054,3.966,3.966,0,0,0-2.9-2.325,12.235,12.235,0,0,1,2.573,6.456" transform="translate(-310.751 -266.792)"/>
              </g>
            </g>
          </g>
          <path id="Trazado_247443" data-name="Trazado 247443" d="M364.709,346.644c.016.021-.231.212-.593.639a11.629,11.629,0,0,0-1.331,1.951,21.19,21.19,0,0,0-1.91,7.526,34.263,34.263,0,0,0,.387,7.809c.155.993.3,1.793.408,2.347a4.587,4.587,0,0,1,.133.866,4.561,4.561,0,0,1-.255-.84c-.14-.546-.325-1.343-.509-2.336a30.883,30.883,0,0,1-.484-7.872,19.988,19.988,0,0,1,2.033-7.612,10.011,10.011,0,0,1,1.438-1.925,2.343,2.343,0,0,1,.685-.554" transform="translate(-212.196 -208.363)" fill="#12263f"/>
          <path id="Trazado_247444" data-name="Trazado 247444" d="M370.382,383.594a.621.621,0,0,1-.158.015l-.465.015-1.786.027-6.571.046-21.678.043L318.3,383.7l.105-.1c-.011,2.835-.02,5.137-.026,6.754-.009.78-.017,1.4-.022,1.836-.006.2-.01.354-.013.478a.7.7,0,0,1-.015.163.682.682,0,0,1-.016-.163c0-.124-.009-.282-.016-.477-.008-.441-.019-1.056-.034-1.836-.016-1.617-.039-3.919-.068-6.754v-.1h.106l21.42-.042,21.678.043,6.571.046,1.786.027.465.015a.627.627,0,0,1,.158.015" transform="translate(-193.723 -224.175)" fill="#12263f"/>
          <path id="Trazado_247445" data-name="Trazado 247445" d="M221.9,54.623l3.312,66.845,11.83-.222v17.475l16.77-17.207h53.571L313.4,51.2Z" transform="translate(-124.851 -81.069)" fill="#fff"/>
          <path id="Trazado_247446" data-name="Trazado 247446" d="M221.9,54.488l91.5-3.526.115,0-.01.114C311.71,72.047,309.665,96,307.5,121.389l-.009.1h-5.96l-47.716,0,.078-.033-16.775,17.2-.177.182v-.253q0-9.109.007-17.475l.1.1-11.83.217h-.088l0-.088c-1.964-40.745-3.186-66.111-3.222-66.85.038.739,1.329,26.1,3.4,66.841l-.092-.086,11.829-.228.1,0v.1q0,8.371.007,17.475l-.177-.072L253.733,121.3l.032-.033h.046l47.716,0h5.855l-.113.1c2.178-25.392,4.231-49.34,6.031-70.315l.1.11L221.9,54.488" transform="translate(-124.852 -80.933)" fill="#12263f"/>
          <path id="Trazado_247447" data-name="Trazado 247447" d="M355.567,80.255l.806,1.96,1.962.805-1.962.805-.806,1.959-.806-1.959L352.8,83.02l1.962-.805Z" transform="translate(-198.502 -97.434)" fill="#fc4b52"/>
          <path id="Trazado_247448" data-name="Trazado 247448" d="M249.108,182.739l.806,1.96,1.962.805-1.962.805-.806,1.96-.807-1.96-1.962-.805,1.962-.805Z" transform="translate(-138.603 -155.153)" fill="#fc4b52"/>
          <path id="Trazado_247449" data-name="Trazado 247449" d="M342.151,77.418l.4.98.981.4-.981.4-.4.98-.4-.98-.981-.4.981-.4Z" transform="translate(-191.733 -95.836)" fill="#fc4b52"/>
          <path id="Trazado_247450" data-name="Trazado 247450" d="M267.209,180.921l.4.98.981.4-.981.4-.4.98-.4-.98-.981-.4.981-.4Z" transform="translate(-149.566 -154.129)" fill="#fc4b52"/>
          <path id="Trazado_247451" data-name="Trazado 247451" d="M409.547,148.744l.4.98.981.4-.981.4-.4.98-.4-.98-.981-.4.981-.4Z" transform="translate(-229.653 -136.007)" fill="#fc4b52"/>
          <path id="Trazado_247452" data-name="Trazado 247452" d="M98.084,77.384a16.362,16.362,0,0,1,8.125-9.687,20.7,20.7,0,0,1,13.936-1.278,43.819,43.819,0,0,1,12.979,5.8,21.446,21.446,0,0,1,6.137,5.07c2.923,3.9,5.742,10.24,5.9,15.107.124,3.936-1.663,13.728-3.428,17.249a8.85,8.85,0,0,1-3.87,3.294,33.434,33.434,0,0,1-7.394,9.21q-1.255-4-2.509-7.993Z" transform="translate(-55.187 -37.05)" fill="#12263f"/>
          <path id="Trazado_247453" data-name="Trazado 247453" d="M137.345,131.633c1.92-7.094,1.076-15.829.773-21.9s1.041-8.689-3.536-18.856a31.242,31.242,0,0,0-14.495-15.028L98.28,78.221c.153-.385.31-.758.47-1.111l-7.792,1.163a6.125,6.125,0,0,0-6.231,3.208,8.663,8.663,0,0,0-1.205,1.751,20.582,20.582,0,0,0-1.7,6.507,51.226,51.226,0,0,0-.471,6.652c-.065.883-.119,1.654-.18,2.257a10.481,10.481,0,0,0,.242,2.889c.319,9.355,1.521,19.667.379,27.438a4.16,4.16,0,0,0,.129,2.421,3.943,3.943,0,0,0,2.005,1.621c9.67,4.588,16.51-.917,26.069-5.733,1.86-.937,3.763-2.071,5.845-1.993,2.2.083,4.027,5.844,6.045,6.73" transform="translate(-45.656 -42.718)" fill="#12263f"/>
          <path id="Trazado_247454" data-name="Trazado 247454" d="M132.29,99.515a13.234,13.234,0,0,0-9.614-12.462l-17.724-5.058c-7.692-1.052-13.116,8.28-13.842,16-.806,8.577-1.411,17.635-.59,24.078,1.653,12.956,11.5,14.9,11.5,14.9,0-.019-.173,6.135-.274,9.9l8.6,41.308,18.705-43.109,3.279-45.4c.011-.22-.029.137-.041-.158" transform="translate(-50.711 -46.134)" fill="#a26760"/>
          <path id="Trazado_247455" data-name="Trazado 247455" d="M103.027,143.516a1.655,1.655,0,0,0,1.545,1.718,1.584,1.584,0,0,0,1.752-1.439,1.656,1.656,0,0,0-1.543-1.718,1.584,1.584,0,0,0-1.754,1.439" transform="translate(-57.966 -80.014)" fill="#12263f"/>
          <path id="Trazado_247456" data-name="Trazado 247456" d="M96.445,128.306c.2.222,1.481-.666,3.263-.607,1.78.034,3.059.99,3.26.778.1-.094-.1-.49-.656-.921a4.548,4.548,0,0,0-2.6-.889,4.367,4.367,0,0,0-2.605.753c-.561.4-.758.787-.66.887" transform="translate(-54.251 -71.338)" fill="#12263f"/>
          <path id="Trazado_247457" data-name="Trazado 247457" d="M137.761,144.1a1.655,1.655,0,0,0,1.545,1.717,1.584,1.584,0,0,0,1.752-1.438,1.656,1.656,0,0,0-1.544-1.718,1.584,1.584,0,0,0-1.754,1.439" transform="translate(-77.509 -80.342)" fill="#12263f"/>
          <path id="Trazado_247458" data-name="Trazado 247458" d="M135.135,129.412c.2.222,1.483-.667,3.264-.607,1.78.034,3.06.989,3.26.778.1-.093-.1-.489-.656-.92a4.549,4.549,0,0,0-2.6-.89,4.372,4.372,0,0,0-2.606.753c-.559.4-.758.788-.661.887" transform="translate(-76.02 -71.961)" fill="#12263f"/>
          <path id="Trazado_247459" data-name="Trazado 247459" d="M115.726,144.076a11.855,11.855,0,0,0-2.878-.61c-.454-.061-.881-.164-.948-.477a2.305,2.305,0,0,1,.345-1.337q.692-1.629,1.452-3.419c2.02-4.868,3.5-8.878,3.3-8.957s-1.995,3.8-4.014,8.67q-.731,1.8-1.4,3.441a2.627,2.627,0,0,0-.291,1.776,1.141,1.141,0,0,0,.728.687,3.076,3.076,0,0,0,.769.131,11.583,11.583,0,0,0,2.933.094" transform="translate(-62.581 -72.808)" fill="#12263f"/>
          <path id="Trazado_247460" data-name="Trazado 247460" d="M134.461,198.583s-4.455,8.737-17.338,7.133l.083-3.033a32.574,32.574,0,0,0,17.255-4.1" transform="translate(-65.899 -111.842)" fill="#7b4b45"/>
          <path id="Trazado_247461" data-name="Trazado 247461" d="M136.854,111.416c.161.489,1.947.314,4.029.63,2.089.274,3.756.937,4.046.511.13-.2-.15-.668-.817-1.158a7.1,7.1,0,0,0-6.152-.87c-.777.286-1.175.654-1.107.886" transform="translate(-76.997 -62.056)" fill="#12263f"/>
          <path id="Trazado_247462" data-name="Trazado 247462" d="M97.331,110.36c.3.414,1.541.032,3.017.058,1.478-.026,2.718.355,3.018-.059.133-.2-.052-.612-.586-1.012a4.373,4.373,0,0,0-4.863,0c-.534.4-.718.81-.586,1.012" transform="translate(-54.74 -61.169)" fill="#12263f"/>
          <path id="Trazado_247463" data-name="Trazado 247463" d="M100.9,80.06a5.682,5.682,0,0,1,5.107-3.068,11.038,11.038,0,0,1,5.906,1.9c7.562,4.658,11.208,15.492,18.674,20.3,1.836,1.183,4.3.218,5.844,1.759s2.509,3.962,1.573,5.933a18.055,18.055,0,0,0,2.763-4.378,6.086,6.086,0,0,0-.069-5.032c-.625-1.156-1.761-2.057-2.044-3.341-.248-1.129.228-2.288.213-3.444a7.508,7.508,0,0,0-1.089-3.323,33.5,33.5,0,0,0-11.971-13.319,21.876,21.876,0,0,0-11.247-3.25,16.732,16.732,0,0,0-10.9,3.966c-1.745,1.534-3.578,3.12-2.758,5.292" transform="translate(-56.66 -39.875)" fill="#12263f"/>
          <path id="Trazado_247464" data-name="Trazado 247464" d="M181.538,142.687c.147-.366,6.951-2.6,6.836,4.55-.112,6.948-7.09,5.381-7.1,5.181s.262-9.731.262-9.731" transform="translate(-101.995 -80.014)" fill="#a26760"/>
          <path id="Trazado_247465" data-name="Trazado 247465" d="M186.289,152.775c.031-.021.12.087.323.185a1.213,1.213,0,0,0,.905.036,3,3,0,0,0,1.439-2.661,3.987,3.987,0,0,0-.306-1.739,1.4,1.4,0,0,0-.894-.947.616.616,0,0,0-.721.318c-.1.192-.056.332-.093.343-.02.017-.147-.119-.085-.4a.772.772,0,0,1,.282-.43.915.915,0,0,1,.673-.164,1.7,1.7,0,0,1,1.245,1.1,4.1,4.1,0,0,1,.383,1.945c-.071,1.4-.814,2.7-1.825,2.966a1.3,1.3,0,0,1-1.1-.2c-.213-.176-.246-.332-.222-.344" transform="translate(-104.812 -82.962)" fill="#7b4b45"/>
          <path id="Trazado_247466" data-name="Trazado 247466" d="M141.088,104.228a2.748,2.748,0,0,1-.413-.245c-.261-.177-.665-.414-1.145-.774a23.919,23.919,0,0,1-3.657-3.521,66.9,66.9,0,0,1-4.421-6.087,54.619,54.619,0,0,0-5.535-7.3,21.844,21.844,0,0,0-3.619-3.028,18.07,18.07,0,0,0-3.949-1.927,19.826,19.826,0,0,0-7.341-1.113,19.011,19.011,0,0,0-4.963.825c-.576.157-1,.337-1.3.44a2.733,2.733,0,0,1-.459.148,2.736,2.736,0,0,1,.435-.207,11.746,11.746,0,0,1,1.288-.5A18.043,18.043,0,0,1,111,80.007a19.7,19.7,0,0,1,7.447,1.062,18.154,18.154,0,0,1,4.021,1.942,21.886,21.886,0,0,1,3.68,3.069,53.164,53.164,0,0,1,5.549,7.358,71.485,71.485,0,0,0,4.35,6.106,25.783,25.783,0,0,0,3.56,3.567c.465.373.855.625,1.1.818a2.735,2.735,0,0,1,.378.3" transform="translate(-58.676 -45.045)" fill="#fff"/>
          <path id="Trazado_247467" data-name="Trazado 247467" d="M186.544,162.674a1.369,1.369,0,1,1-.328.094" transform="translate(-104.312 -91.61)" fill="#feca2e"/>
          <path id="Trazado_247468" data-name="Trazado 247468" d="M186.055,162.7a1.87,1.87,0,0,0-.652.915,1.177,1.177,0,0,0,.241,1.1,1.217,1.217,0,0,0,2.158-.619,1.177,1.177,0,0,0-.38-1.058,1.873,1.873,0,0,0-1.039-.43c0-.017.108-.069.328-.067a1.423,1.423,0,0,1,.859.328,1.389,1.389,0,0,1,.522,1.268,1.495,1.495,0,0,1-2.672.767,1.389,1.389,0,0,1-.232-1.352,1.42,1.42,0,0,1,.554-.733c.185-.117.308-.134.314-.117" transform="translate(-104.15 -91.542)" fill="#12263f"/>
          <path id="Trazado_247469" data-name="Trazado 247469" d="M173.013,126.826c.055,1.9.085,3.905-.841,5.566s-3.172,2.744-4.8,1.755c-1.326-.808-1.679-2.542-1.864-4.081-.533-4.443-.707-8.923-1.279-13.361Z" transform="translate(-92.406 -65.728)" fill="#12263f"/>
          <path id="Trazado_247470" data-name="Trazado 247470" d="M105.293,84.21c.006.041.618-.1,1.733-.1a11.918,11.918,0,0,1,4.578.971,15.163,15.163,0,0,1,2.841,1.565A31.226,31.226,0,0,1,117.355,89,35.742,35.742,0,0,1,123,95.433c.848,1.264,1.594,2.56,2.408,3.764a17.672,17.672,0,0,0,2.7,3.21,30.98,30.98,0,0,0,5.765,4.094c1.752.99,3.221,1.69,4.234,2.175l1.175.54a1.97,1.97,0,0,0,.422.163,1.989,1.989,0,0,0-.387-.234l-1.142-.605c-.991-.525-2.439-1.262-4.164-2.277a32.053,32.053,0,0,1-5.657-4.118,17.579,17.579,0,0,1-2.627-3.161c-.8-1.191-1.543-2.488-2.4-3.767A35.024,35.024,0,0,0,117.6,88.73a30.369,30.369,0,0,0-2.967-2.352,15.054,15.054,0,0,0-2.92-1.554,11.5,11.5,0,0,0-4.684-.867,8.123,8.123,0,0,0-1.292.142,1.976,1.976,0,0,0-.439.111" transform="translate(-59.243 -47.28)" fill="#fff"/>
          <path id="Trazado_247471" data-name="Trazado 247471" d="M129.343,170.063a7.779,7.779,0,0,0-.5-1.939.752.752,0,0,0-1.159-.574c-1.462.473-3.336,1.338-4.8,1.811a3.6,3.6,0,0,0,.719,2.893,3.49,3.49,0,0,0,2.477.844,3.348,3.348,0,0,0,2.738-1.148,2.614,2.614,0,0,0,.518-1.887" transform="translate(-69.105 -94.309)" fill="#7b4b45"/>
          <path id="Trazado_247472" data-name="Trazado 247472" d="M124.2,172.171a4.59,4.59,0,0,0,2.145.425,3.012,3.012,0,0,0,2.008-1.012,3.153,3.153,0,0,0,.628-2.63,2.5,2.5,0,0,0-.631-1.235c-.289-.294-.663-.22-1.1-.051l-2.294.937a9.64,9.64,0,0,1-2.179.74,9.518,9.518,0,0,1,2.022-1.1l2.267-1.054a2.34,2.34,0,0,1,.778-.2,1.212,1.212,0,0,1,.871.326,2.951,2.951,0,0,1,.808,1.521,3.578,3.578,0,0,1-.785,3.078,3.311,3.311,0,0,1-2.367,1.069,3.22,3.22,0,0,1-1.691-.4c-.355-.211-.5-.391-.479-.415" transform="translate(-69.081 -94.049)" fill="#12263f"/>
          <path id="Trazado_247473" data-name="Trazado 247473" d="M142.488,152.668c-.027.035-.407-.274-1.11-.606a6.84,6.84,0,0,0-1.282-.45,7.052,7.052,0,0,0-3.3,0,6.864,6.864,0,0,0-1.283.447c-.7.33-1.084.638-1.111.6-.01-.012.08-.1.251-.236a2.415,2.415,0,0,1,.327-.238,4.09,4.09,0,0,1,.462-.273,6.146,6.146,0,0,1,1.3-.506,6.681,6.681,0,0,1,3.4,0,6.152,6.152,0,0,1,1.3.509,4.088,4.088,0,0,1,.461.275,2.34,2.34,0,0,1,.326.238c.171.141.26.225.251.237" transform="translate(-75.623 -85.149)" fill="#7b4b45"/>
          <path id="Trazado_247474" data-name="Trazado 247474" d="M63.754,318.961l68.185-.084-.708-13.215,1.272-47.524-1.388-30.958c-5.688-2.336-16.527-5.936-16.527-5.936s-4.018,9.645-14.518,9.645c-9.769,0-13.4-8.541-13.4-8.541l-4.836,1.906a85.124,85.124,0,0,0-18.078,5.07l2.415,33.039s5.075,27.8,4.2,32.722-6.619,23.876-6.619,23.876" transform="translate(-35.871 -124.605)" fill="#fc4b52"/>
          <g id="Grupo_157145" data-name="Grupo 157145" transform="translate(57.154 146.561)" opacity="0.3">
            <g id="Grupo_157144" data-name="Grupo 157144">
              <g id="Grupo_157143" data-name="Grupo 157143" clip-path="url(#clip-path-5)">
                <path id="Trazado_247475" data-name="Trazado 247475" d="M131.109,335.535c-.571,3.764-.981,8.1,1.593,10.907,1.484,1.619,3.665,2.359,5.6,3.4,3.972,2.143,7,5.66,9.747,9.24s5.337,7.342,8.774,10.264,7.935,4.956,12.405,4.324l-.933-8.884L145.16,341.265Z" transform="translate(-130.682 -335.535)"/>
              </g>
            </g>
          </g>
          <path id="Trazado_247476" data-name="Trazado 247476" d="M33.989,239s-5.437,1.867-10.289,11.823c-3,6.152-13.853,43.681-14.259,48.38-.025.293.006.631-.035,1-1.42,13.1,11.151,22.154,21.8,15.093a16.912,16.912,0,0,0,6.674-8.919l4.114-12.7Z" transform="translate(-5.23 -134.607)" fill="#fc4b52"/>
          <path id="Trazado_247477" data-name="Trazado 247477" d="M111.262,362.928c-.033.053-4.684-2.774-10.387-6.313s-10.3-6.454-10.268-6.507,4.683,2.773,10.387,6.314,10.3,6.453,10.267,6.507" transform="translate(-50.98 -197.18)" fill="#12263f"/>
          <path id="Trazado_247478" data-name="Trazado 247478" d="M194.547,234.834s12.973,2.478,15.755,11.385c2.463,7.884,8.179,43.128,8.95,50.467,1.054,10.026-1.146,21.255-11.878,22.387s-30.881-17.405-30.881-17.405L189.72,284.55,195,287.385l-.969-24.437Z" transform="translate(-99.304 -132.259)" fill="#fc4b52"/>
          <path id="Trazado_247479" data-name="Trazado 247479" d="M198.615,381.176a.692.692,0,0,1-.127-.043l-.369-.145c-.319-.14-.813-.3-1.41-.6a47.579,47.579,0,0,1-4.974-2.819,146.418,146.418,0,0,1-15.511-11.886l-.078-.068.064-.083,5.113-6.621,8.118-10.492.054-.069.077.04c2.934,1.5,5.581,3.005,7.938,4.362s4.412,2.582,6.11,3.6,3.037,1.838,3.951,2.4l1.043.652.266.172a.516.516,0,0,1,.087.064.528.528,0,0,1-.1-.048l-.275-.157-1.06-.623-3.982-2.352c-1.707-1-3.772-2.21-6.133-3.558s-5.014-2.843-7.944-4.327l.131-.03-8.105,10.5-5.117,6.618-.014-.151a153.208,153.208,0,0,0,15.442,11.933,51.385,51.385,0,0,0,4.929,2.869c.59.311,1.078.483,1.392.635l.361.163a.681.681,0,0,1,.12.062" transform="translate(-99.109 -196.19)" fill="#12263f"/>
          <path id="Trazado_247480" data-name="Trazado 247480" d="M41.326,303.5a1.73,1.73,0,0,1-.286-.02l-.824-.09-3.095-.374-10.784-1.367.115-.075c-.745,2.564-1.539,5.389-2.351,8.349-1.735,6.328-3.195,12.087-4.155,16.276-.479,2.095-.839,3.8-1.078,4.974l-.271,1.358c-.031.144-.056.26-.076.352a.482.482,0,0,1-.034.118.478.478,0,0,1,.01-.122c.014-.093.032-.211.054-.356l.229-1.366c.212-1.184.548-2.892,1.008-4.993.92-4.2,2.356-9.97,4.092-16.3.813-2.961,1.612-5.785,2.367-8.349l.026-.087.09.012,10.774,1.448,3.086.433.82.124a1.727,1.727,0,0,1,.281.055" transform="translate(-10.401 -169.763)" fill="#12263f"/>
          <path id="Trazado_247481" data-name="Trazado 247481" d="M76.508,293.236c.063,0,.432,8.964.824,20.024s.659,20.031.6,20.033-.432-8.962-.824-20.025-.659-20.029-.6-20.032" transform="translate(-43.042 -165.151)" fill="#12263f"/>
          <path id="Trazado_247482" data-name="Trazado 247482" d="M216.549,302.485a.928.928,0,0,1,.016.235c0,.179,0,.4,0,.67,0,.582,0,1.425.029,2.465.043,2.082.154,4.957.308,8.131s.316,6.019.427,8.13c.052,1.016.094,1.849.126,2.464.01.27.018.492.024.671a.923.923,0,0,1-.006.235.905.905,0,0,1-.039-.232l-.067-.668c-.049-.614-.116-1.446-.2-2.46-.152-2.078-.34-4.951-.493-8.129s-.24-6.055-.241-8.14c0-1.042.015-1.887.043-2.469l.041-.67a.906.906,0,0,1,.03-.233" transform="translate(-121.777 -170.36)" fill="#12263f"/>
          <path id="Trazado_247483" data-name="Trazado 247483" d="M224.839,256.452c.053.034-2.11,3.5-4.83,7.734s-4.97,7.645-5.023,7.611,2.109-3.5,4.831-7.734,4.969-7.645,5.022-7.611" transform="translate(-120.962 -144.434)" fill="#12263f"/>
          <path id="Trazado_247484" data-name="Trazado 247484" d="M40.519,219.583c-1.5.063-1.649-.75-3.3,1.691s-.711,5.291-3.468,5.766-4.523-5.408-4.79-5.966c-.121-.252-.82-1.789-1.74-3.808-1.117-2.451-2.558-5.614-3.686-8.054-2.056-4.451-4.132-2.667-4.132-2.667l3.616,12.992s-5.218-9.667-7.43-11.8-3.693-.265-3.693-.265l7.067,13.742s-5.581-7.725-7.174-9.945-2.9-2.146-3.354-1.424-.132,2.142.4,3.258,7.308,11.437,7.053,11.4-5.737-4.195-7.195-4.921-2.673-.12-2.854,1.154S16.3,231.407,16.3,231.407l4.624,12.008-.808,4.683,13.351,1.562.233-6.969a43.11,43.11,0,0,0,4.068-7.888c1.079-3.313,2.738-11.916,3.3-12.79s.957-2.493-.541-2.43" transform="translate(-3.286 -116.128)" fill="#a26760"/>
          <path id="Trazado_247485" data-name="Trazado 247485" d="M47.62,259.539c0,.018-.277-.054-.776-.137a10.215,10.215,0,0,0-2.128-.133,11.6,11.6,0,0,0-1.465.168,4.043,4.043,0,0,1-1.732,0,3.484,3.484,0,0,1-1.6-1.061c-.454-.486-.838-1.048-1.265-1.587a27.732,27.732,0,0,0-5.014-4.947c-.719-.549-1.325-.962-1.748-1.242a5.8,5.8,0,0,1-.649-.447.687.687,0,0,1,.186.086c.118.064.293.155.51.287.438.258,1.061.653,1.8,1.188a25.761,25.761,0,0,1,5.1,4.936c.432.546.812,1.1,1.249,1.575a3.3,3.3,0,0,0,1.489,1.01,3.915,3.915,0,0,0,1.648.015,11.115,11.115,0,0,1,1.487-.142,9.113,9.113,0,0,1,2.15.207c.249.055.44.109.568.149a.7.7,0,0,1,.191.075" transform="translate(-17.581 -140.886)" fill="#7b4b45"/>
          <path id="Trazado_247486" data-name="Trazado 247486" d="M130.552,279.554l.584,30.1a2.781,2.781,0,0,0,2.841,2.724l12.7-.27A2.781,2.781,0,0,0,149.4,309.4l.729-29.832a2.781,2.781,0,0,0-2.782-2.847H133.334a2.781,2.781,0,0,0-2.782,2.833" transform="translate(-73.455 -155.85)" fill="#a7e446"/>
          <path id="Trazado_247487" data-name="Trazado 247487" d="M153.092,288.408a1.17,1.17,0,1,1-1.17-1.168,1.169,1.169,0,0,1,1.17,1.168" transform="translate(-84.821 -161.774)" fill="#fff"/>
          <path id="Trazado_247488" data-name="Trazado 247488" d="M146.056,297.212s3.634,4.3,4.974,6.209,1.817,8.119,1.817,8.119l.861,7.165,5.076,2.948-9.506,11.966-7.826-7.274-7.538-2.768s-5.074-4.776-5.934-6.973a10.268,10.268,0,0,1-.765-3.916,73.727,73.727,0,0,1-2.869-6.973,26.169,26.169,0,0,1-.478-5.062s1.339-.382,2.487,1.815l-1.817-3.725s.956-2.866,3.443-.1,6.6,7.451,6.6,7.451l4.687,3.725.574-.669s-8.321-10.125-8.129-11.94,1.913-1.911,3.73,0,9.277,11.463,10.234,11.558,1.243-1.242,1.243-1.242l-.67-3.63-.382-.764Z" transform="translate(-69.694 -166.603)" fill="#a26760"/>
          <path id="Trazado_247489" data-name="Trazado 247489" d="M136.106,320.375a2.026,2.026,0,0,1-.335-.357c-.2-.238-.492-.591-.839-1.034-.695-.884-1.623-2.13-2.59-3.546s-1.79-2.736-2.359-3.7c-.285-.484-.509-.88-.657-1.158a2.039,2.039,0,0,1-.21-.442,2.033,2.033,0,0,1,.287.4l.718,1.119c.6.946,1.446,2.247,2.41,3.661s1.87,2.671,2.531,3.577l.781,1.076a2.03,2.03,0,0,1,.265.411" transform="translate(-72.646 -174.667)" fill="#7b4b45"/>
          <path id="Trazado_247490" data-name="Trazado 247490" d="M134.4,336.787a60.34,60.34,0,0,1-4.338-6.006,30.239,30.239,0,0,1,2.261,2.937,30.151,30.151,0,0,1,2.077,3.069" transform="translate(-73.179 -186.296)" fill="#7b4b45"/>
          <path id="Trazado_247491" data-name="Trazado 247491" d="M337,104.186a4.422,4.422,0,0,0-4.425-4.419H321.4a.442.442,0,0,1-.442-.443.457.457,0,0,1,.022-.137,15.332,15.332,0,0,0,.92-7.79c-1.04-3.7-3.246-4.773-4.971-4.534a3.536,3.536,0,0,0-2.943,3.624c0,4.854-3.768,10.157-7.14,12.482a.884.884,0,0,0-.383.728v17.882a.884.884,0,0,0,.717.868c.632.122,1.205.239,1.747.354a30.681,30.681,0,0,0,7.27.833h11.5c3.464,0,3.982-1.945,3.982-3.093a3.956,3.956,0,0,0-.41-1.757,3.971,3.971,0,0,0,1.77-5.3,3.98,3.98,0,0,0,2.181-3.548,3.927,3.927,0,0,0-.483-1.895,4.418,4.418,0,0,0,2.253-3.85" transform="translate(-172.434 -101.138)" fill="#fc4b52"/>
          <path id="Trazado_247492" data-name="Trazado 247492" d="M288.443,123.272a1.769,1.769,0,0,0-1.77-1.767h-5.752a1.769,1.769,0,0,0-1.77,1.767v19.445a1.769,1.769,0,0,0,1.77,1.768h5.752a1.769,1.769,0,0,0,1.77-1.768Zm-2.655,16.351a1.327,1.327,0,1,1-1.327-1.326,1.327,1.327,0,0,1,1.327,1.326" transform="translate(-157.064 -120.666)" fill="#fc4b52"/>
        </g>
      </g>
    </g>
  </g>
</svg>
