<svg xmlns="http://www.w3.org/2000/svg" xmlns:xlink="http://www.w3.org/1999/xlink" width="122" height="122" viewBox="0 0 122 122">
  <defs>
    <clipPath id="clip-path">
      <circle id="Elipse_5552" data-name="Elipse 5552" cx="52.5" cy="52.5" r="52.5" transform="translate(748 1014)" fill="#a7e446"/>
    </clipPath>
  </defs>
  <g id="Grupo_155475" data-name="Grupo 155475" transform="translate(-740 -1405)">
    <g id="Elipse_5543" data-name="Elipse 5543" transform="translate(740 1405)" fill="#f5feff" stroke="#0082b2" stroke-width="2">
      <circle cx="61" cy="61" r="61" stroke="none"/>
      <circle cx="61" cy="61" r="60" fill="none"/>
    </g>
    <circle id="Elipse_5551" data-name="Elipse 5551" cx="43" cy="43" r="43" transform="translate(758 1423)" fill="#dff7f9"/>
    <g id="digital_campaign-seo_marketing-share" data-name="digital campaign-seo marketing-share" transform="translate(760.833 1426.379)">
      <circle id="Elipse_5685" data-name="Elipse 5685" cx="10.17" cy="10.17" r="10.17" transform="translate(3.272 3.284)" fill="#feca2e"/>
      <circle id="Elipse_5686" data-name="Elipse 5686" cx="10.17" cy="10.17" r="10.17" transform="translate(56.665 3.284)" fill="#feca2e"/>
      <circle id="Elipse_5687" data-name="Elipse 5687" cx="10.17" cy="10.17" r="10.17" transform="translate(56.665 56.677)" fill="#feca2e"/>
      <circle id="Elipse_5689" data-name="Elipse 5689" cx="17.17" cy="17.17" r="17.17" transform="translate(22.665 22.951)" fill="#a7e446"/>
      <circle id="Elipse_5688" data-name="Elipse 5688" cx="10.17" cy="10.17" r="10.17" transform="translate(3.272 56.677)" fill="#feca2e"/>
      <g id="Grupo_157085" data-name="Grupo 157085" transform="translate(1.998 1.954)">
        <path id="Trazado_247283" data-name="Trazado 247283" d="M47.421,35.21V32.079a3.014,3.014,0,0,0-3.01-3.01H38.023c.053-.254.127-.544.191-.788a12.84,12.84,0,0,0,.509-3.159,2.74,2.74,0,0,0-1.6-2.806,3.671,3.671,0,0,0-4.924,3.051,5.941,5.941,0,0,1-1.846,3.474,1.248,1.248,0,0,0-.992-.509H24.271A1.271,1.271,0,0,0,23,29.6V42.517a1.271,1.271,0,0,0,1.271,1.271h5.085a1.271,1.271,0,0,0,1.271-1.271v-.15l3.2.721a36.12,36.12,0,0,0,7.073.7h2.2a3.022,3.022,0,0,0,2.895-2.183l1.045-3.655a9.965,9.965,0,0,0,.383-2.741ZM28.085,41.246H25.543V30.875h2.543ZM44.879,35.21a7.43,7.43,0,0,1-.286,2.034L43.548,40.9a.468.468,0,0,1-.45.339H40.9a33.548,33.548,0,0,1-6.542-.644l-3.729-.834V31.69a7.931,7.931,0,0,0,4.036-5.721c.081-.325.192-.77.207-.825a2.082,2.082,0,0,1,1.232-.52,1.017,1.017,0,0,1,.078.491,10.668,10.668,0,0,1-.431,2.531c-.323,1.271-.6,2.367.069,3.232a1.962,1.962,0,0,0,1.634.727h6.959a.468.468,0,0,1,.468.468Z" transform="translate(3.699 3.508)" fill="#12263f"/>
        <path id="Trazado_247284" data-name="Trazado 247284" d="M66.835,55.406A11.379,11.379,0,0,0,59.7,57.917l-5.23-5.23a18.96,18.96,0,0,0,0-25.072l5.23-5.23a11.471,11.471,0,1,0-1.8-1.8l-5.23,5.23a18.96,18.96,0,0,0-25.072,0l-5.23-5.23A11.441,11.441,0,1,0,5.441,21.618a1.225,1.225,0,0,0,.1.09,11.388,11.388,0,0,0,15.034.676l5.23,5.23a18.96,18.96,0,0,0,0,25.072l-5.23,5.23A11.43,11.43,0,0,0,5.446,75.012a1.225,1.225,0,0,0,.1.09A11.427,11.427,0,0,0,22.376,59.719l5.23-5.23a18.96,18.96,0,0,0,25.072,0l5.23,5.23a11.4,11.4,0,0,0,.929,15.3,1.227,1.227,0,0,0,.1.09,11.441,11.441,0,1,0,7.9-19.7Zm-5.5-34.969a6.347,6.347,0,0,1,10.991,0A8.848,8.848,0,0,1,61.337,20.437Zm2.956-8.254a2.543,2.543,0,1,1,2.543,2.543A2.543,2.543,0,0,1,64.293,12.183Zm2.543-7.628A8.887,8.887,0,0,1,74.12,18.549a8.865,8.865,0,0,0-3.514-2.986,5.085,5.085,0,1,0-7.541,0,8.824,8.824,0,0,0-3.514,2.986A8.887,8.887,0,0,1,66.835,4.555Zm-53.394,0a8.887,8.887,0,0,1,7.284,13.994,8.865,8.865,0,0,0-3.514-2.986,5.085,5.085,0,1,0-7.541,0,8.824,8.824,0,0,0-3.514,2.986A8.887,8.887,0,0,1,13.442,4.555ZM10.9,12.183a2.543,2.543,0,1,1,2.543,2.543A2.543,2.543,0,0,1,10.9,12.183ZM7.944,20.437a6.347,6.347,0,0,1,10.991,0,8.848,8.848,0,0,1-10.991,0Zm0,53.393a6.347,6.347,0,0,1,10.991,0,8.848,8.848,0,0,1-10.991,0ZM10.9,65.576a2.543,2.543,0,1,1,2.543,2.543A2.543,2.543,0,0,1,10.9,65.576Zm9.827,6.367a8.865,8.865,0,0,0-3.514-2.986,5.085,5.085,0,1,0-7.541,0,8.824,8.824,0,0,0-3.514,2.986,8.9,8.9,0,1,1,14.57,0Zm2.886-31.792A16.527,16.527,0,1,1,40.139,56.677,16.527,16.527,0,0,1,23.612,40.151Zm37.725,33.68a6.347,6.347,0,0,1,10.991,0A8.848,8.848,0,0,1,61.337,73.831Zm2.956-8.254a2.543,2.543,0,1,1,2.543,2.543A2.543,2.543,0,0,1,64.293,65.576Zm9.827,6.367a8.865,8.865,0,0,0-3.514-2.986,5.085,5.085,0,1,0-7.541,0,8.824,8.824,0,0,0-3.514,2.986,8.9,8.9,0,1,1,14.57,0Z" transform="translate(-1.998 -1.954)" fill="#12263f"/>
      </g>
    </g>
  </g>
</svg>
