<svg xmlns="http://www.w3.org/2000/svg" xmlns:xlink="http://www.w3.org/1999/xlink" width="481.61" height="841" viewBox="0 0 481.61 841">
  <defs>
    <clipPath id="clip-path">
      <rect id="Rectángulo_89963" data-name="Rectángulo 89963" width="253" height="253" fill="none"/>
    </clipPath>
    <clipPath id="clip-path-2">
      <rect id="Rectángulo_89962" data-name="Rectángulo 89962" width="252.998" height="253.001" fill="none"/>
    </clipPath>
    <clipPath id="clip-path-4">
      <rect id="Rectángulo_89960" data-name="Rectángulo 89960" width="22.597" height="62.13" fill="none"/>
    </clipPath>
    <clipPath id="clip-path-5">
      <rect id="Rectángulo_89961" data-name="Rectángulo 89961" width="12.278" height="7.004" fill="none"/>
    </clipPath>
    <clipPath id="clip-path-6">
      <rect id="Rectángulo_89958" data-name="Rectángulo 89958" width="387.141" height="625.049" fill="none"/>
    </clipPath>
    <clipPath id="clip-path-8">
      <rect id="Rectángulo_89955" data-name="Rectángulo 89955" width="89.031" height="270.967" fill="none"/>
    </clipPath>
    <clipPath id="clip-path-9">
      <rect id="Rectángulo_89956" data-name="Rectángulo 89956" width="38.321" height="2.122" fill="none"/>
    </clipPath>
    <clipPath id="clip-path-10">
      <rect id="Rectángulo_89964" data-name="Rectángulo 89964" width="119.876" height="120.174" fill="none"/>
    </clipPath>
    <clipPath id="clip-path-11">
      <rect id="Rectángulo_89965" data-name="Rectángulo 89965" width="89.667" height="89.88" fill="#feca2e"/>
    </clipPath>
    <clipPath id="clip-path-12">
      <rect id="Rectángulo_89966" data-name="Rectángulo 89966" width="85.405" height="85.701" fill="none"/>
    </clipPath>
    <clipPath id="clip-path-13">
      <rect id="Rectángulo_89967" data-name="Rectángulo 89967" width="80.72" height="81" fill="none"/>
    </clipPath>
  </defs>
  <g id="Grupo_157662" data-name="Grupo 157662" transform="translate(490.469 6193)">
    <g id="Grupo_157652" data-name="Grupo 157652" transform="translate(-367 -6183)">
      <g id="Grupo_157288" data-name="Grupo 157288" clip-path="url(#clip-path)">
        <g id="Grupo_157287" data-name="Grupo 157287" transform="translate(0 -0.001)">
          <g id="Grupo_157286" data-name="Grupo 157286" clip-path="url(#clip-path-2)">
            <path id="Trazado_248147" data-name="Trazado 248147" d="M253,126.5A126.5,126.5,0,1,1,126.5,0,126.5,126.5,0,0,1,253,126.5" transform="translate(0 0.001)" fill="#fc4b52"/>
            <g id="Grupo_157279" data-name="Grupo 157279" transform="translate(0 0.001)" opacity="0.8">
              <g id="Grupo_157278" data-name="Grupo 157278" transform="translate(0 0)">
                <g id="Grupo_157277" data-name="Grupo 157277" clip-path="url(#clip-path)">
                  <path id="Trazado_248148" data-name="Trazado 248148" d="M253,126.5A126.5,126.5,0,1,1,126.5,0,126.5,126.5,0,0,1,253,126.5" transform="translate(0 0)" fill="#a7e446"/>
                </g>
              </g>
            </g>
            <path id="Trazado_248149" data-name="Trazado 248149" d="M126.2,58.611a50.247,50.247,0,1,0-54.9,64.714c1.772,5.686,3.77,12.1,3.77,12.1l42.048-13.1s-1.863-6.873-3.656-12.964A50.233,50.233,0,0,0,126.2,58.611" transform="translate(42.838 35.678)" fill="#feca2e"/>
            <path id="Trazado_248150" data-name="Trazado 248150" d="M84.173,96.93s-.056-.2-.137-.608c-.084-.428-.2-1.023-.344-1.79-.286-1.577-.716-3.9-1.187-6.914s-1-6.7-1.342-11.023a74.483,74.483,0,0,1,.2-14.706,47.619,47.619,0,0,1,1.709-8.408,9.253,9.253,0,0,1,2.362-3.967,5.188,5.188,0,0,1,4.6-1.271,3.425,3.425,0,0,1,2.111,1.425,3.521,3.521,0,0,1,.567,2.524A7.162,7.162,0,0,1,90,56.543a13.749,13.749,0,0,1-10.195,2.4,13.918,13.918,0,0,1-9.266-5.894A10.512,10.512,0,0,1,68.53,47.6a4.519,4.519,0,0,1,3.321-4.694,3.244,3.244,0,0,1,2.967.932,4.553,4.553,0,0,1,1.309,2.838A9.831,9.831,0,0,1,74.239,52.5a14.987,14.987,0,0,1-10.172,6.727A13.055,13.055,0,0,1,52.637,55.2,7.583,7.583,0,0,1,50.5,49.489a3.841,3.841,0,0,1,1.443-2.777,3.764,3.764,0,0,1,3.038-.648,5.013,5.013,0,0,1,2.681,1.473,7.811,7.811,0,0,1,1.592,2.537,14.433,14.433,0,0,1,.977,5.709,14.958,14.958,0,0,1-4.256,10.152,15.251,15.251,0,0,1-9.5,4.458,7.982,7.982,0,0,1-5.033-.947,3.889,3.889,0,0,1-1.7-4.537,3.283,3.283,0,0,1,1.828-1.727,4.744,4.744,0,0,1,2.425-.268,7.276,7.276,0,0,1,3.962,2.377c2.015,2.225,3.772,4.453,5.5,6.562C60.307,80.33,65.51,87.449,69.054,92.4c1.77,2.476,3.114,4.423,4.02,5.744l1.02,1.511c.225.344.329.529.329.529s-.137-.162-.382-.491c-.256-.354-.61-.846-1.068-1.478-.957-1.319-2.339-3.228-4.114-5.676C65.259,87.633,60,80.56,53.12,72.13c-1.732-2.089-3.524-4.334-5.506-6.506a6.8,6.8,0,0,0-3.691-2.218,3.01,3.01,0,0,0-2.19,5.6,7.46,7.46,0,0,0,4.7.848,14.685,14.685,0,0,0,9.142-4.316,14.391,14.391,0,0,0,4.073-9.767A13.905,13.905,0,0,0,58.7,50.3a5.462,5.462,0,0,0-3.83-3.643,3.164,3.164,0,0,0-2.559.539,3.232,3.232,0,0,0-1.2,2.352,6.988,6.988,0,0,0,1.982,5.24,12.457,12.457,0,0,0,10.886,3.825,14.379,14.379,0,0,0,9.744-6.451,9.272,9.272,0,0,0,1.8-5.43,3.952,3.952,0,0,0-1.127-2.458,2.636,2.636,0,0,0-2.423-.772,3.536,3.536,0,0,0-2.144,1.514,4.337,4.337,0,0,0-.7,2.575,9.974,9.974,0,0,0,1.9,5.124,13.356,13.356,0,0,0,8.868,5.666,13.221,13.221,0,0,0,9.767-2.263,6.633,6.633,0,0,0,2.527-3.992,2.966,2.966,0,0,0-2.273-3.382,4.681,4.681,0,0,0-4.147,1.137,8.8,8.8,0,0,0-2.246,3.757,47.47,47.47,0,0,0-1.727,8.306,75.184,75.184,0,0,0-.286,14.628c.309,4.309.8,8,1.235,11.013.463,2.987.823,5.316,1.073,6.927.119.775.213,1.372.281,1.8.061.408.076.618.076.618" transform="translate(60.522 65.615)" fill="#12263f"/>
            <path id="Trazado_248151" data-name="Trazado 248151" d="M86.933,69.242l-36.1,11.246a2.839,2.839,0,0,1-1.689-5.42l36.1-11.243a2.837,2.837,0,1,1,1.689,5.418" transform="translate(72.215 97.558)" fill="#12263f"/>
            <path id="Trazado_248152" data-name="Trazado 248152" d="M86.2,66.9,50.1,78.145a2.837,2.837,0,1,0,1.686,5.418l3.965-1.233,8.375,8.37a3.645,3.645,0,0,0,3.661.9l12.9-4.018A3.647,3.647,0,0,0,83.2,84.722l2-11.564,2.694-.841A2.837,2.837,0,1,0,86.2,66.9" transform="translate(73.682 102.268)" fill="#12263f"/>
            <g id="Grupo_157282" data-name="Grupo 157282" transform="translate(75.569 73.703)" opacity="0.2">
              <g id="Grupo_157281" data-name="Grupo 157281">
                <g id="Grupo_157280" data-name="Grupo 157280" clip-path="url(#clip-path-4)">
                  <path id="Trazado_248153" data-name="Trazado 248153" d="M35.006,43.671a36.933,36.933,0,0,1,7.618-9.377,26.7,26.7,0,0,1,6.724-4.453c1.757-.754,2.846-.9,3.053-.544.478.805-2.754,3.228-6.635,8.028a43.6,43.6,0,0,0-9.478,21.3,43.607,43.607,0,0,0,3.562,23.043c2.486,5.648,4.972,8.835,4.3,9.486-.294.289-1.3-.137-2.8-1.327a26.651,26.651,0,0,1-5.321-6.058A36.913,36.913,0,0,1,31.13,72.721a39.143,39.143,0,0,1-.962-14.914" transform="translate(-29.849 -29.113)" fill="#fff"/>
                </g>
              </g>
            </g>
            <g id="Grupo_157285" data-name="Grupo 157285" transform="translate(103.333 65.989)" opacity="0.2">
              <g id="Grupo_157284" data-name="Grupo 157284">
                <g id="Grupo_157283" data-name="Grupo 157283" clip-path="url(#clip-path-5)">
                  <path id="Trazado_248154" data-name="Trazado 248154" d="M47.785,32.439c-3.051.919-5.992.924-6.805-.59-.382-.757-.084-1.782.808-2.79a10.083,10.083,0,0,1,9.078-2.777c1.3.337,2.124,1.02,2.228,1.861" transform="translate(-40.817 -26.066)" fill="#fff"/>
                </g>
              </g>
            </g>
            <path id="Trazado_248155" data-name="Trazado 248155" d="M72.065,74.55c-.015.1-1.053-.03-2.719.01a21.017,21.017,0,0,0-12.083,4.149c-1.339.995-2.073,1.737-2.149,1.663a7.68,7.68,0,0,1,1.878-2.005,18.416,18.416,0,0,1,12.357-4.246,7.672,7.672,0,0,1,2.716.428" transform="translate(84.408 113.506)" fill="#455a64"/>
            <path id="Trazado_248156" data-name="Trazado 248156" d="M80.442,69.338c.051.162-6.435,2.327-14.483,4.835s-14.62,4.408-14.671,4.246,6.433-2.327,14.486-4.835,14.618-4.408,14.668-4.246" transform="translate(78.554 106.186)" fill="#455a64"/>
            <path id="Trazado_248157" data-name="Trazado 248157" d="M77.1,71.307a21.241,21.241,0,0,1-3.443,1.468c-2.157.825-5.162,1.9-8.511,2.995s-6.41,2.005-8.638,2.615a21.169,21.169,0,0,1-3.646.848,23.842,23.842,0,0,1,3.519-1.266c2.372-.772,5.316-1.727,8.572-2.785l8.559-2.818A23.634,23.634,0,0,1,77.1,71.307" transform="translate(80.968 109.202)" fill="#455a64"/>
          </g>
        </g>
      </g>
    </g>
    <g id="Grupo_157653" data-name="Grupo 157653" transform="translate(-396 -5977.049)">
      <g id="Grupo_157275" data-name="Grupo 157275" clip-path="url(#clip-path-6)">
        <g id="Grupo_157274" data-name="Grupo 157274">
          <g id="Grupo_157273" data-name="Grupo 157273" clip-path="url(#clip-path-6)">
            <path id="Trazado_248083" data-name="Trazado 248083" d="M90.887,123.092l-3.347,1.128c-14.951,5.045-59.409,19.742-72.856,25.245,0,0,23.8,210.5,26.593,230.063S44.77,477.35,44.77,477.35H297.957s-.675-210.958.057-243.678c.948-42.334,6.192-84.208,6.192-84.208l-44.225-17.288-51.706-27.251Z" transform="translate(20.476 146.312)" fill="#fc4b52"/>
            <g id="Grupo_157269" data-name="Grupo 157269" transform="translate(98.852 314.951)" opacity="0.3">
              <g id="Grupo_157268" data-name="Grupo 157268">
                <g id="Grupo_157267" data-name="Grupo 157267" clip-path="url(#clip-path-8)">
                  <path id="Trazado_248084" data-name="Trazado 248084" d="M110.113,131.534q-31,115.138-65.323,229.347c-2.7,8.972-5.378,18.828-1.734,27.46,3.254,7.705,11.247,12.789,19.536,13.895s16.752-1.343,24.055-5.421c17.111-9.554,28.223-27.543,33.687-46.366s5.95-38.675,6.4-58.269q1.792-78.385,3.582-156.764Z" transform="translate(-41.284 -131.534)"/>
                </g>
              </g>
            </g>
            <path id="Trazado_248085" data-name="Trazado 248085" d="M34.717,123.526S-2.416,139.981.479,205.976a812.779,812.779,0,0,0,8.776,85.968l104.419-30.07L87.122,147.284Z" transform="translate(0.443 172.25)" fill="#fc4b52"/>
            <path id="Trazado_248086" data-name="Trazado 248086" d="M121.366,229.734,115.775,305.9l104.975-34s-22.508-134.436-58.159-148.372L124.16,189.208Z" transform="translate(161.442 172.25)" fill="#fc4b52"/>
            <path id="Trazado_248087" data-name="Trazado 248087" d="M123.126,158.7a7.267,7.267,0,0,1,.2,1.549c.081,1.149.187,2.627.316,4.456.223,4.025.527,9.59.9,16.4.682,13.849,1.427,32.993,2.1,54.136.678,21.081,1.291,40.157,1.741,54.15.208,6.815.381,12.382.505,16.412.034,1.834.062,3.314.084,4.466a7.594,7.594,0,0,1-.055,1.559,7.037,7.037,0,0,1-.2-1.549c-.081-1.147-.187-2.624-.318-4.454-.22-4.025-.527-9.59-.9-16.4-.685-13.849-1.427-33-2.1-54.146-.678-21.074-1.288-40.148-1.738-54.141-.211-6.815-.381-12.382-.505-16.412-.036-1.834-.062-3.314-.084-4.466a7.413,7.413,0,0,1,.055-1.561" transform="translate(171.614 221.292)" fill="#12263f"/>
            <path id="Trazado_248088" data-name="Trazado 248088" d="M63.826,173.17a12,12,0,0,1-1.372-2.423q-1.379-2.748-3.386-6.757c-2.892-5.66-6.925-13.555-13.078-21.023s-13.567-12.494-19.431-14.814c-5.871-2.4-9.908-2.514-9.863-2.778a9.875,9.875,0,0,1,2.79.113,32.351,32.351,0,0,1,7.394,1.844c6.084,2.157,13.79,7.219,20.07,14.838s10.212,15.662,12.913,21.438c1.339,2.9,2.356,5.285,3.031,6.939a11.812,11.812,0,0,1,.931,2.624" transform="translate(23.281 174.758)" fill="#12263f"/>
            <path id="Trazado_248089" data-name="Trazado 248089" d="M134.033,122.193c.357.187-3.958,7.557-6.618,17.621-2.744,10.045-2.7,18.583-3.106,18.567-.151,0-.357-2.129-.206-5.577a63.965,63.965,0,0,1,6.956-25.886c1.6-3.062,2.845-4.8,2.974-4.724" transform="translate(172.983 170.389)" fill="#12263f"/>
            <path id="Trazado_248090" data-name="Trazado 248090" d="M69.878,137.023c-.007.062-.378-.026-1.032.11a4.022,4.022,0,0,0-2.294,1.676,9.729,9.729,0,0,0-1.6,4.346,18.511,18.511,0,0,1-.759,2.964,5.794,5.794,0,0,1-2.126,2.859c-2.263,1.5-5.438.838-7.763-.836-2.406-1.777-3.824-4.552-5.553-7.056a12.77,12.77,0,0,0-3.106-3.338,6.949,6.949,0,0,0-4.257-1.453,4.563,4.563,0,0,0-3.654,2.366,12,12,0,0,0-1.106,4.9c-.122,1.77-.144,3.558-.357,5.344a11.173,11.173,0,0,1-1.69,5.148,4.734,4.734,0,0,1-.915,1.042,4.822,4.822,0,0,1-1.094.848,6.518,6.518,0,0,1-2.576.817,9.449,9.449,0,0,1-4.959-.941c-3.015-1.477-4.885-4-6.618-6.132a23.74,23.74,0,0,0-5.28-5.373,7.893,7.893,0,0,0-5.711-1.5,6.055,6.055,0,0,0-3.7,2.483,4.293,4.293,0,0,0-.79,2.739c.041.675.223,1.01.156,1.034a2.053,2.053,0,0,1-.4-1,4.331,4.331,0,0,1,.63-3.034,6.481,6.481,0,0,1,3.965-2.9,8.531,8.531,0,0,1,6.336,1.444,23.969,23.969,0,0,1,5.6,5.462c1.755,2.1,3.628,4.48,6.3,5.74a8.306,8.306,0,0,0,4.339.8,5.059,5.059,0,0,0,3.716-2.227c1.755-2.615,1.542-6.307,1.805-9.877a13.019,13.019,0,0,1,1.262-5.407,5.791,5.791,0,0,1,4.674-2.988c3.891-.036,6.692,2.775,8.376,5.364,1.75,2.617,3.115,5.285,5.217,6.872,2.071,1.547,4.849,2.112,6.671.931,1.837-1.2,2.251-3.47,2.687-5.232a9.909,9.909,0,0,1,1.9-4.5,4.087,4.087,0,0,1,2.636-1.623,1.934,1.934,0,0,1,1.073.137" transform="translate(3.653 188.353)" fill="#fafafa"/>
            <path id="Trazado_248091" data-name="Trazado 248091" d="M94.756,150.641a4.338,4.338,0,0,1,.048,1.372,8.614,8.614,0,0,1-1.3,3.726,10.906,10.906,0,0,1-4.707,4.114,9.248,9.248,0,0,1-8.223-.117c-2.806-1.362-5.141-4.03-8.395-4.937-3.295-.979-6.874,1.3-8.958,4.48-2.174,3.211-3.055,7.423-5.258,11.338a13.3,13.3,0,0,1-4.77,4.969,7.662,7.662,0,0,1-7.119.565,12.464,12.464,0,0,1-4.98-5.069c-1.188-1.956-2.172-3.939-3.369-5.687a8.368,8.368,0,0,0-4.552-3.685,6.359,6.359,0,0,0-5.359,1.051c-3.192,2.177-5,5.61-6.451,8.807a72.492,72.492,0,0,1-4.509,8.879c-3.228,5.361-8.371,7.677-11.785,7.751a8.258,8.258,0,0,1-3.886-.682,4.9,4.9,0,0,1-.9-.486c-.194-.125-.287-.2-.278-.215a10.459,10.459,0,0,0,5.033.9c3.261-.232,8.06-2.519,11.074-7.739a74.476,74.476,0,0,0,4.312-8.836c1.427-3.216,3.254-6.9,6.752-9.331a7.522,7.522,0,0,1,6.3-1.245,9.531,9.531,0,0,1,5.249,4.138c1.274,1.846,2.268,3.848,3.424,5.735a11.32,11.32,0,0,0,4.437,4.581,6.405,6.405,0,0,0,5.984-.5,12.148,12.148,0,0,0,4.332-4.5c2.1-3.671,3.007-7.911,5.368-11.378a12.948,12.948,0,0,1,4.442-4.121,7.655,7.655,0,0,1,5.728-.711,14.579,14.579,0,0,1,4.664,2.526,32.705,32.705,0,0,0,3.874,2.629,8.53,8.53,0,0,0,7.533.263,10.631,10.631,0,0,0,4.585-3.742,10.408,10.408,0,0,0,1.659-4.832" transform="translate(0 210.059)" fill="#fafafa"/>
            <path id="Trazado_248092" data-name="Trazado 248092" d="M78.68,172.221c-.019.055-.309-.081-.879-.127a3.371,3.371,0,0,0-2.308.733,7.025,7.025,0,0,0-2.21,3.271c-.587,1.48-.441,3.3-.227,5.364.16,2.023.56,4.466-.517,6.939-1.063,2.512-4.018,4.049-6.956,3.984a11.032,11.032,0,0,1-8.227-3.824,33.4,33.4,0,0,1-5.227-8.371l.438.328c-2.414-.443-4.921,1.073-6.51,3.228-1.681,2.15-2.3,4.99-2.744,7.9a56.743,56.743,0,0,1-1.166,6.475,13.949,13.949,0,0,1-3.118,5.771,7.8,7.8,0,0,1-5.826,2.675,9.123,9.123,0,0,1-5.634-2.406c-3.06-2.61-4.578-6.075-6.664-8.62a10.115,10.115,0,0,0-7.578-4.329,9.514,9.514,0,0,0-6.9,2.306,10.042,10.042,0,0,0-2.926,4.8A12.68,12.68,0,0,0,3.29,203.2c-.019.007-.065-.1-.136-.3a5.694,5.694,0,0,1-.237-.948,9.543,9.543,0,0,1,.115-3.757A10.353,10.353,0,0,1,5.958,193a10.208,10.208,0,0,1,7.411-2.672,10.212,10.212,0,0,1,4.528,1.233,13.1,13.1,0,0,1,3.812,3.328c2.217,2.665,3.762,6.036,6.6,8.39a7.979,7.979,0,0,0,4.916,2.093,6.592,6.592,0,0,0,4.911-2.315,12.8,12.8,0,0,0,2.816-5.265,57.8,57.8,0,0,0,1.13-6.336c.445-2.926,1.1-6.046,2.991-8.455,1.743-2.366,4.674-4.219,7.7-3.666l.3.055.132.273a32.779,32.779,0,0,0,4.973,8.127,9.967,9.967,0,0,0,7.4,3.563c2.67.077,5.184-1.216,6.13-3.338.987-2.109.706-4.454.582-6.491-.16-2.033-.261-4.049.431-5.629a7.257,7.257,0,0,1,2.529-3.4,3.459,3.459,0,0,1,2.574-.608,2.017,2.017,0,0,1,.85.335" transform="translate(3.881 239.609)" fill="#fafafa"/>
            <path id="Trazado_248093" data-name="Trazado 248093" d="M199.643,167.782c.01.077-.445.06-1.207.345a5.664,5.664,0,0,0-2.7,2.172,14.766,14.766,0,0,0-2.133,5.177,30.247,30.247,0,0,1-2.03,7.413,7.708,7.708,0,0,1-3.043,3.5,5.537,5.537,0,0,1-5.071.148,10.091,10.091,0,0,1-3.862-3.721,33.4,33.4,0,0,1-2.526-4.918,15.509,15.509,0,0,0-3.1-4.523c-1.3-1.274-3.07-2.294-4.784-1.853a4.614,4.614,0,0,0-3.259,4.015,34.6,34.6,0,0,0-.316,6.245c-.074,4.37-1.331,8.869-4.372,11.958-2.96,3.027-7.633,4.384-11.369,2.722-3.654-1.657-5.847-4.676-8.292-6.791-2.337-2.239-5.294-3.5-7.926-2.751a10.04,10.04,0,0,0-5.708,4.305,18.708,18.708,0,0,0-2.236,5.17c-.814,3.027-1.1,4.765-1.207,4.741a4.925,4.925,0,0,1,.1-1.269c.11-.826.283-2.042.642-3.594a18.271,18.271,0,0,1,2.119-5.421,10.678,10.678,0,0,1,6.075-4.784,7.684,7.684,0,0,1,4.628.2,12.957,12.957,0,0,1,4.2,2.631c2.548,2.177,4.789,5.086,8.053,6.506,3.235,1.425,7.382.227,10.059-2.521,2.718-2.773,3.927-6.953,3.992-11.122a35.139,35.139,0,0,1,.347-6.467,7.663,7.663,0,0,1,1.317-3.106,5.184,5.184,0,0,1,2.873-1.851c2.373-.563,4.5.8,5.9,2.191a16.492,16.492,0,0,1,3.309,4.9,32.923,32.923,0,0,0,2.4,4.794,9.127,9.127,0,0,0,3.388,3.386,4.563,4.563,0,0,0,4.164-.062,6.837,6.837,0,0,0,2.713-3.046,30.744,30.744,0,0,0,2.143-7.186,14.71,14.71,0,0,1,2.423-5.3,5.646,5.646,0,0,1,3.01-2.121,2.812,2.812,0,0,1,1.281-.1" transform="translate(173.596 233.92)" fill="#fafafa"/>
            <path id="Trazado_248094" data-name="Trazado 248094" d="M189.694,144.267c.036.024-.115.326-.441.879s-.819,1.36-1.518,2.363a23.789,23.789,0,0,1-2.861,3.438,12.567,12.567,0,0,1-5.1,3.139,8.9,8.9,0,0,1-7.26-.642c-2.4-1.47-3.549-4.279-5.7-5.775a3.69,3.69,0,0,0-3.623-.374,6.328,6.328,0,0,0-2.787,3.017,11.368,11.368,0,0,0-1.142,4.332c-.074,1.566-.014,3.211-.077,4.894a14.118,14.118,0,0,1-.943,5.019,7.122,7.122,0,0,1-3.484,3.707c-3.189,1.446-6.563.627-9.221-.534a41.394,41.394,0,0,1-6.886-4.537,20.345,20.345,0,0,0-6.06-3.316,8.068,8.068,0,0,0-5.469.275,7.34,7.34,0,0,0-3.328,2.541,5.489,5.489,0,0,0-.816,3.482,2.261,2.261,0,0,1-.259-.958,4.547,4.547,0,0,1,.666-2.782,7.6,7.6,0,0,1,3.465-2.921,8.723,8.723,0,0,1,5.984-.484,20.739,20.739,0,0,1,6.417,3.321A42.164,42.164,0,0,0,146,166.682c2.493,1.075,5.615,1.712,8.223.484a5.9,5.9,0,0,0,2.878-3.1,13.04,13.04,0,0,0,.838-4.578c.06-1.626,0-3.256.081-4.913a12.529,12.529,0,0,1,1.291-4.813,7.466,7.466,0,0,1,3.391-3.556,4.869,4.869,0,0,1,4.753.505c2.538,1.9,3.553,4.609,5.61,5.854a8.027,8.027,0,0,0,6.458.673,12.088,12.088,0,0,0,4.873-2.8,26.374,26.374,0,0,0,2.95-3.218,29.67,29.67,0,0,1,2.347-2.952" transform="translate(171.092 201.17)" fill="#fafafa"/>
            <path id="Trazado_248095" data-name="Trazado 248095" d="M203.091,205.018a3.559,3.559,0,0,1-1.233,1.41,6.792,6.792,0,0,1-5.256.852,13.107,13.107,0,0,1-3.7-1.267,37.334,37.334,0,0,1-3.872-2.514,22.424,22.424,0,0,0-4.48-2.564,7.547,7.547,0,0,0-5.457-.141,9.624,9.624,0,0,0-4.463,4.15,51.492,51.492,0,0,0-3.115,6.226,34.44,34.44,0,0,1-3.644,6.721,10.336,10.336,0,0,1-3.1,2.742,6,6,0,0,1-2.016.759c-.357.072-.711.172-1.073.215l-1.1-.007a7.569,7.569,0,0,1-4.15-1.458,15.082,15.082,0,0,1-3.17-3.048c-1.834-2.277-3.345-4.8-5.141-7.109-1.781-2.277-3.936-4.461-6.743-5.2a10.881,10.881,0,0,0-8.414,1.753,19.9,19.9,0,0,0-6.194,6.522c-1.631,2.552-2.967,5.273-4.487,7.866a26.653,26.653,0,0,1-5.5,7.016,14.441,14.441,0,0,1-7.78,3.716,10.817,10.817,0,0,1-7.863-2.354,26.561,26.561,0,0,1-5.088-5.74c-2.773-3.987-5.206-7.894-8.634-10.057a9.758,9.758,0,0,0-5.34-1.619,12.489,12.489,0,0,0-4.937,1.13,13.622,13.622,0,0,0-6.1,5.361,11.024,11.024,0,0,0-1.59,4.93,17.808,17.808,0,0,1-.017,1.848,1.342,1.342,0,0,1-.1-.465A9.406,9.406,0,0,1,69.2,223.3a10.7,10.7,0,0,1,1.42-5.165,13.969,13.969,0,0,1,6.223-5.751,13.176,13.176,0,0,1,5.225-1.293,10.589,10.589,0,0,1,5.816,1.667c3.695,2.272,6.226,6.295,9.008,10.2a25.739,25.739,0,0,0,4.911,5.469,9.7,9.7,0,0,0,7.068,2.083,13.321,13.321,0,0,0,7.126-3.47,25.611,25.611,0,0,0,5.229-6.736c1.485-2.545,2.818-5.282,4.494-7.916a21.123,21.123,0,0,1,6.575-6.913,12.092,12.092,0,0,1,9.391-1.9c3.249.867,5.562,3.3,7.4,5.651,1.849,2.4,3.347,4.913,5.1,7.107,1.719,2.148,3.891,4.061,6.458,4.109A7.514,7.514,0,0,0,167,217.22a33.783,33.783,0,0,0,3.573-6.482,51.984,51.984,0,0,1,3.244-6.317,10.5,10.5,0,0,1,4.964-4.451,8.345,8.345,0,0,1,6.06.227,22.785,22.785,0,0,1,4.59,2.732,38.628,38.628,0,0,0,3.747,2.56,12.8,12.8,0,0,0,3.52,1.312,6.672,6.672,0,0,0,5.021-.582,10.331,10.331,0,0,0,1.374-1.2" transform="translate(96.495 278.203)" fill="#fafafa"/>
            <path id="Trazado_248096" data-name="Trazado 248096" d="M194.672,171.127c.019.01-.045.139-.194.386a2.526,2.526,0,0,1-.97.828,5.531,5.531,0,0,1-4.765-.429c-1.98-.922-3.534-3.173-6.168-4.231a3.892,3.892,0,0,0-4.032.7,10.016,10.016,0,0,0-2.212,4.5,29.874,29.874,0,0,1-1.949,5.584,7.717,7.717,0,0,1-2.078,2.543,6.636,6.636,0,0,1-3.209,1.252c-4.753.467-9.24-2.694-12.307-6.443a37.326,37.326,0,0,0-5.277-5.2,10.823,10.823,0,0,0-6.963-2.232c-5.131.225-10,3.58-13.375,7.871-3.414,4.415-5.708,9.5-8.728,13.988-2.89,4.549-7.068,8.321-11.915,9.9a13.4,13.4,0,0,1-7.375.453,12.39,12.39,0,0,1-5.96-3.6c-3.091-3.2-5.117-6.863-8.2-8.757a8,8,0,0,0-4.789-1.231,8.459,8.459,0,0,0-4.188,1.559,19.088,19.088,0,0,0-4.959,5.478c-2.181,3.505-2.967,5.694-3.086,5.637a7.652,7.652,0,0,1,.544-1.583,33.077,33.077,0,0,1,2.129-4.308A18.973,18.973,0,0,1,79.621,188a9.125,9.125,0,0,1,4.523-1.779,8.8,8.8,0,0,1,5.313,1.267c3.376,2.035,5.469,5.773,8.469,8.78a11.371,11.371,0,0,0,5.481,3.268,12.329,12.329,0,0,0,6.757-.477c4.547-1.535,8.448-5.038,11.263-9.492,2.938-4.384,5.225-9.494,8.759-14.077,3.556-4.5,8.632-8.067,14.319-8.325a12,12,0,0,1,7.708,2.495,37.737,37.737,0,0,1,5.426,5.385,20.468,20.468,0,0,0,5.206,4.624,10.581,10.581,0,0,0,6.132,1.561A5.715,5.715,0,0,0,173.536,178a29.913,29.913,0,0,0,1.951-5.38,10.628,10.628,0,0,1,2.524-4.83,4.624,4.624,0,0,1,4.81-.764c2.876,1.259,4.341,3.57,6.147,4.451a5.366,5.366,0,0,0,4.432.63,3.811,3.811,0,0,0,1.271-.984" transform="translate(100.36 232.414)" fill="#fafafa"/>
            <path id="Trazado_248097" data-name="Trazado 248097" d="M190.632,135.048c-.05.05-.376-.376-1.224-.821a5.652,5.652,0,0,0-4.054-.292,7.9,7.9,0,0,0-4.94,4.032c-1.319,2.241-1.968,5.179-2.976,8.393a18.57,18.57,0,0,1-2.287,4.839,8.972,8.972,0,0,1-4.715,3.534,11.165,11.165,0,0,1-6.293-.175,22.656,22.656,0,0,1-5.941-2.837c-3.7-2.4-7.277-5.613-11.841-6.42a10.9,10.9,0,0,0-6.724,1.1,19.885,19.885,0,0,0-5.682,4.523c-3.407,3.659-5.7,8.146-8.907,11.848a24.046,24.046,0,0,1-5.349,4.846,13.171,13.171,0,0,1-6.659,2.148c-4.743.1-8.615-2.447-11.678-4.842-3.094-2.488-5.668-5.062-8.4-6.9-2.7-1.837-5.546-3-8.112-2.957a10.5,10.5,0,0,0-6.182,1.985,6.909,6.909,0,0,0-2.5,3.273c-.33.907-.321,1.439-.4,1.429a3.7,3.7,0,0,1,.158-1.5,6.868,6.868,0,0,1,2.44-3.582,10.845,10.845,0,0,1,6.47-2.3c2.775-.11,5.79,1.07,8.61,2.921,2.849,1.844,5.507,4.427,8.553,6.815,3.022,2.32,6.743,4.64,11,4.509s8.153-3.022,11.115-6.637c3.084-3.565,5.373-8.069,8.919-11.9a20.941,20.941,0,0,1,6.048-4.794,12.1,12.1,0,0,1,7.478-1.19c5.057.941,8.666,4.322,12.272,6.664,3.544,2.351,7.693,3.987,11.307,2.981a7.993,7.993,0,0,0,4.226-3.1,17.925,17.925,0,0,0,2.236-4.564c1.039-3.115,1.765-6.137,3.209-8.467a9.76,9.76,0,0,1,2.514-2.845,8.136,8.136,0,0,1,2.912-1.3,5.744,5.744,0,0,1,4.291.544,3.1,3.1,0,0,1,1.1,1.042" transform="translate(105.63 185.861)" fill="#fafafa"/>
            <path id="Trazado_248098" data-name="Trazado 248098" d="M153.107,120.08a2.326,2.326,0,0,1-.141.9,13.878,13.878,0,0,1-.855,2.454,8.242,8.242,0,0,1-2.533,3.331,4.373,4.373,0,0,1-5.457-.354c-1.621-1.465-2.459-3.594-3.687-5.514a7.856,7.856,0,0,0-2.282-2.5,6.786,6.786,0,0,0-3.359-1.063A9.723,9.723,0,0,0,127.668,120a23.385,23.385,0,0,0-4.959,7.047,18.1,18.1,0,0,1-2.514,3.932,5.279,5.279,0,0,1-4.348,1.947,5.969,5.969,0,0,1-3.97-2.3,11.489,11.489,0,0,1-1.971-3.757c-.855-2.524-1.434-4.983-3.07-6.477a4.921,4.921,0,0,0-2.682-1.406,3.228,3.228,0,0,0-2.55.783c-1.374,1.214-1.93,3.024-2.5,4.47a10.276,10.276,0,0,1-2.057,3.611,4.078,4.078,0,0,1-2.289,1.322,1.571,1.571,0,0,1-.919-.062,4.173,4.173,0,0,0,2.845-1.58,10.35,10.35,0,0,0,1.762-3.52c.529-1.473.965-3.364,2.576-4.906a4.141,4.141,0,0,1,3.24-1.073,5.871,5.871,0,0,1,3.28,1.607c1.947,1.746,2.584,4.449,3.443,6.848a10.438,10.438,0,0,0,1.8,3.374,4.793,4.793,0,0,0,3.156,1.846,4.055,4.055,0,0,0,3.333-1.564,17.031,17.031,0,0,0,2.32-3.664,24.176,24.176,0,0,1,5.261-7.392,10.824,10.824,0,0,1,8.012-2.9,7.843,7.843,0,0,1,3.891,1.3,8.817,8.817,0,0,1,2.548,2.866c1.24,2.05,2.04,4.126,3.4,5.4a3.6,3.6,0,0,0,4.48.433,8.025,8.025,0,0,0,2.485-2.967c1.015-1.954,1.322-3.175,1.432-3.137" transform="translate(130.855 161.969)" fill="#fafafa"/>
            <path id="Trazado_248099" data-name="Trazado 248099" d="M90.88,117.872a4.152,4.152,0,0,1,.227,1.135,30.583,30.583,0,0,1,.295,3.3,15.509,15.509,0,0,1-.62,5.256,8.771,8.771,0,0,1-4.549,5.356,6.231,6.231,0,0,1-4.209.536,6.683,6.683,0,0,1-3.731-2.687c-.948-1.255-1.645-2.67-2.5-3.975a7.074,7.074,0,0,0-3.316-3.043c-2.912-1.068-6.647.577-8.237,3.647a12.911,12.911,0,0,0-1.487,5.1,37.909,37.909,0,0,0,.1,5.687,18.022,18.022,0,0,1-.429,5.945,8.278,8.278,0,0,1-3.374,4.882,6.564,6.564,0,0,1-5.737.462A12.592,12.592,0,0,1,48.8,146.5c-2.445-2.548-3.948-5.421-6.051-7.459a9.194,9.194,0,0,0-7.162-2.9,8.981,8.981,0,0,0-5.943,2.545,9.518,9.518,0,0,0-2.464,4.346,12.985,12.985,0,0,0-.232,4.348,2.967,2.967,0,0,1-.326-1.116,8.881,8.881,0,0,1,.086-3.343,9.76,9.76,0,0,1,2.435-4.719,9.634,9.634,0,0,1,6.393-2.943,10.09,10.09,0,0,1,7.93,3.046c2.265,2.145,3.855,5.064,6.137,7.38a11.538,11.538,0,0,0,4.106,2.675,5.368,5.368,0,0,0,4.7-.376,7.1,7.1,0,0,0,2.828-4.183,16.943,16.943,0,0,0,.371-5.543c-.306-3.81-.426-8.029,1.573-11.46,1.834-3.467,6.13-5.455,9.7-4.118a8.149,8.149,0,0,1,3.838,3.525c.881,1.389,1.549,2.792,2.409,3.951a5.712,5.712,0,0,0,3.132,2.373,5.376,5.376,0,0,0,3.606-.4,8.091,8.091,0,0,0,4.257-4.782,15.78,15.78,0,0,0,.8-5.031c.017-2.84-.151-4.43-.038-4.437" transform="translate(36.952 164.366)" fill="#fafafa"/>
            <path id="Trazado_248100" data-name="Trazado 248100" d="M213.115,6.536C196.9,3.043,181.63,18.58,165.144,16.775,155.133,15.68,147.03,8.442,137.857,4.29c-13.72-6.209-32.347-5.821-45.152,2.1S71.89,22.3,71.327,37.353C58.558,31.4,39.536,48.446,33.869,63.823s-2.636,30.522,2.634,46.04A216.225,216.225,0,0,0,78.563,182.7c1.647,1.88,4.2,3.9,6.36,2.648,1.5-.867,1.841-2.845,1.971-4.569,1.1-14.695-1.987-29.33-4.48-43.852s-4.387-29.552-.946-43.881S94.733,65.085,108.9,61.022c10.461-3,21.806-.476,31.712,4.032s18.818,10.907,28.336,16.189S189,90.761,199.878,90.315s22.062-6.539,25.85-16.744-2.574-23.707-13.373-25.06A22.081,22.081,0,0,0,230,27.837a22.082,22.082,0,0,0-16.883-21.3" transform="translate(42.979 0.001)" fill="#12263f"/>
            <path id="Trazado_248101" data-name="Trazado 248101" d="M170.41,252.919l-4.185-31.243s40.672-11.421,36.209-52.922c-2.157-20.042-9.954-60.943-17.441-97.883a77.778,77.778,0,0,0-85.5-61.784l-4,.481c-42.813,7.7-60.194,48.353-51.318,90.936L68.308,267.151a51.545,51.545,0,0,0,102.1-14.233" transform="translate(58.459 11.89)" fill="#ffbe9d"/>
            <path id="Trazado_248102" data-name="Trazado 248102" d="M126.39,102.7s-25.934,5.275-55.87-8.867c0,0,16.352,28.29,57.256,19.591Z" transform="translate(98.336 130.84)" fill="#eb996e"/>
            <path id="Trazado_248103" data-name="Trazado 248103" d="M103.224,47.942a6.073,6.073,0,0,1-4.952,6.886A5.809,5.809,0,0,1,91.494,50a6.079,6.079,0,0,1,4.945-6.891,5.818,5.818,0,0,1,6.786,4.834" transform="translate(127.483 59.985)" fill="#12263f"/>
            <path id="Trazado_248104" data-name="Trazado 248104" d="M112.616,47.5c-.642.86-5.522-1.92-11.888-1.137-6.372.687-10.651,4.526-11.436,3.829-.381-.3.2-1.789,2.057-3.513a16.33,16.33,0,0,1,9.039-4.02,15.708,15.708,0,0,1,9.58,1.868c2.138,1.269,2.969,2.584,2.648,2.974" transform="translate(124.358 59.341)" fill="#12263f"/>
            <path id="Trazado_248105" data-name="Trazado 248105" d="M77.907,50.139a6.138,6.138,0,0,1-4.93,7.009,5.87,5.87,0,0,1-6.8-4.949A6.142,6.142,0,0,1,71.1,45.187a5.876,5.876,0,0,1,6.8,4.952" transform="translate(92.175 62.886)" fill="#12263f"/>
            <path id="Trazado_248106" data-name="Trazado 248106" d="M87.088,49.578c-.642.86-5.529-1.918-11.891-1.137-6.369.69-10.65,4.528-11.436,3.829-.378-.3.194-1.784,2.059-3.51a16.323,16.323,0,0,1,9.037-4.023,15.725,15.725,0,0,1,9.58,1.868c2.133,1.269,2.969,2.586,2.651,2.974" transform="translate(88.758 62.233)" fill="#12263f"/>
            <path id="Trazado_248107" data-name="Trazado 248107" d="M90.342,96.37c-.074-.359,3.8-1.518,10.119-3.108,1.6-.364,3.106-.872,3.247-2.014.242-1.221-.649-2.892-1.664-4.691q-3-5.625-6.3-11.8c-8.795-16.828-15.368-30.745-14.69-31.092S89.42,56.67,98.215,73.5q3.2,6.232,6.1,11.9c.836,1.774,2.148,3.743,1.609,6.281a4.105,4.105,0,0,1-2.387,2.7,11.105,11.105,0,0,1-2.715.716c-6.415,1.123-10.416,1.633-10.483,1.274" transform="translate(112.961 60.874)" fill="#12263f"/>
            <path id="Trazado_248108" data-name="Trazado 248108" d="M77.708,68.452c1.03-.184,1.872,6.726,8.378,10.921,6.5,4.214,13.77,2.552,13.943,3.513.146.421-1.482,1.54-4.581,2a17.328,17.328,0,0,1-11.592-2.541,15.1,15.1,0,0,1-6.582-9.211c-.611-2.857-.046-4.662.433-4.679" transform="translate(107.383 95.448)" fill="#12263f"/>
            <path id="Trazado_248109" data-name="Trazado 248109" d="M88.832,36.564c-.421,1.808-6.877,1.75-14.24,3.546-7.4,1.652-13.162,4.561-14.34,3.127-.532-.69.323-2.445,2.56-4.413a25.519,25.519,0,0,1,21.773-5.086c2.876.776,4.42,1.971,4.248,2.825" transform="translate(83.805 46.121)" fill="#12263f"/>
            <path id="Trazado_248110" data-name="Trazado 248110" d="M109.782,39.024c-.946,1.58-5.514.606-10.8,1.168-5.3.378-9.623,2.143-10.835.752-.539-.678-.01-2.212,1.779-3.817a15.728,15.728,0,0,1,17.432-1.547c2.04,1.262,2.833,2.679,2.423,3.443" transform="translate(122.638 46.913)" fill="#12263f"/>
            <path id="Trazado_248111" data-name="Trazado 248111" d="M60.735,59.841c-.742-.22-29.485-5-25.178,23.219s31.753,18.078,31.679,17.262-6.5-40.481-6.5-40.481" transform="translate(48.969 82.835)" fill="#ffbe9d"/>
            <path id="Trazado_248112" data-name="Trazado 248112" d="M52.638,85.136c-.139-.072-.441.419-1.212.927a4.983,4.983,0,0,1-3.664.637c-3.149-.639-6.381-4.99-7.3-10.057a16.444,16.444,0,0,1,.3-7.248c.548-2.2,1.664-3.843,3.122-4.339A2.533,2.533,0,0,1,47,65.962c.5.73.4,1.322.563,1.348.089.057.534-.565.127-1.7a3.172,3.172,0,0,0-1.379-1.6,3.751,3.751,0,0,0-2.828-.3c-2.153.481-3.807,2.785-4.468,5.16A16.875,16.875,0,0,0,38.508,77c1.049,5.66,4.772,10.538,9.032,11.093a5.327,5.327,0,0,0,4.384-1.432c.766-.831.819-1.485.714-1.52" transform="translate(53.314 88.643)" fill="#eb996e"/>
            <path id="Trazado_248113" data-name="Trazado 248113" d="M195.364,65.5a60.275,60.275,0,0,1-54.608-5.593C129.651,52.57,120.4,41.218,107.3,38.845,98.48,37.25,89.252,40.219,81.98,45.458S69.188,58.024,64.62,65.737c10.536,20.1,7.981,44.252,5.153,66.767-.311,2.49-.721,5.179-2.514,6.934-3.041,2.979-8.3,1.566-11.589-1.137-5.263-4.334-7.909-11.031-9.9-17.551C41.221,105.9,38.949,90.213,40.52,74.761s7.128-30.673,17-42.667C69.847,17.108,88.543,7.856,107.847,5.837s39.063,2.95,55.836,12.715c7.782,4.533,15.138,10.253,19.8,17.954" transform="translate(55.811 7.521)" fill="#12263f"/>
            <path id="Trazado_248114" data-name="Trazado 248114" d="M199.276,9.361a6.114,6.114,0,0,1,.041,2.488,11.581,11.581,0,0,1-3.259,6.317,18.151,18.151,0,0,1-10.162,4.8,30.4,30.4,0,0,1-7.083.412,15.147,15.147,0,0,1-7.622-2.481,10.056,10.056,0,0,1-4.5-7.571c-.18-3.331,2.138-6.434,5.146-7.954a10.97,10.97,0,0,1,5.019-1.262,9.317,9.317,0,0,1,5.129,1.6,12.984,12.984,0,0,1,5.409,9.4,15.042,15.042,0,0,1-3.218,10.931,22.894,22.894,0,0,1-9.568,7.059c-7.6,3.1-16.419,2.651-24.524.273-8.194-2.337-15.55-6.266-22.467-10.1s-13.636-7.483-20.458-9.851a42.289,42.289,0,0,0-20.037-2.4A40.4,40.4,0,0,0,70.7,17.409a50.508,50.508,0,0,0-16.747,19.34A66.209,66.209,0,0,0,51.074,43.2a19.241,19.241,0,0,1-.929,2.294,2.114,2.114,0,0,1,.129-.618c.113-.4.268-1,.532-1.772a53.057,53.057,0,0,1,2.651-6.6A49.892,49.892,0,0,1,70.138,16.578,41.179,41.179,0,0,1,86.952,9.859a43.327,43.327,0,0,1,20.633,2.327c6.97,2.385,13.761,6.063,20.7,9.868,6.922,3.819,14.178,7.672,22.189,9.959,7.926,2.32,16.388,2.734,23.616-.2a21.586,21.586,0,0,0,9.013-6.594,13.717,13.717,0,0,0,3-9.966,11.736,11.736,0,0,0-4.8-8.507,8.594,8.594,0,0,0-8.919-.33c-2.722,1.358-4.727,4.059-4.595,6.872a9.059,9.059,0,0,0,3.989,6.8,14.292,14.292,0,0,0,7.114,2.4,29.967,29.967,0,0,0,6.882-.292,17.78,17.78,0,0,0,9.9-4.413,11.644,11.644,0,0,0,3.367-5.977,19.466,19.466,0,0,0,.242-2.438" transform="translate(69.915 5.731)" fill="#455a64"/>
            <path id="Trazado_248115" data-name="Trazado 248115" d="M31.211,57.308c.077-.309,3.367,1.236,8.922,1.209a24.583,24.583,0,0,0,9.377-2.126A41.3,41.3,0,0,0,59.518,50a33.337,33.337,0,0,0,10.6-18.394c1.1-5.469.551-8.991.831-9a7.416,7.416,0,0,1,.441,2.435,28.314,28.314,0,0,1-.287,6.748A32.536,32.536,0,0,1,60.442,51.07a39.846,39.846,0,0,1-10.43,6.52,24.211,24.211,0,0,1-9.882,1.928,22.544,22.544,0,0,1-6.664-1.19,7.207,7.207,0,0,1-2.256-1.02" transform="translate(43.52 31.521)" fill="#455a64"/>
            <path id="Trazado_248116" data-name="Trazado 248116" d="M32.755,66.065c.007-.263,3.4.077,8.711-.867a40.269,40.269,0,0,0,18.756-8.74A40.28,40.28,0,0,0,71.9,39.375c1.8-5.083,2.014-8.488,2.275-8.452a6.99,6.99,0,0,1-.022,2.387,32.505,32.505,0,0,1-1.3,6.379,37.785,37.785,0,0,1-31.231,26.5,32.634,32.634,0,0,1-6.508.247,6.972,6.972,0,0,1-2.359-.369" transform="translate(45.675 43.119)" fill="#455a64"/>
            <path id="Trazado_248117" data-name="Trazado 248117" d="M65.962,60.349a.777.777,0,1,1,.431-.955.742.742,0,0,1-.431.955" transform="translate(90.649 82.058)" fill="#eb996e"/>
            <path id="Trazado_248118" data-name="Trazado 248118" d="M70.933,58.709a.91.91,0,1,1,.4-1.063.813.813,0,0,1-.4,1.063" transform="translate(97.514 79.476)" fill="#eb996e"/>
            <path id="Trazado_248119" data-name="Trazado 248119" d="M74.355,58.53c-.378.093-.812-.33-.967-.951s.029-1.2.407-1.293.812.33.965.951-.026,1.2-.4,1.293" transform="translate(102.259 78.47)" fill="#eb996e"/>
            <path id="Trazado_248120" data-name="Trazado 248120" d="M68.729,62.891c-.388.048-.726-.117-.757-.364s.261-.488.649-.534.726.117.754.364-.259.488-.646.534" transform="translate(94.781 86.434)" fill="#eb996e"/>
            <path id="Trazado_248121" data-name="Trazado 248121" d="M73.329,61.645a.81.81,0,1,1,.527-.931.762.762,0,0,1-.527.931" transform="translate(101.03 83.75)" fill="#eb996e"/>
            <path id="Trazado_248122" data-name="Trazado 248122" d="M97.285,55.818a.8.8,0,1,1,.424-.979.755.755,0,0,1-.424.979" transform="translate(134.313 75.674)" fill="#eb996e"/>
            <path id="Trazado_248123" data-name="Trazado 248123" d="M100.677,55.2a.915.915,0,1,1,.5-1.022.818.818,0,0,1-.5,1.022" transform="translate(139.12 74.532)" fill="#eb996e"/>
            <path id="Trazado_248124" data-name="Trazado 248124" d="M94.194,56.079a.627.627,0,1,1,.479-.812.667.667,0,0,1-.479.812" transform="translate(130.104 76.497)" fill="#eb996e"/>
            <path id="Trazado_248125" data-name="Trazado 248125" d="M97.33,59.394a.827.827,0,1,1,.192-1.063.769.769,0,0,1-.192,1.063" transform="translate(134.112 80.737)" fill="#eb996e"/>
            <path id="Trazado_248126" data-name="Trazado 248126" d="M99.906,58.268a.6.6,0,1,1,.783-.486.653.653,0,0,1-.783.486" transform="translate(138.449 79.597)" fill="#eb996e"/>
            <path id="Trazado_248127" data-name="Trazado 248127" d="M36.8,71.86c.043.141-1.552.134-2.825-1.717a4.927,4.927,0,0,1-.74-3.692,6.205,6.205,0,0,1,2.562-3.814,6.505,6.505,0,0,1,4.442-1.1,7.226,7.226,0,0,1,3.448,1.317c1.729,1.283,2.021,2.687,1.9,2.7-.189.115-.752-1.032-2.385-1.961a6.389,6.389,0,0,0-6.692.065,5.37,5.37,0,0,0-2.153,3.034,4.273,4.273,0,0,0,.376,3c.85,1.643,2.15,1.98,2.066,2.167" transform="translate(46.21 85.75)" fill="#12263f"/>
            <path id="Trazado_248128" data-name="Trazado 248128" d="M258.922,210l2.131,61.827s-179.246,35.51-202.3,47.388S26.28,332.93,27.676,367.168l286.443-.491s35.3-13.227,34.6-51.658-10.3-130.77-10.3-130.77Z" transform="translate(38.406 256.925)" fill="#ffbe9d"/>
            <path id="Trazado_248129" data-name="Trazado 248129" d="M73.012,300.22l23.8-2.177,22.723-54.287c-3.685-.625-80.346-11.958-84.862-10.718L16.292,298.355s55.079,1.863,56.72,1.865" transform="translate(22.718 324.829)" fill="#ffbe9d"/>
            <path id="Trazado_248130" data-name="Trazado 248130" d="M23.272,270.424c.057.11.512.208,1.279.292,6.331.692,35.567-1.089,35.567-1.089,1.336-3.774-1.192-15.119-4.832-15.782s-34.755,1.434-34.755,1.434-4.9.644-6.12,8.881c-.754,5.086,8.862,6.264,8.862,6.264" transform="translate(20.036 353.791)" fill="#ffbe9d"/>
            <path id="Trazado_248131" data-name="Trazado 248131" d="M19.149,263.485c.057.11.51.208,1.276.29,6.331.694,33.97.39,35.165-2.979,1.338-3.774-.788-13.227-4.427-13.89s-34.755,1.432-34.755,1.432-4.9.644-6.123,8.881c-.752,5.088,8.864,6.266,8.864,6.266" transform="translate(14.283 344.115)" fill="#ffbe9d"/>
            <path id="Trazado_248132" data-name="Trazado 248132" d="M17.1,256.7c.057.11.512.208,1.276.292,6.331.692,33.972.388,35.165-2.979,1.338-3.776-.788-13.229-4.427-13.893s-34.755,1.434-34.755,1.434-4.9.642-6.12,8.879C7.484,255.525,17.1,256.7,17.1,256.7" transform="translate(11.429 334.658)" fill="#ffbe9d"/>
            <path id="Trazado_248133" data-name="Trazado 248133" d="M15.178,249.96c.057.11.512.208,1.276.292,6.331.692,33.972.388,35.165-2.979,1.338-3.776-.788-13.229-4.427-13.895s-34.755,1.437-34.755,1.437-4.9.642-6.12,8.879c-.754,5.088,8.862,6.266,8.862,6.266" transform="translate(8.749 325.253)" fill="#ffbe9d"/>
            <path id="Trazado_248134" data-name="Trazado 248134" d="M43.669,254.029c-.041.476-6.068,1.032-13.457,1.243s-13.349,0-13.308-.479,6.065-1.032,13.457-1.243,13.349,0,13.308.479" transform="translate(23.572 353.449)" fill="#eb996e"/>
            <path id="Trazado_248135" data-name="Trazado 248135" d="M50.462,247.162c.014.479-8.551,1.142-19.132,1.477s-19.172.218-19.189-.261,8.551-1.142,19.134-1.477,19.17-.22,19.187.261" transform="translate(16.93 344.022)" fill="#eb996e"/>
            <g id="Grupo_157272" data-name="Grupo 157272" transform="translate(27.763 574.169)" opacity="0.78">
              <g id="Grupo_157271" data-name="Grupo 157271">
                <g id="Grupo_157270" data-name="Grupo 157270" clip-path="url(#clip-path-9)">
                  <path id="Trazado_248136" data-name="Trazado 248136" d="M49.916,240.245c.014.481-8.551,1.142-19.132,1.477s-19.172.218-19.189-.261,8.551-1.142,19.134-1.477,19.172-.22,19.187.261" transform="translate(-11.594 -239.792)" fill="#eb996e"/>
                </g>
              </g>
            </g>
            <path id="Trazado_248137" data-name="Trazado 248137" d="M83.235,247.457s-52.182-23.2-55.439-19.85-8.282,14.125-8.282,14.125Z" transform="translate(27.211 316.924)" fill="#ffbe9d"/>
            <path id="Trazado_248138" data-name="Trazado 248138" d="M166.354,274.851c-.22.065-1.283-3.735-3.766-9.561a97.587,97.587,0,0,0-4.947-9.942,104.323,104.323,0,0,0-7.564-11.28,104.408,104.408,0,0,0-9.1-10.088,97.534,97.534,0,0,0-8.436-7.224c-5.043-3.829-8.467-5.785-8.352-5.984a11.813,11.813,0,0,1,2.493,1.219,63.538,63.538,0,0,1,6.384,4.054,84.115,84.115,0,0,1,8.7,7.1,94.866,94.866,0,0,1,9.29,10.155,95,95,0,0,1,7.581,11.484,84.1,84.1,0,0,1,4.763,10.169,63.651,63.651,0,0,1,2.375,7.181,11.709,11.709,0,0,1,.575,2.715" transform="translate(173.176 307.845)" fill="#eb996e"/>
            <path id="Trazado_248139" data-name="Trazado 248139" d="M120.934,121.779,66.956,275.4,6.274,292.872s22,93.111,44.47,109.833c7.629,5.677,20.123,11.836,32.9,10.945,24.256-1.693,51.461-18.794,61.829-42.671,9.214-21.22,33.834-240.625,33.834-240.625Z" transform="translate(8.749 169.814)" fill="#ffbe9d"/>
            <path id="Trazado_248140" data-name="Trazado 248140" d="M122.032,211.257l3.144-37.432-8.68-30.041-3.359-11.493L119.7,139l11.977-12.76s-3.886-22.673-7.126-22.673c-2.03,0-7.973,2.038-12.121,3.558-2.466.9-4.3,1.623-4.3,1.623l-10.138,5.182,10.138-15.545s10.44,8.687,15.779,1.14c4.083-5.773-11.129-18.708-16.862-23.269a5.673,5.673,0,0,0-4.657-1.116L96.481,76.33c.184-3.335-3.436-7.806-8.654-7.88-7.732-.115-11.335,6.791-11.335,6.791l-6.238,1.121a10.38,10.38,0,0,0-9.741,6.8l-13.7,37.253L64.4,196.143" transform="translate(65.285 95.448)" fill="#ffbe9d"/>
            <path id="Trazado_248141" data-name="Trazado 248141" d="M64.7,196.494s-.156-.45-.388-1.343q-.359-1.43-.994-3.965c-.855-3.551-2.088-8.665-3.661-15.186-3.12-13.213-7.581-32.112-13.014-55.127l-.034-.141.05-.139c2.7-7.389,5.558-15.217,8.558-23.425q2.252-6.16,4.607-12.6a12.107,12.107,0,0,1,3.845-5.993,11.058,11.058,0,0,1,6.886-2.447l-.1.007,6.235-1.128-.417.306a15.243,15.243,0,0,1,4.564-4.928,12.509,12.509,0,0,1,6.522-2.16,9.643,9.643,0,0,1,6.709,2.11,8.181,8.181,0,0,1,3.328,6.376l-.733-.635,4.47-.9a19.991,19.991,0,0,1,2.349-.4,6.331,6.331,0,0,1,2.512.374,6.878,6.878,0,0,1,2.141,1.3l1.81,1.477q1.8,1.5,3.561,3.074a79.639,79.639,0,0,1,6.74,6.745c2.054,2.447,4.185,5.012,5.091,8.378a5.479,5.479,0,0,1-.074,3.039,7.267,7.267,0,0,1-1.736,2.45,7.353,7.353,0,0,1-5.414,1.968c-3.9-.232-7.176-2.169-10.073-4.363l.917-.136Q103.8,106.97,98.8,114.618l-.79-.879q5.136-2.618,10.143-5.174l.031-.017.024-.007c3.422-1.3,6.8-2.579,10.205-3.666a45.242,45.242,0,0,1,5.189-1.406,4.616,4.616,0,0,1,1.523-.091,2.4,2.4,0,0,1,1.336,1.046,12.039,12.039,0,0,1,1.25,2.435c2.43,6.611,3.6,13.237,4.806,19.637l.05.268-.192.2-12,12.738-.374.4-.376-.388-6.551-6.726.836-.488,11.91,41.575.019.065-.007.065c-1.063,11.793-1.9,21.129-2.485,27.586-.3,3.146-.541,5.589-.709,7.308-.086.785-.156,1.4-.206,1.877a3.264,3.264,0,0,1-.1.632,2.841,2.841,0,0,1,0-.642c.026-.474.062-1.1.11-1.884.122-1.722.295-4.169.52-7.322.5-6.465,1.231-15.811,2.15-27.615l.012.132c-3.369-11.489-7.459-25.436-12.171-41.5l-.56-1.911,1.4,1.422c2.129,2.165,4.305,4.382,6.58,6.7l-.749.007q5.743-6.145,11.953-12.782l-.141.469c-1.207-6.329-2.428-13.007-4.8-19.388a10.966,10.966,0,0,0-1.118-2.186,1.48,1.48,0,0,0-.63-.584,4.142,4.142,0,0,0-1.08.1,43.252,43.252,0,0,0-5.028,1.379c-3.369,1.08-6.731,2.363-10.129,3.656l.053-.024q-5,2.564-10.136,5.189l-2.042,1.046,1.252-1.923q4.982-7.647,10.133-15.552l.364-.558.553.419c2.687,2.052,5.931,3.9,9.314,4.071a6.092,6.092,0,0,0,4.53-1.635,6.249,6.249,0,0,0,1.406-1.944,4.258,4.258,0,0,0,.036-2.354c-.759-2.9-2.809-5.478-4.815-7.839a78.1,78.1,0,0,0-6.628-6.637q-1.738-1.566-3.522-3.046c-1.228-.936-2.332-2.129-3.587-2.567a6.865,6.865,0,0,0-4.19.077q-2.248.453-4.473.9l-.754.151.022-.785A7.017,7.017,0,0,0,93.3,71.288a8.408,8.408,0,0,0-5.893-1.856c-4.3.084-8.081,2.972-10.095,6.429l-.151.261-.268.048c-2.16.388-4.305.771-6.238,1.116l-.053.01h-.053a9.9,9.9,0,0,0-6.163,2.174,10.934,10.934,0,0,0-3.508,5.49q-2.374,6.426-4.648,12.58c-3.034,8.2-5.924,16.014-8.654,23.389l.017-.28,12.6,55.223c1.461,6.549,2.605,11.682,3.4,15.245.366,1.707.649,3.036.855,4,.184.9.244,1.377.244,1.377" transform="translate(64.988 95.099)" fill="#eb996e"/>
            <path id="Trazado_248142" data-name="Trazado 248142" d="M72.217,97.479c-.125-.261,4.341-2.655,10.5-5.653l3.9-1.894-3.24,2.9a9.995,9.995,0,0,0-2.16,2.761,10.214,10.214,0,0,0-1.2,5.534,10.521,10.521,0,0,0,1.425,4.468c1.4,2.359,2.979,3.276,2.847,3.448-.031.122-1.853-.536-3.589-2.969a10.523,10.523,0,0,1-1.825-4.842,10.887,10.887,0,0,1,3.7-9.314l.656,1c-6.211,2.878-10.89,4.822-11.014,4.559" transform="translate(100.7 125.405)" fill="#eb996e"/>
            <path id="Trazado_248143" data-name="Trazado 248143" d="M60.24,103.324c-.146-.091.984-2.241,2.933-5.648s4.712-8.067,7.832-13.174c1.573-2.555,3.031-4.978,4.47-7.176a14.972,14.972,0,0,1,4.959-5.016A7.791,7.791,0,0,1,85.1,71.277c1.14.144,1.676.527,1.647.579-.034.105-.615-.11-1.676-.1a8.1,8.1,0,0,0-4.19,1.307c-3.3,1.944-5.608,7.059-8.812,12.085-3.12,5.107-6,9.7-8.144,12.983s-3.539,5.277-3.685,5.189" transform="translate(83.984 99.325)" fill="#eb996e"/>
            <path id="Trazado_248144" data-name="Trazado 248144" d="M52.5,103.7c-.153-.067.51-2.016,1.772-5.091S57.4,91.344,59.656,86.8s4.456-8.575,6.139-11.441,2.833-4.573,2.981-4.492-.723,1.947-2.205,4.911c-1.7,3.4-3.649,7.284-5.8,11.575-2.112,4.305-4.025,8.206-5.7,11.618-1.463,2.974-2.411,4.8-2.574,4.729" transform="translate(73.176 98.819)" fill="#eb996e"/>
            <path id="Trazado_248145" data-name="Trazado 248145" d="M48.807,179.667a13.18,13.18,0,0,1-.876,2.782c-.745,2-1.671,4.482-2.773,7.43-2.361,6.264-5.6,14.922-9.017,24.541s-6.367,18.385-8.484,24.735c-1.008,2.981-1.856,5.493-2.536,7.514a12.939,12.939,0,0,1-1.078,2.711,13.3,13.3,0,0,1,.613-2.852c.469-1.815,1.2-4.425,2.157-7.638,1.906-6.424,4.729-15.245,8.151-24.886s6.8-18.26,9.374-24.447c1.286-3.1,2.361-5.584,3.142-7.289a13.136,13.136,0,0,1,1.327-2.6" transform="translate(33.505 250.534)" fill="#eb996e"/>
            <path id="Trazado_248146" data-name="Trazado 248146" d="M153.6,231.572a3.039,3.039,0,0,1-.053.709c-.072.534-.163,1.214-.275,2.062-.275,1.9-.658,4.545-1.145,7.914-.522,3.434-1.159,7.636-2.124,12.485a100.76,100.76,0,0,1-4.511,16.184,53.573,53.573,0,0,1-10.557,17.405,79.583,79.583,0,0,1-18.2,14.676,97.737,97.737,0,0,1-23.858,9.925,52.8,52.8,0,0,1-13.605,1.9,41.265,41.265,0,0,1-13.955-2.445,51.39,51.39,0,0,1-22.228-16.424,88.216,88.216,0,0,1-12.877-22.4c-3.132-7.655-4.983-15.277-7.145-22.225-2.155-6.965-4.162-13.459-6-19.4-3.7-11.85-6.53-21.5-8.292-28.221-.888-3.357-1.537-5.974-1.94-7.758-.187-.838-.335-1.506-.45-2.033a2.9,2.9,0,0,1-.113-.7,3.022,3.022,0,0,1,.237.673c.146.517.333,1.176.567,2,.52,1.844,1.245,4.418,2.167,7.691,1.9,6.673,4.851,16.27,8.663,28.085,1.882,5.924,3.939,12.406,6.147,19.359s4.1,14.546,7.222,22.094a87.55,87.55,0,0,0,12.758,22.06,50.337,50.337,0,0,0,21.7,16.024,40.108,40.108,0,0,0,13.536,2.378,51.712,51.712,0,0,0,13.3-1.846,97.356,97.356,0,0,0,23.583-9.731,79.1,79.1,0,0,0,18.021-14.388,52.984,52.984,0,0,0,10.5-17.025,102.693,102.693,0,0,0,4.65-16c1.025-4.815,1.731-9,2.325-12.42.587-3.352,1.046-5.988,1.377-7.878.165-.84.3-1.513.4-2.042a2.934,2.934,0,0,1,.177-.687" transform="translate(8.745 269.452)" fill="#eb996e"/>
          </g>
        </g>
      </g>
    </g>
    <g id="Grupo_157654" data-name="Grupo 157654" transform="translate(-490.469 -5976)">
      <g id="Grupo_157290" data-name="Grupo 157290" transform="translate(0 -0.001)" clip-path="url(#clip-path-10)">
        <path id="Trazado_248158" data-name="Trazado 248158" d="M119.661,59.915A59.7,59.7,0,1,1,59.96.215a59.7,59.7,0,0,1,59.7,59.7" transform="translate(0.208 0.173)" fill="#fc4b52"/>
        <path id="Trazado_248160" data-name="Trazado 248160" d="M15.8,45.237A31.725,31.725,0,1,1,45.375,78.974,31.727,31.727,0,0,1,15.8,45.237" transform="translate(12.576 12.466)" fill="#feca2e"/>
        <g id="Grupo_157296" data-name="Grupo 157296">
          <path id="Trazado_248162" data-name="Trazado 248162" d="M47.93,42.069a6.352,6.352,0,0,1-1.123.074l-3.083.063c-2.617.036-6.263.061-10.377.067h-.2v-.2c0-.659,0-1.353,0-2.057,0-4.6.022-8.755.058-11.768.027-1.451.049-2.653.065-3.565a8.156,8.156,0,0,1,.081-1.307,8.06,8.06,0,0,1,.079,1.307c.02.912.04,2.115.065,3.565.038,3.013.061,7.172.061,11.768,0,.7,0,1.4,0,2.057l-.2-.2c4.114.005,7.76.031,10.377.067l3.083.063a6.351,6.351,0,0,1,1.123.074" transform="translate(26.504 18.69)" fill="#12263f"/>
          <path id="Trazado_248163" data-name="Trazado 248163" d="M33.4,18.485a8.832,8.832,0,0,1,.205,2.665,8.823,8.823,0,0,1-.205,2.665A8.822,8.822,0,0,1,33.2,21.15a8.832,8.832,0,0,1,.205-2.665" transform="translate(26.547 14.783)" fill="#12263f"/>
          <path id="Trazado_248164" data-name="Trazado 248164" d="M43,20.867a8.614,8.614,0,0,1-1.711,2,8.56,8.56,0,0,1-2,1.711,8.561,8.561,0,0,1,1.711-2,8.669,8.669,0,0,1,2-1.711" transform="translate(31.408 16.683)" fill="#12263f"/>
          <path id="Trazado_248165" data-name="Trazado 248165" d="M48.036,26a11.055,11.055,0,0,1-2.187,1.46,11.094,11.094,0,0,1-2.3,1.269,7.03,7.03,0,0,1,2.089-1.62A7.029,7.029,0,0,1,48.036,26" transform="translate(34.821 20.781)" fill="#12263f"/>
          <path id="Trazado_248166" data-name="Trazado 248166" d="M52.023,33.7a16.263,16.263,0,0,1-3.634.205,16.273,16.273,0,0,1-3.635-.205,16.272,16.272,0,0,1,3.635-.205,16.262,16.262,0,0,1,3.634.205" transform="translate(35.788 26.785)" fill="#12263f"/>
          <path id="Trazado_248167" data-name="Trazado 248167" d="M23.842,33.429a14.416,14.416,0,0,1-3.432.205,14.4,14.4,0,0,1-3.432-.205,14.517,14.517,0,0,1,3.432-.205,14.53,14.53,0,0,1,3.432.205" transform="translate(13.577 26.569)" fill="#12263f"/>
          <path id="Trazado_248168" data-name="Trazado 248168" d="M25.192,39.01A14.986,14.986,0,0,1,22.6,41.362,15.052,15.052,0,0,1,19.748,43.4a14.986,14.986,0,0,1,2.593-2.352,15.037,15.037,0,0,1,2.851-2.034" transform="translate(15.79 31.191)" fill="#12263f"/>
          <path id="Trazado_248169" data-name="Trazado 248169" d="M29.28,43.391a23.263,23.263,0,0,1-1.765,3.059,22.989,22.989,0,0,1-1.873,2.995,11.537,11.537,0,0,1,1.523-3.207,11.479,11.479,0,0,1,2.116-2.847" transform="translate(20.496 34.697)" fill="#12263f"/>
          <path id="Trazado_248170" data-name="Trazado 248170" d="M33.4,52.274A16.262,16.262,0,0,1,33.2,48.64a16.272,16.272,0,0,1,.205-3.635,16.274,16.274,0,0,1,.205,3.635,16.263,16.263,0,0,1-.205,3.634" transform="translate(26.547 35.99)" fill="#12263f"/>
          <path id="Trazado_248171" data-name="Trazado 248171" d="M44.434,48.462a10.615,10.615,0,0,1-3-2.053A10.67,10.67,0,0,1,39,43.722,33.343,33.343,0,0,1,41.707,46.1a33.22,33.22,0,0,1,2.726,2.361" transform="translate(31.179 34.96)" fill="#12263f"/>
          <path id="Trazado_248172" data-name="Trazado 248172" d="M48.112,43.966a12.582,12.582,0,0,1-2.406-2.116,12.659,12.659,0,0,1-2.116-2.406A12.66,12.66,0,0,1,46,41.559a12.581,12.581,0,0,1,2.116,2.406" transform="translate(34.853 31.539)" fill="#12263f"/>
          <path id="Trazado_248173" data-name="Trazado 248173" d="M24.348,29.67a9.62,9.62,0,0,1-2.124-1.834,9.74,9.74,0,0,1-1.834-2.124,9.74,9.74,0,0,1,2.124,1.834,9.787,9.787,0,0,1,1.834,2.124" transform="translate(16.301 20.558)" fill="#12263f"/>
          <path id="Trazado_248174" data-name="Trazado 248174" d="M29.357,24.319a9.3,9.3,0,0,1-2.088-1.789,9.335,9.335,0,0,1-1.8-2.079,9.256,9.256,0,0,1,2.088,1.789,9.335,9.335,0,0,1,1.8,2.079" transform="translate(20.364 16.351)" fill="#12263f"/>
        </g>
      </g>
    </g>
    <g id="Grupo_157655" data-name="Grupo 157655" transform="translate(-98.667 -5896.141)">
      <g id="Grupo_157292" data-name="Grupo 157292" transform="translate(0 0)" clip-path="url(#clip-path-11)">
        <path id="Trazado_248179" data-name="Trazado 248179" d="M44.414,0A44.414,44.414,0,1,1,0,44.414,44.414,44.414,0,0,1,44.414,0Z" transform="translate(0.7 0.798)" fill="#feca2e"/>
        <path id="Trazado_248176" data-name="Trazado 248176" d="M67.6,62.815a5.678,5.678,0,0,1-.986.065l-2.827.061-10.4.1-34.308.095h-2.77v-.323c.039-12.815.074-24.308.1-32.676.041-4.1.076-7.438.1-9.817.025-1.109.044-1.993.058-2.662a5.107,5.107,0,0,1,.063-.925,5.106,5.106,0,0,1,.063.925c.014.669.035,1.552.06,2.662.023,2.379.058,5.713.1,9.817.026,8.368.061,19.86.1,32.676l-.324-.324h2.446c13.367.038,25.469.071,34.308.095l10.4.1,2.827.061a5.679,5.679,0,0,1,.986.065" transform="translate(4.825 4.95)" fill="#12263f"/>
        <path id="Trazado_248177" data-name="Trazado 248177" d="M60.785,25.363a13.181,13.181,0,0,1-1.521,1.453l-4.3,3.777c-3.652,3.168-8.724,7.51-14.355,12.276l-.853.722-.219.185-.21-.194-6.383-5.933.4.009c-3.759,3.1-6.987,5.764-9.376,7.733l-2.72,2.177a6.015,6.015,0,0,1-1.017.727,5.942,5.942,0,0,1,.89-.877l2.611-2.308L32.953,37.2l.2-.172.2.181c2,1.835,4.154,3.82,6.414,5.9l-.428-.009.851-.723c5.63-4.765,10.75-9.051,14.476-12.13L59.1,26.623a13.078,13.078,0,0,1,1.683-1.259" transform="translate(5.982 7.501)" fill="#12263f"/>
        <path id="Trazado_248178" data-name="Trazado 248178" d="M54.273,36.172a16.01,16.01,0,0,1-.224-3.18c-.057-1.971-.095-4.7-.1-7.749l.323.324h-.551c-3.171,0-6.041-.036-8.118-.095a17.332,17.332,0,0,1-3.361-.229,17.411,17.411,0,0,1,3.361-.228c2.077-.06,4.947-.095,8.118-.095H54.6v.323c-.005,3.045-.041,5.778-.1,7.749a16.012,16.012,0,0,1-.224,3.18" transform="translate(12.495 7.371)" fill="#12263f"/>
      </g>
    </g>
    <g id="Grupo_157656" data-name="Grupo 157656" transform="translate(-477.833 -6192.701)">
      <g id="Grupo_157294" data-name="Grupo 157294" transform="translate(0 0)" clip-path="url(#clip-path-12)">
        <path id="Trazado_248180" data-name="Trazado 248180" d="M85.059,42.6A42.4,42.4,0,1,1,42.659.2a42.4,42.4,0,0,1,42.4,42.4" transform="translate(0.319 0.248)" fill="#feca2e"/>
        <path id="Trazado_248182" data-name="Trazado 248182" d="M32.119,30.06a9.908,9.908,0,0,0,5.9-9.164c.022-5.474-4.12-9.931-9.251-9.955s-9.309,4.394-9.332,9.868a9.89,9.89,0,0,0,5.92,9.251c-14.3,2.154-13.65,17.694-13.65,17.694l33.812.156s.773-15.71-13.4-17.85" transform="translate(14.363 13.425)" fill="#12263f"/>
        <path id="Trazado_248183" data-name="Trazado 248183" d="M32.243,30.153a16.457,16.457,0,0,1,6.243,2.18,14.741,14.741,0,0,1,5.133,5.748,22.05,22.05,0,0,1,2.2,9.931v.171l-.178,0-33.814-.1h-.225l0-.22a21.948,21.948,0,0,1,2.114-9.563,14.563,14.563,0,0,1,4.9-5.768,17.64,17.64,0,0,1,6.83-2.595l-.053.432a10.1,10.1,0,0,1-6.027-8.871,10.358,10.358,0,0,1,4.254-8.977,9.045,9.045,0,0,1,8.819-.9,9.855,9.855,0,0,1,5.216,5.717,10.647,10.647,0,0,1,.232,6.367,10.016,10.016,0,0,1-2.318,4.182,9.245,9.245,0,0,1-2.379,1.842,7.978,7.978,0,0,1-.949.428,10.47,10.47,0,0,0,3.209-2.374,10,10,0,0,0,2.216-4.138,10.406,10.406,0,0,0-.29-6.207,9.534,9.534,0,0,0-5.078-5.5,8.679,8.679,0,0,0-8.452.9,9.976,9.976,0,0,0-4.056,8.634,9.672,9.672,0,0,0,5.777,8.472l.71.292-.764.143a17.191,17.191,0,0,0-6.637,2.528A14.109,14.109,0,0,0,14.134,38.5a21.582,21.582,0,0,0-2.071,9.34l-.227-.22,33.81.207-.178.169a21.887,21.887,0,0,0-2.1-9.786A14.649,14.649,0,0,0,38.378,32.5a12.676,12.676,0,0,0-2.505-1.274,9.691,9.691,0,0,0-1.982-.659l-1.648-.416" transform="translate(14.239 13.331)" fill="#12263f"/>
      </g>
    </g>
    <line id="Línea_466" data-name="Línea 466" x2="61" y2="99" transform="translate(-134 -5990)" fill="none" stroke="#12263f" stroke-width="3"/>
    <line id="Línea_467" data-name="Línea 467" y1="23" x2="41" transform="translate(-124 -6131)" fill="none" stroke="#12263f" stroke-width="3"/>
    <line id="Línea_468" data-name="Línea 468" y1="31" x2="41" transform="translate(-384.531 -5984)" fill="none" stroke="#12263f" stroke-width="3"/>
    <line id="Línea_469" data-name="Línea 469" x2="42" y2="21" transform="translate(-394 -6138)" fill="none" stroke="#12263f" stroke-width="3"/>
    <g id="Grupo_157657" data-name="Grupo 157657" transform="translate(-89.72 -6193)">
      <g id="Grupo_157297" data-name="Grupo 157297" transform="translate(0 0)" clip-path="url(#clip-path-13)">
        <circle id="Elipse_5695" data-name="Elipse 5695" cx="40" cy="40" r="40" transform="translate(0.72 1)" fill="#fc4b52"/>
        <path id="Trazado_248185" data-name="Trazado 248185" d="M46.941,26.54A18.277,18.277,0,1,0,12.91,35.772H12.9l.053.069c.7,1.181,1.579,2.025,2.465,3.267L26.031,53.163a3.3,3.3,0,0,0,5.267,0L41.733,39.34a39.651,39.651,0,0,0,2.654-3.517l.038-.051h-.008a18.159,18.159,0,0,0,2.524-9.232M28.664,34.5a8.043,8.043,0,1,1,8.043-8.043A8.044,8.044,0,0,1,28.664,34.5" transform="translate(11.477 9.13)" fill="#12263f"/>
      </g>
    </g>
  </g>
</svg>
