<svg xmlns="http://www.w3.org/2000/svg" xmlns:xlink="http://www.w3.org/1999/xlink" width="245.408" height="224.028" viewBox="0 0 245.408 224.028">
  <defs>
    <clipPath id="clip-path">
      <rect id="Rectángulo_89904" data-name="Rectángulo 89904" width="245.408" height="147.754" fill="none"/>
    </clipPath>
    <clipPath id="clip-path-6">
      <rect id="Rectángulo_89882" data-name="Rectángulo 89882" width="23.624" height="13.92" fill="none"/>
    </clipPath>
    <clipPath id="clip-path-7">
      <rect id="Rectángulo_89883" data-name="Rectángulo 89883" width="4.024" height="4.024" fill="none"/>
    </clipPath>
    <clipPath id="clip-path-8">
      <rect id="Rectángulo_89884" data-name="Rectángulo 89884" width="23.901" height="22.823" fill="none"/>
    </clipPath>
    <clipPath id="clip-path-12">
      <rect id="Rectángulo_89889" data-name="Rectángulo 89889" width="25.868" height="17.431" fill="none"/>
    </clipPath>
    <clipPath id="clip-path-14">
      <rect id="Rectángulo_89891" data-name="Rectángulo 89891" width="13.489" height="38.327" fill="none"/>
    </clipPath>
    <clipPath id="clip-path-16">
      <rect id="Rectángulo_89896" data-name="Rectángulo 89896" width="2.604" height="3.927" fill="none"/>
    </clipPath>
    <clipPath id="clip-path-17">
      <rect id="Rectángulo_89897" data-name="Rectángulo 89897" width="2.498" height="6.953" fill="none"/>
    </clipPath>
    <clipPath id="clip-path-18">
      <rect id="Rectángulo_89898" data-name="Rectángulo 89898" width="1.65" height="5.393" fill="none"/>
    </clipPath>
    <clipPath id="clip-path-19">
      <rect id="Rectángulo_89899" data-name="Rectángulo 89899" width="13.707" height="6.953" fill="none"/>
    </clipPath>
    <clipPath id="clip-path-20">
      <rect id="Rectángulo_89900" data-name="Rectángulo 89900" width="2.575" height="4.743" fill="none"/>
    </clipPath>
    <clipPath id="clip-path-21">
      <rect id="Rectángulo_89901" data-name="Rectángulo 89901" width="7.729" height="3.006" fill="none"/>
    </clipPath>
  </defs>
  <g id="Grupo_120597" data-name="Grupo 120597" transform="translate(-6697.625 -6952.922)">
    <circle id="Elipse_5184" data-name="Elipse 5184" cx="112.014" cy="112.014" r="112.014" transform="translate(6708.315 6952.922)" fill="#dff7f9"/>
    <g id="Grupo_157204" data-name="Grupo 157204" transform="translate(6697.625 6991.058)">
      <g id="Grupo_157203" data-name="Grupo 157203" clip-path="url(#clip-path)">
        <rect id="Rectángulo_89857" data-name="Rectángulo 89857" width="36.446" height="60.33" transform="translate(204.942 9.531)" fill="#feca2e"/>
        <rect id="Rectángulo_89858" data-name="Rectángulo 89858" width="36.446" height="60.33" transform="translate(203.73 9.531)" fill="#fedd77"/>
        <rect id="Rectángulo_89859" data-name="Rectángulo 89859" width="33.343" height="57.883" transform="translate(205.282 10.755)" fill="#fff7de"/>
        <rect id="Rectángulo_89860" data-name="Rectángulo 89860" width="20.503" height="42.84" transform="translate(211.629 18.276)" fill="#fedd77"/>
        <g id="Grupo_157153" data-name="Grupo 157153">
          <g id="Grupo_157152" data-name="Grupo 157152" clip-path="url(#clip-path)">
            <path id="Trazado_247494" data-name="Trazado 247494" d="M608.586,102.513c-.047-4,3.551-7.909,7.514-8.467,1.89-.267,3.9.108,5.663-.615,3.152-1.293,4.154-5.48,7.326-6.722l.145,30.964H608.586Z" transform="translate(-396.957 -56.557)" fill="#feca2e"/>
            <rect id="Rectángulo_89861" data-name="Rectángulo 89861" width="24.994" height="26.054" transform="translate(39.412 0.008)" fill="#feca2e"/>
            <rect id="Rectángulo_89862" data-name="Rectángulo 89862" width="24.994" height="26.054" transform="translate(37.719 0.008)" fill="#fff7de"/>
            <path id="Trazado_247495" data-name="Trazado 247495" d="M133.456,26.069H108.447V0h25.009Zm-24.994-.015h24.978V.016H108.463Z" transform="translate(-70.736)" fill="#feca2e"/>
            <rect id="Rectángulo_89863" data-name="Rectángulo 89863" width="18.274" height="19.049" transform="translate(41.079 3.51)" fill="#fff"/>
            <path id="Trazado_247496" data-name="Trazado 247496" d="M111.876,65.236a2.984,2.984,0,0,1-.451.525c-.292.308-.7.725-1.161,1.177s-.882.856-1.194,1.143a2.909,2.909,0,0,1-.528.44A2.911,2.911,0,0,1,108.99,68c.292-.308.7-.725,1.164-1.18s.884-.859,1.2-1.145a2.9,2.9,0,0,1,.526-.438" transform="translate(-70.796 -42.55)" fill="#feca2e"/>
            <path id="Trazado_247497" data-name="Trazado 247497" d="M170.681,65.1a3.007,3.007,0,0,1,.524.451c.308.292.725.7,1.177,1.161s.856.883,1.143,1.194a2.947,2.947,0,0,1,.44.528,2.9,2.9,0,0,1-.522-.449c-.308-.292-.726-.7-1.18-1.164s-.859-.884-1.145-1.2a2.859,2.859,0,0,1-.438-.526" transform="translate(-111.328 -42.463)" fill="#feca2e"/>
            <path id="Trazado_247498" data-name="Trazado 247498" d="M170.537,4.077a3.006,3.006,0,0,1,.451-.524c.292-.308.7-.725,1.161-1.177s.883-.856,1.194-1.143a2.907,2.907,0,0,1,.528-.44,2.922,2.922,0,0,1-.449.522c-.292.308-.7.726-1.164,1.18s-.884.859-1.2,1.145a2.86,2.86,0,0,1-.526.438" transform="translate(-111.234 -0.517)" fill="#feca2e"/>
            <path id="Trazado_247499" data-name="Trazado 247499" d="M111.825,4.119a2.967,2.967,0,0,1-.524-.451c-.308-.292-.725-.7-1.177-1.161s-.856-.882-1.143-1.194a2.909,2.909,0,0,1-.44-.528,2.9,2.9,0,0,1,.522.449c.308.292.726.7,1.18,1.164s.859.884,1.145,1.2a2.846,2.846,0,0,1,.438.526" transform="translate(-70.796 -0.511)" fill="#feca2e"/>
            <path id="Trazado_247500" data-name="Trazado 247500" d="M136.2,28.991a.793.793,0,0,1,0-.092c0-.065,0-.153,0-.266,0-.239,0-.582-.008-1.028,0-.9-.01-2.215-.018-3.882-.009-3.337-.021-8.089-.036-13.78l.071.071-18.222.01h0l.081-.081c0,6.992-.008,13.533-.011,19.049l-.07-.07,13.2.035,3.707.018.981.008.253,0a.834.834,0,0,1,.088,0,.545.545,0,0,1-.081,0l-.246,0-.967.008-3.691.018-13.239.035h-.07v-.07c0-5.516-.007-12.057-.011-19.049V9.861h.083l18.222.01h.071v.071c-.015,5.71-.027,10.478-.036,13.825-.008,1.66-.014,2.968-.018,3.867q-.006.66-.008,1.015c0,.11,0,.2,0,.258a.606.606,0,0,1,0,.085" transform="translate(-76.901 -6.432)" fill="#feca2e"/>
            <rect id="Rectángulo_89864" data-name="Rectángulo 89864" width="6.098" height="6.098" transform="translate(47.167 9.986)" fill="#fedd77"/>
            <rect id="Rectángulo_89865" data-name="Rectángulo 89865" width="24.294" height="35.214" transform="translate(7.075 18.723)" fill="#feca2e"/>
            <rect id="Rectángulo_89866" data-name="Rectángulo 89866" width="24.294" height="35.214" transform="translate(5.858 18.723)" fill="#ffeebc"/>
            <rect id="Rectángulo_89867" data-name="Rectángulo 89867" width="18.258" height="27.586" transform="translate(8.877 22.537)" fill="#fff"/>
            <path id="Trazado_247501" data-name="Trazado 247501" d="M43.661,92.273s0-.047,0-.135,0-.221,0-.391c0-.347,0-.854-.007-1.513,0-1.322-.009-3.249-.016-5.683-.007-4.864-.017-11.753-.03-19.864l.061.061-18.256.005h0l.066-.066c-.005,10.406-.01,20-.013,27.586l-.053-.052,13.289.027,3.671.014.964.006c.218,0,.333.006.333.006s-.107,0-.322.006l-.954.006-3.66.014L25.4,92.326h-.053v-.053c0-7.585-.008-17.179-.014-27.586v-.066h.068l18.256.006h.061v.061c-.012,8.128-.023,15.03-.03,19.9-.007,2.428-.013,4.35-.016,5.669,0,.654-.006,1.157-.007,1.5,0,.167,0,.295,0,.385s0,.128,0,.128" transform="translate(-16.526 -42.15)" fill="#feca2e"/>
            <path id="Trazado_247502" data-name="Trazado 247502" d="M80.7,53.842a4.208,4.208,0,0,1-.433.629c-.282.378-.683.891-1.14,1.446s-.885,1.047-1.2,1.4a4.188,4.188,0,0,1-.534.545,4.573,4.573,0,0,1,.464-.606l1.169-1.419,1.169-1.419a4.507,4.507,0,0,1,.506-.571" transform="translate(-50.479 -35.119)" fill="#feca2e"/>
            <path id="Trazado_247503" data-name="Trazado 247503" d="M78.3,143.885a22.615,22.615,0,0,0,3.185,3.983" transform="translate(-51.071 -93.851)" fill="#fff"/>
            <path id="Trazado_247504" data-name="Trazado 247504" d="M81.481,147.867a3.609,3.609,0,0,1-.555-.5,17.769,17.769,0,0,1-2.259-2.825,3.648,3.648,0,0,1-.371-.653,5.031,5.031,0,0,1,.448.6c.268.376.644.89,1.083,1.44s.858,1.03,1.166,1.374a5.023,5.023,0,0,1,.487.569" transform="translate(-51.069 -93.85)" fill="#feca2e"/>
            <path id="Trazado_247505" data-name="Trazado 247505" d="M16.837,147.663l3.182-3.926" transform="translate(-10.982 -93.754)" fill="#fff"/>
            <path id="Trazado_247506" data-name="Trazado 247506" d="M20.018,143.736a24.23,24.23,0,0,1-1.54,2.005,24.283,24.283,0,0,1-1.642,1.922,24.245,24.245,0,0,1,1.54-2.005,24.431,24.431,0,0,1,1.642-1.922" transform="translate(-10.981 -93.753)" fill="#feca2e"/>
            <path id="Trazado_247507" data-name="Trazado 247507" d="M16.845,53.842a22.055,22.055,0,0,1,1.545,1.846,21.948,21.948,0,0,1,1.441,1.929,21.881,21.881,0,0,1-1.545-1.847,21.976,21.976,0,0,1-1.441-1.928" transform="translate(-10.987 -35.119)" fill="#feca2e"/>
            <rect id="Rectángulo_89868" data-name="Rectángulo 89868" width="6.113" height="17.358" transform="translate(15.333 28.138)" fill="#feca2e"/>
          </g>
        </g>
        <g id="Grupo_157155" data-name="Grupo 157155">
          <g id="Grupo_157154" data-name="Grupo 157154" clip-path="url(#clip-path)">
            <path id="Trazado_247508" data-name="Trazado 247508" d="M245.408,424.1c0,.05-54.941.09-122.7.09-67.781,0-122.71-.04-122.71-.09s54.929-.09,122.71-.09c67.757,0,122.7.04,122.7.09" transform="translate(0 -276.563)" fill="#12263f"/>
          </g>
        </g>
        <g id="Grupo_157157" data-name="Grupo 157157">
          <g id="Grupo_157156" data-name="Grupo 157156" clip-path="url(#clip-path)">
            <path id="Trazado_247509" data-name="Trazado 247509" d="M323.008,219.409H171.352a5.066,5.066,0,0,1-5.066-5.066V115.116a2.7,2.7,0,0,1,2.7-2.7H325.73a2.344,2.344,0,0,1,2.344,2.344v99.579a5.066,5.066,0,0,1-5.066,5.066" transform="translate(-108.462 -73.328)" fill="#12263f"/>
            <path id="Trazado_247510" data-name="Trazado 247510" d="M317.343,406.7H151.6a4.771,4.771,0,0,1-4.771-4.771v-4.59H322.115v4.59a4.771,4.771,0,0,1-4.771,4.771" transform="translate(-95.772 -259.167)" fill="#12263f"/>
            <rect id="Rectángulo_89871" data-name="Rectángulo 89871" width="152.65" height="90.35" transform="translate(62.167 43.344)" fill="#f5f5f5"/>
            <path id="Trazado_247511" data-name="Trazado 247511" d="M353.05,397.336l2.175,3.46h30.607l2.02-3.46Z" transform="translate(-230.281 -259.167)" fill="#a7e446"/>
            <rect id="Rectángulo_89872" data-name="Rectángulo 89872" width="161.788" height="0.516" transform="translate(57.85 138.137)" fill="#a7e446"/>
          </g>
        </g>
        <g id="Grupo_157168" data-name="Grupo 157168">
          <g id="Grupo_157167" data-name="Grupo 157167" clip-path="url(#clip-path)">
            <path id="Trazado_247512" data-name="Trazado 247512" d="M555.19,88.252H562.4v78.389c0,5.181-3.4,9.381-7.6,9.381h-8.129V88.252Z" transform="translate(-356.571 -57.563)" fill="#e0e0e0"/>
            <path id="Trazado_247513" data-name="Trazado 247513" d="M555.02,88.184s-.186.006-.552.009l-1.631.009-6.338.017.036-.036c.009,14.8.03,48.278.054,87.77l-.09-.09h7.415c.333,0,.672.013,1-.018l.492-.032.484-.091a6.854,6.854,0,0,0,3.393-1.865,9.124,9.124,0,0,0,2.1-3.244,11.044,11.044,0,0,0,.746-3.764c0-5.155.01-10.18.014-15.046,0-9.733.008-18.827.012-27.033.019-16.407.033-29.264.041-36.587l.033.033-5.379-.016-1.371-.008c-.307,0-.462-.009-.462-.009s.155-.006.462-.009l1.371-.008,5.379-.016h.033v.033c.008,7.324.023,20.18.041,36.587,0,8.206.007,17.3.012,27.033,0,4.867-.006,9.895-.008,15.05a11.224,11.224,0,0,1-.757,3.826,9.3,9.3,0,0,1-2.146,3.307,7.033,7.033,0,0,1-3.482,1.912l-.5.094-.507.033c-.34.031-.671.013-1.007.018h-7.506v-.09c.025-39.492.045-72.967.055-87.77v-.036h.036l6.338.017,1.631.009c.366,0,.552.009.552.009" transform="translate(-356.402 -57.496)" fill="#12263f"/>
            <path id="Trazado_247514" data-name="Trazado 247514" d="M326.337,133.7H202.63a6.822,6.822,0,0,1-6.822-6.822V23.36H326.337Z" transform="translate(-127.718 -15.237)" fill="#fff"/>
            <path id="Trazado_247515" data-name="Trazado 247515" d="M326.167,133.526c0-.64-.03-43.88-.076-110.336l.076.076-129.052.015h-1.477l.09-.091c0,32.9,0,64.215-.007,92.689q0,5.339,0,10.542a7.269,7.269,0,0,0,.388,2.52,6.751,6.751,0,0,0,5.627,4.465c.827.069,1.675.03,2.509.041h7.441l9.649,0,35.189.014,69.644.06-69.6.06-35.215.014-9.657,0h-7.448c-.839-.011-1.673.03-2.527-.041A6.91,6.91,0,0,1,195.954,129a7.434,7.434,0,0,1-.4-2.574q0-5.2,0-10.542c0-28.474,0-59.793-.007-92.689V23.1h1.568l129.052.014h.076v.076c-.046,66.455-.076,109.7-.076,110.336" transform="translate(-127.548 -15.067)" fill="#12263f"/>
            <path id="Trazado_247516" data-name="Trazado 247516" d="M326.337,51.894c0,.05-29.222.09-65.262.09s-65.267-.04-65.267-.09,29.216-.09,65.267-.09,65.262.04,65.262.09" transform="translate(-127.718 -33.79)" fill="#12263f"/>
            <line id="Línea_460" data-name="Línea 460" x2="46.289" transform="translate(111.184 13.177)" fill="#e0e0e0"/>
            <path id="Trazado_247517" data-name="Trazado 247517" d="M366.024,37.723c0,.05-10.363.09-23.143.09s-23.146-.04-23.146-.09,10.361-.09,23.146-.09,23.143.04,23.143.09" transform="translate(-208.551 -24.547)" fill="#fc4b52"/>
            <path id="Trazado_247518" data-name="Trazado 247518" d="M207.321,35.15a1.245,1.245,0,1,1-1.245-1.245,1.244,1.244,0,0,1,1.245,1.245" transform="translate(-133.604 -22.115)" fill="#e0e0e0"/>
            <path id="Trazado_247519" data-name="Trazado 247519" d="M219.459,35.15a1.245,1.245,0,1,1-1.245-1.245,1.244,1.244,0,0,1,1.245,1.245" transform="translate(-141.521 -22.115)" fill="#e0e0e0"/>
            <path id="Trazado_247520" data-name="Trazado 247520" d="M231.6,35.15a1.245,1.245,0,1,1-1.245-1.245A1.244,1.244,0,0,1,231.6,35.15" transform="translate(-149.438 -22.115)" fill="#e0e0e0"/>
            <path id="Trazado_247521" data-name="Trazado 247521" d="M335.479,85.406H332.9l-.492,1.191h-1.318l2.477-5.557h1.27L337.32,86.6h-1.35Zm-.4-.976-.881-2.127-.881,2.127Z" transform="translate(-215.957 -52.859)" fill="#a7e446"/>
            <path id="Trazado_247522" data-name="Trazado 247522" d="M354.212,86.6l-1.071-1.548h-1.183V86.6h-1.286V81.041h2.405c1.484,0,2.413.77,2.413,2.016a1.807,1.807,0,0,1-1.143,1.754l1.246,1.786Zm-1.207-4.509h-1.048v1.937h1.048c.786,0,1.183-.365,1.183-.968s-.4-.968-1.183-.968" transform="translate(-228.73 -52.86)" fill="#a7e446"/>
            <path id="Trazado_247523" data-name="Trazado 247523" d="M367.194,82.088h-1.778V81.041h4.842v1.048H368.48V86.6h-1.286Z" transform="translate(-238.347 -52.86)" fill="#a7e446"/>
            <rect id="Rectángulo_89874" data-name="Rectángulo 89874" width="1.286" height="5.557" transform="translate(132.601 28.181)" fill="#a7e446"/>
            <path id="Trazado_247524" data-name="Trazado 247524" d="M387.806,83.64a3.06,3.06,0,0,1,5.3-1.889l-.826.762a1.788,1.788,0,0,0-1.4-.651,1.778,1.778,0,1,0,0,3.556,1.77,1.77,0,0,0,1.4-.659l.826.762a3.054,3.054,0,0,1-5.3-1.881" transform="translate(-252.951 -52.681)" fill="#a7e446"/>
            <path id="Trazado_247525" data-name="Trazado 247525" d="M405.539,81.04h1.286v4.509h2.786V86.6h-4.072Z" transform="translate(-264.518 -52.86)" fill="#a7e446"/>
            <path id="Trazado_247526" data-name="Trazado 247526" d="M423.627,85.565V86.6h-4.3V81.04h4.2v1.032H420.6v1.207h2.58v1H420.6v1.286Z" transform="translate(-273.509 -52.859)" fill="#a7e446"/>
            <path id="Trazado_247527" data-name="Trazado 247527" d="M352.473,132.1c0,.05-2.587.09-5.778.09s-5.778-.04-5.778-.09,2.586-.09,5.778-.09,5.778.04,5.778.09" transform="translate(-222.367 -86.105)" fill="#12263f"/>
            <path id="Trazado_247528" data-name="Trazado 247528" d="M396.3,132.1c0,.05-2.834.09-6.328.09s-6.329-.04-6.329-.09,2.833-.09,6.329-.09,6.328.04,6.328.09" transform="translate(-250.237 -86.105)" fill="#12263f"/>
            <path id="Trazado_247529" data-name="Trazado 247529" d="M368.088,148.875c0,.05-6.012.09-13.427.09s-13.428-.04-13.428-.09,6.011-.09,13.428-.09,13.427.04,13.427.09" transform="translate(-222.573 -97.047)" fill="#12263f"/>
            <path id="Trazado_247530" data-name="Trazado 247530" d="M369.051,163.751c0,.05-6.086.09-13.592.09s-13.593-.04-13.593-.09,6.085-.09,13.593-.09,13.592.04,13.592.09" transform="translate(-222.986 -106.75)" fill="#12263f"/>
            <path id="Trazado_247531" data-name="Trazado 247531" d="M353.188,179.893c0,.05-2.464.09-5.5.09s-5.5-.04-5.5-.09,2.464-.09,5.5-.09,5.5.04,5.5.09" transform="translate(-223.192 -117.279)" fill="#12263f"/>
            <path id="Trazado_247532" data-name="Trazado 247532" d="M392.587,179.576c0,.05-2.71.09-6.053.09s-6.054-.04-6.054-.09,2.71-.09,6.054-.09,6.053.04,6.053.09" transform="translate(-248.172 -117.072)" fill="#12263f"/>
            <path id="Trazado_247533" data-name="Trazado 247533" d="M367.4,196.034c0,.05-5.716.09-12.767.09s-12.768-.04-12.768-.09,5.715-.09,12.768-.09,12.767.04,12.767.09" transform="translate(-222.986 -127.807)" fill="#12263f"/>
            <path id="Trazado_247534" data-name="Trazado 247534" d="M256.007,226.736c0,.05-2.39.09-5.338.09s-5.338-.04-5.338-.09,2.39-.09,5.338-.09,5.338.04,5.338.09" transform="translate(-160.02 -147.832)" fill="#12263f"/>
            <path id="Trazado_247535" data-name="Trazado 247535" d="M299.121,227.685c0,.05-2.76.09-6.163.09s-6.164-.04-6.164-.09,2.759-.09,6.164-.09,6.163.04,6.163.09" transform="translate(-187.065 -148.451)" fill="#12263f"/>
            <path id="Trazado_247536" data-name="Trazado 247536" d="M273.026,242.877c0,.05-5.988.09-13.372.09s-13.373-.04-13.373-.09,5.986-.09,13.373-.09,13.372.04,13.372.09" transform="translate(-160.64 -158.361)" fill="#12263f"/>
            <path id="Trazado_247537" data-name="Trazado 247537" d="M273.851,258.386c0,.05-6.456.09-14.417.09s-14.419-.04-14.419-.09,6.454-.09,14.419-.09,14.417.04,14.417.09" transform="translate(-159.814 -168.477)" fill="#12263f"/>
            <path id="Trazado_247538" data-name="Trazado 247538" d="M359.82,210.277c0,.05-4.09.09-9.135.09s-9.135-.04-9.135-.09,4.089-.09,9.135-.09,9.135.04,9.135.09" transform="translate(-222.78 -137.097)" fill="#12263f"/>
            <path id="Trazado_247539" data-name="Trazado 247539" d="M408.9,210.277a48.873,48.873,0,0,1-5.943,0,48.881,48.881,0,0,1,5.943,0" transform="translate(-262.83 -137.097)" fill="#12263f"/>
            <path id="Trazado_247540" data-name="Trazado 247540" d="M369.175,227.369c0,.05-5.618.09-12.546.09s-12.548-.04-12.548-.09,5.617-.09,12.548-.09,12.546.04,12.546.09" transform="translate(-224.431 -148.245)" fill="#12263f"/>
            <path id="Trazado_247541" data-name="Trazado 247541" d="M353.876,243.194c0,.05-2.76.09-6.163.09s-6.164-.04-6.164-.09,2.759-.09,6.164-.09,6.163.04,6.163.09" transform="translate(-222.779 -158.567)" fill="#12263f"/>
            <path id="Trazado_247542" data-name="Trazado 247542" d="M370.1,259.336c0,.05-6.037.09-13.482.09s-13.483-.04-13.483-.09,6.035-.09,13.483-.09,13.482.04,13.482.09" transform="translate(-223.812 -169.096)" fill="#12263f"/>
            <path id="Trazado_247543" data-name="Trazado 247543" d="M399.067,243.51c0,.05-2.957.091-6.6.091s-6.6-.041-6.6-.091,2.956-.09,6.6-.09,6.6.04,6.6.09" transform="translate(-251.682 -158.773)" fill="#12263f"/>
            <path id="Trazado_247544" data-name="Trazado 247544" d="M464.252,132.417c0,.05-6.283.09-14.032.09s-14.033-.04-14.033-.09,6.282-.09,14.033-.09,14.032.04,14.032.09" transform="translate(-284.507 -86.312)" fill="#12263f"/>
            <path id="Trazado_247545" data-name="Trazado 247545" d="M442.431,147.609a43.609,43.609,0,0,1-5.613,0,43.609,43.609,0,0,1,5.613,0" transform="translate(-284.919 -96.221)" fill="#12263f"/>
            <path id="Trazado_247546" data-name="Trazado 247546" d="M479.941,147.925c0,.05-4.411.09-9.85.09s-9.851-.04-9.851-.09,4.41-.09,9.851-.09,9.85.04,9.85.09" transform="translate(-300.197 -96.427)" fill="#12263f"/>
            <path id="Trazado_247547" data-name="Trazado 247547" d="M464.678,163.118c0,.05-5.741.09-12.821.09s-12.823-.04-12.823-.09,5.74-.09,12.823-.09,12.821.04,12.821.09" transform="translate(-286.365 -106.337)" fill="#12263f"/>
            <path id="Trazado_247548" data-name="Trazado 247548" d="M465.765,178.31c0,.05-5.914.091-13.207.091s-13.208-.041-13.208-.091,5.913-.09,13.208-.09,13.207.04,13.207.09" transform="translate(-286.571 -116.246)" fill="#12263f"/>
            <path id="Trazado_247549" data-name="Trazado 247549" d="M451.361,194.452c0,.05-2.76.09-6.163.09s-6.164-.04-6.164-.09,2.759-.09,6.164-.09,6.163.04,6.163.09" transform="translate(-286.365 -126.775)" fill="#12263f"/>
            <path id="Trazado_247550" data-name="Trazado 247550" d="M494.667,194.768c0,.05-2.464.09-5.5.09s-5.5-.04-5.5-.09,2.464-.09,5.5-.09,5.5.04,5.5.09" transform="translate(-315.473 -126.981)" fill="#12263f"/>
            <path id="Trazado_247551" data-name="Trazado 247551" d="M273.261,90.289c0,.05-5.96.09-13.309.09s-13.31-.04-13.31-.09,5.958-.09,13.31-.09,13.309.04,13.309.09" transform="translate(-160.875 -58.833)" fill="#12263f"/>
            <path id="Trazado_247552" data-name="Trazado 247552" d="M474.307,90.289c0,.05-6.257.09-13.974.09s-13.975-.04-13.975-.09,6.256-.09,13.975-.09,13.974.04,13.974.09" transform="translate(-291.142 -58.833)" fill="#12263f"/>
            <path id="Trazado_247553" data-name="Trazado 247553" d="M466.764,211.277c-.013.026-.432-.216-1.253-.476a8.054,8.054,0,0,0-3.594-.267,7.854,7.854,0,0,0-2.37.762,11.164,11.164,0,0,0-2.331,1.676c-.764.674-1.523,1.44-2.4,2.148a8.278,8.278,0,0,1-3.06,1.656,4.621,4.621,0,0,1-1.787.107,5.776,5.776,0,0,1-1.656-.511,28.912,28.912,0,0,1-2.774-1.649,8.648,8.648,0,0,0-2.608-1.169,7.755,7.755,0,0,0-2.481-.191,7.993,7.993,0,0,0-3.425,1.115c-.735.449-1.081.787-1.1.764a1.672,1.672,0,0,1,.249-.245,5.952,5.952,0,0,1,.8-.607,7.815,7.815,0,0,1,6.013-1.052,8.788,8.788,0,0,1,2.685,1.175,29.7,29.7,0,0,0,2.755,1.622,4.719,4.719,0,0,0,3.268.383,8.085,8.085,0,0,0,2.962-1.6c.861-.692,1.623-1.453,2.4-2.128a11.194,11.194,0,0,1,2.393-1.689,7.934,7.934,0,0,1,6.1-.4,6.393,6.393,0,0,1,.921.4,1.714,1.714,0,0,1,.3.178" transform="translate(-284.338 -137.154)" fill="#fc4b52"/>
            <rect id="Rectángulo_89875" data-name="Rectángulo 89875" width="3.313" height="8.96" transform="translate(157.534 80.097)" fill="#fc4b52"/>
            <rect id="Rectángulo_89876" data-name="Rectángulo 89876" width="3.313" height="8.96" transform="translate(171.592 80.097)" fill="#fc4b52"/>
            <rect id="Rectángulo_89877" data-name="Rectángulo 89877" width="3.313" height="14.221" transform="translate(176.277 74.835)" fill="#fc4b52"/>
            <rect id="Rectángulo_89878" data-name="Rectángulo 89878" width="3.313" height="3.015" transform="translate(153.247 86.236)" fill="#fc4b52"/>
            <rect id="Rectángulo_89879" data-name="Rectángulo 89879" width="3.313" height="4.914" transform="translate(162.22 84.143)" fill="#fc4b52"/>
            <rect id="Rectángulo_89880" data-name="Rectángulo 89880" width="3.313" height="6.042" transform="translate(166.906 83.015)" fill="#fc4b52"/>
            <rect id="Rectángulo_89881" data-name="Rectángulo 89881" width="27.96" height="27.051" transform="translate(85.749 45.995)" fill="#a7e446"/>
            <g id="Grupo_157160" data-name="Grupo 157160" transform="translate(87.917 56.811)" opacity="0.3">
              <g id="Grupo_157159" data-name="Grupo 157159">
                <g id="Grupo_157158" data-name="Grupo 157158" clip-path="url(#clip-path-6)">
                  <path id="Trazado_247554" data-name="Trazado 247554" d="M252.826,177.292l7.734-13.92,6.326,8.9,3.844-4.725,5.719,9.747Z" transform="translate(-252.826 -163.372)"/>
                </g>
              </g>
            </g>
            <g id="Grupo_157163" data-name="Grupo 157163" transform="translate(100.649 52.091)" opacity="0.3">
              <g id="Grupo_157162" data-name="Grupo 157162">
                <g id="Grupo_157161" data-name="Grupo 157161" clip-path="url(#clip-path-7)">
                  <path id="Trazado_247555" data-name="Trazado 247555" d="M292.924,150.339a2.086,2.086,0,0,1-2.948,2.948,2.086,2.086,0,0,1,2.948-2.948" transform="translate(-289.438 -149.8)"/>
                </g>
              </g>
            </g>
            <g id="Grupo_157166" data-name="Grupo 157166" transform="translate(87.755 48.1)" opacity="0.3">
              <g id="Grupo_157165" data-name="Grupo 157165">
                <g id="Grupo_157164" data-name="Grupo 157164" clip-path="url(#clip-path-8)">
                  <path id="Trazado_247556" data-name="Trazado 247556" d="M276.144,161.028a.856.856,0,0,1-.007-.111c0-.081,0-.184-.006-.315q0-.432-.013-1.217c-.007-1.072-.017-2.624-.03-4.594-.014-3.951-.034-9.577-.059-16.333l.114.114-23.622.019c-.032.029.25-.25.13-.129v3.061q0,1.52,0,3.011c0,1.988,0,3.935,0,5.829,0,3.788-.009,7.37-.013,10.665l-.116-.116,17.081.059,4.818.03,1.278.014.331.007a.787.787,0,0,1,.116.007.551.551,0,0,1-.1.007l-.319.007-1.256.014-4.792.03-17.155.059H252.4v-.117c0-3.295-.008-6.877-.013-10.665,0-1.894,0-3.841,0-5.829q0-1.491,0-3.011,0-.76,0-1.527v-1.534c-.119.117.162-.167.136-.137l23.622.019h.115v.114c-.024,6.786-.044,12.437-.058,16.406-.013,1.959-.023,3.5-.03,4.568q-.009.771-.013,1.2c0,.126,0,.225-.007.3a.452.452,0,0,1-.006.1" transform="translate(-252.358 -138.322)"/>
                </g>
              </g>
            </g>
            <path id="Trazado_247557" data-name="Trazado 247557" d="M274.224,274.724c0,.05-6.427.09-14.352.09s-14.353-.04-14.353-.09,6.425-.09,14.353-.09,14.352.04,14.352.09" transform="translate(-160.143 -179.133)" fill="#e0e0e0"/>
            <path id="Trazado_247558" data-name="Trazado 247558" d="M372.65,274.189c0,.05-6.185.09-13.811.09s-13.813-.04-13.813-.09,6.183-.09,13.813-.09,13.811.04,13.811.09" transform="translate(-225.047 -178.784)" fill="#e0e0e0"/>
            <path id="Trazado_247559" data-name="Trazado 247559" d="M471.273,272.68c0,.05-6.145.091-13.724.091s-13.725-.04-13.725-.091,6.144-.09,13.725-.09,13.724.04,13.724.09" transform="translate(-289.489 -177.8)" fill="#e0e0e0"/>
            <path id="Trazado_247560" data-name="Trazado 247560" d="M274.224,288.109c0,.05-6.427.09-14.352.09s-14.353-.04-14.353-.09,6.425-.09,14.353-.09,14.352.04,14.352.09" transform="translate(-160.143 -187.864)" fill="#e0e0e0"/>
            <path id="Trazado_247561" data-name="Trazado 247561" d="M372.65,287.574c0,.05-6.185.09-13.811.09s-13.813-.04-13.813-.09,6.183-.09,13.813-.09,13.811.04,13.811.09" transform="translate(-225.047 -187.515)" fill="#e0e0e0"/>
            <path id="Trazado_247562" data-name="Trazado 247562" d="M471.273,286.066c0,.05-6.145.09-13.724.09s-13.725-.04-13.725-.09,6.144-.09,13.725-.09,13.724.04,13.724.09" transform="translate(-289.489 -186.531)" fill="#e0e0e0"/>
          </g>
        </g>
        <g id="Grupo_157170" data-name="Grupo 157170">
          <g id="Grupo_157169" data-name="Grupo 157169" clip-path="url(#clip-path)">
            <path id="Trazado_247563" data-name="Trazado 247563" d="M352.331,325.636h-45.1a9.377,9.377,0,0,1,0-18.755h45.1a9.377,9.377,0,0,1,0,18.755" transform="translate(-194.278 -200.167)" fill="#fc4b52"/>
            <path id="Trazado_247564" data-name="Trazado 247564" d="M358.064,331.22c0,.837-.627,1.357-1.631,1.357h-.757v1.036h-.869v-3.755h1.626c1,0,1.631.52,1.631,1.363m-.88,0c0-.413-.268-.655-.8-.655h-.708v1.3h.708c.531,0,.8-.241.8-.649" transform="translate(-231.428 -215.153)" fill="#fff"/>
            <path id="Trazado_247565" data-name="Trazado 247565" d="M365.812,331.96v-2.1h.869v2.071c0,.714.312,1.009.837,1.009s.837-.3.837-1.009v-2.071h.859v2.1a1.7,1.7,0,1,1-3.4,0" transform="translate(-238.605 -215.153)" fill="#fff"/>
            <path id="Trazado_247566" data-name="Trazado 247566" d="M381.51,332.588c0,.649-.515,1.024-1.5,1.024h-1.942v-3.755H379.9c.939,0,1.422.392,1.422.977a.9.9,0,0,1-.5.826.928.928,0,0,1,.687.928m-2.581-2.076v.885h.864c.424,0,.654-.15.654-.445s-.231-.44-.654-.44Zm1.706,1.985c0-.316-.241-.467-.692-.467H378.93v.928h1.014c.451,0,.692-.139.692-.461" transform="translate(-246.598 -215.153)" fill="#fff"/>
            <path id="Trazado_247567" data-name="Trazado 247567" d="M389.873,329.857h.869V332.9h1.883v.708h-2.752Z" transform="translate(-254.299 -215.153)" fill="#fff"/>
            <rect id="Rectángulo_89886" data-name="Rectángulo 89886" width="0.869" height="3.755" transform="translate(138.816 114.704)" fill="#fff"/>
            <path id="Trazado_247568" data-name="Trazado 247568" d="M403.409,333.122l.3-.654a2.208,2.208,0,0,0,1.239.392c.515,0,.725-.172.725-.4,0-.7-2.184-.22-2.184-1.615,0-.638.515-1.169,1.583-1.169a2.516,2.516,0,0,1,1.3.332l-.268.66a2.123,2.123,0,0,0-1.04-.295c-.515,0-.714.193-.714.429,0,.692,2.183.215,2.183,1.593,0,.628-.52,1.164-1.593,1.164a2.678,2.678,0,0,1-1.529-.435" transform="translate(-263.128 -215.033)" fill="#fff"/>
            <path id="Trazado_247569" data-name="Trazado 247569" d="M417.548,329.857v3.755h-.869v-1.54h-1.706v1.54H414.1v-3.755h.869v1.481h1.706v-1.481Z" transform="translate(-270.104 -215.153)" fill="#fff"/>
          </g>
        </g>
        <g id="Grupo_157172" data-name="Grupo 157172">
          <g id="Grupo_157171" data-name="Grupo 157171" clip-path="url(#clip-path)">
            <path id="Trazado_247570" data-name="Trazado 247570" d="M440.515,338.673a5.468,5.468,0,0,1,.608,1.872h1.123l4.713-.083-.034.084s.768-3.614.908-4.69c.116-.888.664-3.009-.005-3.944a.978.978,0,0,0-1.079-.36.766.766,0,0,0-.54.592s-.057-1.254-.956-1.273-.931.684-.931.684-.247-1.432-1.248-1.419a.961.961,0,0,0-.828.7v-2.707a1.041,1.041,0,0,0-.975-1.054,1.013,1.013,0,0,0-1.05,1l-.081,6.3-1.53-1.962a.935.935,0,0,0-1.474.181,1.5,1.5,0,0,0,.294,1.423c.426.634,3.085,4.663,3.085,4.663" transform="translate(-285.084 -213.335)" fill="#ebebeb"/>
            <path id="Trazado_247571" data-name="Trazado 247571" d="M440.445,338.575s-.026-.033-.073-.1l-.206-.3L439.38,337l-1.24-1.858-.774-1.163a2.371,2.371,0,0,1-.341-.692,1.294,1.294,0,0,1,.007-.818l0,.006a.654.654,0,0,1,.339-.365,1.182,1.182,0,0,1,.492-.126.945.945,0,0,1,.511.119,1.171,1.171,0,0,1,.111.08c.032.032.064.066.095.1l.162.207,1.367,1.747-.082.028c.021-1.759.043-3.685.067-5.734,0-.128,0-.257,0-.386a1.929,1.929,0,0,1,.027-.4,1.055,1.055,0,0,1,1.933-.329,1.132,1.132,0,0,1,.154.4,2.271,2.271,0,0,1,.02.417q0,.41,0,.824v1.672l-.106-.016a1.023,1.023,0,0,1,.769-.718.463.463,0,0,1,.167-.012.98.98,0,0,1,.163.018,1.047,1.047,0,0,1,.555.32,2.358,2.358,0,0,1,.527,1.121l-.108.007a.781.781,0,0,1,.465-.643,1.105,1.105,0,0,1,.39-.089,1.12,1.12,0,0,1,.2,0l.1.011.1.029a.967.967,0,0,1,.558.538,2.124,2.124,0,0,1,.186.74l-.1-.01a.826.826,0,0,1,.507-.605,1.032,1.032,0,0,1,1.109.24,1.43,1.43,0,0,1,.217.323,2.448,2.448,0,0,1,.19.73,11.048,11.048,0,0,1-.268,2.83c-.126.9-.3,1.763-.466,2.581l-.483,2.325-.076-.023.034-.084.038.055-4.713.069.026-.026h0v.027h-.026l-1.123,0h-.019l0-.019a5.611,5.611,0,0,0-.376-1.41c-.063-.155-.118-.27-.156-.346s-.055-.118-.055-.118a3.593,3.593,0,0,1,.232.455,5.426,5.426,0,0,1,.4,1.414l-.022-.019,1.123-.005-.026.026h0v-.026h.026l4.713-.1h.061l-.023.056-.034.084-.076-.024.474-2.326c.158-.819.334-1.675.458-2.578a11.014,11.014,0,0,0,.261-2.8,2.35,2.35,0,0,0-.181-.7,1.331,1.331,0,0,0-.2-.3.933.933,0,0,0-.292-.2.923.923,0,0,0-.7-.014.718.718,0,0,0-.443.532l-.076.362-.029-.372a2.03,2.03,0,0,0-.176-.7.863.863,0,0,0-.5-.482,1.082,1.082,0,0,0-.708.042.674.674,0,0,0-.4.549l-.033.354-.074-.347a2.253,2.253,0,0,0-.5-1.065.832.832,0,0,0-1.056-.188.936.936,0,0,0-.415.538l-.106.331v-.347q0-.843,0-1.672,0-.414,0-.824a2.253,2.253,0,0,0-.017-.4,1.022,1.022,0,0,0-.139-.358.951.951,0,0,0-1.739.294,1.867,1.867,0,0,0-.025.376c0,.129,0,.257,0,.386-.029,2.049-.055,3.976-.08,5.734l0,.131-.081-.1-1.361-1.751a1.351,1.351,0,0,0-.344-.369.87.87,0,0,0-.466-.11,1.1,1.1,0,0,0-.459.115.58.58,0,0,0-.3.315h0l0,.006a1.232,1.232,0,0,0-.006.765,2.308,2.308,0,0,0,.328.674l.768,1.168,1.225,1.868.768,1.18.2.307c.044.07.064.107.064.107" transform="translate(-285.013 -213.237)" fill="#12263f"/>
            <path id="Trazado_247572" data-name="Trazado 247572" d="M453.1,367.3h-5.9a.812.812,0,0,1-.812-.812v-.057a.812.812,0,0,1,.812-.812h5.9a.812.812,0,0,1,.812.812v.057a.812.812,0,0,1-.812.812" transform="translate(-291.159 -238.48)" fill="#ebebeb"/>
            <path id="Trazado_247573" data-name="Trazado 247573" d="M453,367.2c0-.006.06,0,.169-.029a.82.82,0,0,0,.41-.246.81.81,0,0,0,.17-.3.988.988,0,0,0,.022-.41.78.78,0,0,0-.663-.649l-6.01.008a.766.766,0,0,0-.666.394.876.876,0,0,0-.01.764.762.762,0,0,0,.6.412c.256.008.524,0,.777.006l2.7.011,1.823.017.5.01a1.04,1.04,0,0,1,.173.011,1.056,1.056,0,0,1-.173.011l-.5.01-1.823.017-2.7.012c-.257,0-.511.006-.787,0a.867.867,0,0,1-.689-.467.982.982,0,0,1,.01-.864.874.874,0,0,1,.761-.452c2.351,0,4.472,0,6.021.025a.846.846,0,0,1,.712.716,1.029,1.029,0,0,1-.033.434.842.842,0,0,1-.189.313.811.811,0,0,1-.437.239.56.56,0,0,1-.174.008" transform="translate(-291.057 -238.377)" fill="#12263f"/>
            <path id="Trazado_247574" data-name="Trazado 247574" d="M451.71,339.96a13.639,13.639,0,0,1,0-2.438,13.632,13.632,0,0,1,0,2.438" transform="translate(-294.597 -220.153)" fill="#12263f"/>
            <path id="Trazado_247575" data-name="Trazado 247575" d="M457.748,341.337a4.839,4.839,0,0,1,0-1.45,4.847,4.847,0,0,1,0,1.45" transform="translate(-298.535 -221.695)" fill="#12263f"/>
            <path id="Trazado_247576" data-name="Trazado 247576" d="M463.254,343.091a4.839,4.839,0,0,1,0-1.45,4.839,4.839,0,0,1,0,1.45" transform="translate(-302.127 -222.839)" fill="#12263f"/>
            <path id="Trazado_247577" data-name="Trazado 247577" d="M440.664,324.638a14.7,14.7,0,0,1-2.253-1.15,14.745,14.745,0,0,1,2.253,1.15" transform="translate(-285.959 -210.997)" fill="#12263f"/>
            <path id="Trazado_247578" data-name="Trazado 247578" d="M446.875,319.13a24.195,24.195,0,0,1-.5-3.208,24.181,24.181,0,0,1,.5,3.208" transform="translate(-291.148 -206.064)" fill="#12263f"/>
            <path id="Trazado_247579" data-name="Trazado 247579" d="M451.478,321.517a15.978,15.978,0,0,1,1.51-2.158,8.043,8.043,0,0,1-.711,1.11,7.953,7.953,0,0,1-.8,1.048" transform="translate(-294.48 -208.305)" fill="#12263f"/>
          </g>
        </g>
        <g id="Grupo_157177" data-name="Grupo 157177">
          <g id="Grupo_157176" data-name="Grupo 157176" clip-path="url(#clip-path)">
            <path id="Trazado_247580" data-name="Trazado 247580" d="M14.459,391.572H37.183a2.152,2.152,0,0,0,2.152-2.152V376.293a2.152,2.152,0,0,0-2.152-2.152H14.363a.9.9,0,0,0-.9.9v15.542a.993.993,0,0,0,.992.992" transform="translate(-8.784 -244.038)" fill="#12263f"/>
            <g id="Grupo_157175" data-name="Grupo 157175" transform="translate(4.683 130.103)" opacity="0.4">
              <g id="Grupo_157174" data-name="Grupo 157174">
                <g id="Grupo_157173" data-name="Grupo 157173" clip-path="url(#clip-path-12)">
                  <path id="Trazado_247581" data-name="Trazado 247581" d="M14.459,391.572H37.183a2.152,2.152,0,0,0,2.152-2.152V376.293a2.152,2.152,0,0,0-2.152-2.152H14.363a.9.9,0,0,0-.9.9v15.542a.993.993,0,0,0,.992.992" transform="translate(-13.467 -374.141)"/>
                </g>
              </g>
            </g>
            <path id="Trazado_247582" data-name="Trazado 247582" d="M24.523,391.572H49.386a1,1,0,0,0,1.005-1.006V375.612a1.471,1.471,0,0,0-1.471-1.471h-24.4Z" transform="translate(-15.995 -244.038)" fill="#12263f"/>
            <path id="Trazado_247583" data-name="Trazado 247583" d="M24.333,392.117c-.046,0-.082-3.867-.082-8.636s.037-8.637.082-8.637.082,3.866.082,8.637-.037,8.636-.082,8.636" transform="translate(-15.818 -244.496)" fill="#12263f"/>
            <path id="Trazado_247584" data-name="Trazado 247584" d="M42.459,368.989s.02-.038.071-.1.124-.156.233-.264a6.212,6.212,0,0,1,.99-.838,6.772,6.772,0,0,1,8.04.227,6.2,6.2,0,0,1,.941.892c.1.114.168.214.217.277s.07.1.065.1a10.731,10.731,0,0,0-1.294-1.181,6.86,6.86,0,0,0-7.905-.224,10.713,10.713,0,0,0-1.359,1.106" transform="translate(-27.694 -239.102)" fill="#12263f"/>
            <path id="Trazado_247585" data-name="Trazado 247585" d="M24.031,381.309a.419.419,0,0,1,.022.093c.012.071.028.161.047.274s.04.271.075.446l.136.6a12.27,12.27,0,0,0,1.553,3.586,12.435,12.435,0,0,0,10.927,5.763,13.606,13.606,0,0,0,6.758-1.947,14.779,14.779,0,0,0,4.241-3.925,15.7,15.7,0,0,0,1.88-3.437c.165-.434.287-.773.357-1.008l.088-.264a.405.405,0,0,1,.035-.089.4.4,0,0,1-.019.093l-.073.269c-.059.239-.172.582-.329,1.021a15.12,15.12,0,0,1-1.845,3.482,14.728,14.728,0,0,1-4.257,3.986,13.668,13.668,0,0,1-6.834,1.982,12.878,12.878,0,0,1-6.879-1.783,12.684,12.684,0,0,1-4.15-4.084,11.95,11.95,0,0,1-1.517-3.633l-.121-.608c-.031-.177-.043-.328-.06-.45s-.023-.206-.031-.277a.416.416,0,0,1,0-.095" transform="translate(-15.673 -248.713)" fill="#a7e446"/>
          </g>
        </g>
        <g id="Grupo_157182" data-name="Grupo 157182">
          <g id="Grupo_157181" data-name="Grupo 157181" clip-path="url(#clip-path)">
            <path id="Trazado_247586" data-name="Trazado 247586" d="M661.387,233.273a20.327,20.327,0,0,0-8.049,8.3,60.6,60.6,0,0,0-4.37,10.865L647.9,271.6c4.04-6.873,7.283-14.953,8.159-22.877l-2.688-.239a6.432,6.432,0,0,0,4.278-3.13,19.054,19.054,0,0,0,1.942-5.093l-3.28.488a12.156,12.156,0,0,0,5.078-7.475" transform="translate(-422.599 -152.155)" fill="#a7e446"/>
            <g id="Grupo_157180" data-name="Grupo 157180" transform="translate(225.299 81.118)" opacity="0.3">
              <g id="Grupo_157179" data-name="Grupo 157179">
                <g id="Grupo_157178" data-name="Grupo 157178" clip-path="url(#clip-path-14)">
                  <path id="Trazado_247587" data-name="Trazado 247587" d="M661.387,233.273a20.327,20.327,0,0,0-8.049,8.3,60.6,60.6,0,0,0-4.37,10.865L647.9,271.6c4.04-6.873,7.283-14.953,8.159-22.877l-2.688-.239a6.432,6.432,0,0,0,4.278-3.13,19.054,19.054,0,0,0,1.942-5.093l-3.28.488a12.156,12.156,0,0,0,5.078-7.475" transform="translate(-647.898 -233.273)"/>
                </g>
              </g>
            </g>
            <path id="Trazado_247588" data-name="Trazado 247588" d="M629.887,273.114s-8.769-10.5-8.668-20.516h3.542s-3.847-2.53-3.543-3.947.406-6.781.406-6.781l3.239.81s-2.429-1.214-2.733-3.137.708-10.829.708-10.829,3.947,4.15,5.162,8.4,4.4,9.21,3.466,22.164-1.579,13.836-1.579,13.836" transform="translate(-405.185 -149.181)" fill="#a7e446"/>
            <path id="Trazado_247589" data-name="Trazado 247589" d="M658.957,295.54s9.5-6.329,11.611-14.406l-2.848-.775s3.647-1.192,3.712-2.4,1.157-5.541,1.157-5.541l-2.781-.057s2.219-.445,2.883-1.925,1.8-8.861,1.8-8.861-4.081,2.472-5.988,5.624-5.554,6.441-7.636,17.061-1.911,11.278-1.911,11.278" transform="translate(-429.81 -170.616)" fill="#a7e446"/>
            <path id="Trazado_247590" data-name="Trazado 247590" d="M632.8,255.029a.515.515,0,0,1,.032.109l.077.323.28,1.245c.122.541.264,1.2.418,1.975s.339,1.649.517,2.624c.377,1.946.773,4.272,1.182,6.861s.791,5.445,1.142,8.448.61,5.875.816,8.488.337,4.97.415,6.95c.049.99.072,1.886.1,2.673s.04,1.465.044,2.019.009.973.012,1.276c0,.138,0,.247,0,.332a.508.508,0,0,1-.007.113.543.543,0,0,1-.012-.113c0-.085-.01-.194-.016-.331-.011-.3-.026-.731-.046-1.275s-.039-1.231-.075-2.017-.065-1.681-.122-2.67c-.094-1.979-.251-4.332-.453-6.943s-.486-5.477-.83-8.481-.74-5.854-1.127-8.444-.782-4.915-1.143-6.863c-.17-.976-.343-1.855-.49-2.628s-.276-1.438-.387-1.981l-.246-1.252c-.025-.136-.045-.243-.06-.327a.52.52,0,0,1-.014-.113" transform="translate(-412.748 -166.346)" fill="#12263f"/>
            <path id="Trazado_247591" data-name="Trazado 247591" d="M608.948,328.943s-8.025-9.105-10.516-14.609l1.881-.8a4.874,4.874,0,0,1-3.817-1.251,14.435,14.435,0,0,1-2.595-3.213l2.478-.419a9.21,9.21,0,0,1-5.414-4.194,15.406,15.406,0,0,1,7.749,4.094,38.577,38.577,0,0,1,4.7,5.441,18.534,18.534,0,0,1,1.824,3c1.348,2.788,3.719,8.612,3.715,11.956" transform="translate(-385.463 -198.583)" fill="#a7e446"/>
            <path id="Trazado_247592" data-name="Trazado 247592" d="M666.706,276.816a.4.4,0,0,1-.036.093l-.123.265-.487,1.011c-.429.875-1.038,2.147-1.775,3.725-1.475,3.156-3.419,7.56-5.338,12.516s-3.441,9.527-4.472,12.854c-.517,1.664-.922,3.014-1.193,3.95l-.32,1.076-.088.279a.42.42,0,0,1-.036.093.4.4,0,0,1,.018-.1l.07-.283.287-1.085c.25-.942.637-2.3,1.138-3.968,1-3.339,2.508-7.917,4.425-12.882s3.885-9.362,5.391-12.506c.752-1.572,1.378-2.836,1.827-3.7l.518-1,.138-.257a.425.425,0,0,1,.053-.085" transform="translate(-425.822 -180.556)" fill="#12263f"/>
            <path id="Trazado_247593" data-name="Trazado 247593" d="M633.614,356.905a.617.617,0,0,1-.04-.167c-.022-.131-.048-.29-.08-.483-.062-.42-.168-1.026-.315-1.77s-.352-1.625-.615-2.593-.6-2.017-1.01-3.1-.857-2.091-1.291-3-.869-1.7-1.252-2.352-.7-1.18-.933-1.537l-.259-.415a.619.619,0,0,1-.08-.152.632.632,0,0,1,.11.131l.288.4c.25.345.588.86.985,1.511s.839,1.443,1.291,2.344.9,1.917,1.311,3,.738,2.148,1,3.121.45,1.862.58,2.613.219,1.361.259,1.785c.019.195.034.356.047.488a.619.619,0,0,1,0,.171" transform="translate(-409.449 -222.643)" fill="#12263f"/>
            <rect id="Rectángulo_89892" data-name="Rectángulo 89892" width="17.564" height="3.583" transform="translate(217.191 132.121)" fill="#fc4b52"/>
            <path id="Trazado_247594" data-name="Trazado 247594" d="M629.394,390.244l1.9,12.051h10.613l1.771-12.051Z" transform="translate(-410.53 -254.541)" fill="#fc4b52"/>
            <path id="Trazado_247595" data-name="Trazado 247595" d="M644.154,390.074c0,.05-3.323.09-7.42.09s-7.421-.04-7.421-.09,3.322-.09,7.421-.09,7.42.04,7.42.09" transform="translate(-410.477 -254.372)" fill="#12263f"/>
          </g>
        </g>
        <g id="Grupo_157202" data-name="Grupo 157202">
          <g id="Grupo_157201" data-name="Grupo 157201" clip-path="url(#clip-path)">
            <path id="Trazado_247596" data-name="Trazado 247596" d="M27.532,252.049l-.491-25.125a11.563,11.563,0,1,1,23.124-.286l.131,25.411-22.763.972" transform="translate(-17.636 -140.324)" fill="#a7e446"/>
            <path id="Trazado_247597" data-name="Trazado 247597" d="M28.458,325.577H63.867a3.909,3.909,0,0,0-3.965-4.152l-31.444-.135Z" transform="translate(-18.562 -209.565)" fill="#a7e446"/>
            <rect id="Rectángulo_89894" data-name="Rectángulo 89894" width="2.487" height="31.522" transform="translate(39.184 116.012)" fill="#a7e446"/>
            <rect id="Rectángulo_89895" data-name="Rectángulo 89895" width="2.487" height="31.522" transform="translate(12.704 116.012)" fill="#a7e446"/>
            <path id="Trazado_247598" data-name="Trazado 247598" d="M36.768,321.524c0-.046,6.587-.082,14.711-.082s14.712.037,14.712.082-6.585.082-14.712.082-14.711-.037-14.711-.082" transform="translate(-23.982 -209.664)" fill="#12263f"/>
            <path id="Trazado_247599" data-name="Trazado 247599" d="M30.181,333.505c0-.046,7.741-.082,17.288-.082s17.29.037,17.29.082-7.74.082-17.29.082-17.288-.037-17.288-.082" transform="translate(-19.686 -217.479)" fill="#12263f"/>
            <path id="Trazado_247600" data-name="Trazado 247600" d="M35.463,228c.046,0,.082,7.172.082,16.016s-.037,16.018-.082,16.018-.082-7.17-.082-16.018S35.418,228,35.463,228" transform="translate(-23.078 -148.718)" fill="#12263f"/>
            <path id="Trazado_247601" data-name="Trazado 247601" d="M78.631,280.669s19.925-.085,21.5,0c2.809.15,4.693,3.288,5.067,4.912s9.083,26.665,9.083,26.665l-6.766,4.377-9.077-20.479L93.874,288.2l-24.85,4.342Z" transform="translate(-45.022 -183.045)" fill="#936760"/>
            <path id="Trazado_247602" data-name="Trazado 247602" d="M106.889,299.078a7.345,7.345,0,0,1,5.664,2.943c1.168,1.729.757,4.82.781,7.153.032,3.176-.794,27.819-.794,27.819a7.827,7.827,0,0,1-7.826.74l-2.023-27.278.522-4.069-13.591.3s-2.419-4.53.945-8.123c.433-.462,16.322.515,16.322.515" transform="translate(-57.908 -194.66)" fill="#936760"/>
            <path id="Trazado_247603" data-name="Trazado 247603" d="M145.787,300.658a.48.48,0,0,1,.1.01l.3.046a4.519,4.519,0,0,1,1.1.391,5.586,5.586,0,0,1,1.477,1.1,7.136,7.136,0,0,1,1.352,2.031,8.334,8.334,0,0,1,.677,2.878,22.583,22.583,0,0,1-.092,3.393c-.108,1.188-.166,2.435-.211,3.732s-.088,2.64-.134,4.015c-.166,5.5-.316,10.477-.425,14.092-.058,1.8-.105,3.251-.138,4.27-.019.5-.035.885-.046,1.161-.007.126-.012.225-.016.3a.454.454,0,0,1-.011.1.5.5,0,0,1-.006-.1c0-.077,0-.177,0-.3l.015-1.162c.021-1.02.05-2.476.086-4.272.082-3.607.206-8.59.377-14.094.047-1.376.093-2.719.137-4.016s.109-2.551.221-3.739a22.787,22.787,0,0,0,.107-3.371,8.269,8.269,0,0,0-.648-2.84,7.113,7.113,0,0,0-1.312-2.015,5.634,5.634,0,0,0-1.439-1.108,5.26,5.26,0,0,0-1.47-.5" transform="translate(-95.091 -196.107)" fill="#6f4c47"/>
            <path id="Trazado_247604" data-name="Trazado 247604" d="M141.666,408.395l.007.5s8.528,3.327,8.634,4.938l-16.867.081.2-5.614a9.65,9.65,0,0,0,8.023.094" transform="translate(-87.038 -266.319)" fill="#fc4b52"/>
            <path id="Trazado_247605" data-name="Trazado 247605" d="M133.44,421.912l.049-1.35,16.148.417s.753.323.67.853Z" transform="translate(-87.038 -274.316)" fill="#e0e0e0"/>
            <path id="Trazado_247606" data-name="Trazado 247606" d="M184.181,368.549l.191.463s9.154-.051,9.847,1.407l-15.65,6.293-1.881-5.293a9.65,9.65,0,0,0,7.493-2.871" transform="translate(-115.247 -240.39)" fill="#fc4b52"/>
            <path id="Trazado_247607" data-name="Trazado 247607" d="M181.249,379.2l-.452-1.273,15.165-5.566s.819.023.938.546Z" transform="translate(-117.927 -242.875)" fill="#e0e0e0"/>
            <path id="Trazado_247608" data-name="Trazado 247608" d="M200.146,371.627c-.02.01-.1-.09-.167-.283a1.674,1.674,0,0,1,.255-1.517c.127-.16.235-.228.25-.212a2.5,2.5,0,0,0-.338,2.012" transform="translate(-130.386 -241.084)" fill="#12263f"/>
            <path id="Trazado_247609" data-name="Trazado 247609" d="M197.7,371.986a1.816,1.816,0,0,1,.35-2.055,3.746,3.746,0,0,0-.35,2.055" transform="translate(-128.835 -241.29)" fill="#12263f"/>
            <path id="Trazado_247610" data-name="Trazado 247610" d="M203.753,371.844a1.447,1.447,0,0,1-.217-1.723c.051.017-.063.4,0,.875s.261.819.216.848" transform="translate(-132.633 -241.415)" fill="#12263f"/>
            <path id="Trazado_247611" data-name="Trazado 247611" d="M199.937,366.34c-.009.018-.235-.1-.466-.42a3.227,3.227,0,0,1-.328-.6c-.051-.117-.1-.241-.149-.37a1.121,1.121,0,0,1-.067-.217.323.323,0,0,1,.078-.277.254.254,0,0,1,.3-.037.556.556,0,0,1,.183.165,1.949,1.949,0,0,1,.214.352,2.05,2.05,0,0,1,.187.664,1.081,1.081,0,0,1-.066.624c-.03,0,.006-.24-.061-.605a2.24,2.24,0,0,0-.21-.608,2.006,2.006,0,0,0-.2-.318c-.073-.1-.186-.161-.218-.11-.058.055-.025.175.027.306l.136.368a3.985,3.985,0,0,0,.281.592c.19.32.377.467.359.491" transform="translate(-129.749 -237.675)" fill="#12263f"/>
            <path id="Trazado_247612" data-name="Trazado 247612" d="M201.769,366.644c.006.007-.013.036-.06.088l-.037.041-.009-.062A2.063,2.063,0,0,1,201.7,366a2.6,2.6,0,0,1,.178-.529,2.812,2.812,0,0,1,.149-.277.536.536,0,0,1,.122-.146.276.276,0,0,1,.229-.056.24.24,0,0,1,.174.239.811.811,0,0,1-.032.217,2.2,2.2,0,0,1-.124.363,2.149,2.149,0,0,1-.344.546c-.243.278-.45.382-.461.364s.157-.161.36-.443a2.448,2.448,0,0,0,.29-.531,2.367,2.367,0,0,0,.105-.339c.037-.124.03-.247-.01-.239-.1-.034-.221.226-.3.377a2.952,2.952,0,0,0-.191.491,4.116,4.116,0,0,0-.127.672l-.046-.021c.059-.039.09-.054.1-.046" transform="translate(-131.491 -238.068)" fill="#12263f"/>
            <path id="Trazado_247613" data-name="Trazado 247613" d="M156.638,412.632c-.022,0-.038-.129.006-.328a1.677,1.677,0,0,1,1.011-1.16c.192-.071.32-.072.324-.05a2.5,2.5,0,0,0-1.341,1.538" transform="translate(-102.154 -268.133)" fill="#12263f"/>
            <path id="Trazado_247614" data-name="Trazado 247614" d="M154.233,411.61a1.817,1.817,0,0,1,1.374-1.568,9.229,9.229,0,0,0-.8.687,9.059,9.059,0,0,0-.576.882" transform="translate(-100.592 -267.449)" fill="#12263f"/>
            <path id="Trazado_247615" data-name="Trazado 247615" d="M160.085,414.332a1.126,1.126,0,0,1,.095-.911c.216-.484.6-.713.622-.672s-.264.309-.457.746-.206.834-.259.836" transform="translate(-104.383 -269.218)" fill="#12263f"/>
            <path id="Trazado_247616" data-name="Trazado 247616" d="M160.211,407.642a1.018,1.018,0,0,1-.177-.6,3.234,3.234,0,0,1,.033-.682c.018-.127.041-.258.067-.393a1.125,1.125,0,0,1,.056-.22.324.324,0,0,1,.211-.2.253.253,0,0,1,.279.128.56.56,0,0,1,.07.236,1.978,1.978,0,0,1,0,.411,2.06,2.06,0,0,1-.188.664c-.175.355-.37.512-.383.5s.131-.2.265-.548a2.228,2.228,0,0,0,.139-.628,1.949,1.949,0,0,0-.008-.378c-.009-.125-.074-.234-.128-.208-.078.016-.114.136-.137.275s-.051.259-.077.385a4.052,4.052,0,0,0-.07.651c-.006.372.077.6.049.606" transform="translate(-104.38 -264.519)" fill="#12263f"/>
            <path id="Trazado_247617" data-name="Trazado 247617" d="M160.551,409.324c0,.01-.03.024-.1.044l-.053.015.024-.057a2.062,2.062,0,0,1,.406-.582,2.585,2.585,0,0,1,.428-.358,2.86,2.86,0,0,1,.272-.159.536.536,0,0,1,.18-.06.274.274,0,0,1,.224.072.239.239,0,0,1,.024.295.813.813,0,0,1-.141.168,2.227,2.227,0,0,1-.3.245,2.159,2.159,0,0,1-.578.285,1.048,1.048,0,0,1-.583.069c0-.029.218-.055.539-.189a2.448,2.448,0,0,0,.525-.3,2.326,2.326,0,0,0,.267-.234c.1-.086.154-.195.116-.209-.066-.081-.307.077-.456.162a2.969,2.969,0,0,0-.42.318,4.184,4.184,0,0,0-.46.506l-.028-.042c.071,0,.105,0,.106.011" transform="translate(-104.597 -266.231)" fill="#12263f"/>
            <path id="Trazado_247618" data-name="Trazado 247618" d="M127.405,241.54l3.043.49,1.978,2.739-.576,2.086-.363.117.074.782a.866.866,0,0,1-.454.845l-1.576-2.731.651,2.77a1.376,1.376,0,0,1-1.061-.181c-.669-.339-1.384-3.429-1.384-3.429l-1.051-.655,1.032,3.433a1.152,1.152,0,0,1-.9.323c-.582-.031-1.767-3.147-1.767-3.147L109.211,247.2l-.033-2.048,3.843-6.369Z" transform="translate(-71.213 -155.748)" fill="#936760"/>
            <path id="Trazado_247619" data-name="Trazado 247619" d="M53.562,136.549a5.455,5.455,0,0,1-3.35-3.971,21.229,21.229,0,0,0-.361-2.263c-.327-1.047-1.137-1.952-1.177-3.048a17.526,17.526,0,0,1,.362-2.151,19.549,19.549,0,0,0-.133-2.1,4.553,4.553,0,0,1,2.79-4.209l4.382-1.779,6.754,2.753s3.842,3.729,2.736,11.4Z" transform="translate(-31.747 -76.33)" fill="#fc4b52"/>
            <path id="Trazado_247620" data-name="Trazado 247620" d="M94.765,158.823a1.3,1.3,0,0,1,.485-.385h-.04a.8.8,0,0,1,.109-.029.515.515,0,0,1,.407.014h0a.955.955,0,0,1,.562.407,1.132,1.132,0,0,1-.029,1.174.865.865,0,0,1-1.608-.154,1.073,1.073,0,0,1,.118-1.028" transform="translate(-61.684 -103.302)" fill="#a7e446"/>
            <path id="Trazado_247621" data-name="Trazado 247621" d="M69.677,130.478c-.448-2.449-2.441-5.283-4.869-4.731L57.361,128.6a1.457,1.457,0,0,0-1.121,1.621l2.207,16.418a4.543,4.543,0,0,0,9.033-.944c-.084-1.133-.146-1.985-.145-1.979s3.09-.9,3.256-5.087a44.271,44.271,0,0,0-.915-8.146" transform="translate(-36.674 -81.974)" fill="#936760"/>
            <path id="Trazado_247622" data-name="Trazado 247622" d="M90.7,149.1a.531.531,0,0,1-.445.593.508.508,0,0,1-.6-.411.532.532,0,0,1,.445-.593.509.509,0,0,1,.6.411" transform="translate(-58.472 -96.978)" fill="#12263f"/>
            <path id="Trazado_247623" data-name="Trazado 247623" d="M89.49,143.918c-.057.077-.492-.172-1.059-.1s-.95.4-1.02.34c-.034-.027.018-.159.184-.313a1.458,1.458,0,0,1,.806-.357,1.4,1.4,0,0,1,.853.168c.191.113.264.231.236.265" transform="translate(-57.009 -93.583)" fill="#12263f"/>
            <path id="Trazado_247624" data-name="Trazado 247624" d="M76.213,150.567a.531.531,0,0,1-.445.592.508.508,0,0,1-.6-.411.532.532,0,0,1,.445-.593.508.508,0,0,1,.6.411" transform="translate(-49.025 -97.936)" fill="#12263f"/>
            <path id="Trazado_247625" data-name="Trazado 247625" d="M73.482,146.123c-.057.077-.493-.172-1.06-.1s-.95.4-1.02.339c-.034-.027.017-.159.184-.313a1.458,1.458,0,0,1,.806-.357,1.4,1.4,0,0,1,.853.168c.19.113.264.231.236.265" transform="translate(-46.567 -95.022)" fill="#12263f"/>
            <path id="Trazado_247626" data-name="Trazado 247626" d="M83.211,149.542a3.786,3.786,0,0,1,.9-.275c.143-.032.277-.077.29-.179a.743.743,0,0,0-.148-.418l-.559-1.053a19.085,19.085,0,0,1-1.3-2.773,19.137,19.137,0,0,1,1.524,2.661l.542,1.062a.844.844,0,0,1,.143.56.366.366,0,0,1-.213.24.992.992,0,0,1-.242.063,3.722,3.722,0,0,1-.934.112" transform="translate(-53.738 -94.476)" fill="#12263f"/>
            <path id="Trazado_247627" data-name="Trazado 247627" d="M77.514,176.006a10.536,10.536,0,0,1-5.683-.817s1.671,2.667,5.742,1.795Z" transform="translate(-46.853 -114.269)" fill="#6f4c47"/>
            <path id="Trazado_247628" data-name="Trazado 247628" d="M81.23,161.352a1.405,1.405,0,0,0-1.222-.474.916.916,0,0,0-.7.495.839.839,0,0,0,1.083,1.138,2.09,2.09,0,0,0,.774-.616.655.655,0,0,0,.154-.234.291.291,0,0,0-.056-.285" transform="translate(-51.681 -104.926)" fill="#6f4c47"/>
            <path id="Trazado_247629" data-name="Trazado 247629" d="M79.97,160.053c.092-.016.166.6.745.974s1.227.23,1.242.315c.013.038-.132.137-.409.177a1.542,1.542,0,0,1-1.032-.228,1.345,1.345,0,0,1-.585-.822c-.054-.255,0-.416.039-.417" transform="translate(-52.12 -104.396)" fill="#12263f"/>
            <path id="Trazado_247630" data-name="Trazado 247630" d="M72.52,139.562c-.038.161-.613.155-1.269.314s-1.174.4-1.279.276c-.047-.062.029-.218.229-.393a2.274,2.274,0,0,1,1.941-.45c.256.07.394.176.378.252" transform="translate(-45.632 -90.827)" fill="#12263f"/>
            <path id="Trazado_247631" data-name="Trazado 247631" d="M88.518,138.3c-.084.141-.491.053-.962.1-.473.033-.858.19-.966.065-.048-.061,0-.2.159-.34a1.4,1.4,0,0,1,1.553-.136c.182.113.252.239.216.307" transform="translate(-56.468 -89.892)" fill="#12263f"/>
            <path id="Trazado_247632" data-name="Trazado 247632" d="M58.708,128.608a14.672,14.672,0,0,0-5.455,1.4,2.671,2.671,0,0,0-1.293,1.04,2.617,2.617,0,0,0-.183,1.452,14.571,14.571,0,0,0,1.588,4.777l.81,1.183c1.056-.328,1.8-3.147,1.628-4.429a3.046,3.046,0,0,0,1.578-2.813,3.375,3.375,0,0,0,1.327-2.615" transform="translate(-33.757 -83.886)" fill="#12263f"/>
            <path id="Trazado_247633" data-name="Trazado 247633" d="M57.239,153.424c-.123-.88-1.222-.972-1.948-.46a1.666,1.666,0,0,0-.554,1.733,1.89,1.89,0,0,0,2.758,1.578c0-.045-.111-1.821-.256-2.851" transform="translate(-35.684 -99.569)" fill="#936760"/>
            <path id="Trazado_247634" data-name="Trazado 247634" d="M57.835,157.053c-.012-.007-.04.036-.108.079a.436.436,0,0,1-.324.049,1.084,1.084,0,0,1-.624-.9,1.444,1.444,0,0,1,.04-.638.506.506,0,0,1,.283-.376.223.223,0,0,1,.272.085c.042.065.033.117.047.12s.048-.049.015-.149a.279.279,0,0,0-.119-.143.331.331,0,0,0-.249-.032.616.616,0,0,0-.4.446,1.49,1.49,0,0,0-.059.715,1.137,1.137,0,0,0,.775.993.469.469,0,0,0,.388-.118c.069-.072.075-.129.066-.132" transform="translate(-36.909 -101.192)" fill="#6f4c47"/>
            <path id="Trazado_247635" data-name="Trazado 247635" d="M55.9,161.709a1.3,1.3,0,0,1,.485-.385h-.04a.793.793,0,0,1,.109-.029.515.515,0,0,1,.407.014h0a.955.955,0,0,1,.562.407,1.132,1.132,0,0,1-.029,1.174.865.865,0,0,1-1.608-.154,1.073,1.073,0,0,1,.118-1.028" transform="translate(-36.333 -105.184)" fill="#a7e446"/>
            <path id="Trazado_247636" data-name="Trazado 247636" d="M50.2,115.445a4.1,4.1,0,0,1,3.011-2.164,7.015,7.015,0,0,1,1.119-.126,4.108,4.108,0,0,1-.157-1.517,4.379,4.379,0,0,1,2.452-3.467,5.448,5.448,0,0,1,4.121-.106,5.316,5.316,0,0,1,3.076,2.542,3.779,3.779,0,0,1-.328,4.015,7.214,7.214,0,0,1-3.619,1.655,5.037,5.037,0,0,1-3.5-.5c-3.147,2.584-3.937,6.858-4.461,10.726-1.367-2.407-1.664-5.254-1.933-8.009a6.084,6.084,0,0,1,.223-3.045" transform="translate(-32.545 -70.257)" fill="#fc4b52"/>
            <path id="Trazado_247637" data-name="Trazado 247637" d="M61.47,128.922c-.037-.034.138-.281.389-.55s.485-.461.522-.427-.138.281-.389.55-.485.461-.522.427" transform="translate(-40.091 -83.451)" fill="#12263f"/>
            <path id="Trazado_247638" data-name="Trazado 247638" d="M82.395,116c-.023-.022.246-.273.56-.762a4.561,4.561,0,0,0,.36-4.315c-.228-.534-.452-.825-.426-.844.009-.007.074.058.176.19a3.643,3.643,0,0,1,.366.6,4.337,4.337,0,0,1-.371,4.44,3.622,3.622,0,0,1-.461.532c-.122.113-.2.166-.2.158" transform="translate(-53.742 -71.801)" fill="#12263f"/>
            <path id="Trazado_247639" data-name="Trazado 247639" d="M77.863,114.134a2.4,2.4,0,0,1,.419-.481,9.707,9.707,0,0,0,.984-1.151,4.022,4.022,0,0,0,.626-1.353c.089-.375.082-.619.112-.619a1.253,1.253,0,0,1,.014.644,3.481,3.481,0,0,1-.6,1.432,6.58,6.58,0,0,1-1.044,1.141,2.1,2.1,0,0,1-.508.388" transform="translate(-50.786 -72.094)" fill="#12263f"/>
            <g id="Grupo_157185" data-name="Grupo 157185" transform="translate(21.205 41.678)" opacity="0.3">
              <g id="Grupo_157184" data-name="Grupo 157184">
                <g id="Grupo_157183" data-name="Grupo 157183" clip-path="url(#clip-path-16)">
                  <path id="Trazado_247640" data-name="Trazado 247640" d="M61.391,119.854a4.608,4.608,0,0,0,2.193,3.855l-.044.071a2.53,2.53,0,0,1-2.149-3.926" transform="translate(-60.98 -119.854)"/>
                </g>
              </g>
            </g>
            <path id="Trazado_247641" data-name="Trazado 247641" d="M53.518,135.656a4.312,4.312,0,0,1,.839.411,4.3,4.3,0,0,1,.827.435,2.687,2.687,0,0,1-1.665-.847" transform="translate(-34.907 -88.48)" fill="#fff"/>
            <path id="Trazado_247642" data-name="Trazado 247642" d="M49.088,143.036a7.606,7.606,0,0,1,1.119.108,7.442,7.442,0,0,1,1.12.1,3.489,3.489,0,0,1-2.239-.205" transform="translate(-32.018 -93.288)" fill="#fff"/>
            <path id="Trazado_247643" data-name="Trazado 247643" d="M57.272,121.985c.051.016-.13.689-.2,1.539s-.005,1.544-.059,1.55a4.909,4.909,0,0,1,.257-3.089" transform="translate(-37.096 -79.566)" fill="#fff"/>
            <path id="Trazado_247644" data-name="Trazado 247644" d="M60.691,134.584c.009-.051.322-.031.7-.039s.69-.042.7.009-.3.163-.7.172-.714-.1-.7-.142" transform="translate(-39.586 -87.746)" fill="#fff"/>
            <path id="Trazado_247645" data-name="Trazado 247645" d="M53.935,148.384a3.3,3.3,0,0,1,1.122,1.656,19.3,19.3,0,0,1-1.122-1.656" transform="translate(-35.178 -96.784)" fill="#fff"/>
            <path id="Trazado_247646" data-name="Trazado 247646" d="M72.385,115.4a6.443,6.443,0,0,1,.339-.992l.884-2.367.856-2.377a6.513,6.513,0,0,1,.383-.976,5.616,5.616,0,0,1-.261,1.017c-.187.62-.467,1.471-.808,2.4s-.677,1.758-.935,2.352a5.667,5.667,0,0,1-.458.944" transform="translate(-47.212 -70.892)" fill="#fff"/>
            <path id="Trazado_247647" data-name="Trazado 247647" d="M66.138,110.552a2.592,2.592,0,0,1,.609-.43,12.3,12.3,0,0,1,3.315-1.362,2.612,2.612,0,0,1,.735-.122c.013.054-1.089.317-2.374.849s-2.256,1.112-2.285,1.065" transform="translate(-43.139 -70.856)" fill="#fff"/>
            <path id="Trazado_247648" data-name="Trazado 247648" d="M86.7,118.407a3.264,3.264,0,0,1,1.04,2.669c-.055,0-.088-.652-.38-1.389s-.7-1.245-.66-1.28" transform="translate(-56.546 -77.231)" fill="#fff"/>
            <path id="Trazado_247649" data-name="Trazado 247649" d="M73.1,130.769a5.489,5.489,0,0,0,1-.268,5.487,5.487,0,0,0,.844-.6c.045.015-.194.5-.767.762a1.3,1.3,0,0,1-1.076.1" transform="translate(-47.681 -84.729)" fill="#fff"/>
            <path id="Trazado_247650" data-name="Trazado 247650" d="M63.055,121.838a1.491,1.491,0,0,1,.277-.953c.285-.486.676-.741.7-.7s-.281.34-.546.794-.381.872-.433.861" transform="translate(-41.117 -78.388)" fill="#fff"/>
            <path id="Trazado_247651" data-name="Trazado 247651" d="M95.022,138.825c-.03-.042.082-.171.189-.341s.179-.324.23-.315.053.21-.077.413-.316.284-.342.243" transform="translate(-61.976 -90.122)" fill="#fff"/>
            <path id="Trazado_247652" data-name="Trazado 247652" d="M56.689,128.787c.023.021-.376.46-.947,1.225a18.675,18.675,0,0,0-3.176,6.687c-.231.926-.319,1.513-.351,1.508a1.831,1.831,0,0,1,.031-.417c.029-.267.094-.651.195-1.121a16.52,16.52,0,0,1,3.2-6.736c.3-.375.557-.668.746-.859a1.87,1.87,0,0,1,.3-.288" transform="translate(-34.055 -84.003)" fill="#12263f"/>
            <path id="Trazado_247653" data-name="Trazado 247653" d="M49.749,131.267a4.475,4.475,0,0,1,.5-.928,13.475,13.475,0,0,1,3.463-3.695,4.48,4.48,0,0,1,.894-.556,9.341,9.341,0,0,1-.817.658,17.149,17.149,0,0,0-3.434,3.663,9.341,9.341,0,0,1-.6.858" transform="translate(-32.449 -82.241)" fill="#12263f"/>
            <path id="Trazado_247654" data-name="Trazado 247654" d="M66.442,110.071c.016.011-.106.172-.265.495a4.211,4.211,0,0,0-.4,1.455,4.386,4.386,0,0,0,.369,2.183,4.541,4.541,0,0,0,1.822,1.985,5.073,5.073,0,0,0,2.613.716,5.334,5.334,0,0,0,2.185-.44,3.571,3.571,0,0,0,1.215-.885c.236-.271.325-.454.344-.442a.445.445,0,0,1-.061.134,2.217,2.217,0,0,1-.229.354,3.423,3.423,0,0,1-1.214.956,5.3,5.3,0,0,1-2.239.491,5.146,5.146,0,0,1-2.706-.727,4.639,4.639,0,0,1-1.881-2.072,4.42,4.42,0,0,1-.344-2.265,3.97,3.97,0,0,1,.464-1.475,2.816,2.816,0,0,1,.231-.352c.058-.076.091-.114.1-.111" transform="translate(-42.803 -71.795)" fill="#12263f"/>
            <path id="Trazado_247655" data-name="Trazado 247655" d="M62.317,117.421c.03,0-.031.375-.021.973a4.9,4.9,0,0,0,.545,2.23,3.575,3.575,0,0,0,1.655,1.545,6.173,6.173,0,0,0,.924.274.646.646,0,0,1-.266.009,2.53,2.53,0,0,1-.707-.164,3.471,3.471,0,0,1-1.765-1.577,4.579,4.579,0,0,1-.514-2.318,4.671,4.671,0,0,1,.076-.717.7.7,0,0,1,.072-.255" transform="translate(-40.548 -76.589)" fill="#12263f"/>
            <g id="Grupo_157188" data-name="Grupo 157188" transform="translate(18.331 47.259)" opacity="0.3">
              <g id="Grupo_157187" data-name="Grupo 157187">
                <g id="Grupo_157186" data-name="Grupo 157186" clip-path="url(#clip-path-17)">
                  <path id="Trazado_247656" data-name="Trazado 247656" d="M54.331,137.265a26.444,26.444,0,0,0-1.426,4.022,2.461,2.461,0,0,0-.134,1.4c.026.09.1.195.188.163.057-.021.079-.087.094-.145a60,60,0,0,1,2.16-6.8Z" transform="translate(-52.714 -135.904)"/>
                </g>
              </g>
            </g>
            <g id="Grupo_157191" data-name="Grupo 157191" transform="translate(28.747 38.759)" opacity="0.3">
              <g id="Grupo_157190" data-name="Grupo 157190">
                <g id="Grupo_157189" data-name="Grupo 157189" clip-path="url(#clip-path-18)">
                  <path id="Trazado_247657" data-name="Trazado 247657" d="M83.46,111.459a5.035,5.035,0,0,1-.791,5.393,1.874,1.874,0,0,0,1.363-1.209,4.428,4.428,0,0,0-.572-4.184" transform="translate(-82.669 -111.459)"/>
                </g>
              </g>
            </g>
            <path id="Trazado_247658" data-name="Trazado 247658" d="M83.651,218.186q-9.658-.233-18.628.042l.064-.04,2.076-19.541L59.271,185.4l-.472-.445a7.883,7.883,0,0,1-4.97.838l-4.588-.784a80.623,80.623,0,0,0-5.881,5.84c0,.18,5.1,24.917,5.1,24.917l3.033,2.977-8.582,6.035s.176,5.957,4.2,7.584,21.929.394,24.017.135c0,0,7.823-3.04,8.907-3.969s3.927-8.317,3.617-10.346" transform="translate(-27.987 -120.642)" fill="#12263f"/>
            <path id="Trazado_247659" data-name="Trazado 247659" d="M98.446,288.437a.8.8,0,0,1,.186.018l.528.083c.458.075,1.118.2,1.93.363,1.626.327,3.857.846,6.31,1.465l6.27,1.624,1.9.5.515.14a.094.094,0,1,1-.008.032l-.522-.11c-.453-.1-1.107-.251-1.912-.446-1.612-.388-3.83-.957-6.282-1.577s-4.676-1.155-6.294-1.511c-.808-.18-1.464-.319-1.917-.413l-.522-.113a.788.788,0,0,1-.18-.05" transform="translate(-64.213 -188.135)" fill="#a7e446"/>
            <path id="Trazado_247660" data-name="Trazado 247660" d="M93.452,280.152a13.731,13.731,0,0,1,3,.214,13.731,13.731,0,0,1-3-.214" transform="translate(-60.955 -182.714)" fill="#a7e446"/>
            <path id="Trazado_247661" data-name="Trazado 247661" d="M93.192,269.961c.04-.03.539.633,1.285,1.321s1.44,1.141,1.413,1.183a6.672,6.672,0,0,1-2.7-2.5" transform="translate(-60.785 -176.085)" fill="#a7e446"/>
            <path id="Trazado_247662" data-name="Trazado 247662" d="M91.953,229.22c-.02-.022.255-.273.623-.74a7.307,7.307,0,0,0,1.562-4.286c.018-.595-.03-.964,0-.968a.823.823,0,0,1,.059.256,4.662,4.662,0,0,1,.058.713,6.616,6.616,0,0,1-1.589,4.358,4.672,4.672,0,0,1-.5.509c-.129.11-.2.166-.21.158" transform="translate(-59.977 -145.602)" fill="#a7e446"/>
            <path id="Trazado_247663" data-name="Trazado 247663" d="M91.985,185.807h0c2.235,1.383,4.439,4.938,4.992,8.716l1.239,5.857a1.252,1.252,0,0,1,1.514.209,2.3,2.3,0,0,1,.493,1.767l2.568,1.795-4.107,2.988-2.808,3.456s2.41,7.08,2.808,7.775,1.193,1.9,1.193,1.9l-3.678-.706a6.107,6.107,0,0,1-2.385-4.771c.1-2.982.392-14.412,0-15.9S88.6,184.96,88.6,184.96Z" transform="translate(-57.793 -120.642)" fill="#fc4b52"/>
            <path id="Trazado_247664" data-name="Trazado 247664" d="M110.587,226.495a.689.689,0,0,1-.025-.172c-.011-.132-.024-.3-.04-.5-.021-.433-.03-1.061-.008-1.835.043-1.549.214-3.68.322-6.036a55.255,55.255,0,0,0-.03-6.034c-.061-.77-.11-1.393-.164-1.822-.02-.2-.036-.364-.049-.5a.7.7,0,0,1-.006-.175.692.692,0,0,1,.039.17c.021.131.048.294.08.492.074.427.141,1.05.217,1.821a47.4,47.4,0,0,1,.078,6.05c-.109,2.36-.3,4.49-.37,6.033-.037.772-.046,1.4-.044,1.829,0,.2.007.365.009.5a.7.7,0,0,1-.008.175" transform="translate(-72.075 -136.602)" fill="#12263f"/>
            <path id="Trazado_247665" data-name="Trazado 247665" d="M52.557,207.66l-1.738-6.638-7.558-15.907-6.442,3.112a3.008,3.008,0,0,0-.491.237h0a4.682,4.682,0,0,0-1.538,1.648,7.723,7.723,0,0,0-.948,5.169l2.481,15.734a41.244,41.244,0,0,0,2.427,5.208L35,227.553s9.589,4.794,12.686,4.779c2.619-.013,4.907-.029,5.34-5.134s-.464-19.538-.464-19.538" transform="translate(-22.007 -120.743)" fill="#fc4b52"/>
            <path id="Trazado_247666" data-name="Trazado 247666" d="M64.845,252.769c-.021-.01.095-.315.246-.824a8.326,8.326,0,0,1,.314-.886,2.432,2.432,0,0,1,.681-.95,1.9,1.9,0,0,1,1.1-.4,2.14,2.14,0,0,1,.939.174,1.765,1.765,0,0,1,.536.352c.107.107.153.178.146.184a3.3,3.3,0,0,0-.725-.428,2.159,2.159,0,0,0-.887-.13,1.808,1.808,0,0,0-1.008.375,2.4,2.4,0,0,0-.645.884c-.146.313-.248.612-.342.86a3.008,3.008,0,0,1-.356.786" transform="translate(-42.294 -162.876)" fill="#12263f"/>
            <path id="Trazado_247667" data-name="Trazado 247667" d="M58.873,240.494a.582.582,0,0,1,.223-.087,2.341,2.341,0,0,1,.648-.074,2.692,2.692,0,0,1,2.67,2.842,2.351,2.351,0,0,1-.114.642.592.592,0,0,1-.1.217,6.2,6.2,0,0,0,.1-.861,2.689,2.689,0,0,0-2.559-2.724,6.235,6.235,0,0,0-.866.045" transform="translate(-38.4 -156.76)" fill="#12263f"/>
            <path id="Trazado_247668" data-name="Trazado 247668" d="M58.863,204.771a2.846,2.846,0,0,1,.149.475c.087.308.2.757.328,1.315.257,1.115.556,2.67.774,4.4s.311,3.315.337,4.459c.013.572.015,1.035.007,1.355a2.907,2.907,0,0,1-.027.5,2.836,2.836,0,0,1-.037-.5c-.015-.348-.035-.8-.059-1.351-.056-1.14-.169-2.714-.385-4.443s-.5-3.28-.724-4.4l-.276-1.324a2.864,2.864,0,0,1-.087-.49" transform="translate(-38.393 -133.564)" fill="#12263f"/>
            <path id="Trazado_247669" data-name="Trazado 247669" d="M42.717,195.5a2.111,2.111,0,0,1,.728-.08,5.192,5.192,0,0,1,3.273,1.2,2.114,2.114,0,0,1,.5.532,7.838,7.838,0,0,0-2.092-1.263,7.837,7.837,0,0,0-2.411-.394" transform="translate(-27.863 -127.468)" fill="#12263f"/>
            <path id="Trazado_247670" data-name="Trazado 247670" d="M48.972,260.179a.984.984,0,0,1,.127.162l.338.476a5.474,5.474,0,0,0,1.634,1.353,5.676,5.676,0,0,0,3.067.564,7.561,7.561,0,0,0,3.586-1.351,8.8,8.8,0,0,0,.752-.593l-.027.062c-.011-2.546-.02-4.813-.027-6.468,0-.8.007-1.456.009-1.93,0-.213.008-.386.01-.522a.8.8,0,0,1,.014-.181.782.782,0,0,1,.017.181l.019.521c.01.474.024,1.127.041,1.929.021,1.654.048,3.92.08,6.467v.04l-.027.021a8.74,8.74,0,0,1-.768.606,7.619,7.619,0,0,1-3.668,1.367,5.72,5.72,0,0,1-3.135-.612,5.3,5.3,0,0,1-1.631-1.417c-.143-.212-.244-.384-.315-.5a.964.964,0,0,1-.1-.179" transform="translate(-31.942 -164.209)" fill="#12263f"/>
            <g id="Grupo_157194" data-name="Grupo 157194" transform="translate(17.273 93.311)" opacity="0.3">
              <g id="Grupo_157193" data-name="Grupo 157193">
                <g id="Grupo_157192" data-name="Grupo 157192" clip-path="url(#clip-path-19)">
                  <path id="Trazado_247671" data-name="Trazado 247671" d="M63.38,270.563c-1.135.478-2.568.926-2.806,2.134a8.722,8.722,0,0,1-.163,1.211c-.322.923-1.482,1.185-2.455,1.275a12.16,12.16,0,0,1-4.907-.3,4.928,4.928,0,0,1-3.377-3.321c1.43.883,2.1,1.893,3.758,2.168a9.988,9.988,0,0,0,3.558-.743,6.461,6.461,0,0,0,2-1.5c.078-.31-.009-1.34-.075-1.028-.022.1,1.516-.877,2.286-1.168.914-.345,2.179-.952,2.179-.952" transform="translate(-49.673 -268.338)"/>
                </g>
              </g>
            </g>
            <g id="Grupo_157197" data-name="Grupo 157197" transform="translate(20.928 87.581)" opacity="0.3">
              <g id="Grupo_157196" data-name="Grupo 157196">
                <g id="Grupo_157195" data-name="Grupo 157195" clip-path="url(#clip-path-20)">
                  <path id="Trazado_247672" data-name="Trazado 247672" d="M62.757,251.859c-.247,1.119-.96,2.875-1.334,3.958a1.71,1.71,0,0,1-.265.541.6.6,0,0,1-.528.239.615.615,0,0,1-.446-.681,1.79,1.79,0,0,1,.369-.808l2.2-3.249" transform="translate(-60.182 -251.859)"/>
                </g>
              </g>
            </g>
            <path id="Trazado_247673" data-name="Trazado 247673" d="M50.586,288.077a3.58,3.58,0,0,1,.3-.545c.2-.34.5-.823.854-1.4l.029-.047.054.02c.731.266,1.614.571,2.573.866,1.312.405,2.518.714,3.393.925l1.038.246a1.811,1.811,0,0,1,.378.107,1.79,1.79,0,0,1-.391-.044c-.249-.039-.609-.1-1.051-.2-.884-.183-2.1-.475-3.417-.882-.963-.3-1.846-.611-2.574-.894l.083-.027c-.371.572-.682,1.045-.9,1.372a3.581,3.581,0,0,1-.365.5" transform="translate(-32.995 -186.6)" fill="#12263f"/>
            <path id="Trazado_247674" data-name="Trazado 247674" d="M73.49,295.441a740.382,740.382,0,0,0,.982-2.628,6,6,0,0,1-.982,2.628" transform="translate(-47.932 -190.99)" fill="#12263f"/>
            <path id="Trazado_247675" data-name="Trazado 247675" d="M50.635,292.461c.015-.023.416.221,1.09.562a18.576,18.576,0,0,0,2.728,1.113,19.988,19.988,0,0,0,2.87.676c.747.119,1.214.162,1.212.188a1.284,1.284,0,0,1-.331,0c-.212-.006-.519-.032-.9-.077a16.112,16.112,0,0,1-2.9-.635,15.161,15.161,0,0,1-2.732-1.168c-.333-.184-.6-.345-.771-.466a1.277,1.277,0,0,1-.265-.2" transform="translate(-33.027 -190.76)" fill="#12263f"/>
            <g id="Grupo_157200" data-name="Grupo 157200" transform="translate(17.446 101.864)" opacity="0.3">
              <g id="Grupo_157199" data-name="Grupo 157199">
                <g id="Grupo_157198" data-name="Grupo 157198" clip-path="url(#clip-path-21)">
                  <path id="Trazado_247676" data-name="Trazado 247676" d="M57.692,295.289a.427.427,0,0,1-.2.545,1.155,1.155,0,0,1-.627.1,11.178,11.178,0,0,1-6.419-2.343c-.186-.145-.38-.413-.219-.586.135-.145.375-.049.546.05A17.809,17.809,0,0,0,57.9,295.39" transform="translate(-50.169 -292.932)"/>
                </g>
              </g>
            </g>
            <path id="Trazado_247677" data-name="Trazado 247677" d="M76.465,245.309l14.315-3.1,2.992-.741,2.361,1.425a1.294,1.294,0,0,1,.614.936l.205,1.529-.288.249.374.691a.865.865,0,0,1-.087.955l-2.411-1.813,1.575,2.212a1.376,1.376,0,0,1-1.047.249c-.748-.05-2.617-2.613-2.617-2.613l-1.223-.192,2.576,2.771s.117.232-.431.432-3.407-2-3.407-2l-13.437,6.566" transform="translate(-49.875 -157.502)" fill="#936760"/>
            <path id="Trazado_247678" data-name="Trazado 247678" d="M76.529,252.724a.321.321,0,0,1,.06-.035l.182-.095.714-.361,2.719-1.35,9.733-4.789a.072.072,0,0,1,.074.007c.581.44,1.2.884,1.849,1.3a8.269,8.269,0,0,0,1.022.574c.176.069.375.163.519.091a.931.931,0,0,0,.244-.135c.072-.05.107-.138.092-.17l.012.018-2.578-2.769a.08.08,0,0,1,0-.113.082.082,0,0,1,.067-.021l1.223.191a.084.084,0,0,1,.053.032,18.835,18.835,0,0,0,1.519,1.82,3.306,3.306,0,0,0,.925.729,1.424,1.424,0,0,0,1.1-.2l-.009.106-.466-.654-1.109-1.558a.082.082,0,0,1,.116-.113l1.952,1.469.24.181.12.09.06.045.03.023.008.006h0l-.111.014v0l0,0,.01-.014a.782.782,0,0,0,.158-.505,1.086,1.086,0,0,0-.188-.516l-.279-.516a.08.08,0,0,1,.018-.1l.288-.249-.027.071-.187-1.4a1.26,1.26,0,0,0-.674-1.057l-2.278-1.378.057.009-1.871.46c-.611.151-1.207.3-1.8.421L86.779,243l-5.48,1.168-3.561.749-.946.192-.244.047a.435.435,0,0,1-.083.012.424.424,0,0,1,.081-.024l.241-.058.94-.216,3.552-.79,5.472-1.2,3.341-.73c.588-.121,1.184-.274,1.794-.426l1.868-.466a.076.076,0,0,1,.057.009l2.282,1.374a1.441,1.441,0,0,1,.527.483,1.49,1.49,0,0,1,.223.687l.189,1.4a.081.081,0,0,1-.027.071l-.287.249.018-.1.28.516a1.245,1.245,0,0,1,.208.586.946.946,0,0,1-.191.61l-.012.016,0,0v0l-.113.014h0l-.008-.006-.03-.023-.06-.045-.12-.09-.241-.181-1.953-1.467.116-.113,1.11,1.558.466.654,0,.006a.075.075,0,0,1-.013.1,1.244,1.244,0,0,1-.614.255,2.172,2.172,0,0,1-.321.024c-.054,0-.106,0-.16,0a1.553,1.553,0,0,1-.172-.038,3.388,3.388,0,0,1-.988-.77,18.962,18.962,0,0,1-1.532-1.84l.053.032-1.223-.192.071-.134,2.573,2.773,0,.005a.041.041,0,0,1,.008.013.317.317,0,0,1-.132.357,1.07,1.07,0,0,1-.285.159.385.385,0,0,1-.175.038.644.644,0,0,1-.167-.025,2,2,0,0,1-.295-.106,8.413,8.413,0,0,1-1.041-.588c-.658-.425-1.271-.871-1.855-1.315l.074.007-9.758,4.736L77.5,252.273l-.723.341-.187.085a.339.339,0,0,1-.065.025" transform="translate(-49.875 -157.361)" fill="#6f4c47"/>
            <path id="Trazado_247679" data-name="Trazado 247679" d="M124.3,252.157a5.166,5.166,0,0,1-.58-.728c-.341-.463-.8-1.109-1.306-1.828a1.581,1.581,0,0,0-.864-.756c-.351-.1-.7-.158-.974-.226a5.179,5.179,0,0,1-.9-.24,5.3,5.3,0,0,1,.922.126c.284.055.615.1,1,.2a1.7,1.7,0,0,1,.96.817c.5.716.945,1.369,1.261,1.846a5.244,5.244,0,0,1,.484.794" transform="translate(-78.063 -162.005)" fill="#6f4c47"/>
            <path id="Trazado_247680" data-name="Trazado 247680" d="M125.962,247.97a6.666,6.666,0,0,1-.556-.625,17.617,17.617,0,0,0-1.389-1.45l-.425-.386-.2-.183-.1-.088c-.014-.011-.038-.037-.045-.037s0,0,0,0l-.027,0c-.32-.038-.639-.031-.893-.039a4.745,4.745,0,0,1-.837-.039,3.824,3.824,0,0,1,.835-.078,7.21,7.21,0,0,1,.92.006l.036.006a.261.261,0,0,1,.058.024.384.384,0,0,1,.057.044l.1.087.207.18.429.386a12.1,12.1,0,0,1,1.367,1.5,3.112,3.112,0,0,1,.466.7" transform="translate(-79.241 -159.823)" fill="#6f4c47"/>
            <path id="Trazado_247681" data-name="Trazado 247681" d="M141.826,237.891l5.015-13.848a1.81,1.81,0,0,0-1.674-2.5H130.35a1.81,1.81,0,0,0-1.714,1.228L123.9,236.741l-8.246.026c-.45,0-.837.6-.837,1.051h2.712l6.115-.011Z" transform="translate(-74.889 -144.507)" fill="#e0e0e0"/>
            <path id="Trazado_247682" data-name="Trazado 247682" d="M141.666,237.726s-.041,0-.125.005l-.376,0-1.471,0h-5.557l-8.553-.017c-3.287-.018-6.954.021-10.929.015h-.085v-.084a1.267,1.267,0,0,1,.164-.584,1.182,1.182,0,0,1,.416-.451.654.654,0,0,1,.312-.1c.1,0,.2,0,.3,0l.587,0,2.4-.009,5-.018-.084.061,2.147-6.33,1.426-4.2.7-2.057.345-1.016c.06-.17.108-.334.181-.509a1.861,1.861,0,0,1,.295-.47,1.9,1.9,0,0,1,.917-.59,1.948,1.948,0,0,1,.541-.076h2.581l3.988,0,7.373.008H145a1.883,1.883,0,0,1,1.843,1.51,1.8,1.8,0,0,1-.018.819c-.077.263-.174.5-.26.745l-.517,1.419-3.2,8.744-.874,2.366-.229.611c-.052.137-.082.2-.082.2s.022-.077.071-.218l.218-.625.848-2.389,3.133-8.747.509-1.415c.084-.241.182-.486.251-.727a1.665,1.665,0,0,0,.014-.758,1.757,1.757,0,0,0-.926-1.207,3.6,3.6,0,0,0-1.639-.183l-7.373.008-3.988,0h-2.06a3.666,3.666,0,0,0-1.014.07,1.729,1.729,0,0,0-.831.536,1.69,1.69,0,0,0-.267.426c-.064.152-.117.33-.175.5l-.344,1.016-.7,2.058-1.425,4.2-2.149,6.33-.021.061h-.064l-5,.014-2.4.006-.587,0c-.1,0-.2,0-.287,0a.486.486,0,0,0-.235.075,1.134,1.134,0,0,0-.5.888l-.084-.084c3.97.012,7.652-.017,10.919.012l8.527.062,5.565.051,1.483.018.384.008c.087,0,.133.006.133.006" transform="translate(-74.73 -144.342)" fill="#12263f"/>
            <path id="Trazado_247683" data-name="Trazado 247683" d="M149.02,221.683a.626.626,0,0,1-.041.17l-.152.474-.591,1.734c-.507,1.461-1.219,3.476-2.016,5.7s-1.528,4.23-2.066,5.681l-.645,1.714-.184.463a.638.638,0,0,1-.076.157.627.627,0,0,1,.041-.17l.152-.474.591-1.734c.507-1.461,1.219-3.476,2.016-5.7s1.528-4.229,2.065-5.679l.645-1.714.184-.463a.646.646,0,0,1,.076-.158" transform="translate(-93.435 -144.595)" fill="#12263f"/>
            <path id="Trazado_247684" data-name="Trazado 247684" d="M103.573,270.863h46.68a1.262,1.262,0,1,0,0-2.525h-46.68a1.262,1.262,0,0,0,0,2.525" transform="translate(-66.734 -175.027)" fill="#a7e446"/>
            <rect id="Rectángulo_89902" data-name="Rectángulo 89902" width="4.073" height="52.171" transform="translate(58.559 95.363)" fill="#a7e446"/>
            <path id="Trazado_247685" data-name="Trazado 247685" d="M161.806,418.426H134.1c.181,0,11.926-3.114,11.926-3.114H150.1Z" transform="translate(-87.47 -270.892)" fill="#a7e446"/>
            <path id="Trazado_247686" data-name="Trazado 247686" d="M105.59,275.134c0-.046,10.556-.082,23.574-.082s23.576.037,23.576.082-10.554.082-23.576.082-23.574-.037-23.574-.082" transform="translate(-68.872 -179.406)" fill="#12263f"/>
          </g>
        </g>
      </g>
    </g>
  </g>
</svg>
