<svg xmlns="http://www.w3.org/2000/svg" xmlns:xlink="http://www.w3.org/1999/xlink" width="234.506" height="224.027" viewBox="0 0 234.506 224.027">
  <defs>
    <clipPath id="clip-path">
      <rect id="Rectángulo_89943" data-name="Rectángulo 89943" width="234.506" height="133.342" fill="none"/>
    </clipPath>
    <clipPath id="clip-path-5">
      <rect id="Rectángulo_89928" data-name="Rectángulo 89928" width="15.245" height="18.574" fill="none"/>
    </clipPath>
    <clipPath id="clip-path-8">
      <rect id="Rectángulo_89935" data-name="Rectángulo 89935" width="7.615" height="16.155" fill="none"/>
    </clipPath>
    <clipPath id="clip-path-9">
      <rect id="Rectángulo_89936" data-name="Rectángulo 89936" width="10.456" height="18.466" fill="none"/>
    </clipPath>
    <clipPath id="clip-path-10">
      <rect id="Rectángulo_89937" data-name="Rectángulo 89937" width="7.608" height="12.349" fill="none"/>
    </clipPath>
    <clipPath id="clip-path-11">
      <rect id="Rectángulo_89938" data-name="Rectángulo 89938" width="7.878" height="14.192" fill="none"/>
    </clipPath>
    <clipPath id="clip-path-12">
      <rect id="Rectángulo_89939" data-name="Rectángulo 89939" width="11.621" height="5.15" fill="none"/>
    </clipPath>
    <clipPath id="clip-path-13">
      <rect id="Rectángulo_89940" data-name="Rectángulo 89940" width="11.041" height="5.484" fill="none"/>
    </clipPath>
  </defs>
  <g id="Grupo_156170" data-name="Grupo 156170" transform="translate(-6703.076 -6952.922)">
    <circle id="Elipse_5638" data-name="Elipse 5638" cx="112.014" cy="112.014" r="112.014" transform="translate(6708.315 6952.922)" fill="#dff7f9"/>
    <g id="Grupo_157239" data-name="Grupo 157239" transform="translate(6703.076 6998.265)">
      <g id="Grupo_157238" data-name="Grupo 157238" clip-path="url(#clip-path)">
        <g id="Grupo_157206" data-name="Grupo 157206">
          <g id="Grupo_157205" data-name="Grupo 157205" clip-path="url(#clip-path)">
            <path id="Trazado_247687" data-name="Trazado 247687" d="M558.323,157.119h47.37l-7.717,5.568v10.955a2.287,2.287,0,0,1-2.287,2.288H558.323a2.288,2.288,0,0,1-2.288-2.288V159.407a2.288,2.288,0,0,1,2.288-2.288" transform="translate(-371.187 -104.886)" fill="#ffeebc"/>
            <path id="Trazado_247688" data-name="Trazado 247688" d="M568.86,180.242c0,.046,7.144.083,15.955.083s15.957-.037,15.957-.083-7.143-.083-15.957-.083-15.955.037-15.955.083" transform="translate(-379.748 -120.267)" fill="#feca2e"/>
            <path id="Trazado_247689" data-name="Trazado 247689" d="M568.86,192.895c0,.046,7.144.083,15.955.083s15.957-.037,15.957-.083-7.143-.083-15.957-.083-15.955.037-15.955.083" transform="translate(-379.748 -128.714)" fill="#feca2e"/>
            <rect id="Rectángulo_89905" data-name="Rectángulo 89905" width="2.217" height="7.426" transform="translate(112.975 11.808)" fill="#feca2e"/>
            <rect id="Rectángulo_89906" data-name="Rectángulo 89906" width="2.217" height="8.501" transform="translate(94.459 10.732)" fill="#feca2e"/>
            <rect id="Rectángulo_89907" data-name="Rectángulo 89907" width="2.217" height="10.273" transform="translate(99.088 8.96)" fill="#feca2e"/>
            <rect id="Rectángulo_89908" data-name="Rectángulo 89908" width="2.217" height="9.71" transform="translate(103.717 9.524)" fill="#feca2e"/>
            <rect id="Rectángulo_89909" data-name="Rectángulo 89909" width="2.217" height="12.995" transform="translate(108.346 6.239)" fill="#feca2e"/>
            <rect id="Rectángulo_89910" data-name="Rectángulo 89910" width="2.217" height="12.932" transform="translate(117.604 6.302)" fill="#feca2e"/>
            <rect id="Rectángulo_89911" data-name="Rectángulo 89911" width="2.217" height="8.684" transform="translate(122.233 10.549)" fill="#feca2e"/>
            <rect id="Rectángulo_89912" data-name="Rectángulo 89912" width="2.217" height="12.362" transform="translate(126.862 6.872)" fill="#feca2e"/>
            <rect id="Rectángulo_89913" data-name="Rectángulo 89913" width="2.217" height="15.147" transform="translate(131.491 4.087)" fill="#feca2e"/>
            <rect id="Rectángulo_89914" data-name="Rectángulo 89914" width="2.217" height="12.425" transform="translate(136.12 6.809)" fill="#feca2e"/>
            <path id="Trazado_247690" data-name="Trazado 247690" d="M554.589,18.545l18.333-2.8A18.545,18.545,0,1,1,556.625.112Z" transform="translate(-357.842 0)" fill="#fedd77"/>
            <path id="Trazado_247691" data-name="Trazado 247691" d="M605.25.513l-2.226,14.211,13.949-2.62S614.922,4.14,605.25.513" transform="translate(-402.555 -0.342)" fill="#feca2e"/>
            <path id="Trazado_247692" data-name="Trazado 247692" d="M28.745,140.852a9.09,9.09,0,1,1,9.235,8.984,9.123,9.123,0,0,1-9.235-8.984m13.435-.217a4.346,4.346,0,1,0-4.276,4.436,4.361,4.361,0,0,0,4.276-4.436" transform="translate(-19.188 -87.833)" fill="#ffeebc"/>
            <path id="Trazado_247693" data-name="Trazado 247693" d="M28.745,140.854a9.123,9.123,0,0,1,8.943-9.277l.076,4.765a4.366,4.366,0,0,0,.14,8.732l.076,4.765a9.119,9.119,0,0,1-9.235-8.984" transform="translate(-19.188 -87.836)" fill="#feca2e"/>
            <path id="Trazado_247694" data-name="Trazado 247694" d="M53.193,129.369a10.386,10.386,0,0,1,10.634,10.346l-5.549.089c-.045-2.816-2.188-4.589-4.992-4.544Z" transform="translate(-35.51 -86.361)" fill="#fedd77"/>
            <rect id="Rectángulo_89915" data-name="Rectángulo 89915" width="11.554" height="13.736" transform="translate(57.057 85.08)" fill="#ffeebc"/>
            <rect id="Rectángulo_89916" data-name="Rectángulo 89916" width="52.215" height="15.495" transform="translate(5.24 84.184)" fill="#feca2e"/>
            <path id="Trazado_247695" data-name="Trazado 247695" d="M181.524,254.534H168.618v-1.3h12.906a.652.652,0,1,1,0,1.3" transform="translate(-112.563 -169.047)" fill="#feca2e"/>
            <path id="Trazado_247696" data-name="Trazado 247696" d="M181.524,297.224H168.618v-1.3h12.906a.652.652,0,1,1,0,1.3" transform="translate(-112.563 -197.545)" fill="#feca2e"/>
            <rect id="Rectángulo_89917" data-name="Rectángulo 89917" width="6.169" height="15.495" transform="translate(47.181 84.184)" fill="#fedd77"/>
            <rect id="Rectángulo_89918" data-name="Rectángulo 89918" width="6.169" height="15.495" transform="translate(10.206 84.356)" fill="#fedd77"/>
            <path id="Trazado_247697" data-name="Trazado 247697" d="M183.958,262.621c0,.038-2.5.068-5.585.068s-5.585-.031-5.585-.068,2.5-.068,5.585-.068,5.585.031,5.585.068" transform="translate(-115.346 -175.27)" fill="#feca2e"/>
            <path id="Trazado_247698" data-name="Trazado 247698" d="M183.958,268.817c0,.038-2.5.068-5.585.068s-5.585-.031-5.585-.068,2.5-.068,5.585-.068,5.585.031,5.585.068" transform="translate(-115.346 -179.406)" fill="#feca2e"/>
            <path id="Trazado_247699" data-name="Trazado 247699" d="M183.958,276.446c0,.038-2.5.069-5.585.069s-5.585-.031-5.585-.069,2.5-.069,5.585-.069,5.585.031,5.585.069" transform="translate(-115.346 -184.498)" fill="#feca2e"/>
            <path id="Trazado_247700" data-name="Trazado 247700" d="M183.958,284.075c0,.038-2.5.068-5.585.068s-5.585-.031-5.585-.068,2.5-.068,5.585-.068,5.585.031,5.585.068" transform="translate(-115.346 -189.592)" fill="#feca2e"/>
            <path id="Trazado_247701" data-name="Trazado 247701" d="M183.958,291.7c0,.038-2.5.068-5.585.068s-5.585-.031-5.585-.068,2.5-.069,5.585-.069,5.585.031,5.585.069" transform="translate(-115.346 -194.685)" fill="#feca2e"/>
            <rect id="Rectángulo_89919" data-name="Rectángulo 89919" width="23.491" height="2.79" transform="translate(20.374 90.552)" fill="#fedd77"/>
            <rect id="Rectángulo_89920" data-name="Rectángulo 89920" width="11.731" height="8.37" transform="translate(56.762 99.983)" fill="#fff7de"/>
            <rect id="Rectángulo_89921" data-name="Rectángulo 89921" width="49.924" height="8.977" transform="translate(6.969 99.679)" fill="#ffeebc"/>
            <path id="Trazado_247702" data-name="Trazado 247702" d="M170.048,300.448h12.609a.3.3,0,0,0,0-.607H170.048Z" transform="translate(-113.517 -200.162)" fill="#ffeebc"/>
            <path id="Trazado_247703" data-name="Trazado 247703" d="M170.048,325.624h12.773a.139.139,0,0,0,.139-.139v-.329a.139.139,0,0,0-.139-.139H170.048Z" transform="translate(-113.517 -216.968)" fill="#ffeebc"/>
            <path id="Trazado_247704" data-name="Trazado 247704" d="M182.74,305.4c0,.038-2.6.069-5.8.069s-5.8-.031-5.8-.069,2.6-.068,5.8-.068,5.8.031,5.8.068" transform="translate(-114.246 -203.827)" fill="#feca2e"/>
            <path id="Trazado_247705" data-name="Trazado 247705" d="M182.74,310.162c0,.038-2.6.069-5.8.069s-5.8-.031-5.8-.069,2.6-.068,5.8-.068,5.8.031,5.8.068" transform="translate(-114.246 -207.006)" fill="#feca2e"/>
            <path id="Trazado_247706" data-name="Trazado 247706" d="M182.74,314.925c0,.038-2.6.068-5.8.068s-5.8-.031-5.8-.068,2.6-.068,5.8-.068,5.8.031,5.8.068" transform="translate(-114.246 -210.186)" fill="#feca2e"/>
            <path id="Trazado_247707" data-name="Trazado 247707" d="M182.74,319.688c0,.038-2.6.068-5.8.068s-5.8-.031-5.8-.068,2.6-.068,5.8-.068,5.8.031,5.8.068" transform="translate(-114.246 -213.366)" fill="#feca2e"/>
            <rect id="Rectángulo_89922" data-name="Rectángulo 89922" width="11.974" height="22.688" transform="translate(58.299 109.454)" fill="#fedd77"/>
            <rect id="Rectángulo_89923" data-name="Rectángulo 89923" width="56.206" height="24.6" transform="translate(2.094 108.656)" fill="#feca2e"/>
            <path id="Trazado_247708" data-name="Trazado 247708" d="M185.193,397.638H170.745v-1.6h14.448a.8.8,0,1,1,0,1.6" transform="translate(-113.983 -264.383)" fill="#feca2e"/>
            <path id="Trazado_247709" data-name="Trazado 247709" d="M185.625,328.439H170.746v-1.6h14.879a.366.366,0,0,1,.366.366v.863a.366.366,0,0,1-.366.366" transform="translate(-113.983 -218.188)" fill="#feca2e"/>
            <path id="Trazado_247710" data-name="Trazado 247710" d="M187.342,338.254c0,.038-2.681.068-5.987.068s-5.987-.031-5.987-.068,2.68-.068,5.987-.068,5.987.031,5.987.068" transform="translate(-117.069 -225.76)" fill="#feca2e"/>
            <path id="Trazado_247711" data-name="Trazado 247711" d="M187.342,347.007c0,.038-2.681.069-5.987.069s-5.987-.031-5.987-.069,2.68-.068,5.987-.068,5.987.031,5.987.068" transform="translate(-117.069 -231.603)" fill="#feca2e"/>
            <path id="Trazado_247712" data-name="Trazado 247712" d="M187.342,355.76c0,.038-2.681.069-5.987.069s-5.987-.031-5.987-.069,2.68-.068,5.987-.068,5.987.031,5.987.068" transform="translate(-117.069 -237.446)" fill="#feca2e"/>
            <path id="Trazado_247713" data-name="Trazado 247713" d="M187.342,364.513c0,.038-2.681.069-5.987.069s-5.987-.031-5.987-.069,2.68-.068,5.987-.068,5.987.031,5.987.068" transform="translate(-117.069 -243.289)" fill="#feca2e"/>
            <path id="Trazado_247714" data-name="Trazado 247714" d="M187.342,373.266c0,.038-2.681.068-5.987.068s-5.987-.031-5.987-.068,2.68-.068,5.987-.068,5.987.031,5.987.068" transform="translate(-117.069 -249.132)" fill="#feca2e"/>
            <path id="Trazado_247715" data-name="Trazado 247715" d="M187.342,382.02c0,.038-2.681.069-5.987.069s-5.987-.031-5.987-.069,2.68-.068,5.987-.068,5.987.031,5.987.068" transform="translate(-117.069 -254.976)" fill="#feca2e"/>
            <path id="Trazado_247716" data-name="Trazado 247716" d="M187.342,390.773c0,.038-2.681.069-5.987.069s-5.987-.031-5.987-.069,2.68-.068,5.987-.068,5.987.031,5.987.068" transform="translate(-117.069 -260.819)" fill="#feca2e"/>
            <path id="Trazado_247717" data-name="Trazado 247717" d="M54.457,354.681v1.369c0,1.649-.824,2.59-2.414,2.59s-2.414-.942-2.414-2.59v-5.357c0-1.648.824-2.59,2.414-2.59s2.414.942,2.414,2.59v1H52.927v-1.1c0-.736-.324-1.015-.839-1.015s-.839.28-.839,1.015v5.563c0,.736.323,1,.839,1s.839-.265.839-1v-1.472Z" transform="translate(-33.131 -232.379)" fill="#fedd77"/>
            <path id="Trazado_247718" data-name="Trazado 247718" d="M66.715,350.692a2.461,2.461,0,1,1,4.916,0v5.357a2.461,2.461,0,1,1-4.916,0Zm1.619,5.46c0,.736.324,1.016.839,1.016s.839-.28.839-1.016v-5.563c0-.736-.324-1.016-.839-1.016s-.839.28-.839,1.016Z" transform="translate(-44.536 -232.379)" fill="#fedd77"/>
            <path id="Trazado_247719" data-name="Trazado 247719" d="M84.642,348.457h1.619v8.831h2.664v1.472H84.642Z" transform="translate(-56.504 -232.616)" fill="#fedd77"/>
            <path id="Trazado_247720" data-name="Trazado 247720" d="M99.248,350.692a2.461,2.461,0,1,1,4.916,0v5.357a2.461,2.461,0,1,1-4.916,0Zm1.619,5.46c0,.736.324,1.016.839,1.016s.839-.28.839-1.016v-5.563c0-.736-.324-1.016-.839-1.016s-.839.28-.839,1.016Z" transform="translate(-66.254 -232.379)" fill="#fedd77"/>
            <path id="Trazado_247721" data-name="Trazado 247721" d="M118.573,348.457V356.4c0,.736.324,1,.839,1s.839-.265.839-1v-7.948h1.531V356.3c0,1.649-.824,2.59-2.414,2.59s-2.414-.942-2.414-2.59v-7.845Z" transform="translate(-78.074 -232.616)" fill="#fedd77"/>
            <path id="Trazado_247722" data-name="Trazado 247722" d="M138.177,358.76a3.167,3.167,0,0,1-.147-1.266v-1.619c0-.957-.324-1.31-1.06-1.31h-.559v4.195h-1.619v-10.3h2.443c1.678,0,2.4.78,2.4,2.37v.809a2.054,2.054,0,0,1-1.06,2.09c.809.339,1.074,1.119,1.074,2.193v1.589a3.035,3.035,0,0,0,.177,1.251Zm-1.766-8.831v3.164h.633c.6,0,.971-.265.971-1.089v-1.015c0-.736-.25-1.06-.824-1.06Z" transform="translate(-89.982 -232.616)" fill="#fedd77"/>
            <path id="Trazado_247723" data-name="Trazado 247723" d="M60.727,309.862H59.546l.062-.306h2.71l-.067.306H61.076l-.607,3.039H60.12Z" transform="translate(-39.751 -206.647)" fill="#feca2e"/>
            <path id="Trazado_247724" data-name="Trazado 247724" d="M68.017,312.057,66.181,314.9c-.311.478-.545.626-.908.626a.815.815,0,0,1-.6-.224l.182-.248a.587.587,0,0,0,.444.181c.215,0,.382-.1.578-.406l.177-.267-.626-2.5h.344L66.3,314.2l1.372-2.141Z" transform="translate(-43.175 -208.317)" fill="#feca2e"/>
            <path id="Trazado_247725" data-name="Trazado 247725" d="M77.094,313.062a1.416,1.416,0,0,1-1.424,1.5.941.941,0,0,1-.956-.55l-.287,1.453h-.34l.684-3.441H75.1l-.081.4a1.273,1.273,0,0,1,.98-.42,1.016,1.016,0,0,1,1.1,1.061m-.344.019a.736.736,0,0,0-.827-.784,1.1,1.1,0,0,0-1.085,1.18.733.733,0,0,0,.827.78,1.1,1.1,0,0,0,1.085-1.175" transform="translate(-49.458 -208.279)" fill="#feca2e"/>
            <path id="Trazado_247726" data-name="Trazado 247726" d="M84.32,313.492A1.426,1.426,0,0,1,85.773,312a1.029,1.029,0,0,1,1.142,1.061,1.428,1.428,0,0,1-1.453,1.5,1.035,1.035,0,0,1-1.142-1.065m2.256-.411a.736.736,0,0,0-.827-.784,1.1,1.1,0,0,0-1.09,1.18.733.733,0,0,0,.827.78,1.1,1.1,0,0,0,1.09-1.175" transform="translate(-56.289 -208.279)" fill="#feca2e"/>
            <path id="Trazado_247727" data-name="Trazado 247727" d="M95.847,312.019l-.44,2.208a1.339,1.339,0,0,1-1.462,1.257,1.6,1.6,0,0,1-1.118-.378l.2-.258a1.314,1.314,0,0,0,.941.335.984.984,0,0,0,1.089-.9l.058-.278a1.3,1.3,0,0,1-1,.431A1,1,0,0,1,93,313.424,1.388,1.388,0,0,1,94.437,312a.963.963,0,0,1,.98.573l.105-.555Zm-.573,1.009c0-.459-.311-.731-.832-.731a1.066,1.066,0,0,0-1.094,1.108c0,.459.306.731.831.731a1.069,1.069,0,0,0,1.095-1.109" transform="translate(-61.967 -208.279)" fill="#feca2e"/>
            <path id="Trazado_247728" data-name="Trazado 247728" d="M105.027,312l-.062.329c-.034,0-.058,0-.1,0a1,1,0,0,0-1.018.932l-.253,1.276h-.339l.5-2.514h.325l-.086.459a1.137,1.137,0,0,1,1.033-.477" transform="translate(-68.932 -208.279)" fill="#feca2e"/>
            <path id="Trazado_247729" data-name="Trazado 247729" d="M111.582,312.02l-.5,2.514h-.325l.081-.4a1.287,1.287,0,0,1-.98.421,1.014,1.014,0,0,1-1.094-1.065,1.414,1.414,0,0,1,1.42-1.491.944.944,0,0,1,.956.545l.105-.526Zm-.564,1.061a.736.736,0,0,0-.827-.784,1.1,1.1,0,0,0-1.09,1.18.733.733,0,0,0,.827.78,1.1,1.1,0,0,0,1.09-1.175" transform="translate(-72.605 -208.279)" fill="#feca2e"/>
            <path id="Trazado_247730" data-name="Trazado 247730" d="M121.021,313.062a1.416,1.416,0,0,1-1.424,1.5.941.941,0,0,1-.956-.55l-.287,1.453h-.339l.683-3.441h.325l-.081.4a1.273,1.273,0,0,1,.98-.42,1.016,1.016,0,0,1,1.1,1.061m-.344.019a.736.736,0,0,0-.827-.784,1.1,1.1,0,0,0-1.085,1.18.733.733,0,0,0,.827.78,1.1,1.1,0,0,0,1.085-1.175" transform="translate(-78.782 -208.279)" fill="#feca2e"/>
            <path id="Trazado_247731" data-name="Trazado 247731" d="M130.943,310.783a1.521,1.521,0,0,1-.029.287l-.287,1.429h-.339l.287-1.434a1.369,1.369,0,0,0,.024-.229c0-.358-.215-.564-.65-.564a.98.98,0,0,0-1.023.879l-.267,1.348h-.339l.707-3.546h.339l-.282,1.41a1.226,1.226,0,0,1,.961-.4.788.788,0,0,1,.9.817" transform="translate(-85.661 -206.244)" fill="#feca2e"/>
            <path id="Trazado_247732" data-name="Trazado 247732" d="M139.059,312.057l-1.835,2.839c-.311.478-.545.626-.908.626a.815.815,0,0,1-.6-.224l.182-.248a.587.587,0,0,0,.444.181c.215,0,.382-.1.578-.406l.177-.267-.626-2.5h.344l.521,2.141,1.372-2.141Z" transform="translate(-90.6 -208.317)" fill="#feca2e"/>
            <path id="Trazado_247733" data-name="Trazado 247733" d="M66.151,1.277H15.159l8.306,5.994V19.064a2.463,2.463,0,0,0,2.463,2.462H66.151a2.463,2.463,0,0,0,2.463-2.462V3.739a2.463,2.463,0,0,0-2.463-2.462" transform="translate(-10.12 -0.852)" fill="#ffeebc"/>
            <path id="Trazado_247734" data-name="Trazado 247734" d="M93.167,26.168c0,.049-7.691.089-17.175.089s-17.177-.04-17.177-.089,7.689-.089,17.177-.089,17.175.04,17.175.089" transform="translate(-39.262 -17.409)" fill="#feca2e"/>
            <path id="Trazado_247735" data-name="Trazado 247735" d="M93.167,39.788c0,.049-7.691.089-17.175.089s-17.177-.04-17.177-.089S66.5,39.7,75.991,39.7s17.175.04,17.175.089" transform="translate(-39.262 -26.501)" fill="#feca2e"/>
          </g>
        </g>
        <g id="Grupo_157208" data-name="Grupo 157208">
          <g id="Grupo_157207" data-name="Grupo 157207" clip-path="url(#clip-path)">
            <path id="Trazado_247736" data-name="Trazado 247736" d="M232.885,400.668c0,.048-52.138.086-116.437.086C52.126,400.755,0,400.716,0,400.668s52.126-.086,116.448-.086c64.3,0,116.437.039,116.437.086" transform="translate(0 -267.413)" fill="#12263f"/>
          </g>
        </g>
        <g id="Grupo_157213" data-name="Grupo 157213">
          <g id="Grupo_157212" data-name="Grupo 157212" clip-path="url(#clip-path)">
            <path id="Trazado_247737" data-name="Trazado 247737" d="M606.085,290.959s-8.812-10.142-12.137-20.284S592.2,261.7,592.2,261.7s4.489,9.852,7.9,14.611,9.477,11.742,9.477,11.742Z" transform="translate(-395.08 -174.671)" fill="#a7e446"/>
            <path id="Trazado_247738" data-name="Trazado 247738" d="M638.066,266a.513.513,0,0,0-.956.326,133.117,133.117,0,0,1,1.653,17.345c-.059,7.044,0,9.767,0,9.767h3.668s-.651-14.561-1.48-19A30.486,30.486,0,0,0,638.066,266" transform="translate(-425.305 -177.396)" fill="#a7e446"/>
            <path id="Trazado_247739" data-name="Trazado 247739" d="M646.013,289.734a38.846,38.846,0,0,0,3.019-10.951c.3-2.593-.237-6.1-1.038-10.773a28.98,28.98,0,0,1-.464-5.184.875.875,0,0,1,1.643-.41,23.273,23.273,0,0,1,2.049,5.18c.888,4.617,1.894,6.925,1.125,11.306a67.879,67.879,0,0,1-3.611,11.128Z" transform="translate(-431.253 -174.874)" fill="#a7e446"/>
            <path id="Trazado_247740" data-name="Trazado 247740" d="M655.951,278.756s9.675-20.793,10.346-23.877,2.951-10.193,3.219-9.791.671,4.157-1.073,8.449-9.188,25.852-9.188,25.852h-3.3" transform="translate(-437.887 -163.6)" fill="#a7e446"/>
            <path id="Trazado_247741" data-name="Trazado 247741" d="M609.018,289.447a1.966,1.966,0,0,1-.271-.186c-.172-.13-.432-.313-.749-.572a34.233,34.233,0,0,1-2.6-2.3,43.641,43.641,0,0,1-7.019-9.009A59.011,59.011,0,0,1,593.587,267c-.487-1.381-.842-2.511-1.072-3.3-.118-.392-.2-.7-.257-.907a1.957,1.957,0,0,1-.075-.32,2.006,2.006,0,0,1,.115.309l.294.895c.254.777.629,1.9,1.133,3.271a62.735,62.735,0,0,0,4.832,10.323,45.547,45.547,0,0,0,6.944,9.011c1.036,1.029,1.922,1.813,2.549,2.337.309.268.561.461.724.6a1.96,1.96,0,0,1,.246.219" transform="translate(-395.317 -175.222)" fill="#12263f"/>
            <path id="Trazado_247742" data-name="Trazado 247742" d="M641.024,282.6a3.51,3.51,0,0,1-.087-.61c-.046-.43-.106-.991-.178-1.667-.153-1.407-.392-3.347-.734-5.478s-.725-4.049-1.02-5.433l-.353-1.639a3.551,3.551,0,0,1-.109-.606,3.475,3.475,0,0,1,.187.587c.108.381.252.936.418,1.625.332,1.378.737,3.3,1.081,5.432s.56,4.084.675,5.5c.059.706.1,1.279.113,1.674a3.485,3.485,0,0,1,.007.616" transform="translate(-426.264 -178.353)" fill="#12263f"/>
            <path id="Trazado_247743" data-name="Trazado 247743" d="M650.844,262.841a1.491,1.491,0,0,1,.114.264l.29.772c.128.335.275.748.415,1.238s.33,1.039.47,1.665l.24.978c.081.34.139.7.213,1.07.158.738.256,1.539.373,2.379a35.522,35.522,0,0,1-.394,10.991c-.177.83-.332,1.621-.542,2.346-.1.364-.184.719-.289,1.052l-.309.958c-.185.614-.41,1.15-.588,1.627s-.351.88-.5,1.205l-.345.75a1.522,1.522,0,0,1-.133.255,1.49,1.49,0,0,1,.095-.273l.309-.764c.14-.329.3-.734.469-1.214s.383-1.016.558-1.631l.295-.958c.1-.333.18-.688.276-1.051.2-.723.35-1.513.521-2.339a36.7,36.7,0,0,0,.392-10.934c-.112-.836-.2-1.634-.352-2.37-.07-.369-.123-.728-.2-1.068l-.226-.976c-.13-.626-.306-1.177-.439-1.667s-.265-.907-.381-1.245l-.253-.784a1.5,1.5,0,0,1-.075-.279" transform="translate(-433.818 -175.462)" fill="#12263f"/>
            <path id="Trazado_247744" data-name="Trazado 247744" d="M672.581,246.378a.321.321,0,0,1-.008.093l-.043.27c-.043.237-.1.588-.191,1.035-.187.895-.5,2.182-.982,3.743s-1.143,3.394-1.927,5.405-1.687,4.206-2.547,6.541-1.544,4.606-2.175,6.67-1.219,3.92-1.793,5.451a34.753,34.753,0,0,1-1.528,3.555c-.2.412-.376.719-.491.931l-.135.238a.328.328,0,0,1-.052.078.31.31,0,0,1,.034-.088l.117-.247c.1-.217.269-.53.455-.946.39-.824.914-2.036,1.463-3.571s1.132-3.387,1.748-5.456,1.289-4.349,2.164-6.686,1.774-4.531,2.563-6.539,1.466-3.828,1.965-5.38.832-2.829,1.043-3.717c.106-.443.173-.792.228-1.025l.063-.266a.32.32,0,0,1,.029-.089" transform="translate(-441.063 -164.472)" fill="#12263f"/>
            <path id="Trazado_247745" data-name="Trazado 247745" d="M603.843,232.079a.833.833,0,0,0-1.371.849,23.818,23.818,0,0,0,1.216,3.126c1.33,2.827,5.237,12.969,7.066,18.539s4.406,15.962,4.406,15.962l3.906-.634S615.492,252.848,612,246.7c-2.806-4.943-5.611-12.086-8.158-14.617" transform="translate(-402.16 -154.766)" fill="#a7e446"/>
            <path id="Trazado_247746" data-name="Trazado 247746" d="M630.674,310.767a2.409,2.409,0,0,1,.2.468c.116.306.273.753.45,1.311.36,1.114.8,2.671,1.243,4.4s.811,3.3,1.068,4.443l.294,1.353a2.36,2.36,0,0,1,.081.5,2.461,2.461,0,0,1-.159-.484l-.358-1.338L632.369,317c-.443-1.727-.86-3.286-1.183-4.408l-.387-1.328a2.415,2.415,0,0,1-.125-.494" transform="translate(-421.012 -207.456)" fill="#12263f"/>
            <path id="Trazado_247747" data-name="Trazado 247747" d="M618.027,270.59a.4.4,0,0,1-.022-.1c-.012-.081-.027-.183-.045-.308-.041-.27-.077-.671-.16-1.183-.143-1.026-.4-2.5-.819-4.308a61.646,61.646,0,0,0-1.828-6.24c-.8-2.314-1.806-4.814-2.944-7.4-2.3-5.169-4.593-9.753-6.1-13.144-.762-1.691-1.353-3.072-1.741-4.033-.2-.479-.34-.856-.439-1.111l-.108-.291a.4.4,0,0,1-.03-.1.418.418,0,0,1,.05.094l.127.283.475,1.1c.411.952,1.021,2.322,1.8,4,1.541,3.372,3.856,7.944,6.157,13.121,1.14,2.591,2.142,5.1,2.935,7.423a58.6,58.6,0,0,1,1.791,6.269,43.617,43.617,0,0,1,.756,4.33c.07.514.094.917.122,1.189.01.126.018.228.024.31a.411.411,0,0,1,0,.106" transform="translate(-403.065 -155.118)" fill="#12263f"/>
            <path id="Trazado_247748" data-name="Trazado 247748" d="M643.876,313.442a4.1,4.1,0,0,1-.132-.656l-.3-1.8c-.269-1.513-.68-3.6-1.271-5.866s-1.244-4.291-1.751-5.741l-.611-1.715a4.2,4.2,0,0,1-.208-.636,4.1,4.1,0,0,1,.283.607c.168.4.4.974.673,1.7a56.725,56.725,0,0,1,1.813,5.739,59.765,59.765,0,0,1,1.215,5.894c.111.762.2,1.38.24,1.808a4.162,4.162,0,0,1,.052.668" transform="translate(-426.971 -198.287)" fill="#12263f"/>
            <rect id="Rectángulo_89926" data-name="Rectángulo 89926" width="15.245" height="18.574" transform="translate(209.677 114.595)" fill="#fc4b52"/>
            <g id="Grupo_157211" data-name="Grupo 157211" transform="translate(209.677 114.595)" opacity="0.3">
              <g id="Grupo_157210" data-name="Grupo 157210">
                <g id="Grupo_157209" data-name="Grupo 157209" clip-path="url(#clip-path-5)">
                  <rect id="Rectángulo_89927" data-name="Rectángulo 89927" width="15.245" height="18.574" transform="translate(0 0)"/>
                </g>
              </g>
            </g>
            <rect id="Rectángulo_89929" data-name="Rectángulo 89929" width="13.525" height="18.574" transform="translate(206.533 114.595)" fill="#fc4b52"/>
            <path id="Trazado_247749" data-name="Trazado 247749" d="M41.211,322.772a8.038,8.038,0,0,0-8.723.072,8.977,8.977,0,0,0-3.512,7.655c.106,2.926,1.524,6.5,4.174,8.037l7.78-.031a10.454,10.454,0,0,0,4.281-7.851,9.082,9.082,0,0,0-4-7.883" transform="translate(-19.339 -214.635)" fill="#a7e446"/>
            <path id="Trazado_247750" data-name="Trazado 247750" d="M52.746,339.385a3.506,3.506,0,0,1-.049-.67c-.014-.478-.031-1.091-.052-1.825-.039-1.54-.1-3.668-.2-6.016s-.23-4.474-.326-6.012l-.109-1.822a3.467,3.467,0,0,1-.01-.671,3.493,3.493,0,0,1,.106.663c.053.428.117,1.049.187,1.817.141,1.536.3,3.662.4,6.014s.136,4.483.13,6.025c0,.771-.012,1.4-.027,1.827a3.457,3.457,0,0,1-.048.67" transform="translate(-34.705 -215.201)" fill="#12263f"/>
            <path id="Trazado_247751" data-name="Trazado 247751" d="M27.6,346.088c-.006.068-.428.089-.944.047s-.929-.132-.924-.2.428-.089.944-.047.93.132.924.2" transform="translate(-17.176 -230.886)" fill="#12263f"/>
            <path id="Trazado_247752" data-name="Trazado 247752" d="M28.712,337.241c-.028.063-.393-.038-.814-.225s-.741-.39-.713-.452.392.038.814.225.742.39.714.452" transform="translate(-18.146 -224.664)" fill="#12263f"/>
            <path id="Trazado_247753" data-name="Trazado 247753" d="M32.792,330.248c-.036.057-.445-.136-.871-.49s-.694-.719-.644-.765.389.232.8.573.751.622.713.681" transform="translate(-20.875 -219.619)" fill="#12263f"/>
            <path id="Trazado_247754" data-name="Trazado 247754" d="M38.588,324.289c-.063.028-.259-.279-.439-.685s-.274-.759-.211-.786.259.279.439.686.274.758.211.786" transform="translate(-25.313 -215.499)" fill="#12263f"/>
            <path id="Trazado_247755" data-name="Trazado 247755" d="M45.262,320.1c-.061.029-.273-.3-.413-.751s-.153-.842-.086-.853.187.343.323.779.239.8.176.825" transform="translate(-29.856 -212.616)" fill="#12263f"/>
            <path id="Trazado_247756" data-name="Trazado 247756" d="M56.154,318.9c.065.023.025.3-.088.623s-.258.563-.323.541-.025-.3.088-.623.258-.563.322-.541" transform="translate(-37.191 -212.882)" fill="#12263f"/>
            <path id="Trazado_247757" data-name="Trazado 247757" d="M63.1,322.287c.047.051-.123.283-.378.519s-.5.387-.547.336.123-.283.378-.519.5-.387.547-.336" transform="translate(-41.503 -215.139)" fill="#12263f"/>
            <path id="Trazado_247758" data-name="Trazado 247758" d="M69.822,326.787c.038.057-.168.264-.461.462s-.562.313-.6.257.168-.264.461-.462.561-.314.6-.257" transform="translate(-45.899 -218.14)" fill="#12263f"/>
            <path id="Trazado_247759" data-name="Trazado 247759" d="M73.805,333.5c.027.063-.3.262-.726.445s-.8.28-.824.216.3-.262.726-.445.8-.28.824-.216" transform="translate(-48.233 -222.621)" fill="#12263f"/>
            <path id="Trazado_247760" data-name="Trazado 247760" d="M75.845,340.755c.008.068-.322.165-.739.217s-.761.038-.77-.03.322-.165.739-.217.761-.038.769.03" transform="translate(-49.624 -227.434)" fill="#12263f"/>
            <path id="Trazado_247761" data-name="Trazado 247761" d="M76.924,348.579c-.027.063-.38-.03-.787-.207s-.716-.372-.688-.435.38.03.788.207.715.372.688.434" transform="translate(-50.365 -232.256)" fill="#12263f"/>
            <path id="Trazado_247762" data-name="Trazado 247762" d="M75.716,355.508c-.022.063-.467-.044-.933-.349s-.743-.67-.694-.714.389.22.83.507.822.491.8.557" transform="translate(-49.455 -236.609)" fill="#12263f"/>
            <path id="Trazado_247763" data-name="Trazado 247763" d="M72.525,362.1c-.041.053-.4-.155-.736-.523s-.524-.736-.467-.773.322.253.649.6.6.637.554.692" transform="translate(-47.605 -240.857)" fill="#12263f"/>
            <path id="Trazado_247764" data-name="Trazado 247764" d="M33.078,365.512c.032.061-.341.318-.832.573s-.915.414-.947.353.341-.318.832-.573.915-.414.947-.353" transform="translate(-20.893 -243.992)" fill="#12263f"/>
            <path id="Trazado_247765" data-name="Trazado 247765" d="M30.265,359.12c.028.063-.271.259-.667.439s-.742.275-.77.213.271-.259.667-.439.742-.275.77-.213" transform="translate(-19.243 -239.721)" fill="#12263f"/>
            <path id="Trazado_247766" data-name="Trazado 247766" d="M27.213,353.4c.01.068-.358.176-.821.242s-.847.064-.856,0,.358-.176.821-.242.846-.064.856,0" transform="translate(-17.046 -235.883)" fill="#12263f"/>
            <path id="Trazado_247767" data-name="Trazado 247767" d="M35.652,350.329c.02.064-.338.231-.817.285s-.865-.029-.86-.1.379-.1.832-.152.824-.1.845-.038" transform="translate(-22.681 -233.845)" fill="#12263f"/>
            <path id="Trazado_247768" data-name="Trazado 247768" d="M43.345,343.339c.02.064-.265.208-.65.246s-.693-.047-.686-.114.3-.1.662-.133.655-.065.675,0" transform="translate(-28.043 -229.173)" fill="#12263f"/>
            <path id="Trazado_247769" data-name="Trazado 247769" d="M44.756,336.872c-.023.065-.332.017-.69-.107s-.632-.277-.609-.342.331-.017.69.107.631.277.609.342" transform="translate(-29.009 -224.563)" fill="#12263f"/>
            <path id="Trazado_247770" data-name="Trazado 247770" d="M48.833,330.392c-.048.048-.26-.092-.411-.356s-.167-.517-.1-.534.181.177.317.41.247.432.2.48" transform="translate(-32.232 -219.962)" fill="#12263f"/>
            <path id="Trazado_247771" data-name="Trazado 247771" d="M44.532,355.228c.016.067-.251.189-.6.274a2.27,2.27,0,0,1-.5.074l-.049-.145c.09-.016.148-.013.159.014s-.025.071-.1.127l-.049-.145a2.258,2.258,0,0,1,.48-.166c.346-.084.64-.1.657-.033" transform="translate(-28.961 -237.108)" fill="#12263f"/>
            <path id="Trazado_247772" data-name="Trazado 247772" d="M45.037,365.175c.025.064-.316.258-.762.433s-.828.266-.853.2.316-.258.762-.433.828-.266.853-.2" transform="translate(-28.986 -243.763)" fill="#12263f"/>
            <path id="Trazado_247773" data-name="Trazado 247773" d="M38.161,360.749c.022.065-.205.2-.508.3s-.566.134-.588.069.205-.2.508-.3.566-.134.588-.069" transform="translate(-24.742 -240.799)" fill="#12263f"/>
            <path id="Trazado_247774" data-name="Trazado 247774" d="M37.692,339.46c-.016.066-.412.027-.87-.136s-.791-.381-.761-.441.4.051.844.207.8.3.787.37" transform="translate(-24.072 -226.213)" fill="#12263f"/>
            <path id="Trazado_247775" data-name="Trazado 247775" d="M57.847,338.437c.038.057-.186.271-.5.477s-.6.327-.635.27.186-.271.5-.477.6-.327.635-.27" transform="translate(-37.857 -225.917)" fill="#12263f"/>
            <path id="Trazado_247776" data-name="Trazado 247776" d="M58.968,348.3c.014.067-.22.173-.524.236s-.56.059-.574-.008.22-.173.524-.236.56-.06.574.008" transform="translate(-38.631 -232.479)" fill="#12263f"/>
            <path id="Trazado_247777" data-name="Trazado 247777" d="M59.561,358.251c-.029.062-.366-.033-.754-.212s-.678-.376-.65-.438.366.033.754.212.679.375.65.438" transform="translate(-38.822 -238.707)" fill="#12263f"/>
            <path id="Trazado_247778" data-name="Trazado 247778" d="M58.217,368.545c-.053.044-.272-.136-.49-.4s-.351-.515-.3-.558.272.136.49.4.35.514.3.558" transform="translate(-38.33 -245.382)" fill="#12263f"/>
            <path id="Trazado_247779" data-name="Trazado 247779" d="M57.589,331.106c.042.053-.1.235-.351.36s-.481.132-.5.066.163-.176.387-.289.42-.192.462-.138" transform="translate(-37.876 -221.021)" fill="#12263f"/>
            <path id="Trazado_247780" data-name="Trazado 247780" d="M65.93,341.107c.023.063-.266.222-.661.276s-.716-.019-.711-.085.309-.108.678-.161.673-.1.7-.03" transform="translate(-43.096 -227.688)" fill="#12263f"/>
            <path id="Trazado_247781" data-name="Trazado 247781" d="M63.936,332.128c.031.06-.256.265-.664.394s-.76.131-.77.064.307-.176.694-.3.709-.22.74-.158" transform="translate(-41.724 -221.702)" fill="#12263f"/>
            <path id="Trazado_247782" data-name="Trazado 247782" d="M66.526,354.314a3,3,0,0,1-2.1-.38,3.325,3.325,0,0,1,1.057.138,3.324,3.324,0,0,1,1.039.242" transform="translate(-43.011 -236.258)" fill="#12263f"/>
            <path id="Trazado_247783" data-name="Trazado 247783" d="M64.658,365.609c-.041.053-.4-.159-.763-.522s-.572-.724-.519-.765.345.24.695.59.63.642.586.7" transform="translate(-42.302 -243.204)" fill="#12263f"/>
            <path id="Trazado_247784" data-name="Trazado 247784" d="M41.466,321.519a11.232,11.232,0,0,0-2.177,1.721,10.626,10.626,0,0,0-2.712,5.995,13.46,13.46,0,0,0,.164,3.673,27.964,27.964,0,0,0,.688,2.947c.238.83.457,1.495.6,1.956a4.615,4.615,0,0,1,.209.723,4.138,4.138,0,0,1-.3-.691c-.175-.452-.42-1.11-.681-1.937a24.845,24.845,0,0,1-.745-2.959,13.175,13.175,0,0,1-.185-3.741,10.452,10.452,0,0,1,2.832-6.088,7.772,7.772,0,0,1,1.624-1.269,4.883,4.883,0,0,1,.5-.258.584.584,0,0,1,.182-.071" transform="translate(-24.211 -214.633)" fill="#12263f"/>
            <path id="Trazado_247785" data-name="Trazado 247785" d="M54.914,338.9a27.218,27.218,0,0,0,1.116-2.667,15.1,15.1,0,0,0,.667-6.859,12.907,12.907,0,0,0-1.057-3.658,8.626,8.626,0,0,0-1.8-2.512,6.559,6.559,0,0,0-1.767-1.117c-.459-.191-.735-.236-.731-.258a.6.6,0,0,1,.2.016A3.743,3.743,0,0,1,52.1,322a6.115,6.115,0,0,1,1.848,1.075,8.5,8.5,0,0,1,1.894,2.545,12.705,12.705,0,0,1,1.1,3.722,14.585,14.585,0,0,1-.747,6.951c-.14.429-.321.8-.455,1.127-.16.32-.292.6-.413.819a4.68,4.68,0,0,1-.414.663" transform="translate(-34.272 -214.839)" fill="#12263f"/>
            <path id="Trazado_247786" data-name="Trazado 247786" d="M33.155,371.417H46.845l.084,2.74H33.155Z" transform="translate(-22.133 -247.943)" fill="#fc4b52"/>
            <path id="Trazado_247787" data-name="Trazado 247787" d="M36.654,375.538l.787,8.365H47.449l.8-8.273Z" transform="translate(-24.469 -250.695)" fill="#fc4b52"/>
            <path id="Trazado_247788" data-name="Trazado 247788" d="M46.937,379.508c0,.068-3.083.124-6.885.124s-6.886-.056-6.886-.124,3.082-.124,6.886-.124,6.885.056,6.885.124" transform="translate(-22.14 -253.262)" fill="#12263f"/>
            <path id="Trazado_247789" data-name="Trazado 247789" d="M49.192,385.755a2.074,2.074,0,0,1-.293.523,7.551,7.551,0,0,1-1.062,1.254l-.063.06-.062-.065a19.723,19.723,0,0,0-2.683-2.349l.151-.007-1.189,1.044-1.406,1.224-.078.068-.078-.065-2.286-1.922.133-.014-1.183,1.443a3.369,3.369,0,0,1-.464.508,3.325,3.325,0,0,1,.382-.572l1.118-1.494.057-.076.076.062,2.32,1.881-.156,0,1.4-1.23,1.193-1.04.073-.064.078.058a17.492,17.492,0,0,1,2.67,2.424l-.125-.005a13.9,13.9,0,0,0,1.475-1.647" transform="translate(-25.786 -256.961)" fill="#12263f"/>
          </g>
        </g>
        <g id="Grupo_157215" data-name="Grupo 157215">
          <g id="Grupo_157214" data-name="Grupo 157214" clip-path="url(#clip-path)">
            <path id="Trazado_247790" data-name="Trazado 247790" d="M264.492,188.495H119.575a4.843,4.843,0,0,1-4.843-4.843V91.1a4.843,4.843,0,0,1,4.843-4.843H264.492a4.843,4.843,0,0,1,4.843,4.843v92.552a4.843,4.843,0,0,1-4.843,4.843" transform="translate(-76.591 -57.582)" fill="#a7e446"/>
            <path id="Trazado_247791" data-name="Trazado 247791" d="M261.091,382.879H105.424a5.917,5.917,0,0,1-5.917-5.917v-3.029h167.5v3.029a5.917,5.917,0,0,1-5.917,5.917" transform="translate(-66.427 -249.623)" fill="#a7e446"/>
            <path id="Trazado_247792" data-name="Trazado 247792" d="M301.414,371.049l2.078,3.306h29.248l1.93-3.306Z" transform="translate(-201.212 -247.697)" fill="#12263f"/>
            <path id="Trazado_247793" data-name="Trazado 247793" d="M268.006,370.847c0,.056-34.314.1-76.633.1s-76.641-.045-76.641-.1,34.307-.1,76.641-.1,76.633.045,76.633.1" transform="translate(-76.591 -247.496)" fill="#12263f"/>
            <path id="Trazado_247794" data-name="Trazado 247794" d="M272.1,190.035H129.137a1.088,1.088,0,0,1-1.088-1.088V105.029a1.088,1.088,0,0,1,1.088-1.088H272.1a1.088,1.088,0,0,1,1.088,1.088v83.918a1.088,1.088,0,0,1-1.088,1.088" transform="translate(-85.48 -69.387)" fill="#ebebeb"/>
            <path id="Trazado_247795" data-name="Trazado 247795" d="M272.725,203.081H127.581l.156-79.786H272.725Z" transform="translate(-85.168 -82.307)" fill="#fff"/>
            <path id="Trazado_247796" data-name="Trazado 247796" d="M159.2,111.616a1.159,1.159,0,1,1-1.159-1.159,1.159,1.159,0,0,1,1.159,1.159" transform="translate(-104.73 -73.737)" fill="#12263f"/>
            <path id="Trazado_247797" data-name="Trazado 247797" d="M138.068,111.616a1.159,1.159,0,1,1-1.159-1.159,1.159,1.159,0,0,1,1.159,1.159" transform="translate(-90.621 -73.737)" fill="#12263f"/>
            <path id="Trazado_247798" data-name="Trazado 247798" d="M148.212,111.616a1.159,1.159,0,1,1-1.159-1.159,1.159,1.159,0,0,1,1.159,1.159" transform="translate(-97.393 -73.737)" fill="#12263f"/>
            <rect id="Rectángulo_89931" data-name="Rectángulo 89931" width="145.299" height="7.705" transform="translate(42.413 113.069)" fill="#12263f"/>
            <path id="Trazado_247799" data-name="Trazado 247799" d="M141.649,351.689v.247h-1.157v-.2l.623-.592c.153-.146.18-.237.18-.325,0-.144-.1-.227-.292-.227a.443.443,0,0,0-.368.164l-.2-.157a.725.725,0,0,1,.6-.26c.341,0,.56.173.56.451a.628.628,0,0,1-.26.5l-.419.4Z" transform="translate(-93.747 -233.876)" fill="#fff"/>
            <path id="Trazado_247800" data-name="Trazado 247800" d="M144.569,351.676a.184.184,0,1,1,.368,0,.184.184,0,1,1-.368,0m0,.854a.184.184,0,1,1,.368,0,.184.184,0,1,1-.368,0" transform="translate(-96.509 -234.64)" fill="#fff"/>
            <path id="Trazado_247801" data-name="Trazado 247801" d="M146.62,350.411v1.57h-.291v-1.325H146v-.245Z" transform="translate(-97.461 -233.92)" fill="#fff"/>
            <path id="Trazado_247802" data-name="Trazado 247802" d="M150.161,351.624h-.278v.356H149.6v-.356h-.861v-.2l.774-1.011h.312l-.729.967h.514v-.316h.274v.316h.278Z" transform="translate(-99.292 -233.92)" fill="#fff"/>
            <rect id="Rectángulo_89932" data-name="Rectángulo 89932" width="119.093" height="0.543" transform="translate(53.433 117.076)" fill="#fff"/>
            <rect id="Rectángulo_89933" data-name="Rectángulo 89933" width="37.217" height="1.448" transform="translate(53.344 116.492)" fill="#fc4b52"/>
            <path id="Trazado_247803" data-name="Trazado 247803" d="M268.748,349.351a1.812,1.812,0,1,1-1.812-1.812,1.812,1.812,0,0,1,1.812,1.812" transform="translate(-176.986 -232.003)" fill="#fc4b52"/>
            <path id="Trazado_247804" data-name="Trazado 247804" d="M525.474,350.716a.523.523,0,0,1-.574.51c-.428,0-.68-.276-.68-.781a.743.743,0,0,1,.769-.834.792.792,0,0,1,.413.1l-.108.22a.532.532,0,0,0-.3-.076c-.3,0-.482.184-.482.541v0a.536.536,0,0,1,.419-.164.49.49,0,0,1,.541.482m-.283.014c0-.164-.123-.267-.314-.267a.285.285,0,0,0-.318.269c0,.148.116.265.325.265a.272.272,0,0,0,.307-.267" transform="translate(-349.948 -233.386)" fill="#fff"/>
            <path id="Trazado_247805" data-name="Trazado 247805" d="M528.417,350.945a.184.184,0,1,1,.368,0,.184.184,0,1,1-.368,0m0,.854a.184.184,0,1,1,.368,0,.184.184,0,1,1-.368,0" transform="translate(-352.75 -234.153)" fill="#fff"/>
            <path id="Trazado_247806" data-name="Trazado 247806" d="M530.088,350.419c0-.516.282-.807.655-.807s.657.292.657.807-.283.807-.657.807-.655-.292-.655-.807m1.018,0c0-.379-.148-.554-.363-.554s-.361.175-.361.554.148.553.361.553.363-.175.363-.553" transform="translate(-353.866 -233.387)" fill="#fff"/>
            <path id="Trazado_247807" data-name="Trazado 247807" d="M534.621,350.419c0-.516.283-.807.655-.807s.657.292.657.807-.283.807-.657.807-.655-.292-.655-.807m1.018,0c0-.379-.148-.554-.363-.554s-.361.175-.361.554.148.553.361.553.363-.175.363-.553" transform="translate(-356.892 -233.387)" fill="#fff"/>
            <path id="Trazado_247808" data-name="Trazado 247808" d="M545.106,348.6h-.543v-1.565h1.562v.543h-1.019Z" transform="translate(-363.529 -231.669)" fill="#fff"/>
            <path id="Trazado_247809" data-name="Trazado 247809" d="M546.123,354.755h-1.565v-1.562h.543v1.019h1.022Z" transform="translate(-363.525 -235.778)" fill="#fff"/>
            <path id="Trazado_247810" data-name="Trazado 247810" d="M553.627,354.748h-1.562v-.543h1.02v-1.023h.543Z" transform="translate(-368.536 -235.771)" fill="#fff"/>
            <path id="Trazado_247811" data-name="Trazado 247811" d="M553.626,348.6h-.543v-1.019h-1.022v-.543h1.565Z" transform="translate(-368.534 -231.669)" fill="#fff"/>
            <path id="Trazado_247812" data-name="Trazado 247812" d="M161.685,137.566H153.13l-4.277,7.409,4.277,7.409h8.555l4.277-7.409Z" transform="translate(-99.368 -91.834)" fill="#ebebeb"/>
            <path id="Trazado_247813" data-name="Trazado 247813" d="M160.959,147.715a7.637,7.637,0,0,1-1.047-1.349,2.567,2.567,0,0,1-.353-1.641c.054-.329.194-.643.216-.975.031-.458-.162-.936,0-1.366.254-.671,1.157-.774,1.7-1.238.427-.361.634-.947,1.1-1.25a2.072,2.072,0,0,1,1.419-.191,5.349,5.349,0,0,0,1.453.125,9.575,9.575,0,0,0,1.007-.269,1.375,1.375,0,0,1,1.015.069.661.661,0,0,1,.273.889,1.1,1.1,0,0,1,1.426.776,1.679,1.679,0,0,1-.628,1.638,3.674,3.674,0,0,1-1.7.692,7.093,7.093,0,0,1-5.059-.788" transform="translate(-106.499 -93.124)" fill="#12263f"/>
            <path id="Trazado_247814" data-name="Trazado 247814" d="M171.2,152.251c-.058-1.061-.355-3.234-.646-5.2a4.1,4.1,0,0,0-4.328-3.489l-.212.014c-2.274.286-3.3,2.377-2.953,4.643l.668,8.161h5.55s-.132-1.432-.133-1.446a2.641,2.641,0,0,0,2.053-2.684" transform="translate(-108.812 -95.831)" fill="#ffbe9d"/>
            <path id="Trazado_247815" data-name="Trazado 247815" d="M175.656,176.446a5.115,5.115,0,0,1-2.915-.622,2.71,2.71,0,0,0,2.958,1.19Z" transform="translate(-115.315 -117.373)" fill="#eb996e"/>
            <path id="Trazado_247816" data-name="Trazado 247816" d="M182.357,159.21a.314.314,0,0,1-.281.336.3.3,0,0,1-.342-.261.314.314,0,0,1,.281-.336.3.3,0,0,1,.342.261" transform="translate(-121.317 -106.107)" fill="#12263f"/>
            <path id="Trazado_247817" data-name="Trazado 247817" d="M182.043,156.814c-.036.044-.285-.116-.623-.093s-.573.208-.612.17c-.019-.017.015-.093.118-.179a.862.862,0,0,1,.487-.186.828.828,0,0,1,.5.125c.109.073.149.144.131.164" transform="translate(-120.697 -104.489)" fill="#12263f"/>
            <path id="Trazado_247818" data-name="Trazado 247818" d="M172.775,159.895a.314.314,0,0,1-.281.336.3.3,0,0,1-.342-.261.314.314,0,0,1,.281-.337.3.3,0,0,1,.342.261" transform="translate(-114.921 -106.563)" fill="#12263f"/>
            <path id="Trazado_247819" data-name="Trazado 247819" d="M172.085,157.67c-.036.044-.286-.116-.623-.093s-.573.208-.612.17c-.019-.017.015-.093.118-.179a.862.862,0,0,1,.487-.187.83.83,0,0,1,.5.125c.109.073.149.144.131.164" transform="translate(-114.049 -105.06)" fill="#12263f"/>
            <path id="Trazado_247820" data-name="Trazado 247820" d="M178.066,159.908a2.236,2.236,0,0,1,.541-.136c.085-.015.166-.037.176-.1a.437.437,0,0,0-.074-.251l-.3-.639a11.284,11.284,0,0,1-.686-1.677,11.347,11.347,0,0,1,.82,1.618l.288.643a.5.5,0,0,1,.067.335.216.216,0,0,1-.133.135.583.583,0,0,1-.145.03,2.209,2.209,0,0,1-.555.038" transform="translate(-118.639 -104.879)" fill="#12263f"/>
            <path id="Trazado_247821" data-name="Trazado 247821" d="M171.5,153.833c-.027.094-.367.073-.759.147s-.705.2-.763.125c-.026-.038.024-.128.147-.225a1.342,1.342,0,0,1,1.16-.207c.149.049.227.116.216.16" transform="translate(-113.466 -102.551)" fill="#12263f"/>
            <path id="Trazado_247822" data-name="Trazado 247822" d="M181.65,153.859c-.054.08-.292.017-.571.032s-.512.086-.572.009c-.027-.037.006-.116.1-.2a.828.828,0,0,1,.922-.033c.1.072.142.149.118.188" transform="translate(-120.493 -102.502)" fill="#12263f"/>
            <path id="Trazado_247823" data-name="Trazado 247823" d="M161.256,162.361c-.039-.014-1.538-.345-1.389,1.152s1.771,1.009,1.769.966-.38-2.118-.38-2.118" transform="translate(-106.714 -108.359)" fill="#ffbe9d"/>
            <path id="Trazado_247824" data-name="Trazado 247824" d="M161.75,165.01c-.007,0-.024.021-.066.046a.263.263,0,0,1-.194.023.648.648,0,0,1-.356-.55.862.862,0,0,1,.036-.381.3.3,0,0,1,.176-.219.134.134,0,0,1,.161.056c.024.04.018.07.026.072s.03-.028.012-.089a.169.169,0,0,0-.068-.088.2.2,0,0,0-.148-.024.369.369,0,0,0-.249.259.9.9,0,0,0-.049.426.681.681,0,0,0,.445.609.281.281,0,0,0,.234-.063c.043-.042.047-.076.042-.078" transform="translate(-107.492 -109.381)" fill="#eb996e"/>
            <path id="Trazado_247825" data-name="Trazado 247825" d="M169.96,144.236c-.1.6-1.311,1.142-2.313,1.113a4.44,4.44,0,0,1-2.051-.811c-.425-.206-.425-.206-1-.113-.466.076-.708.626-.97,1.019a5.962,5.962,0,0,1,.086,3.528.6.6,0,0,1-.151.358.478.478,0,0,1-.607-.092,1.86,1.86,0,0,1-.473-.951,6.191,6.191,0,0,1-.148-2.434,4.212,4.212,0,0,1,1.013-2.2,3.989,3.989,0,0,1,2.721-1.242,4.9,4.9,0,0,1,2.9.824,2.868,2.868,0,0,1,.992,1" transform="translate(-108.324 -95.065)" fill="#12263f"/>
            <path id="Trazado_247826" data-name="Trazado 247826" d="M177.016,167.024l-.763-.356a.26.26,0,0,0-.139-.035.223.223,0,0,0-.132.09.71.71,0,0,0-.084.78.6.6,0,0,0,.716.263.812.812,0,0,0,.423-.718Z" transform="translate(-117.368 -111.237)" fill="#eb996e"/>
            <path id="Trazado_247827" data-name="Trazado 247827" d="M176.393,167.57c.012.015-.159.123-.447.04a.7.7,0,0,1-.4-.321.728.728,0,0,1-.05-.626.758.758,0,0,1,.185-.277.7.7,0,0,1,.13-.1.22.22,0,0,1,.2-.012c.175.1.292.18.409.255.224.148.356.25.344.271s-.166-.044-.406-.165l-.407-.213c-.032-.009-.029-.009-.059.007a.583.583,0,0,0-.094.075.624.624,0,0,0-.141.217.592.592,0,0,0,.028.487.616.616,0,0,0,.3.284,1.621,1.621,0,0,0,.4.074" transform="translate(-117.124 -110.987)" fill="#12263f"/>
            <path id="Trazado_247828" data-name="Trazado 247828" d="M171.107,156.565c-.017,0-.015-.139-.081-.373a1.566,1.566,0,0,0-.573-.821,1.489,1.489,0,1,0,0,2.389,1.563,1.563,0,0,0,.573-.821c.066-.234.064-.374.081-.373s.01.035.012.1a1.159,1.159,0,0,1-.029.289,1.554,1.554,0,0,1-.564.9,1.617,1.617,0,0,1-1.543.252,1.638,1.638,0,0,1,0-3.087,1.62,1.62,0,0,1,1.543.252,1.557,1.557,0,0,1,.564.9,1.159,1.159,0,0,1,.029.289c0,.066-.006.1-.012.1" transform="translate(-112.079 -103.424)" fill="#12263f"/>
            <path id="Trazado_247829" data-name="Trazado 247829" d="M182.5,156.2c-.017,0-.015-.136-.081-.364a1.519,1.519,0,0,0-.558-.8,1.449,1.449,0,1,0,0,2.324,1.52,1.52,0,0,0,.558-.8c.065-.228.064-.364.081-.364s.01.034.012.1a1.143,1.143,0,0,1-.028.282,1.517,1.517,0,0,1-.55.879,1.58,1.58,0,0,1-1.505.246,1.6,1.6,0,0,1,0-3.012,1.58,1.58,0,0,1,1.505.246,1.518,1.518,0,0,1,.55.879,1.144,1.144,0,0,1,.028.282c0,.064-.007.1-.012.1" transform="translate(-119.737 -103.209)" fill="#12263f"/>
            <path id="Trazado_247830" data-name="Trazado 247830" d="M178.08,157.911c-.034.032-.182-.064-.382-.058s-.344.1-.379.071.094-.24.376-.245.429.2.385.231" transform="translate(-118.365 -105.261)" fill="#12263f"/>
            <path id="Trazado_247831" data-name="Trazado 247831" d="M165.622,159.175c.029.038-.262.3-.649.592a2.279,2.279,0,0,1-.752.453c-.029-.038.262-.3.649-.592a2.278,2.278,0,0,1,.752-.453" transform="translate(-109.626 -106.256)" fill="#12263f"/>
            <path id="Trazado_247832" data-name="Trazado 247832" d="M226.758,159.451c0,.048-3.846.086-8.589.086s-8.59-.038-8.59-.086,3.845-.086,8.59-.086,8.589.039,8.589.086" transform="translate(-139.907 -106.386)" fill="#12263f"/>
            <path id="Trazado_247833" data-name="Trazado 247833" d="M219.04,164.859c0,.048-2.042.086-4.561.086s-4.561-.039-4.561-.086,2.042-.086,4.561-.086,4.561.039,4.561.086" transform="translate(-140.133 -109.996)" fill="#12263f"/>
          </g>
        </g>
        <g id="Grupo_157235" data-name="Grupo 157235">
          <g id="Grupo_157234" data-name="Grupo 157234" clip-path="url(#clip-path)">
            <path id="Trazado_247834" data-name="Trazado 247834" d="M407.9,199.581a13.1,13.1,0,0,1,6.169,7.969c1.6,5.744,6.514,20.7,6.514,20.7s2.806,3.3,3.107,5.746-.3,8.358-1.2,9.46a2.541,2.541,0,0,1-2.188.92l-11.811-1.12-4.65-31.141Z" transform="translate(-269.589 -133.232)" fill="#fc4b52"/>
            <path id="Trazado_247835" data-name="Trazado 247835" d="M277.39,189.578s-8.445,2.649-10.55,4.954l6.915,32.17-.11,10.15h40.038c0-.5.359-33.7.359-33.7l2.405-13.028-14.231-2.506-2.806-2.2-15.834.8-2.405,2.405Z" transform="translate(-178.132 -123.774)" fill="#fc4b52"/>
            <g id="Grupo_157218" data-name="Grupo 157218" transform="translate(95.542 93.073)" opacity="0.3">
              <g id="Grupo_157217" data-name="Grupo 157217">
                <g id="Grupo_157216" data-name="Grupo 157216" clip-path="url(#clip-path-8)">
                  <path id="Trazado_247836" data-name="Trazado 247836" d="M294.318,280.61c-.123-.273-.3-.568-.593-.628-.482-.1-.8.471-.969.935a42.293,42.293,0,0,1-5.26,10.269l-.1,4.939a25.383,25.383,0,0,0,6.124-6.731,9.967,9.967,0,0,0,.8-8.784" transform="translate(-287.394 -279.97)"/>
                </g>
              </g>
            </g>
            <path id="Trazado_247837" data-name="Trazado 247837" d="M234.79,212.845a49.983,49.983,0,0,0-3.938,6.269c-1.156,2.476-10.73,23.276-11.308,25.422s-2.063,8.914,2.311,10.482h9l9.03-18.26.462-21.193Z" transform="translate(-146.082 -142.087)" fill="#fc4b52"/>
            <path id="Trazado_247838" data-name="Trazado 247838" d="M234.725,297.108c-.012.014-.2-.177-.615-.413a6.9,6.9,0,0,0-1.888-.684,9.049,9.049,0,0,0-1.377-.193,5.47,5.47,0,0,0-1.578.1,5.883,5.883,0,0,0-3.029,1.9,8.211,8.211,0,0,0-1.715,3.188,15.882,15.882,0,0,0-.541,2.943c-.084.851-.116,1.544-.145,2.022-.014.224-.026.406-.035.551a.1.1,0,1,1-.035,0c0-.145,0-.328,0-.552.009-.479.022-1.174.091-2.031a15.214,15.214,0,0,1,.51-2.977,8.235,8.235,0,0,1,1.738-3.258,5.979,5.979,0,0,1,3.124-1.942,5.548,5.548,0,0,1,1.622-.09,8.823,8.823,0,0,1,1.394.217,6.5,6.5,0,0,1,1.9.745,3.229,3.229,0,0,1,.446.331.824.824,0,0,1,.134.14" transform="translate(-149.379 -197.366)" fill="#12263f"/>
            <path id="Trazado_247839" data-name="Trazado 247839" d="M243.894,288.95a1.037,1.037,0,0,1,.3-.049,5.128,5.128,0,0,1,.834-.012,6.9,6.9,0,0,1,1.227.182,7.3,7.3,0,0,1,2.73,1.3,6.873,6.873,0,0,1,.913.84,5.147,5.147,0,0,1,.516.656,1.032,1.032,0,0,1,.153.266c-.027.019-.271-.342-.758-.837a7.877,7.877,0,0,0-.92-.8,7.82,7.82,0,0,0-2.673-1.275,7.869,7.869,0,0,0-1.2-.214c-.691-.067-1.125-.029-1.127-.062" transform="translate(-162.814 -192.844)" fill="#12263f"/>
            <path id="Trazado_247840" data-name="Trazado 247840" d="M247.542,285.38a1.969,1.969,0,0,1-.416-.032c-.265-.034-.651-.073-1.127-.108a19.205,19.205,0,0,0-7.359.88c-.454.147-.819.275-1.069.371a1.927,1.927,0,0,1-.4.129,1.93,1.93,0,0,1,.371-.191c.243-.115.6-.262,1.056-.425a17.012,17.012,0,0,1,7.409-.886c.478.051.863.109,1.126.164a1.936,1.936,0,0,1,.406.1" transform="translate(-158.328 -190.275)" fill="#12263f"/>
            <path id="Trazado_247841" data-name="Trazado 247841" d="M321.748,207.546a.584.584,0,0,1-.092-.108l-.245-.329-.9-1.253-3.134-4.421.14-.02-1.583,4.647-.036.1-.091-.058-.187-.12a9.6,9.6,0,0,1-1.959-1.654,11.66,11.66,0,0,1-1.4-1.934,16.136,16.136,0,0,1-1.539-3.721,25.138,25.138,0,0,1-.583-2.651l-.126-.725c-.015-.083-.032-.144-.042-.186a.208.208,0,0,1-.021-.062,3.038,3.038,0,0,1,.255.96c.129.626.31,1.535.634,2.629a16.5,16.5,0,0,0,1.559,3.675,11.656,11.656,0,0,0,1.387,1.9,9.52,9.52,0,0,0,1.926,1.622l.183.118-.126.046,1.6-4.643.051-.148.089.129,3.082,4.457.868,1.279.225.343a.581.581,0,0,1,.07.123" transform="translate(-206.909 -130.212)" fill="#12263f"/>
            <g id="Grupo_157221" data-name="Grupo 157221" transform="translate(125.176 92.691)" opacity="0.3">
              <g id="Grupo_157220" data-name="Grupo 157220">
                <g id="Grupo_157219" data-name="Grupo 157219" clip-path="url(#clip-path-9)">
                  <path id="Trazado_247842" data-name="Trazado 247842" d="M376.623,278.822a18.884,18.884,0,0,0,10.307,18.466c.11-3.3-.049-7.19.061-10.492Z" transform="translate(-376.536 -278.822)"/>
                </g>
              </g>
            </g>
            <path id="Trazado_247843" data-name="Trazado 247843" d="M374.12,249.926s-1.454.4-.364,3.383,1.454,2.8,2.181,5.587,1.576,5.331,2.848,6.906,6,4.787,6,4.787l4.242-4a20.32,20.32,0,0,1-.532-5c.168-2.025.592-6.994.532-7.842a14.32,14.32,0,0,0-.97-2.909v-1.409l-2.181-6.711s-1.212-.546-1.636,1.394l-.727-2.058s-1.151-.184-1.454,2.179a23.76,23.76,0,0,0,.242,5.636l-.606,4.121-.909,2.788-.788.121s-1.186-.324-1.835-2.555-2.407-4.9-4.043-4.413" transform="translate(-249.234 -161.581)" fill="#ffbe9d"/>
            <path id="Trazado_247844" data-name="Trazado 247844" d="M406.745,280.488a.655.655,0,0,1-.02-.153c-.008-.115-.018-.262-.031-.444-.022-.407-.052-.969-.09-1.669-.065-1.447-.156-3.461-.262-5.811l.019.049a.851.851,0,0,0-.859-.224,1.253,1.253,0,0,0-.786.576,5.656,5.656,0,0,0-.507,2.123c-.23,1.7-.449,3.315-.649,4.789-.1.736-.207,1.437-.351,2.085a13.606,13.606,0,0,1-.526,1.768,14.9,14.9,0,0,0-.456,1.439,4.42,4.42,0,0,0-.137,1.122,3.512,3.512,0,0,0,.168.95,1.356,1.356,0,0,1-.1-.232,2.629,2.629,0,0,1-.133-.716,4.287,4.287,0,0,1,.11-1.146,13.958,13.958,0,0,1,.435-1.457,13.922,13.922,0,0,0,.5-1.758c.136-.643.237-1.34.333-2.076.2-1.474.41-3.092.635-4.791.053-.379.094-.753.16-1.126a2.955,2.955,0,0,1,.374-1.065,1.424,1.424,0,0,1,.892-.648,1.013,1.013,0,0,1,1.021.282l.018.022v.027c.081,2.352.15,4.366.2,5.814.018.7.033,1.264.043,1.671,0,.182,0,.329,0,.445a.672.672,0,0,1-.008.154" transform="translate(-268.372 -181.603)" fill="#eb996e"/>
            <path id="Trazado_247845" data-name="Trazado 247845" d="M407.5,262.862a1.716,1.716,0,0,1-.179-.379,9.666,9.666,0,0,1-.355-1.086,10.957,10.957,0,0,1-.3-1.67,4.881,4.881,0,0,1-.018-1.012,2.163,2.163,0,0,1,.366-1.039,1.484,1.484,0,0,1,.776-.582l.065-.019.033.059c.614,1.084,1.148,2.041,1.523,2.729l.435.813a.168.168,0,1,1-.053.03l-.479-.788c-.4-.673-.953-1.619-1.574-2.7l.1.04a1.323,1.323,0,0,0-.683.519,2.019,2.019,0,0,0-.339.957,4.868,4.868,0,0,0,.008.978,12.3,12.3,0,0,0,.265,1.656c.107.466.221.837.3,1.093a2.223,2.223,0,0,1,.115.4" transform="translate(-271.446 -171.613)" fill="#eb996e"/>
            <path id="Trazado_247846" data-name="Trazado 247846" d="M405.849,256.434a1.675,1.675,0,0,1-.039-.386l-.043-1.055c-.029-.891-.056-2.121-.076-3.481a29.966,29.966,0,0,1,.054-3.488,5.34,5.34,0,0,1,.227-1.038,1.3,1.3,0,0,1,.156-.357,9.806,9.806,0,0,0-.261,1.408c-.084.88-.013,2.112,0,3.472s.028,2.59.025,3.482c0,.417-.009.769-.012,1.055a1.685,1.685,0,0,1-.028.387" transform="translate(-270.81 -164.64)" fill="#eb996e"/>
            <path id="Trazado_247847" data-name="Trazado 247847" d="M395.416,295.954c-.025-.02.241-.333.569-.9a7.489,7.489,0,0,0,.493-1.035,7.4,7.4,0,0,0,.5-2.746,7.457,7.457,0,0,0-.1-1.142c-.109-.645-.249-1.031-.219-1.041a.919.919,0,0,1,.121.262,4.823,4.823,0,0,1,.218.756,6.5,6.5,0,0,1,.14,1.162,6.894,6.894,0,0,1-.507,2.807,6.516,6.516,0,0,1-.537,1.04,4.808,4.808,0,0,1-.469.632c-.123.139-.2.211-.2.2" transform="translate(-263.963 -192.986)" fill="#eb996e"/>
            <path id="Trazado_247848" data-name="Trazado 247848" d="M411.1,303.464l3.681,1.278s3.515-1.818,5.939,0,4.529,6.609,3.863,8.548c0,0-1.673,2.065-2.945,2.368s-6.22-.9-8.278-1.329-5.607-2.74-5.607-2.74Z" transform="translate(-272.196 -202.581)" fill="#ffbe9d"/>
            <path id="Trazado_247849" data-name="Trazado 247849" d="M418.774,303.1a1.208,1.208,0,0,1-.039-.326q-.022-.374-.053-.889c-.039-.751-.09-1.79-.105-2.939a29.036,29.036,0,0,1,.085-2.944c.032-.376.073-.679.111-.887a1.178,1.178,0,0,1,.076-.319c.027,0-.03.465-.066,1.215s-.051,1.786-.034,2.933c.021,1.123.04,2.139.054,2.937,0,.376,0,.681,0,.892a1.2,1.2,0,0,1-.028.327" transform="translate(-279.422 -196.796)" fill="#eb996e"/>
            <path id="Trazado_247850" data-name="Trazado 247850" d="M435.562,301.609a11.637,11.637,0,0,0-1.224-1.1,6.734,6.734,0,0,0-7.462-.411,11.613,11.613,0,0,0-1.338.962,1.837,1.837,0,0,1,.3-.328,5.976,5.976,0,0,1,.972-.739,6.617,6.617,0,0,1,7.6.419,5.972,5.972,0,0,1,.885.841,1.839,1.839,0,0,1,.266.36" transform="translate(-284.072 -199.592)" fill="#12263f"/>
            <path id="Trazado_247851" data-name="Trazado 247851" d="M432.854,294.837a7.218,7.218,0,0,0-1.532-.844,6.776,6.776,0,0,0-4.144-.125,9.653,9.653,0,0,0-2.143.892,10.175,10.175,0,0,0-1.552,1.1c-.413.352-.729.66-.946.874a2.685,2.685,0,0,1-.347.324,2.366,2.366,0,0,1,.3-.371,11.609,11.609,0,0,1,.914-.92,9.537,9.537,0,0,1,1.553-1.143,9.323,9.323,0,0,1,2.176-.921,6.648,6.648,0,0,1,4.235.177,4.863,4.863,0,0,1,1.133.639,3.093,3.093,0,0,1,.27.229c.059.055.088.086.084.09" transform="translate(-281.837 -195.89)" fill="#12263f"/>
            <path id="Trazado_247852" data-name="Trazado 247852" d="M431.478,288.46c-.009.034-.653-.163-1.722-.307a13.822,13.822,0,0,0-1.887-.12,13.7,13.7,0,0,0-4.54.8,13.857,13.857,0,0,0-1.733.757c-.955.5-1.493.906-1.513.877a2.419,2.419,0,0,1,.368-.295,5.288,5.288,0,0,1,.457-.312c.184-.113.388-.253.63-.377a12.49,12.49,0,0,1,1.737-.8,13,13,0,0,1,4.594-.809,12.508,12.508,0,0,1,1.9.158c.27.034.509.1.721.14a5.138,5.138,0,0,1,.536.138,2.436,2.436,0,0,1,.447.151" transform="translate(-280.431 -192.173)" fill="#12263f"/>
            <path id="Trazado_247853" data-name="Trazado 247853" d="M351.335,191.714a3.078,3.078,0,0,1,.255.979,9.547,9.547,0,0,1-.14,2.855,16.988,16.988,0,0,1-.476,1.99,15.1,15.1,0,0,1-.967,2.211c-.793,1.529-1.791,3.2-2.946,4.974l-.135.208v-.249c0-1.175,0-2.408-.006-3.688l.129.062-3.1,2.506.027-.039a32.688,32.688,0,0,0-1.381,7.463,86.9,86.9,0,0,0,.132,11.426c.164,3.516.271,6.681.38,9.339s.2,4.809.282,6.294l.1,1.71c.013.189.023.337.03.444s0,.152,0,.152-.01-.051-.022-.15-.027-.255-.047-.443c-.037-.39-.084-.966-.134-1.708-.1-1.485-.215-3.635-.337-6.293s-.26-5.824-.417-9.337a85.421,85.421,0,0,1-.145-11.447,32.626,32.626,0,0,1,1.395-7.5l.007-.024.02-.016,3.11-2.5.13-.1v.166c0,1.281,0,2.514-.006,3.688l-.135-.041c2.284-3.541,4.141-6.619,4.427-9.109a9.841,9.841,0,0,0,.179-2.835,4.8,4.8,0,0,0-.136-.737c-.052-.161-.074-.247-.074-.247" transform="translate(-228.49 -127.981)" fill="#12263f"/>
            <path id="Trazado_247854" data-name="Trazado 247854" d="M349.521,320.7l-.119,0a.937.937,0,1,0,.119,0" transform="translate(-232.639 -214.085)" fill="#fff"/>
            <path id="Trazado_247855" data-name="Trazado 247855" d="M349.521,282.16l-.119,0a.937.937,0,1,0,.119,0" transform="translate(-232.639 -188.356)" fill="#fff"/>
            <path id="Trazado_247856" data-name="Trazado 247856" d="M349.4,243.922a.938.938,0,0,0,.124-1.871l-.119,0a.938.938,0,0,0-.006,1.875" transform="translate(-232.639 -161.581)" fill="#fff"/>
            <path id="Trazado_247857" data-name="Trazado 247857" d="M299.318,96.244a23.3,23.3,0,0,1-3.191-4.112,7.825,7.825,0,0,1-1.075-5c.164-1,.591-1.959.659-2.974.093-1.4-.494-2.855,0-4.164.774-2.045,3.527-2.361,5.2-3.774,1.3-1.1,1.933-2.887,3.363-3.812a6.317,6.317,0,0,1,4.327-.582,16.343,16.343,0,0,0,4.43.382,29.228,29.228,0,0,0,3.071-.821,4.191,4.191,0,0,1,3.1.211,2.014,2.014,0,0,1,.831,2.708c1.709-.788,3.88.544,4.347,2.367a5.118,5.118,0,0,1-1.917,4.994,11.212,11.212,0,0,1-5.17,2.11c-5.236.987-10.914.43-15.426-2.4" transform="translate(-196.913 -47.524)" fill="#12263f"/>
            <path id="Trazado_247858" data-name="Trazado 247858" d="M324.775,122.1c-.256-1.982-.465-3.635-.478-3.841,0,0,6.623-1.488,6.258-8.185-.177-3.236-1.082-9.872-1.971-15.866A12.492,12.492,0,0,0,315.39,83.586l-.646.043c-6.934.872-10.067,7.249-9,14.156l3.741,23.161s1.6,5.124,5.012,6.011l4.31,6.157.712-2.65,3.213-2.8a12.655,12.655,0,0,0,1.584-2.358,5.16,5.16,0,0,0,.462-3.208" transform="translate(-203.965 -55.78)" fill="#ffbe9d"/>
            <path id="Trazado_247859" data-name="Trazado 247859" d="M344.131,183.848a15.594,15.594,0,0,1-8.889-1.9s2.384,4.677,9.02,3.628Z" transform="translate(-223.794 -121.464)" fill="#eb996e"/>
            <path id="Trazado_247860" data-name="Trazado 247860" d="M364.563,131.294a.957.957,0,0,1-.857,1.026.916.916,0,0,1-1.043-.8.958.958,0,0,1,.856-1.026.916.916,0,0,1,1.044.8" transform="translate(-242.097 -87.11)" fill="#12263f"/>
            <path id="Trazado_247861" data-name="Trazado 247861" d="M363.606,123.989c-.11.132-.87-.355-1.9-.283-1.028.057-1.747.636-1.867.518-.059-.052.047-.285.359-.546a2.625,2.625,0,0,1,1.484-.568,2.521,2.521,0,0,1,1.521.381c.332.221.454.439.4.5" transform="translate(-240.205 -82.179)" fill="#12263f"/>
            <path id="Trazado_247862" data-name="Trazado 247862" d="M335.344,133.383a.958.958,0,0,1-.857,1.026.916.916,0,0,1-1.043-.8.958.958,0,0,1,.856-1.026.917.917,0,0,1,1.044.8" transform="translate(-222.591 -88.505)" fill="#12263f"/>
            <path id="Trazado_247863" data-name="Trazado 247863" d="M333.241,126.6c-.11.133-.871-.355-1.9-.283s-1.747.636-1.867.518c-.058-.052.046-.285.36-.546a2.625,2.625,0,0,1,1.484-.569,2.525,2.525,0,0,1,1.521.381c.331.221.454.44.4.5" transform="translate(-219.934 -83.922)" fill="#12263f"/>
            <path id="Trazado_247864" data-name="Trazado 247864" d="M351.478,133.423a6.808,6.808,0,0,1,1.65-.413c.261-.045.506-.114.538-.3a1.336,1.336,0,0,0-.227-.766l-.91-1.948a34.442,34.442,0,0,1-2.094-5.113,34.463,34.463,0,0,1,2.5,4.933q.46,1.027.879,1.961a1.525,1.525,0,0,1,.205,1.021.66.66,0,0,1-.406.413,1.786,1.786,0,0,1-.442.092,6.7,6.7,0,0,1-1.693.116" transform="translate(-233.93 -83.369)" fill="#12263f"/>
            <path id="Trazado_247865" data-name="Trazado 247865" d="M331.458,114.9c-.083.286-1.118.222-2.315.449-1.2.2-2.151.62-2.327.38-.079-.115.073-.39.448-.687a4.1,4.1,0,0,1,3.536-.631c.455.149.692.353.658.489" transform="translate(-218.156 -76.272)" fill="#12263f"/>
            <path id="Trazado_247866" data-name="Trazado 247866" d="M362.4,114.981c-.165.246-.89.051-1.742.1-.854.016-1.562.262-1.745.029-.08-.114.017-.355.318-.6a2.527,2.527,0,0,1,2.81-.1c.317.22.432.454.36.573" transform="translate(-239.581 -76.121)" fill="#12263f"/>
            <path id="Trazado_247867" data-name="Trazado 247867" d="M300.219,140.9c-.117-.042-4.688-1.053-4.236,3.512s5.4,3.077,5.394,2.945-1.158-6.458-1.158-6.458" transform="translate(-197.565 -93.978)" fill="#ffbe9d"/>
            <path id="Trazado_247868" data-name="Trazado 247868" d="M301.728,148.978c-.022-.013-.074.063-.2.139a.8.8,0,0,1-.593.071,1.977,1.977,0,0,1-1.085-1.675,2.645,2.645,0,0,1,.11-1.161.923.923,0,0,1,.538-.67.407.407,0,0,1,.491.172c.073.122.054.215.079.221s.09-.086.035-.271a.51.51,0,0,0-.208-.268.6.6,0,0,0-.451-.073,1.123,1.123,0,0,0-.761.79,2.716,2.716,0,0,0-.15,1.3,2.074,2.074,0,0,0,1.355,1.856.856.856,0,0,0,.715-.193c.13-.127.144-.231.128-.238" transform="translate(-199.939 -97.095)" fill="#eb996e"/>
            <path id="Trazado_247869" data-name="Trazado 247869" d="M326.76,85.637c-.314,1.817-4,3.482-7.054,3.393-2.817-.082-4.208-1.48-6.255-2.473-1.3-.629-1.3-.629-3.053-.343-1.421.231-2.159,1.908-2.957,3.107,1.52,3.314.906,7.168.262,10.757a1.822,1.822,0,0,1-.462,1.091,1.456,1.456,0,0,1-1.85-.281,5.664,5.664,0,0,1-1.44-2.9,18.86,18.86,0,0,1-.452-7.423,12.84,12.84,0,0,1,3.088-6.7,12.166,12.166,0,0,1,8.3-3.787,14.939,14.939,0,0,1,8.851,2.513,8.753,8.753,0,0,1,3.026,3.048" transform="translate(-202.478 -53.444)" fill="#12263f"/>
            <path id="Trazado_247870" data-name="Trazado 247870" d="M348.275,155.121l-2.327-1.085a.783.783,0,0,0-.423-.107.677.677,0,0,0-.4.273,2.164,2.164,0,0,0-.258,2.378,1.817,1.817,0,0,0,2.183.8,2.479,2.479,0,0,0,1.29-2.189Z" transform="translate(-230.054 -102.754)" fill="#eb996e"/>
            <path id="Trazado_247871" data-name="Trazado 247871" d="M346.558,156.951c.007.02-.108.087-.34.136a2.013,2.013,0,0,1-1-.074,2.087,2.087,0,0,1-1.156-.96,2.145,2.145,0,0,1-.142-1.835,2.242,2.242,0,0,1,.54-.814,2.074,2.074,0,0,1,.377-.285.564.564,0,0,1,.539-.033,3.378,3.378,0,0,1,.362.206l.318.195.566.354a5.08,5.08,0,0,1,1.081.771,5.088,5.088,0,0,1-1.2-.56l-.588-.318-.326-.18a3.6,3.6,0,0,0-.329-.173.245.245,0,0,0-.254.024,1.826,1.826,0,0,0-.306.242,1.976,1.976,0,0,0-.452.694,1.879,1.879,0,0,0,.1,1.558,1.921,1.921,0,0,0,.961.884,2.276,2.276,0,0,0,.9.169c.222-.005.347-.027.355,0" transform="translate(-229.491 -102.159)" fill="#12263f"/>
            <path id="Trazado_247872" data-name="Trazado 247872" d="M330.617,123.541a8.235,8.235,0,0,0-.182-1.156A4.749,4.749,0,0,0,328.7,119.8a4.691,4.691,0,0,0-4.444-.662,4.7,4.7,0,0,0-2.174,1.635,4.664,4.664,0,0,0,0,5.535,4.7,4.7,0,0,0,2.174,1.635,4.727,4.727,0,0,0,6.182-3.247,8.229,8.229,0,0,0,.182-1.156.258.258,0,0,1,0,.077c0,.062,0,.136,0,.227a2.19,2.19,0,0,1-.029.369,3.368,3.368,0,0,1-.089.5,4.5,4.5,0,0,1-.516,1.287,4.814,4.814,0,0,1-3.242,2.295,4.847,4.847,0,0,1-2.544-.2,4.842,4.842,0,0,1-2.257-1.685,4.819,4.819,0,0,1,0-5.736,4.845,4.845,0,0,1,2.256-1.684,4.845,4.845,0,0,1,2.544-.2,4.812,4.812,0,0,1,3.242,2.294,4.5,4.5,0,0,1,.516,1.287,3.364,3.364,0,0,1,.089.5,2.188,2.188,0,0,1,.029.369c0,.091,0,.166,0,.227a.258.258,0,0,1,0,.077" transform="translate(-214.284 -79.243)" fill="#12263f"/>
            <path id="Trazado_247873" data-name="Trazado 247873" d="M365.352,122.441a8.23,8.23,0,0,0-.178-1.126,4.631,4.631,0,0,0-1.694-2.518,4.569,4.569,0,0,0-4.329-.644,4.574,4.574,0,0,0-2.117,1.592,4.542,4.542,0,0,0,0,5.391,4.58,4.58,0,0,0,2.118,1.593,4.605,4.605,0,0,0,6.022-3.162,8.23,8.23,0,0,0,.178-1.126,1.9,1.9,0,0,1,0,.3,2.135,2.135,0,0,1-.028.36,3.261,3.261,0,0,1-.087.485,4.676,4.676,0,0,1-3.662,3.491,4.722,4.722,0,0,1-2.48-.2,4.723,4.723,0,0,1-2.2-1.642,4.7,4.7,0,0,1,0-5.591A4.722,4.722,0,0,1,359.1,118a4.721,4.721,0,0,1,2.48-.2,4.676,4.676,0,0,1,3.662,3.491,3.253,3.253,0,0,1,.087.485,2.135,2.135,0,0,1,.028.36,1.9,1.9,0,0,1,0,.3" transform="translate(-237.635 -78.589)" fill="#12263f"/>
            <path id="Trazado_247874" data-name="Trazado 247874" d="M351.569,127.688c-.019.019-.129-.073-.331-.169a1.9,1.9,0,0,0-.837-.184,1.88,1.88,0,0,0-.83.213c-.2.1-.3.2-.323.182s.061-.146.26-.287a1.642,1.642,0,0,1,1.791-.031c.2.133.287.262.271.276" transform="translate(-233.143 -84.888)" fill="#12263f"/>
            <path id="Trazado_247875" data-name="Trazado 247875" d="M313.545,131.213a41.156,41.156,0,0,1-4.27,3.188,41.037,41.037,0,0,1,4.27-3.188" transform="translate(-206.459 -87.592)" fill="#12263f"/>
            <g id="Grupo_157224" data-name="Grupo 157224" transform="translate(103.078 65.258)" opacity="0.3">
              <g id="Grupo_157223" data-name="Grupo 157223">
                <g id="Grupo_157222" data-name="Grupo 157222" clip-path="url(#clip-path-10)">
                  <path id="Trazado_247876" data-name="Trazado 247876" d="M310.139,196.3a13.413,13.413,0,0,0,4.872,12.008,1.1,1.1,0,0,0,.975.306,1.073,1.073,0,0,0,.505-.521,8.812,8.812,0,0,0,1.079-5.8c-.573,1.509-1.065,2.99-1.643,4.568-3.153-1.915-5.118-5.985-5.787-10.565" transform="translate(-310.066 -196.3)"/>
                </g>
              </g>
            </g>
            <g id="Grupo_157227" data-name="Grupo 157227" transform="translate(115.402 64.845)" opacity="0.3">
              <g id="Grupo_157226" data-name="Grupo 157226">
                <g id="Grupo_157225" data-name="Grupo 157225" clip-path="url(#clip-path-11)">
                  <path id="Trazado_247877" data-name="Trazado 247877" d="M347.138,205.729l2.655-.97.44,4.491s2.865-5.222,4.051-7.6.576-6.588.576-6.588.424,3.662-2.447,8.335l-2.167,3.523v-3.689Z" transform="translate(-347.138 -195.058)"/>
                </g>
              </g>
            </g>
            <g id="Grupo_157230" data-name="Grupo 157230" transform="translate(75.149 97.79)" opacity="0.3">
              <g id="Grupo_157229" data-name="Grupo 157229">
                <g id="Grupo_157228" data-name="Grupo 157228" clip-path="url(#clip-path-12)">
                  <path id="Trazado_247878" data-name="Trazado 247878" d="M235.417,294.71a7.1,7.1,0,0,0-3.847-.483,7.419,7.419,0,0,0-3.829,1.449,4.274,4.274,0,0,0-1.672,3.614l.133.019c.926-2.508,2.769-4.332,5.146-4.553a7.806,7.806,0,0,1,6.326,2.579,3.4,3.4,0,0,0-2.257-2.625" transform="translate(-226.052 -294.159)"/>
                </g>
              </g>
            </g>
            <g id="Grupo_157233" data-name="Grupo 157233" transform="translate(141.833 99.03)" opacity="0.3">
              <g id="Grupo_157232" data-name="Grupo 157232">
                <g id="Grupo_157231" data-name="Grupo 157231" clip-path="url(#clip-path-13)">
                  <path id="Trazado_247879" data-name="Trazado 247879" d="M436.471,299.764A6.083,6.083,0,0,0,433.041,298a7.707,7.707,0,0,0-6.4,1.852l.507-.411a8.069,8.069,0,0,1,4.261-1.158,6.168,6.168,0,0,1,4.062,1.623,10.829,10.829,0,0,1,2.158,3.47,4.349,4.349,0,0,0-1.16-3.609" transform="translate(-426.643 -297.889)"/>
                </g>
              </g>
            </g>
            <path id="Trazado_247880" data-name="Trazado 247880" d="M404.715,222.572a1.621,1.621,0,0,1,.119-.363l.378-.966c.321-.814.763-1.94,1.229-3.192s.868-2.393,1.157-3.22l.346-.978a.192.192,0,1,1,.064.02c-.064.237-.164.577-.294,1-.259.838-.644,1.987-1.11,3.242s-.927,2.375-1.278,3.179c-.176.4-.322.725-.428.946a1.639,1.639,0,0,1-.181.336" transform="translate(-270.17 -142.525)" fill="#12263f"/>
            <path id="Trazado_247881" data-name="Trazado 247881" d="M275.737,227.51c-.047.01-.408-1.572-.807-3.533s-.684-3.558-.637-3.568.408,1.572.807,3.533.684,3.558.637,3.568" transform="translate(-183.104 -147.136)" fill="#12263f"/>
            <path id="Trazado_247882" data-name="Trazado 247882" d="M274.314,257.772c.105.053-1.218-10.359-1.218-10.359s.835-7.9,1.3-8.267l.012-2.788s1.293-.783,1.639.481c0,0,1.146-.995,1.346,1.374s.242,4.789.242,4.789l2.551,6.378.42.212a54.051,54.051,0,0,1,.867-5.732c.319-.735.537-2.523,1.746-2.255s1.31,1.269,1.092,2.9a23.873,23.873,0,0,0-.387,4.365,28.926,28.926,0,0,1,.432,5.211,10.393,10.393,0,0,1-2.213,5.147,39.7,39.7,0,0,1-4.178,5.033c-.384.3-3.655-6.488-3.655-6.488" transform="translate(-182.308 -157.623)" fill="#ffbe9d"/>
            <path id="Trazado_247883" data-name="Trazado 247883" d="M278.335,255.651a2.211,2.211,0,0,1,.007-.446c.022-.32.05-.725.083-1.209.077-1.021.2-2.43.34-3.985.073-.776.143-1.514.207-2.192a3.907,3.907,0,0,0,.012-.94,1.332,1.332,0,0,0-.318-.718,1.432,1.432,0,0,0-1.041-.457,2.744,2.744,0,0,0-.434.056c0-.005.033-.024.1-.055a1.138,1.138,0,0,1,.328-.068,1.411,1.411,0,0,1,1.5,1.221,3.942,3.942,0,0,1,.005.977c-.06.678-.126,1.417-.194,2.193-.142,1.555-.281,2.962-.39,3.98-.055.482-.1.886-.138,1.2a2.277,2.277,0,0,1-.074.439" transform="translate(-185.042 -163.975)" fill="#eb996e"/>
            <path id="Trazado_247884" data-name="Trazado 247884" d="M281.815,262.957a3.6,3.6,0,0,0-.451.822,13.885,13.885,0,0,0-.424,2.247c-.137.89-.271,1.695-.377,2.276a5.241,5.241,0,0,1-.206.935,5.258,5.258,0,0,1,.085-.953c.074-.586.189-1.393.327-2.283a10.727,10.727,0,0,1,.481-2.266,2.155,2.155,0,0,1,.369-.607c.112-.126.191-.177.2-.17" transform="translate(-187.15 -175.539)" fill="#eb996e"/>
            <path id="Trazado_247885" data-name="Trazado 247885" d="M281.927,237.874a1.29,1.29,0,0,1,.089.327c.047.213.1.523.168.907.127.768.266,1.836.354,3.022s.106,2.263.093,3.042c-.006.389-.018.7-.033.922a1.274,1.274,0,0,1-.04.337,11.068,11.068,0,0,1-.05-1.258c-.018-.776-.057-1.848-.144-3.029s-.207-2.247-.3-3.017a11.051,11.051,0,0,1-.135-1.252" transform="translate(-188.2 -158.795)" fill="#eb996e"/>
            <path id="Trazado_247886" data-name="Trazado 247886" d="M300.984,266.3a.928.928,0,0,1-.859.073c-.488-.146-.715-.521-.672-.54a2.252,2.252,0,0,0,1.531.467" transform="translate(-199.899 -177.455)" fill="#eb996e"/>
            <path id="Trazado_247887" data-name="Trazado 247887" d="M245.6,297.361l-6.738,2.832h-4.015s-3.971,1.239-4.582,4.961-.7,5.638,1.047,6.1a22.394,22.394,0,0,0,9.12-.3c2.443-.811,8.845-5.976,8.845-5.976l.617-3.737Z" transform="translate(-153.45 -198.506)" fill="#ffbe9d"/>
            <path id="Trazado_247888" data-name="Trazado 247888" d="M277.868,297.453c-.009.008-.076-.055-.191-.176a4.17,4.17,0,0,1-.438-.556,7.621,7.621,0,0,1-.941-2.131,12.632,12.632,0,0,1-.415-2.29,4.287,4.287,0,0,1-.026-.963,6.986,6.986,0,0,1,.148.949,17.142,17.142,0,0,0,.46,2.256,8.908,8.908,0,0,0,.878,2.113c.3.5.55.776.526.8" transform="translate(-184.141 -194.485)" fill="#eb996e"/>
            <path id="Trazado_247889" data-name="Trazado 247889" d="M284.639,294.754a6.951,6.951,0,0,0,.384-1.444,4.654,4.654,0,0,0-.905-3.381c-.409-.574-.87-1.073-1.257-1.556a7.211,7.211,0,0,1-.911-1.377,3.61,3.61,0,0,1-.338-1.063,1.225,1.225,0,0,1-.012-.408,4.615,4.615,0,0,0,.458,1.416,7.715,7.715,0,0,0,.925,1.331c.391.473.856.971,1.275,1.557a4.854,4.854,0,0,1,.84,1.843,4.7,4.7,0,0,1,.045,1.655,4.265,4.265,0,0,1-.309,1.07,2.416,2.416,0,0,1-.136.27c-.035.06-.055.09-.061.087" transform="translate(-187.979 -190.604)" fill="#eb996e"/>
            <path id="Trazado_247890" data-name="Trazado 247890" d="M253.227,252.327a67.142,67.142,0,0,1-3.13-6.054,67.036,67.036,0,0,1,3.13,6.054" transform="translate(-166.954 -164.402)" fill="#fff"/>
            <path id="Trazado_247891" data-name="Trazado 247891" d="M292.29,218.133a41.863,41.863,0,0,1,2.188-4.911,41.794,41.794,0,0,1-2.188,4.911" transform="translate(-195.119 -142.338)" fill="#fff"/>
            <path id="Trazado_247892" data-name="Trazado 247892" d="M318.526,244.59a30.349,30.349,0,0,1-2.921-3.528,30.35,30.35,0,0,1,2.921,3.528" transform="translate(-210.684 -160.923)" fill="#fff"/>
            <path id="Trazado_247893" data-name="Trazado 247893" d="M317,277.486a25.022,25.022,0,0,1,2.442-3.367A25.043,25.043,0,0,1,317,277.486" transform="translate(-211.618 -182.991)" fill="#fff"/>
            <path id="Trazado_247894" data-name="Trazado 247894" d="M302.931,320.534a3.222,3.222,0,0,1-.39-.668c-.218-.424-.5-1.02-.786-1.689s-.517-1.287-.671-1.739a3.227,3.227,0,0,1-.21-.745,3.669,3.669,0,0,1,.324.7l.716,1.714.737,1.705a3.666,3.666,0,0,1,.28.72" transform="translate(-200.85 -210.744)" fill="#fff"/>
            <path id="Trazado_247895" data-name="Trazado 247895" d="M327.271,309.122a24.065,24.065,0,0,1-4-.775,24.068,24.068,0,0,1,4,.775" transform="translate(-215.801 -205.834)" fill="#fff"/>
            <path id="Trazado_247896" data-name="Trazado 247896" d="M357.211,259.1a49.414,49.414,0,0,1,3.976-4.288,49.414,49.414,0,0,1-3.976,4.288" transform="translate(-238.459 -170.1)" fill="#fff"/>
            <path id="Trazado_247897" data-name="Trazado 247897" d="M369.871,313.661c-.037.03-1.112-1.214-2.4-2.779s-2.3-2.858-2.268-2.889,1.112,1.213,2.4,2.779,2.3,2.858,2.267,2.889" transform="translate(-243.794 -205.604)" fill="#fff"/>
            <path id="Trazado_247898" data-name="Trazado 247898" d="M234.665,300.6c.024.048-.958.546-2.028,1.367s-1.815,1.631-1.854,1.595a2.5,2.5,0,0,1,.452-.564,10.769,10.769,0,0,1,2.766-2.11,2.511,2.511,0,0,1,.665-.287" transform="translate(-154.061 -200.667)" fill="#fff"/>
            <path id="Trazado_247899" data-name="Trazado 247899" d="M247.272,278.506a13.766,13.766,0,0,1-1.706,2.565,13.766,13.766,0,0,1,1.706-2.565" transform="translate(-163.928 -185.919)" fill="#fff"/>
            <path id="Trazado_247900" data-name="Trazado 247900" d="M267.877,294.5a4.395,4.395,0,0,1-.646-2.841c.052,0,.069.656.249,1.437s.443,1.382.4,1.4" transform="translate(-178.363 -194.701)" fill="#fff"/>
            <path id="Trazado_247901" data-name="Trazado 247901" d="M266.825,231.248a9.885,9.885,0,0,1-2.586.368,9.887,9.887,0,0,1,2.586-.368" transform="translate(-176.395 -154.359)" fill="#fff"/>
            <path id="Trazado_247902" data-name="Trazado 247902" d="M281.289,206.552a10.242,10.242,0,0,1-2.326,1.289,10.243,10.243,0,0,1,2.326-1.289" transform="translate(-186.224 -137.883)" fill="#fff"/>
            <path id="Trazado_247903" data-name="Trazado 247903" d="M320.291,210.6a23.258,23.258,0,0,1-2.427-3.187,11.572,11.572,0,0,1,1.283,1.541,11.7,11.7,0,0,1,1.145,1.646" transform="translate(-212.192 -138.463)" fill="#fff"/>
            <path id="Trazado_247904" data-name="Trazado 247904" d="M370.9,235.378a8.143,8.143,0,0,1-2.011-3.233c.047-.02.4.755.961,1.644s1.089,1.555,1.05,1.588" transform="translate(-246.25 -154.971)" fill="#fff"/>
            <path id="Trazado_247905" data-name="Trazado 247905" d="M390.861,248.131a19.754,19.754,0,0,1-1.528,3.368,19.761,19.761,0,0,1,1.528-3.368" transform="translate(-259.9 -165.642)" fill="#fff"/>
            <path id="Trazado_247906" data-name="Trazado 247906" d="M390.113,214.415a36.747,36.747,0,0,1-3.226-3.877,36.842,36.842,0,0,1,3.226,3.877" transform="translate(-258.27 -140.547)" fill="#fff"/>
            <path id="Trazado_247907" data-name="Trazado 247907" d="M367.236,194.655a15.108,15.108,0,0,1-.127-3.229,15.1,15.1,0,0,1,.127,3.229" transform="translate(-245.038 -127.788)" fill="#fff"/>
            <path id="Trazado_247908" data-name="Trazado 247908" d="M382.945,199.8a25.142,25.142,0,0,1-4.128.552,25.06,25.06,0,0,1,4.128-.552" transform="translate(-252.883 -133.37)" fill="#fff"/>
            <path id="Trazado_247909" data-name="Trazado 247909" d="M423.843,217.589a40.846,40.846,0,0,1-2.314-4.784,40.763,40.763,0,0,1,2.314,4.784" transform="translate(-281.394 -142.06)" fill="#fff"/>
            <path id="Trazado_247910" data-name="Trazado 247910" d="M422.2,243.314a21.156,21.156,0,0,1,.749-3.751,21.155,21.155,0,0,1-.749,3.751" transform="translate(-281.839 -159.923)" fill="#fff"/>
            <path id="Trazado_247911" data-name="Trazado 247911" d="M435.867,259.116a43.362,43.362,0,0,1-1.808-5.166,43.34,43.34,0,0,1,1.808,5.166" transform="translate(-289.758 -169.527)" fill="#fff"/>
            <path id="Trazado_247912" data-name="Trazado 247912" d="M430.871,277.018a5.84,5.84,0,0,1-3.1-1.679c.034-.04.647.466,1.5.927s1.612.7,1.6.752" transform="translate(-285.563 -183.804)" fill="#fff"/>
            <path id="Trazado_247913" data-name="Trazado 247913" d="M457.148,300.592a9.4,9.4,0,0,1-1.034-2.324,9.368,9.368,0,0,1,1.034,2.324" transform="translate(-304.479 -199.111)" fill="#fff"/>
            <path id="Trazado_247914" data-name="Trazado 247914" d="M327.745,333.986a12.909,12.909,0,0,1-.345-2.964,12.908,12.908,0,0,1,.345,2.964" transform="translate(-218.546 -220.977)" fill="#fff"/>
            <path id="Trazado_247915" data-name="Trazado 247915" d="M396.383,332.513a12.232,12.232,0,0,1,.6-2.843,12.221,12.221,0,0,1-.6,2.843" transform="translate(-264.602 -220.074)" fill="#fff"/>
          </g>
        </g>
        <g id="Grupo_157237" data-name="Grupo 157237">
          <g id="Grupo_157236" data-name="Grupo 157236" clip-path="url(#clip-path)">
            <path id="Trazado_247916" data-name="Trazado 247916" d="M409.432,87.481l2.92-5.146a13.789,13.789,0,1,1,3.3,3.673l0,.006Z" transform="translate(-273.321 -40.962)" fill="#fafafa"/>
            <path id="Trazado_247917" data-name="Trazado 247917" d="M409.432,87.347l6.237-1.425.064-.015-.04-.052,0-.006-.06.059a14.107,14.107,0,0,0,2.831,1.707,13.817,13.817,0,0,0,3.776,1.078,12.39,12.39,0,0,0,2.18.11c.375-.021.757-.03,1.142-.062l1.164-.176a13.892,13.892,0,0,0,8.6-5.524,13.729,13.729,0,0,0,2.327-5.319,14.033,14.033,0,0,0-.163-6.126,13.582,13.582,0,0,0-2.951-5.663l-.562-.619c-.185-.208-.405-.38-.605-.57s-.4-.385-.624-.545l-.661-.494a5.821,5.821,0,0,0-.684-.453l-.7-.424-.731-.355a6.427,6.427,0,0,0-.738-.328,14.051,14.051,0,0,0-6.172-.948,13.586,13.586,0,0,0-5.665,1.674,13.968,13.968,0,0,0-6.536,8.043,14.884,14.884,0,0,0-.6,4.479,13.691,13.691,0,0,0,.674,3.867,13.956,13.956,0,0,0,1.381,2.963v-.041l-2.885,5.166,2.955-5.126.012-.021-.013-.021a13.986,13.986,0,0,1-1.355-2.951,13.649,13.649,0,0,1-.652-3.839,14.8,14.8,0,0,1,.608-4.436,13.849,13.849,0,0,1,6.484-7.945,13.441,13.441,0,0,1,5.6-1.648,13.9,13.9,0,0,1,6.1.941,6.324,6.324,0,0,1,.729.324l.722.351.69.419a5.747,5.747,0,0,1,.675.447l.653.488c.223.157.409.36.616.538s.416.358.6.563l.555.611a13.428,13.428,0,0,1,2.917,5.593,13.892,13.892,0,0,1,.165,6.052A13.585,13.585,0,0,1,435.2,82.95a13.767,13.767,0,0,1-8.5,5.483l-1.152.178c-.381.033-.76.043-1.131.065a12.284,12.284,0,0,1-2.161-.1,13.745,13.745,0,0,1-3.749-1.054,14.1,14.1,0,0,1-2.822-1.68l-.257-.2.2.255.005.006.024-.067-6.218,1.508" transform="translate(-273.321 -40.829)" fill="#12263f"/>
            <path id="Trazado_247918" data-name="Trazado 247918" d="M464.669,98.338a1.345,1.345,0,1,0,1.345-1.345,1.345,1.345,0,0,0-1.345,1.345" transform="translate(-310.195 -64.749)" fill="#12263f"/>
            <path id="Trazado_247919" data-name="Trazado 247919" d="M448.476,98.338a1.345,1.345,0,1,0,1.345-1.345,1.345,1.345,0,0,0-1.345,1.345" transform="translate(-299.385 -64.749)" fill="#12263f"/>
            <path id="Trazado_247920" data-name="Trazado 247920" d="M431.962,97.665a1.345,1.345,0,1,0,1.838-.492,1.346,1.346,0,0,0-1.838.492" transform="translate(-288.24 -64.748)" fill="#12263f"/>
          </g>
        </g>
      </g>
    </g>
  </g>
</svg>
