<svg xmlns="http://www.w3.org/2000/svg" xmlns:xlink="http://www.w3.org/1999/xlink" width="224.028" height="224.027" viewBox="0 0 224.028 224.027">
  <defs>
    <clipPath id="clip-path">
      <rect id="Rectángulo_89954" data-name="Rectángulo 89954" width="208.331" height="211.343" fill="none"/>
    </clipPath>
    <clipPath id="clip-path-4">
      <rect id="Rectángulo_89945" data-name="Rectángulo 89945" width="61.453" height="9.497" fill="none"/>
    </clipPath>
    <clipPath id="clip-path-5">
      <rect id="Rectángulo_89946" data-name="Rectángulo 89946" width="16.881" height="6.21" fill="none"/>
    </clipPath>
    <clipPath id="clip-path-6">
      <rect id="Rectángulo_89947" data-name="Rectángulo 89947" width="8.315" height="34.529" fill="none"/>
    </clipPath>
    <clipPath id="clip-path-9">
      <rect id="Rectángulo_89951" data-name="Rectángulo 89951" width="8.509" height="17.574" fill="none"/>
    </clipPath>
  </defs>
  <g id="Grupo_156859" data-name="Grupo 156859" transform="translate(-6708.315 -6952.922)">
    <circle id="Elipse_5644" data-name="Elipse 5644" cx="112.014" cy="112.014" r="112.014" transform="translate(6708.315 6952.922)" fill="#dff7f9"/>
    <g id="Grupo_157263" data-name="Grupo 157263" transform="translate(6716.164 6959.264)">
      <g id="Grupo_157262" data-name="Grupo 157262" clip-path="url(#clip-path)">
        <g id="Grupo_157241" data-name="Grupo 157241">
          <g id="Grupo_157240" data-name="Grupo 157240" clip-path="url(#clip-path)">
            <path id="Trazado_247921" data-name="Trazado 247921" d="M337.443,276.129a9.05,9.05,0,0,0,5.464-8.327,8.506,8.506,0,1,0-16.975-.223,9.038,9.038,0,0,0,5.337,8.5c-13.079,1.857-12.607,16.058-12.607,16.058l30.887.4s.826-14.345-12.106-16.411" transform="translate(-158.581 -128.711)" fill="#feca2e"/>
            <path id="Trazado_247922" data-name="Trazado 247922" d="M11.394,227.808l1.838-.389,2.825-6.438-.777-3.668s2.8-.776,3.487,4.1.786,3.574.786,3.574,6.035-1.254,6.647-.837c.445.3,1.879,6.258,2.63,9.493a3.6,3.6,0,0,1-1.742,4.071,2.675,2.675,0,0,1-.63.225c-1.5.319-9.447.724-9.447.724l-3.174.673Z" transform="translate(-5.67 -108.123)" fill="#feca2e"/>
            <path id="Trazado_247923" data-name="Trazado 247923" d="M.5,237.816l3.793,12.327,3.147-.667L4.829,237.163Z" transform="translate(-0.248 -118.024)" fill="#feca2e"/>
            <path id="Trazado_247924" data-name="Trazado 247924" d="M124.534,100.41h-21.79a1.717,1.717,0,0,0-1.718,1.718v14.439a1.717,1.717,0,0,0,1.718,1.718h11.475l5.455,5.455v-5.455h4.861a1.273,1.273,0,0,0,1.273-1.273V101.683a1.273,1.273,0,0,0-1.273-1.273" transform="translate(-50.275 -49.969)" fill="#feca2e"/>
            <path id="Trazado_247925" data-name="Trazado 247925" d="M133.43,117.534a1.282,1.282,0,1,0,1.282-1.282,1.282,1.282,0,0,0-1.282,1.282" transform="translate(-66.401 -57.853)" fill="#fff"/>
            <path id="Trazado_247926" data-name="Trazado 247926" d="M123.335,117.534a1.282,1.282,0,1,0,1.283-1.282,1.282,1.282,0,0,0-1.283,1.282" transform="translate(-61.378 -57.853)" fill="#fff"/>
            <path id="Trazado_247927" data-name="Trazado 247927" d="M113.239,117.534a1.282,1.282,0,1,0,1.282-1.282,1.282,1.282,0,0,0-1.282,1.282" transform="translate(-56.353 -57.853)" fill="#fff"/>
            <path id="Trazado_247928" data-name="Trazado 247928" d="M397.045,37.474a2.228,2.228,0,0,0-4.394.132,2.228,2.228,0,0,0-4.4-.092,3.007,3.007,0,0,0,.54,2.17,8.953,8.953,0,0,0,1.571,1.661c.8.711,1.539,1.381,2.339,2.093.793-.719,1.468-1.395,2.262-2.113a8.906,8.906,0,0,0,1.557-1.675,3.007,3.007,0,0,0,.52-2.174" transform="translate(-193.196 -17.754)" fill="#feca2e"/>
          </g>
        </g>
        <g id="Grupo_157252" data-name="Grupo 157252">
          <g id="Grupo_157251" data-name="Grupo 157251" clip-path="url(#clip-path)">
            <path id="Trazado_247929" data-name="Trazado 247929" d="M201.783,364.048l-15.336-56.493-45.635-.439c-4.509,16.431-7.211,37.4-8.428,56.932" transform="translate(-65.881 -152.836)" fill="#fc4b52"/>
            <path id="Trazado_247930" data-name="Trazado 247930" d="M169.7,384.934a5.447,5.447,0,0,0,1.442.559,3.37,3.37,0,0,0,3.668-4.725,5.449,5.449,0,0,0-.9-1.258,1.135,1.135,0,0,1,.352.245,3.206,3.206,0,0,1,.714.932,3.429,3.429,0,0,1,.376,1.707,3.5,3.5,0,0,1-2.5,3.221,3.43,3.43,0,0,1-1.747.059,3.21,3.21,0,0,1-1.08-.46c-.227-.16-.335-.269-.325-.28" transform="translate(-84.448 -188.862)" fill="#fafafa"/>
            <path id="Trazado_247931" data-name="Trazado 247931" d="M198.322,362.229a1.373,1.373,0,0,0-.845-.2.932.932,0,0,0-.689.537.9.9,0,0,0,1.194,1.194.932.932,0,0,0,.537-.689,1.371,1.371,0,0,0-.2-.845c.01-.011.094.035.2.172a1.018,1.018,0,0,1,.182.7,1.1,1.1,0,0,1-.618.883,1.134,1.134,0,0,1-1.515-1.515,1.1,1.1,0,0,1,.883-.618,1.015,1.015,0,0,1,.7.183c.137.1.183.187.172.2" transform="translate(-97.766 -180.071)" fill="#fafafa"/>
            <path id="Trazado_247932" data-name="Trazado 247932" d="M216.421,407.538a1.374,1.374,0,0,0-.845-.2.932.932,0,0,0-.689.537.9.9,0,0,0,1.194,1.194.932.932,0,0,0,.537-.689,1.374,1.374,0,0,0-.2-.845c.01-.011.094.035.2.172a1.015,1.015,0,0,1,.183.7,1.1,1.1,0,0,1-.618.883,1.133,1.133,0,0,1-1.514-1.514,1.1,1.1,0,0,1,.883-.618,1.017,1.017,0,0,1,.7.182c.137.1.183.187.172.2" transform="translate(-106.773 -202.619)" fill="#fafafa"/>
            <path id="Trazado_247933" data-name="Trazado 247933" d="M145.274,381.4c0,.025-.188.024-.5.116a2.107,2.107,0,0,0-1.1.775,2,2,0,1,0,3.209,0,2.107,2.107,0,0,0-1.1-.774c-.315-.091-.5-.091-.5-.116a1.11,1.11,0,0,1,.528.017,2.1,2.1,0,0,1,1.224.761,2.2,2.2,0,0,1,.345,2.094,2.224,2.224,0,0,1-4.193,0,2.2,2.2,0,0,1,.345-2.094,2.1,2.1,0,0,1,1.224-.761,1.11,1.11,0,0,1,.528-.017" transform="translate(-71.189 -189.795)" fill="#fafafa"/>
            <path id="Trazado_247934" data-name="Trazado 247934" d="M212.24,382.258c0,.025-.188.024-.5.116a2.105,2.105,0,0,0-1.1.775,2,2,0,1,0,3.209,0,2.107,2.107,0,0,0-1.1-.774c-.315-.091-.5-.091-.5-.116a1.109,1.109,0,0,1,.528.017,2.1,2.1,0,0,1,1.224.761,2.2,2.2,0,0,1,.345,2.094,2.224,2.224,0,0,1-4.193,0,2.2,2.2,0,0,1,.345-2.094,2.1,2.1,0,0,1,1.224-.761,1.109,1.109,0,0,1,.528-.017" transform="translate(-104.515 -190.22)" fill="#fafafa"/>
            <path id="Trazado_247935" data-name="Trazado 247935" d="M151.12,405.009a1.019,1.019,0,1,1,0,1.442,1.019,1.019,0,0,1,0-1.442" transform="translate(-75.056 -201.404)" fill="#fafafa"/>
            <path id="Trazado_247936" data-name="Trazado 247936" d="M188.057,347.181a1.019,1.019,0,1,1,0,1.442,1.019,1.019,0,0,1,0-1.442" transform="translate(-93.438 -172.626)" fill="#fafafa"/>
            <path id="Trazado_247937" data-name="Trazado 247937" d="M228.052,360.879a1.019,1.019,0,1,1,0,1.442,1.018,1.018,0,0,1,0-1.442" transform="translate(-113.341 -179.442)" fill="#fafafa"/>
            <path id="Trazado_247938" data-name="Trazado 247938" d="M167.19,359.693a1.614,1.614,0,0,1-.181.31l-.565.851-2.1,3.057-.081.119-.087-.117-3.074-4.144h.205l-1.63,2.186-1.477,1.973-.109.145-.1-.15-2.805-4.171.169.01-2.632,2.995-.742.819a1.8,1.8,0,0,1-.278.275,1.8,1.8,0,0,1,.23-.316l.7-.857,2.563-3.055.089-.107.08.117,2.841,4.146-.209-.005,1.474-1.976,1.635-2.182.1-.139.1.14,3.036,4.173-.168,0,2.169-3.006.61-.818a1.6,1.6,0,0,1,.231-.275" transform="translate(-75.496 -178.893)" fill="#fafafa"/>
            <path id="Trazado_247939" data-name="Trazado 247939" d="M188.672,399.177a1.559,1.559,0,0,1-.1.344l-.354.957-1.339,3.456-.052.135-.112-.094-3.943-3.329.2-.046-1.086,2.5-.986,2.26-.072.166-.133-.123L177,401.987l.167-.03-1.875,3.519-.534.967a1.83,1.83,0,0,1-.207.331,1.752,1.752,0,0,1,.151-.36l.483-.995,1.794-3.561.063-.125.1.095,3.716,3.384-.2.044.982-2.262,1.091-2.5.069-.159.131.113,3.911,3.366-.163.041,1.422-3.423.406-.936a1.607,1.607,0,0,1,.162-.321" transform="translate(-86.866 -198.65)" fill="#fafafa"/>
            <path id="Trazado_247940" data-name="Trazado 247940" d="M236.3,381.424a1.625,1.625,0,0,1,.3.2l.821.607,2.945,2.25.115.087-.122.081-4.3,2.858.012-.205,2.1,1.74,1.895,1.577.139.116-.155.093-4.309,2.587.018-.168,2.856,2.783.78.783a1.793,1.793,0,0,1,.26.291,1.806,1.806,0,0,1-.3-.245l-.821-.741-2.919-2.716-.1-.095.12-.074,4.287-2.625-.016.209-1.9-1.573-2.1-1.745-.134-.111.145-.094,4.323-2.817-.007.168-2.89-2.321-.786-.651a1.587,1.587,0,0,1-.263-.245" transform="translate(-117.203 -189.815)" fill="#fafafa"/>
            <g id="Grupo_157244" data-name="Grupo 157244" transform="translate(68.113 182.952)" opacity="0.2">
              <g id="Grupo_157243" data-name="Grupo 157243">
                <g id="Grupo_157242" data-name="Grupo 157242" clip-path="url(#clip-path-4)">
                  <path id="Trazado_247941" data-name="Trazado 247941" d="M135.588,373.689l61.452-4.58-1.334-4.917h-58.94Z" transform="translate(-135.588 -364.191)"/>
                </g>
              </g>
            </g>
            <path id="Trazado_247942" data-name="Trazado 247942" d="M199.77,393.165c-.072,0-.084-4.249-.028-9.488s.162-9.486.234-9.486.084,4.248.028,9.489-.162,9.485-.234,9.485" transform="translate(-99.384 -186.216)" fill="#263238"/>
            <path id="Trazado_247943" data-name="Trazado 247943" d="M220.341,394.887a3.653,3.653,0,0,1-.221-.673c-.136-.486-.31-1.109-.519-1.855-.433-1.567-1.037-3.73-1.739-6.109s-1.37-4.524-1.858-6.075l-.572-1.839a3.676,3.676,0,0,1-.179-.685,3.717,3.717,0,0,1,.276.653c.162.425.385,1.045.652,1.814.533,1.538,1.229,3.676,1.933,6.058s1.279,4.556,1.667,6.136c.194.79.344,1.432.439,1.877a3.681,3.681,0,0,1,.123.7" transform="translate(-107.119 -187.937)" fill="#263238"/>
            <path id="Trazado_247944" data-name="Trazado 247944" d="M318.172,178.647l-9.138,5.952V92.853h9.138Z" transform="translate(-153.79 -46.208)" fill="#f5f5f5"/>
            <path id="Trazado_247945" data-name="Trazado 247945" d="M308.578,204.873c4.192-12.874,2.317-27.22,6.937-39.987a8.756,8.756,0,0,0,.826-3.764,5.706,5.706,0,0,0-1.41-2.977,4.34,4.34,0,0,0-3.458-1.8,3.336,3.336,0,0,0-2.68,1.91,7.368,7.368,0,0,0-.519,3.1c-.077,3.9-.056,7.8-.035,11.707q.078,14.725.157,29.452" transform="translate(-153.385 -77.8)" fill="#e0e0e0"/>
            <path id="Trazado_247946" data-name="Trazado 247946" d="M308.865,133.532v-3.4L318,127.519v3.915Z" transform="translate(-153.706 -63.459)" fill="#e0e0e0"/>
            <path id="Trazado_247947" data-name="Trazado 247947" d="M75.125,152.747s-.658-5.1-.36-6.9c.318-1.918,3.521-5.984,3.521-5.984-.045-.177-.575-.619-2.211,0s-2.212,1.769-3.76,2.874L64.368,137.8l-2.623,8.34L68.5,156.771Z" transform="translate(-30.727 -68.577)" fill="#ffad9d"/>
            <path id="Trazado_247948" data-name="Trazado 247948" d="M145.578,128.71c-4.1,4.022-.161,10.271-2.791,14.309-1.594,2.447-5.008,3.63-5.742,6.458a10.829,10.829,0,0,0,.263,4.3c.215,1.43.163,3.073-.877,4.078a15.017,15.017,0,0,1-1.663,1.13,5.935,5.935,0,0,0-1.968,5.363,32.413,32.413,0,0,0,1.494,5.773,25.466,25.466,0,0,1-.961,16.5,6.219,6.219,0,0,0,4.905-2.353l-.149,3.988a5.981,5.981,0,0,0,4.657-2.162,14.285,14.285,0,0,0,2.527-4.639,49.335,49.335,0,0,0,2.675-23.5" transform="translate(-66.071 -64.052)" fill="#263238"/>
            <path id="Trazado_247949" data-name="Trazado 247949" d="M214.784,105.847a17.089,17.089,0,0,1,2.757,11.854c-.328,2.335-1.136,4.764-.333,6.981.692,1.908,2.528,3.468,2.427,5.5-.115,2.311-2.72,3.874-2.955,6.175-.326,3.19,3.958,5.334,3.909,8.54-.025,1.652-1.208,3.018-2.026,4.453s-1.188,3.506.1,4.545L203.77,152.8l2.653-46.613Z" transform="translate(-101.406 -52.675)" fill="#263238"/>
            <path id="Trazado_247950" data-name="Trazado 247950" d="M297.816,170.036l-.163,0,.658-2.2,2.1-8.389a1.54,1.54,0,0,0-.987-1.828l-1.513-.051-5.181-2.424a1.616,1.616,0,0,0-2.184,1.253c-.189,1.542-1.238,5.684-2.354,4.233-.026-.034-.054-.062-.08-.1-1.568-2.159-3.522-3.324-4.326-3.291a.9.9,0,0,0-.549,1.549.968.968,0,0,0,.3.256c.052.028.114.079.17.115a13.392,13.392,0,0,1,1.865,2.046,7.1,7.1,0,0,1,1.142,2.184c.277.87.482,1.633.637,2.279l-.4,4.283" transform="translate(-140.821 -77.155)" fill="#ffad9d"/>
            <path id="Trazado_247951" data-name="Trazado 247951" d="M285,81.9s6.055-1.16,14.754-9.063,12.984-18.6,14.019-18.521,5.62-1.891,13.7,17.077,4.562,23.22,2.851,23.136-13.251-3.655-20.538-3.035-16.732,4.141-16.732,4.141Z" transform="translate(-141.83 -27.018)" fill="#a7e446"/>
            <path id="Trazado_247952" data-name="Trazado 247952" d="M258.461,115.658l1.942,3.961.87,1.775a5.1,5.1,0,0,0,6.576,2.444l13.024-4.128-7.024-17.361-13.081,6.5a5.1,5.1,0,0,0-2.308,6.807" transform="translate(-128.363 -50.934)" fill="#263238"/>
            <path id="Trazado_247953" data-name="Trazado 247953" d="M273.427,139.125l3.882,8.172,2.072-.513,13.112,11.3,3.959-7.237s-7.835-3.642-9.222-6.512.327-3.463.327-3.463l-3.613-4.348Z" transform="translate(-136.071 -67.94)" fill="#263238"/>
            <path id="Trazado_247954" data-name="Trazado 247954" d="M355.387,72.16c4.293,10.273,5.944,19.365,3.686,20.309s-7.567-6.62-11.861-16.893-5.943-19.365-3.686-20.309,7.567,6.62,11.86,16.893" transform="translate(-170.453 -27.464)" fill="#263238"/>
            <path id="Trazado_247955" data-name="Trazado 247955" d="M255.279,134.882l3.527-1-2.047-4.175-2.668,1.555Z" transform="translate(-126.448 -64.549)" fill="#a7e446"/>
            <path id="Trazado_247956" data-name="Trazado 247956" d="M286.258,139.488l-9.565,5.725-1.107-2.329Z" transform="translate(-137.145 -69.416)" fill="#a7e446"/>
            <path id="Trazado_247957" data-name="Trazado 247957" d="M259.086,129.708l2.047,4.175-.725.205-1.641-4.194Z" transform="translate(-128.775 -64.549)" fill="#a7e446"/>
            <path id="Trazado_247958" data-name="Trazado 247958" d="M264.143,128.527a38.955,38.955,0,0,0,7.706-3.223,38.926,38.926,0,0,0-7.706,3.223" transform="translate(-131.45 -62.351)" fill="#a7e446"/>
            <path id="Trazado_247959" data-name="Trazado 247959" d="M262.141,123.632a32.579,32.579,0,0,0,6.95-3.181,32.681,32.681,0,0,0-6.95,3.181" transform="translate(-130.453 -59.936)" fill="#a7e446"/>
            <path id="Trazado_247960" data-name="Trazado 247960" d="M266.7,134.052c.017.06.435-.024,1.1-.21.334-.092.729-.211,1.168-.349s.889-.358,1.374-.561a14.819,14.819,0,0,0,3.378-1.766,18.017,18.017,0,0,0-3.553,1.352c-.482.2-.929.426-1.35.588s-.8.3-1.117.434c-.633.26-1.02.452-1,.511" transform="translate(-132.721 -65.267)" fill="#a7e446"/>
            <path id="Trazado_247961" data-name="Trazado 247961" d="M349.675,83.3S355,80.2,357.658,87.348s-2.875,8.153-2.875,8.153A47.094,47.094,0,0,1,349.675,83.3" transform="translate(-174.015 -41.12)" fill="#a7e446"/>
            <path id="Trazado_247962" data-name="Trazado 247962" d="M339.07,66.879a7.911,7.911,0,0,0,.167,1.356c.141.868.339,2.128.631,3.676.2.765.418,1.6.652,2.494l.367,1.389.193.726c.071.244.166.483.25.73l1.1,3.082.289.808c.094.273.231.531.345.8l.732,1.625.734,1.625c.126.264.23.538.372.789l.415.752,1.587,2.861c.13.226.246.456.382.671l.417.626.8,1.2,1.44,2.141c.965,1.24,1.777,2.219,2.334,2.9a7.954,7.954,0,0,0,.907,1.023,8.042,8.042,0,0,0-.769-1.13l-2.221-2.986-1.383-2.156-.773-1.2-.405-.625c-.132-.215-.245-.445-.371-.671-.495-.91-1.014-1.865-1.553-2.855l-.408-.748c-.14-.25-.242-.522-.367-.785L344.2,83.38l-.729-1.613c-.115-.267-.251-.523-.346-.794l-.29-.8-1.112-3.053c-.086-.244-.183-.481-.258-.722l-.2-.719-.386-1.374c-.252-.885-.486-1.71-.7-2.466l-.768-3.633a8.077,8.077,0,0,0-.339-1.327" transform="translate(-168.734 -33.282)" fill="#263238"/>
            <path id="Trazado_247963" data-name="Trazado 247963" d="M264.659,181.31l-2.622,23.276L248.95,191.545s-7,14.564-7.1,15.156c-.065.4,7.345,7.72,12.851,11.949,2.981,2.29,7,5.828,10.715,5.233,6.191-.992,9.867-5.082,10.4-11.33l2.371-30.886Z" transform="translate(-120.355 -90.229)" fill="#fc4b52"/>
            <path id="Trazado_247964" data-name="Trazado 247964" d="M141.382,201.534l-9.6-6.359c2.625-14.752,23.934-16.23,23.934-16.23l16.225-.288s12.025-1.635,19.463,6.723c7.7,8.65,13.491,15.46,13.491,15.46l-10.531,11.525-10.323-8.1a14.111,14.111,0,0,1,2.535,7.789c.008,4.8-3.579,9.4-3.579,9.4l-.9,8.2,3.932,15.9-45.964.122a83.848,83.848,0,0,0,8.166-16.609L143.943,213.6Z" transform="translate(-65.584 -88.844)" fill="#fc4b52"/>
            <path id="Trazado_247965" data-name="Trazado 247965" d="M110.686,177.514,87.4,189.832,78.981,166.82,68.7,171.707,75.974,201a10.172,10.172,0,0,0,13.24,7.246q.284-.1.565-.227L115,197.1Z" transform="translate(-34.19 -83.018)" fill="#fc4b52"/>
            <path id="Trazado_247966" data-name="Trazado 247966" d="M179.594,224.089a5.425,5.425,0,0,0-1.482.443,3.371,3.371,0,0,0,0,5.981,5.448,5.448,0,0,0,1.482.443,1.147,1.147,0,0,1-.429.022,3.19,3.19,0,0,1-1.135-.3,3.428,3.428,0,0,1-1.344-1.118,3.5,3.5,0,0,1,0-4.077,3.42,3.42,0,0,1,1.344-1.118,3.2,3.2,0,0,1,1.135-.3,1.138,1.138,0,0,1,.429.022" transform="translate(-87.601 -111.505)" fill="#fafafa"/>
            <path id="Trazado_247967" data-name="Trazado 247967" d="M215.719,237.836a5.44,5.44,0,0,0,.9,1.258,3.371,3.371,0,0,0,5.658-1.939,5.453,5.453,0,0,0-.062-1.545,1.136,1.136,0,0,1,.159.4,3.2,3.2,0,0,1,.086,1.171,3.424,3.424,0,0,1-.622,1.634,3.5,3.5,0,0,1-3.857,1.322,3.425,3.425,0,0,1-1.492-.909,3.194,3.194,0,0,1-.651-.978,1.137,1.137,0,0,1-.118-.412" transform="translate(-107.351 -117.251)" fill="#fafafa"/>
            <path id="Trazado_247968" data-name="Trazado 247968" d="M192.343,286.834a5.445,5.445,0,0,0,1.442.559,3.371,3.371,0,0,0,3.668-4.724,5.442,5.442,0,0,0-.9-1.258,1.132,1.132,0,0,1,.352.246,3.211,3.211,0,0,1,.714.932A3.429,3.429,0,0,1,198,284.3a3.5,3.5,0,0,1-2.5,3.221,3.424,3.424,0,0,1-1.747.059,3.2,3.2,0,0,1-1.08-.46c-.227-.16-.335-.269-.325-.28" transform="translate(-95.719 -140.043)" fill="#fafafa"/>
            <path id="Trazado_247969" data-name="Trazado 247969" d="M288.492,206.62a5.443,5.443,0,0,0,1.442.559,3.371,3.371,0,0,0,3.668-4.725,5.449,5.449,0,0,0-.9-1.258,1.132,1.132,0,0,1,.352.246,3.2,3.2,0,0,1,.714.932,3.429,3.429,0,0,1,.376,1.707,3.5,3.5,0,0,1-2.5,3.221,3.424,3.424,0,0,1-1.747.059,3.2,3.2,0,0,1-1.08-.46c-.227-.16-.335-.269-.325-.28" transform="translate(-143.568 -100.125)" fill="#fafafa"/>
            <path id="Trazado_247970" data-name="Trazado 247970" d="M290.335,255.467a5.406,5.406,0,0,0-.541-1.449,3.37,3.37,0,0,0-5.967.4,5.419,5.419,0,0,0-.342,1.508,1.142,1.142,0,0,1-.051-.426,3.205,3.205,0,0,1,.222-1.153,3.429,3.429,0,0,1,1.025-1.416,3.5,3.5,0,0,1,4.068-.273,3.427,3.427,0,0,1,1.2,1.266,3.2,3.2,0,0,1,.374,1.113,1.143,1.143,0,0,1,.007.429" transform="translate(-141.051 -125.474)" fill="#fafafa"/>
            <path id="Trazado_247971" data-name="Trazado 247971" d="M226.478,196.4a5.427,5.427,0,0,0,1.156,1.027,3.371,3.371,0,0,0,5.085-3.148,5.432,5.432,0,0,0-.4-1.493,1.134,1.134,0,0,1,.244.353,3.2,3.2,0,0,1,.344,1.123,3.425,3.425,0,0,1-.243,1.731,3.5,3.5,0,0,1-3.467,2.146,3.427,3.427,0,0,1-1.658-.555,3.189,3.189,0,0,1-.851-.808,1.132,1.132,0,0,1-.207-.376" transform="translate(-112.706 -95.938)" fill="#fafafa"/>
            <path id="Trazado_247972" data-name="Trazado 247972" d="M135.637,221.344a5.425,5.425,0,0,0,1.156,1.027,3.371,3.371,0,0,0,5.085-3.148,5.436,5.436,0,0,0-.4-1.493,1.122,1.122,0,0,1,.244.353,3.185,3.185,0,0,1,.344,1.122,3.425,3.425,0,0,1-.243,1.731,3.5,3.5,0,0,1-3.467,2.146,3.426,3.426,0,0,1-1.658-.555,3.2,3.2,0,0,1-.852-.808,1.149,1.149,0,0,1-.207-.376" transform="translate(-67.499 -108.353)" fill="#fafafa"/>
            <path id="Trazado_247973" data-name="Trazado 247973" d="M93.243,221.292a5.406,5.406,0,0,0,.49-1.467,3.371,3.371,0,0,0-4.892-3.441,5.412,5.412,0,0,0-1.214.957,1.124,1.124,0,0,1,.229-.363,3.2,3.2,0,0,1,.9-.757,3.425,3.425,0,0,1,1.687-.457,3.5,3.5,0,0,1,3.335,2.345,3.422,3.422,0,0,1,.141,1.742,3.2,3.2,0,0,1-.408,1.1c-.149.234-.253.347-.265.338" transform="translate(-43.607 -107.375)" fill="#fafafa"/>
            <path id="Trazado_247974" data-name="Trazado 247974" d="M200.3,232.658a1.373,1.373,0,0,0-.845-.2.932.932,0,0,0-.689.537.9.9,0,0,0,1.194,1.194.932.932,0,0,0,.537-.689,1.374,1.374,0,0,0-.2-.845c.01-.011.094.035.2.172a1.017,1.017,0,0,1,.182.7,1.1,1.1,0,0,1-.618.883,1.133,1.133,0,0,1-1.515-1.514,1.1,1.1,0,0,1,.883-.618,1.018,1.018,0,0,1,.7.182c.137.1.183.187.172.2" transform="translate(-98.75 -115.59)" fill="#fafafa"/>
            <path id="Trazado_247975" data-name="Trazado 247975" d="M232.39,217a1.374,1.374,0,0,0-.845-.2.932.932,0,0,0-.689.537.9.9,0,0,0,1.194,1.194.932.932,0,0,0,.537-.689,1.378,1.378,0,0,0-.2-.845c.01-.011.094.035.2.172a1.015,1.015,0,0,1,.183.7,1.1,1.1,0,0,1-.618.883,1.133,1.133,0,0,1-1.514-1.514,1.1,1.1,0,0,1,.883-.618,1.015,1.015,0,0,1,.7.183c.137.1.183.187.172.2" transform="translate(-114.72 -107.8)" fill="#fafafa"/>
            <path id="Trazado_247976" data-name="Trazado 247976" d="M302.084,190.968a1.373,1.373,0,0,0-.845-.2.932.932,0,0,0-.689.537.9.9,0,0,0,1.194,1.194.932.932,0,0,0,.537-.689,1.373,1.373,0,0,0-.2-.845c.01-.011.094.035.2.172a1.015,1.015,0,0,1,.183.7,1.1,1.1,0,0,1-.618.883,1.134,1.134,0,0,1-1.515-1.515,1.1,1.1,0,0,1,.883-.618,1.018,1.018,0,0,1,.7.182c.137.1.183.187.172.2" transform="translate(-149.403 -94.843)" fill="#fafafa"/>
            <path id="Trazado_247977" data-name="Trazado 247977" d="M223.453,266.28a1.374,1.374,0,0,0-.845-.2.932.932,0,0,0-.689.537.9.9,0,0,0,1.194,1.194.932.932,0,0,0,.537-.689,1.374,1.374,0,0,0-.2-.845c.01-.011.094.035.2.172a1.015,1.015,0,0,1,.183.7,1.1,1.1,0,0,1-.618.883,1.133,1.133,0,0,1-1.514-1.514,1.1,1.1,0,0,1,.883-.618,1.018,1.018,0,0,1,.7.182c.137.1.183.187.172.2" transform="translate(-110.273 -132.322)" fill="#fafafa"/>
            <path id="Trazado_247978" data-name="Trazado 247978" d="M115.123,232.658a1.374,1.374,0,0,0-.845-.2.932.932,0,0,0-.689.537.9.9,0,0,0,1.194,1.194.932.932,0,0,0,.537-.689,1.374,1.374,0,0,0-.2-.845c.01-.011.094.035.2.172a1.015,1.015,0,0,1,.183.7,1.1,1.1,0,0,1-.618.883,1.133,1.133,0,0,1-1.514-1.514,1.1,1.1,0,0,1,.883-.618,1.018,1.018,0,0,1,.7.182c.137.1.183.187.172.2" transform="translate(-56.362 -115.59)" fill="#fafafa"/>
            <path id="Trazado_247979" data-name="Trazado 247979" d="M174.088,279.411c0,.025-.188.024-.5.116a2.107,2.107,0,0,0-1.1.775,2,2,0,1,0,3.209,0,2.107,2.107,0,0,0-1.1-.774c-.315-.091-.5-.091-.5-.116a1.119,1.119,0,0,1,.528.017,2.1,2.1,0,0,1,1.224.761,2.2,2.2,0,0,1,.345,2.094,2.224,2.224,0,0,1-4.193,0,2.2,2.2,0,0,1,.345-2.094,2.1,2.1,0,0,1,1.224-.761,1.119,1.119,0,0,1,.528-.017" transform="translate(-85.528 -139.038)" fill="#fafafa"/>
            <path id="Trazado_247980" data-name="Trazado 247980" d="M268.7,224.095c0,.025-.188.024-.5.116a2.107,2.107,0,0,0-1.1.775,2,2,0,1,0,3.209,0,2.107,2.107,0,0,0-1.1-.774c-.315-.092-.5-.091-.5-.116a1.11,1.11,0,0,1,.528.017,2.1,2.1,0,0,1,1.224.761,2.2,2.2,0,0,1,.345,2.094,2.224,2.224,0,0,1-4.193,0,2.2,2.2,0,0,1,.345-2.094,2.1,2.1,0,0,1,1.224-.761,1.11,1.11,0,0,1,.528-.017" transform="translate(-132.611 -111.51)" fill="#fafafa"/>
            <path id="Trazado_247981" data-name="Trazado 247981" d="M169.13,248.9a1.019,1.019,0,1,1,0,1.442,1.019,1.019,0,0,1,0-1.442" transform="translate(-84.019 -123.716)" fill="#fafafa"/>
            <path id="Trazado_247982" data-name="Trazado 247982" d="M92.942,232.743a1.019,1.019,0,1,1,0,1.442,1.02,1.02,0,0,1,0-1.442" transform="translate(-46.104 -115.676)" fill="#fafafa"/>
            <path id="Trazado_247983" data-name="Trazado 247983" d="M301.863,219.117a1.019,1.019,0,1,1,0,1.442,1.02,1.02,0,0,1,0-1.442" transform="translate(-150.073 -108.895)" fill="#fafafa"/>
            <path id="Trazado_247984" data-name="Trazado 247984" d="M226.416,187.817a1.019,1.019,0,1,1,0,1.442,1.019,1.019,0,0,1,0-1.442" transform="translate(-112.527 -93.318)" fill="#fafafa"/>
            <path id="Trazado_247985" data-name="Trazado 247985" d="M179.934,303.015a1.019,1.019,0,1,1,0,1.442,1.019,1.019,0,0,1,0-1.442" transform="translate(-89.395 -150.646)" fill="#fafafa"/>
            <path id="Trazado_247986" data-name="Trazado 247986" d="M196,257.7a1.614,1.614,0,0,1-.181.31l-.565.851-2.1,3.057-.081.119-.087-.118-3.074-4.144h.205l-1.63,2.186-1.477,1.973-.109.145-.1-.15L184,257.758l.169.01-2.632,3-.742.819a1.754,1.754,0,0,1-.278.274,1.84,1.84,0,0,1,.23-.316l.7-.857,2.563-3.055.089-.107.08.117,2.841,4.146-.209-.005,1.474-1.976,1.635-2.182.1-.139.1.14,3.036,4.173-.168,0,2.169-3.006.61-.818A1.6,1.6,0,0,1,196,257.7" transform="translate(-89.836 -128.136)" fill="#fafafa"/>
            <path id="Trazado_247987" data-name="Trazado 247987" d="M217.485,291.99a1.559,1.559,0,0,1-.105.344l-.354.957-1.339,3.456-.052.135-.112-.094-3.943-3.329.2-.046-1.086,2.5-.986,2.26-.072.166-.133-.123-3.687-3.416.167-.03-1.875,3.519-.534.968a1.83,1.83,0,0,1-.207.331,1.756,1.756,0,0,1,.151-.36l.483-.995,1.794-3.561.063-.125.1.095,3.716,3.384-.2.044.982-2.262,1.091-2.5.069-.159.131.113,3.911,3.366-.163.04,1.422-3.422.406-.936a1.608,1.608,0,0,1,.162-.321" transform="translate(-101.205 -145.308)" fill="#fafafa"/>
            <path id="Trazado_247988" data-name="Trazado 247988" d="M247.947,203.391a1.609,1.609,0,0,1,.31.182l.848.568,3.049,2.107.119.082-.118.086L248,209.475l0-.205,2.18,1.639,1.967,1.485.145.109-.15.1-4.182,2.789.01-.169,2.985,2.644.817.745a1.8,1.8,0,0,1,.273.279,1.821,1.821,0,0,1-.315-.231l-.854-.7-3.045-2.575-.107-.09.117-.079L252,212.39l-.006.209-1.97-1.481-2.176-1.643-.139-.1.14-.1,4.185-3.019v.168l-3-2.181-.816-.613a1.608,1.608,0,0,1-.274-.232" transform="translate(-123.272 -101.217)" fill="#fafafa"/>
            <path id="Trazado_247989" data-name="Trazado 247989" d="M273.054,242.491a1.6,1.6,0,0,1,.112-.342l.374-.95,1.409-3.428.055-.133.109.1,3.874,3.408-.2.042,1.136-2.479,1.032-2.239.076-.164.13.126,3.616,3.491-.167.026,1.947-3.48.554-.957a1.746,1.746,0,0,1,.214-.326,1.835,1.835,0,0,1-.158.357l-.5.985-1.866,3.523-.065.124-.1-.1-3.647-3.46.206-.039-1.027,2.241-1.141,2.476-.073.158-.128-.116-3.842-3.445.164-.037-1.491,3.393-.425.928a1.6,1.6,0,0,1-.168.318" transform="translate(-135.884 -117.038)" fill="#fafafa"/>
            <path id="Trazado_247990" data-name="Trazado 247990" d="M114.566,213.376a1.6,1.6,0,0,1,.112-.342l.374-.95,1.409-3.428.055-.134.11.1,3.874,3.408-.2.042,1.136-2.479,1.032-2.239.076-.164.13.125,3.616,3.491-.167.026,1.947-3.48.554-.957a1.719,1.719,0,0,1,.214-.326,1.839,1.839,0,0,1-.158.357l-.5.985-1.866,3.523-.065.124-.1-.1-3.647-3.459.205-.039-1.027,2.24-1.141,2.477-.072.157-.129-.115-3.842-3.445.164-.037-1.491,3.393-.425.928a1.6,1.6,0,0,1-.168.317" transform="translate(-57.013 -102.549)" fill="#fafafa"/>
            <path id="Trazado_247991" data-name="Trazado 247991" d="M186.5,206a1.617,1.617,0,0,1,.3-.2l.875-.526,3.205-1.862.125-.072.029.143c.287,1.459.627,3.185,1,5.063l-.185-.089,2.411-1.274,2.181-1.148.16-.084.027.178c.273,1.826.525,3.51.743,4.971l-.149-.081,3.663-1.575,1.022-.421a1.781,1.781,0,0,1,.368-.129,1.816,1.816,0,0,1-.343.187l-1,.475-3.626,1.659-.127.058-.022-.139c-.231-1.459-.5-3.142-.786-4.965l.187.094-2.179,1.152-2.413,1.269-.154.08-.032-.17c-.352-1.881-.677-3.61-.95-5.072l.153.071-3.249,1.783-.9.478a1.611,1.611,0,0,1-.327.149" transform="translate(-92.813 -101.191)" fill="#fafafa"/>
            <path id="Trazado_247992" data-name="Trazado 247992" d="M196.064,144.622c.1-4.515.3-9.36.3-9.36s6.869-.867,7.165-7.877c.226-5.337.32-13.728.353-17.431a2.5,2.5,0,0,0-1.767-2.411l-11.435-3.524-9.617,7.1-.231,33.272c-.029,4.228,2.734,6.84,6.962,6.84,4.139,0,8.179-2.471,8.274-6.608" transform="translate(-89.989 -51.765)" fill="#ffad9d"/>
            <path id="Trazado_247993" data-name="Trazado 247993" d="M202.736,163.263a16.727,16.727,0,0,1-9.1-2.977s2.138,5.107,8.977,4.7Z" transform="translate(-96.365 -79.766)" fill="#e88b79"/>
            <path id="Trazado_247994" data-name="Trazado 247994" d="M207.044,147.663a.824.824,0,0,0-.837-1.163,1.3,1.3,0,0,0-1.314-1.147,1.468,1.468,0,0,0-1.328,1.194,1.693,1.693,0,0,0,.749,1.661,2,2,0,0,0,1.849.135,1.461,1.461,0,0,0,.932-1.1" transform="translate(-101.293 -72.334)" fill="#e88b79"/>
            <path id="Trazado_247995" data-name="Trazado 247995" d="M219.6,128.225a.962.962,0,0,1-.928.971.919.919,0,0,1-.992-.867.962.962,0,0,1,.926-.972.921.921,0,0,1,.993.868" transform="translate(-108.33 -63.378)" fill="#263238"/>
            <path id="Trazado_247996" data-name="Trazado 247996" d="M220.068,126.479c-.12.126-.848-.414-1.884-.411s-1.794.521-1.906.394c-.055-.056.066-.282.4-.523a2.642,2.642,0,0,1,1.527-.47,2.532,2.532,0,0,1,1.5.484c.318.244.426.471.368.527" transform="translate(-107.624 -62.439)" fill="#263238"/>
            <path id="Trazado_247997" data-name="Trazado 247997" d="M210.575,134.605a6.845,6.845,0,0,1,1.682-.3c.264-.028.514-.08.559-.26a1.345,1.345,0,0,0-.176-.784l-.782-2.013a34.632,34.632,0,0,1-1.756-5.266,34.658,34.658,0,0,1,2.176,5.112q.392,1.06.749,2.025a1.533,1.533,0,0,1,.137,1.038.664.664,0,0,1-.435.386,1.774,1.774,0,0,1-.449.062,6.73,6.73,0,0,1-1.7,0" transform="translate(-104.551 -62.693)" fill="#263238"/>
            <path id="Trazado_247998" data-name="Trazado 247998" d="M204.822,144.578c.168-.01.17,1.114,1.132,1.912s2.159.674,2.167.831c.016.071-.267.219-.772.232a2.8,2.8,0,0,1-1.809-.63,2.435,2.435,0,0,1-.878-1.6c-.043-.47.082-.749.159-.742" transform="translate(-101.846 -71.949)" fill="#263238"/>
            <path id="Trazado_247999" data-name="Trazado 247999" d="M200.6,125.548c-.109.274-.979.072-2.024.138-1.046.041-1.908.331-2.025.068-.052-.126.114-.378.472-.624a3.072,3.072,0,0,1,1.536-.494,2.909,2.909,0,0,1,1.549.338c.366.208.54.444.492.574" transform="translate(-97.808 -62.023)" fill="#263238"/>
            <path id="Trazado_248000" data-name="Trazado 248000" d="M220.053,121.371c-.221.235-1.086-.009-2.126-.02-1.04-.042-1.921.158-2.124-.088-.089-.12.05-.355.435-.578a3.425,3.425,0,0,1,1.729-.385,3.359,3.359,0,0,1,1.7.473c.368.242.488.484.391.6" transform="translate(-107.381 -59.866)" fill="#263238"/>
            <path id="Trazado_248001" data-name="Trazado 248001" d="M200.444,129.464c-.037.022-.158-.184-.453-.392a2.059,2.059,0,0,0-1.319-.354,3.007,3.007,0,0,0-1.322.473c-.314.2-.5.346-.523.318s.113-.223.416-.469a2.623,2.623,0,0,1,1.408-.583,1.976,1.976,0,0,1,1.455.47c.3.274.364.527.337.537" transform="translate(-97.95 -63.923)" fill="#263238"/>
            <path id="Trazado_248002" data-name="Trazado 248002" d="M196.454,134.826c-.038.062-.187.039-.334-.052s-.235-.213-.2-.274.187-.039.334.052.235.213.2.274" transform="translate(-97.497 -66.916)" fill="#e88b79"/>
            <path id="Trazado_248003" data-name="Trazado 248003" d="M200.456,134.871c-.072-.01-.112-.146-.09-.3s.1-.277.171-.267.11.146.089.3-.1.277-.17.267" transform="translate(-99.709 -66.834)" fill="#e88b79"/>
            <path id="Trazado_248004" data-name="Trazado 248004" d="M198.552,140.915c-.066-.03-.073-.155-.017-.278s.155-.2.221-.17.073.154.017.278-.155.2-.221.17" transform="translate(-98.782 -69.9)" fill="#e88b79"/>
            <path id="Trazado_248005" data-name="Trazado 248005" d="M221.128,134.585c-.04.06-.155.054-.256-.014s-.151-.171-.111-.231.155-.054.256.014.151.171.111.231" transform="translate(-109.855 -66.834)" fill="#e88b79"/>
            <path id="Trazado_248006" data-name="Trazado 248006" d="M223.726,134.041c-.063-.036-.051-.175.028-.311s.192-.216.254-.18.05.175-.028.311-.191.217-.254.18" transform="translate(-111.317 -66.457)" fill="#e88b79"/>
            <path id="Trazado_248007" data-name="Trazado 248007" d="M222.162,139.745c-.071-.012-.1-.186-.067-.389s.12-.357.191-.345.1.186.067.389-.12.357-.191.345" transform="translate(-110.518 -69.179)" fill="#e88b79"/>
            <path id="Trazado_248008" data-name="Trazado 248008" d="M221.5,153.625c.01-.02.215.081.606.193a4.485,4.485,0,0,0,1.7.148,4.655,4.655,0,0,0,2.307-.943,4.491,4.491,0,0,0,1.634-2.535,5.21,5.21,0,0,0-.2-3.034,3.99,3.99,0,0,0-1.533-1.942,3.822,3.822,0,0,0-1.588-.589c-.4-.051-.631-.025-.633-.049s.055-.022.163-.038a2.667,2.667,0,0,1,.479-.014,3.639,3.639,0,0,1,1.677.533,4.09,4.09,0,0,1,1.659,2.01,5.342,5.342,0,0,1,.232,3.184,4.66,4.66,0,0,1-1.743,2.666,4.713,4.713,0,0,1-2.436.935,4.2,4.2,0,0,1-1.744-.235,1.759,1.759,0,0,1-.575-.29" transform="translate(-110.231 -72.068)" fill="#feca2e"/>
            <g id="Grupo_157247" data-name="Grupo 157247" transform="translate(84.812 128.205)" opacity="0.2">
              <g id="Grupo_157246" data-name="Grupo 157246">
                <g id="Grupo_157245" data-name="Grupo 157245" clip-path="url(#clip-path-5)">
                  <path id="Trazado_248009" data-name="Trazado 248009" d="M185.682,255.217c.139.067-.19,1.187-1.4,2.591a10.4,10.4,0,0,1-2.49,2.074,10.585,10.585,0,0,1-7.744,1.3,10.38,10.38,0,0,1-3.031-1.146c-1.605-.931-2.282-1.882-2.172-1.99.133-.155,1.007.514,2.579,1.16a11.364,11.364,0,0,0,12.2-2.051c1.275-1.124,1.882-2.042,2.059-1.939" transform="translate(-168.831 -255.209)"/>
                </g>
              </g>
            </g>
            <g id="Grupo_157250" data-name="Grupo 157250" transform="translate(76.491 115.952)" opacity="0.2">
              <g id="Grupo_157249" data-name="Grupo 157249">
                <g id="Grupo_157248" data-name="Grupo 157248" clip-path="url(#clip-path-6)">
                  <path id="Trazado_248010" data-name="Trazado 248010" d="M152.266,230.819s8.762,20.459,8.3,23.139-6.6,11.39-6.6,11.39l4.471-10.26a246.067,246.067,0,0,1-6.163-24.269" transform="translate(-152.266 -230.819)"/>
                </g>
              </g>
            </g>
            <path id="Trazado_248011" data-name="Trazado 248011" d="M283.726,233.529a16.478,16.478,0,0,1-1.934-5.7c.074-.017.417,1.285.952,2.852s1.05,2.811.981,2.843" transform="translate(-140.228 -113.381)" fill="#263238"/>
            <path id="Trazado_248012" data-name="Trazado 248012" d="M284.8,231.717a15.562,15.562,0,0,1-3.028-4.681,394.785,394.785,0,0,1,3.028,4.681" transform="translate(-140.223 -112.983)" fill="#263238"/>
            <path id="Trazado_248013" data-name="Trazado 248013" d="M207.577,272.988a4.64,4.64,0,0,1-.635.48l-1.783,1.234-5.895,4.047-5.875,4.079-1.785,1.23a4.665,4.665,0,0,1-.675.424,4.609,4.609,0,0,1,.615-.507c.406-.312,1-.756,1.737-1.3,1.476-1.084,3.534-2.555,5.834-4.143s4.4-2.99,5.941-3.986c.768-.5,1.393-.9,1.829-1.164a4.649,4.649,0,0,1,.692-.4" transform="translate(-95.016 -135.852)" fill="#263238"/>
            <path id="Trazado_248014" data-name="Trazado 248014" d="M101.138,217.876a17.143,17.143,0,0,1,2.28-5.391c.066.035-.5,1.214-1.131,2.7s-1.078,2.715-1.149,2.692" transform="translate(-50.327 -105.743)" fill="#263238"/>
            <path id="Trazado_248015" data-name="Trazado 248015" d="M104.408,220.034a4.581,4.581,0,0,1-.029-1.142c.022-.7.088-1.676.216-2.743s.293-2.028.438-2.717a4.6,4.6,0,0,1,.3-1.1,5.381,5.381,0,0,1-.116,1.134c-.1.7-.233,1.654-.361,2.717s-.222,2.026-.291,2.724a5.428,5.428,0,0,1-.156,1.13" transform="translate(-51.939 -105.665)" fill="#263238"/>
            <path id="Trazado_248016" data-name="Trazado 248016" d="M173.4,93.741a9.6,9.6,0,0,1-1.642,11.443c-1.523,1.444-3.578,2.432-4.524,4.305-1,1.97-.468,4.349.252,6.436s1.628,4.233,1.324,6.42c-.377,2.715-2.552,4.905-3.016,7.608-.886,5.169,4.677,9.732,4.03,14.937-.284,2.281-1.725,4.219-2.974,6.149s-2.386,4.174-1.956,6.432c.2,1.074,1.118,2.024,1.017,3.113-.41,4.4-6.631,4.99-7.529,4.219,1.138-2.165-.205-5.529-.339-5.7A4.671,4.671,0,0,1,154,162.8a11.344,11.344,0,0,0-.394-5.008,4.986,4.986,0,0,1-3.474,2.347,30.249,30.249,0,0,0-2.113-18.152c-.9-1.983-2.043-4.036-1.751-6.193.379-2.792,3-4.688,4.237-7.22,1.394-2.848.925-6.207.544-9.354s-.571-6.606,1.237-9.21c1.1-1.587,2.852-2.689,3.742-4.4.827-1.594.792-3.488,1.3-5.212.914-3.124,3.2-6.65,6.281-7.715s7.853-2.095,9.789,1.066" transform="translate(-72.768 -45.596)" fill="#263238"/>
            <path id="Trazado_248017" data-name="Trazado 248017" d="M155.178,201.948a17.056,17.056,0,0,0-1.357,6.713c.165,2.294,1.51,4.667,3.72,5.3.841.242,1.827.261,2.42.9a2.092,2.092,0,0,1,.324,2.044,6.166,6.166,0,0,1-1.124,1.842,8.021,8.021,0,0,0,3.364-2.98,5.5,5.5,0,0,1-1.392,4.991c1.7.066,3.173-1.1,4.37-2.3,2.733-2.742,5.033-6.361,4.69-10.217-.341-3.839-3.233-7.178-3.222-11.032,0-1.48.445-2.928.52-4.406a4.37,4.37,0,0,0-1.559-3.944" transform="translate(-76.537 -93.985)" fill="#263238"/>
            <path id="Trazado_248018" data-name="Trazado 248018" d="M194.8,94.021a6.888,6.888,0,0,1,6.083-2.356,9.359,9.359,0,0,1,5.835,3.2,14.757,14.757,0,0,1,3.052,6.017,5.346,5.346,0,0,1,.236,2A2.176,2.176,0,0,1,209,104.548a2.234,2.234,0,0,1-2.008-.048,6.605,6.605,0,0,1-1.645-1.269,3.126,3.126,0,0,1-6.05.23,4.5,4.5,0,0,1-8.568-.849,6.794,6.794,0,0,1,1.378-5.02c1.008-1.471,2.306-2.723,3.338-4.176" transform="translate(-94.87 -45.595)" fill="#263238"/>
            <path id="Trazado_248019" data-name="Trazado 248019" d="M147.446,142.928a6.155,6.155,0,0,0,.376-.5,3.8,3.8,0,0,0,.528-1.682,12.427,12.427,0,0,0-.169-2.82,8.94,8.94,0,0,1-.062-1.787,4.8,4.8,0,0,1,.593-1.923,10.927,10.927,0,0,1,3.217-3.248c.658-.49,1.343-.989,1.986-1.569a7.264,7.264,0,0,0,1.656-2.053,5.992,5.992,0,0,0,.6-2.686,15.3,15.3,0,0,0-.332-2.907c-.188-.982-.42-1.985-.521-3.028a8.275,8.275,0,0,1,.207-3.177,4.827,4.827,0,0,1,.71-1.46,5.628,5.628,0,0,1,1.131-1.131,19.879,19.879,0,0,1,2.667-1.54,7.978,7.978,0,0,0,2.354-1.681,4.442,4.442,0,0,0,1.054-2.5c.115-.9.082-1.8.106-2.681a8.9,8.9,0,0,1,.371-2.537,8.38,8.38,0,0,1,2.491-3.822,7.519,7.519,0,0,1,3.354-1.718,5.9,5.9,0,0,1,2.844.083,4.006,4.006,0,0,1,1.575.868,2.509,2.509,0,0,1,.323.341.71.71,0,0,1,.1.127c-.015.014-.141-.167-.454-.428a4.105,4.105,0,0,0-1.569-.81,5.866,5.866,0,0,0-2.786-.038,7.411,7.411,0,0,0-3.262,1.714,8.221,8.221,0,0,0-2.406,3.747,8.692,8.692,0,0,0-.349,2.48,26.807,26.807,0,0,1-.1,2.706,4.685,4.685,0,0,1-1.105,2.637,8.177,8.177,0,0,1-2.422,1.743,19.883,19.883,0,0,0-2.631,1.521,5.381,5.381,0,0,0-1.076,1.077,4.583,4.583,0,0,0-.671,1.382,8.032,8.032,0,0,0-.2,3.077c.1,1.023.325,2.016.513,3.006a15.409,15.409,0,0,1,.33,2.957,6.223,6.223,0,0,1-.632,2.794,7.473,7.473,0,0,1-1.717,2.114c-.658.588-1.351,1.087-2.011,1.572a10.814,10.814,0,0,0-3.185,3.164,4.632,4.632,0,0,0-.588,1.848,8.877,8.877,0,0,0,.041,1.756,12.164,12.164,0,0,1,.125,2.847,3.727,3.727,0,0,1-.586,1.7,2.017,2.017,0,0,1-.42.468" transform="translate(-73.376 -47.945)" fill="#fff"/>
            <path id="Trazado_248020" data-name="Trazado 248020" d="M168.625,159.508a3.462,3.462,0,0,1-.193-.594,4.136,4.136,0,0,1,.062-1.787,17.389,17.389,0,0,1,.962-2.664,6.95,6.95,0,0,0,.7-3.582,5.33,5.33,0,0,0-.781-1.975c-.392-.639-.879-1.256-1.373-1.906a11.285,11.285,0,0,1-1.36-2.152,8.8,8.8,0,0,1,.483-8.206c1.07-1.746,2.777-3.011,4.261-4.487a10.835,10.835,0,0,0,1.9-2.433,6.139,6.139,0,0,0,.556-1.392,6,6,0,0,0,.167-1.462c-.053-1.973-.84-3.785-1.1-5.62a6.617,6.617,0,0,1,.123-2.706,6.48,6.48,0,0,1,1.2-2.256,16.966,16.966,0,0,1,3.43-2.992,23.05,23.05,0,0,0,2.931-2.3,8.616,8.616,0,0,0,1.715-2.205,5.7,5.7,0,0,0,.622-2.293,3.868,3.868,0,0,1-.017.624,5.079,5.079,0,0,1-.514,1.715,8.548,8.548,0,0,1-1.7,2.264,22.672,22.672,0,0,1-2.926,2.348,16.959,16.959,0,0,0-3.368,2.976,6.282,6.282,0,0,0-1.149,2.182,6.409,6.409,0,0,0-.105,2.609c.259,1.795,1.058,3.6,1.12,5.652a6.206,6.206,0,0,1-.173,1.53,6.377,6.377,0,0,1-.578,1.452,11.039,11.039,0,0,1-1.944,2.494c-1.506,1.494-3.192,2.747-4.229,4.437a8.586,8.586,0,0,0-.491,7.975,11.142,11.142,0,0,0,1.325,2.117c.489.651.976,1.275,1.372,1.932a5.5,5.5,0,0,1,.792,2.052,7.048,7.048,0,0,1-.746,3.666,18.217,18.217,0,0,0-1,2.632,4.267,4.267,0,0,0-.109,1.754c.081.4.156.6.141.6" transform="translate(-82.537 -52.996)" fill="#fff"/>
            <path id="Trazado_248021" data-name="Trazado 248021" d="M214.106,105.092c-.045.006-.141-.827-.391-2.146a11.607,11.607,0,0,0-.66-2.247,6.378,6.378,0,0,0-1.614-2.311,4.782,4.782,0,0,0-2.55-1.123,9.2,9.2,0,0,0-2.333.022c-1.33.173-2.147.368-2.156.322a2.411,2.411,0,0,1,.561-.177c.366-.094.9-.224,1.569-.328a8.723,8.723,0,0,1,2.39-.077,4.923,4.923,0,0,1,2.69,1.164,6.424,6.424,0,0,1,1.664,2.416,10.78,10.78,0,0,1,.619,2.307c.109.669.159,1.214.19,1.591a2.522,2.522,0,0,1,.019.588" transform="translate(-101.721 -48.26)" fill="#fff"/>
            <path id="Trazado_248022" data-name="Trazado 248022" d="M206.674,107.458a13.357,13.357,0,0,1,.11-1.592,10.055,10.055,0,0,0-.305-3.767,5.275,5.275,0,0,0-.972-1.812,4.314,4.314,0,0,0-1.31-1.046,5.154,5.154,0,0,0-1.5-.437,1.028,1.028,0,0,1,.433-.028,3.346,3.346,0,0,1,1.148.3,4.238,4.238,0,0,1,1.413,1.055,5.263,5.263,0,0,1,1.038,1.89,9.2,9.2,0,0,1,.241,3.864c-.061.492-.13.886-.183,1.157a1.363,1.363,0,0,1-.111.417" transform="translate(-100.871 -49.154)" fill="#fff"/>
            <path id="Trazado_248023" data-name="Trazado 248023" d="M197.623,58.575V39.907H66.966V203.479H197.623V147.563l-9.138,6.018v21.226H76.574V58.375h111.91v9.669c2.714-1.781,6.686-6.088,9.138-9.469" transform="translate(-33.326 -19.86)" fill="#f5f5f5"/>
            <path id="Trazado_248024" data-name="Trazado 248024" d="M90.316,55.464a1.4,1.4,0,0,0,.829-1.293,1.311,1.311,0,1,0-2.617-.007,1.393,1.393,0,0,0,.836,1.3A2.094,2.094,0,0,0,87.6,56.992a2.966,2.966,0,0,0,1.818.975l.806,0a2.967,2.967,0,0,0,1.842-.99,2.06,2.06,0,0,0-1.745-1.515" transform="translate(-43.592 -26.262)" fill="#a7e446"/>
            <path id="Trazado_248025" data-name="Trazado 248025" d="M88.992,57.166c0-.025.265-.015.715-.138a2.971,2.971,0,0,0,1.584-1.092,2.9,2.9,0,0,0,.389-2.73,2.84,2.84,0,0,0-1.006-1.327,2.858,2.858,0,0,0-3.386.007,2.844,2.844,0,0,0-1,1.331,2.9,2.9,0,0,0,.4,2.729,2.968,2.968,0,0,0,1.588,1.085c.451.121.717.11.716.135a.588.588,0,0,1-.191.014,2.312,2.312,0,0,1-.547-.062,2.966,2.966,0,0,1-1.695-1.073,3.023,3.023,0,0,1-.589-1.282A3.071,3.071,0,0,1,90.806,51.7a3.035,3.035,0,0,1,1.072,1.435A3.07,3.07,0,0,1,92,54.75a3.018,3.018,0,0,1-.584,1.285,2.963,2.963,0,0,1-1.69,1.08,2.314,2.314,0,0,1-.546.064.6.6,0,0,1-.191-.013" transform="translate(-42.755 -25.429)" fill="#a7e446"/>
            <path id="Trazado_248026" data-name="Trazado 248026" d="M307.455,50.543a.652.652,0,1,1-.66-.644.652.652,0,0,1,.66.644" transform="translate(-152.356 -24.833)" fill="#a7e446"/>
            <path id="Trazado_248027" data-name="Trazado 248027" d="M307.515,55.209a.652.652,0,1,1-.66-.644.652.652,0,0,1,.66.644" transform="translate(-152.385 -27.155)" fill="#a7e446"/>
            <path id="Trazado_248028" data-name="Trazado 248028" d="M307.574,59.876a.652.652,0,1,1-.66-.644.652.652,0,0,1,.66.644" transform="translate(-152.415 -29.477)" fill="#a7e446"/>
            <path id="Trazado_248029" data-name="Trazado 248029" d="M162.285,57.238c0,.072-12.878.131-28.76.131s-28.763-.058-28.763-.131,12.875-.131,28.763-.131,28.76.058,28.76.131" transform="translate(-52.135 -28.419)" fill="#263238"/>
            <path id="Trazado_248030" data-name="Trazado 248030" d="M119.839,329.725l-1.324-.589a3.625,3.625,0,1,1,1.93-3.186,3.663,3.663,0,0,1-.913,2.452Zm-3.1-7.166a3.424,3.424,0,1,0,.061,6.848,3.529,3.529,0,0,0,1.648-.521l.055-.031.976.435-.222-.959.045-.049a3.42,3.42,0,0,0-2.563-5.723" transform="translate(-56.28 -160.396)" fill="#263238"/>
            <path id="Trazado_248031" data-name="Trazado 248031" d="M139.132,329.636l-1.52-3.7-2.847-2.59,6.9-.061Zm-3.723-6.044,2.425,2.221,1.3,3.152,2.163-5.426Z" transform="translate(-67.066 -160.882)" fill="#263238"/>
            <rect id="Rectángulo_89948" data-name="Rectángulo 89948" width="4.488" height="0.252" transform="matrix(0.838, -0.546, 0.546, 0.838, 70.584, 164.875)" fill="#263238"/>
            <path id="Trazado_248032" data-name="Trazado 248032" d="M302.633,327.91l-2.881-2.83-2.686,2.736-.073-8.185,5.565-.05Zm-2.884-3.185.09.088,2.536,2.492-.067-7.468-5.061.045.065,7.325Z" transform="translate(-147.799 -159.04)" fill="#263238"/>
            <path id="Trazado_248033" data-name="Trazado 248033" d="M96.524,323.275a2.134,2.134,0,0,0-4.208.145,2.134,2.134,0,0,0-4.21-.069,2.88,2.88,0,0,0,.526,2.076,8.578,8.578,0,0,0,1.512,1.584c.769.678,1.48,1.316,2.25,1.994.757-.692,1.4-1.342,2.158-2.034a8.552,8.552,0,0,0,1.483-1.611,2.879,2.879,0,0,0,.489-2.085" transform="translate(-43.828 -160.025)" fill="#fc4b52"/>
            <path id="Trazado_248034" data-name="Trazado 248034" d="M66.966,153.884c.554.4.794.638,1.338,1.048a1.867,1.867,0,0,0,1.9.35,1.825,1.825,0,0,0,.761-1.894c-.1-.719-.42-1.388-.566-2.1a1.057,1.057,0,0,0,1.232-.358,1.732,1.732,0,0,0,.277-1.32,5.132,5.132,0,0,0-.452-1.306c.164.266.616.166.771-.105a1.25,1.25,0,0,0,.025-.913,3.8,3.8,0,0,0-1.075-2.014,1.81,1.81,0,0,0-2.14-.246c-.508.353-1.428.871-1.577,1.471-.53,2.121-.349,5.246-.5,7.427" transform="translate(-33.326 -72.048)" fill="#e0e0e0"/>
            <path id="Trazado_248035" data-name="Trazado 248035" d="M302.582,152.048a1.167,1.167,0,0,1,.65,1.483c-.416,1.128-1.089,2.9-1.593,3.97a2.967,2.967,0,0,1-.618.955.957.957,0,0,1-1.682-.677,3.047,3.047,0,0,1,.225-1.179c.355-1.054.968-2.632,1.491-3.916a1.167,1.167,0,0,1,1.527-.637" transform="translate(-148.963 -75.622)" fill="#ffad9d"/>
            <path id="Trazado_248036" data-name="Trazado 248036" d="M305.858,156.189a1.167,1.167,0,0,1,.65,1.483c-.416,1.128-1.089,2.9-1.593,3.97a2.967,2.967,0,0,1-.618.955.957.957,0,0,1-1.682-.677,3.048,3.048,0,0,1,.225-1.179c.355-1.055.968-2.632,1.491-3.916a1.167,1.167,0,0,1,1.527-.637" transform="translate(-150.594 -77.683)" fill="#ffad9d"/>
            <path id="Trazado_248037" data-name="Trazado 248037" d="M309.375,158.828a1.011,1.011,0,0,1,.563,1.285c-.361.977-.943,2.509-1.379,3.438a2.574,2.574,0,0,1-.535.828.829.829,0,0,1-1.457-.586,2.645,2.645,0,0,1,.2-1.021c.307-.913.837-2.28,1.291-3.391a1.011,1.011,0,0,1,1.323-.552" transform="translate(-152.56 -79.002)" fill="#ffad9d"/>
            <path id="Trazado_248038" data-name="Trazado 248038" d="M313.339,159.71A1.015,1.015,0,0,1,313.9,161c-.362.982-.947,2.521-1.386,3.454a2.58,2.58,0,0,1-.538.831.833.833,0,0,1-1.464-.589,2.661,2.661,0,0,1,.2-1.026c.309-.918.842-2.29,1.3-3.407a1.016,1.016,0,0,1,1.329-.555" transform="translate(-154.527 -79.441)" fill="#ffad9d"/>
            <path id="Trazado_248039" data-name="Trazado 248039" d="M302.9,160.909a19.331,19.331,0,0,1,1.8-4.113,19.334,19.334,0,0,1-1.8,4.113" transform="translate(-150.735 -78.029)" fill="#e88b79"/>
            <path id="Trazado_248040" data-name="Trazado 248040" d="M306.48,163.749a24.954,24.954,0,0,1,1.952-4.715,24.954,24.954,0,0,1-1.952,4.715" transform="translate(-152.516 -79.143)" fill="#e88b79"/>
            <path id="Trazado_248041" data-name="Trazado 248041" d="M310.223,164.765a57.462,57.462,0,0,1,1.73-4.151,11.713,11.713,0,0,1-1.73,4.151" transform="translate(-154.379 -79.929)" fill="#e88b79"/>
            <path id="Trazado_248042" data-name="Trazado 248042" d="M197.493,58.461s-.008-.4-.012-1.191-.007-1.976-.012-3.541c0-3.135-.013-7.8-.022-13.936l.046.046-130.657.069.116-.115c0,38.774.01,83.869.015,131.759,0,10.779,0,21.416,0,31.813l-.13-.13,130.657.023-.107.106c.019-35.976.035-65.636.046-86.3.013-10.331.022-18.415.029-23.918.007-2.749.013-4.853.016-6.273s.016-2.147.016-2.147.011.729.016,2.147.009,3.523.016,6.273c.007,5.5.017,13.587.029,23.918.011,20.668.027,50.328.046,86.3v.107h-.106l-130.657.023h-.13v-.13c0-10.4,0-21.034,0-31.813.006-47.89.011-92.985.015-131.759v-.116h.116l130.657.069h.046v.046c-.01,6.135-.018,10.8-.023,13.936-.005,1.565-.009,2.747-.012,3.541s-.012,1.191-.012,1.191" transform="translate(-33.196 -19.745)" fill="#263238"/>
            <path id="Trazado_248043" data-name="Trazado 248043" d="M61.543,152.742a1.038,1.038,0,0,1,1.452-.372c.849.536,1.77,1.107,2.57,1.622a2.71,2.71,0,0,1,.921.8.825.825,0,0,1-.155,1.089,1.328,1.328,0,0,1-1.221-.029c-.124-.05-2.124-1.256-3.233-1.928a.881.881,0,0,1-.334-1.182" transform="translate(-30.574 -75.749)" fill="#ffad9d"/>
            <path id="Trazado_248044" data-name="Trazado 248044" d="M61.052,147.147a1.137,1.137,0,0,1,1.667-.416c.969.681,2.02,1.408,2.932,2.061A3.262,3.262,0,0,1,66.7,149.8a1.054,1.054,0,0,1-.185,1.33,1.436,1.436,0,0,1-1.4-.07c-.142-.064-2.424-1.6-3.691-2.454a1.133,1.133,0,0,1-.374-1.457" transform="translate(-30.32 -72.918)" fill="#ffad9d"/>
            <path id="Trazado_248045" data-name="Trazado 248045" d="M61.877,142.5a1.137,1.137,0,0,1,1.672-.393c.959.694,2,1.434,2.9,2.1a3.27,3.27,0,0,1,1.036,1.021,1.054,1.054,0,0,1-.2,1.327,1.435,1.435,0,0,1-1.4-.089c-.141-.066-2.4-1.632-3.658-2.5a1.134,1.134,0,0,1-.355-1.462" transform="translate(-30.727 -70.612)" fill="#ffad9d"/>
            <path id="Trazado_248046" data-name="Trazado 248046" d="M62.326,137.04a1.257,1.257,0,0,1,1.872-.475c1.093.789,2.278,1.629,3.306,2.385a3.756,3.756,0,0,1,1.184,1.164,1.234,1.234,0,0,1-.2,1.533,1.579,1.579,0,0,1-1.573-.085c-.159-.074-2.733-1.852-4.16-2.841A1.333,1.333,0,0,1,62.326,137.04Z" transform="translate(-30.947 -67.842)" fill="#ffad9d"/>
            <path id="Trazado_248047" data-name="Trazado 248047" d="M68.392,144.638a11.136,11.136,0,0,1-2.041-1.267,11.144,11.144,0,0,1-1.891-1.482,11.087,11.087,0,0,1,2.041,1.267,11.1,11.1,0,0,1,1.891,1.481" transform="translate(-32.078 -70.609)" fill="#e88b79"/>
            <path id="Trazado_248048" data-name="Trazado 248048" d="M67.3,149.08a9.746,9.746,0,0,1-1.945-1.129,9.75,9.75,0,0,1-1.8-1.347,9.757,9.757,0,0,1,1.946,1.129,9.753,9.753,0,0,1,1.8,1.347" transform="translate(-31.627 -72.955)" fill="#e88b79"/>
            <path id="Trazado_248049" data-name="Trazado 248049" d="M67.394,154.334a9.747,9.747,0,0,1-1.945-1.129,9.747,9.747,0,0,1-1.8-1.347,9.742,9.742,0,0,1,1.946,1.129,9.753,9.753,0,0,1,1.8,1.347" transform="translate(-31.673 -75.57)" fill="#e88b79"/>
            <path id="Trazado_248050" data-name="Trazado 248050" d="M197.873,86.219s-.007-.209-.011-.622-.006-1.032-.011-1.844c0-1.631-.011-4.047-.02-7.2l.041.041-111.91.081.122-.122c0,21.182.006,44.433.009,68.749,0,16.475,0,32.459,0,47.682l-.127-.127,111.91.055-.071.071c.015-9.776.026-17.464.034-22.711.008-2.62.014-4.63.019-5.989,0-.675.007-1.188.01-1.536s.01-.519.01-.519.007.175.01.519.006.861.01,1.536c0,1.359.011,3.369.019,5.989.008,5.248.019,12.935.033,22.711v.071h-.071l-111.91.056h-.127v-.127c0-15.223,0-31.208,0-47.682,0-24.316.006-47.568.009-68.749v-.122h.122l111.91.081h.041v.041c-.009,3.156-.016,5.572-.02,7.2q-.007,1.218-.011,1.844c0,.413-.011.622-.011.622" transform="translate(-42.714 -38.034)" fill="#263238"/>
            <path id="Trazado_248051" data-name="Trazado 248051" d="M308.735,145.168c-.072,0-.131-2.511-.131-5.607s.059-5.607.131-5.607.131,2.51.131,5.607-.058,5.607-.131,5.607" transform="translate(-153.576 -66.662)" fill="#263238"/>
            <path id="Trazado_248052" data-name="Trazado 248052" d="M208.449,420.319c0,.072-46.555.131-103.97.131-57.435,0-103.98-.058-103.98-.131s46.545-.131,103.98-.131c57.415,0,103.97.058,103.97.131" transform="translate(-0.248 -209.106)" fill="#263238"/>
          </g>
        </g>
        <g id="Grupo_157254" data-name="Grupo 157254">
          <g id="Grupo_157253" data-name="Grupo 157253" clip-path="url(#clip-path)">
            <path id="Trazado_248053" data-name="Trazado 248053" d="M274.21,5.568a2.881,2.881,0,0,0,1.739-2.651,2.707,2.707,0,1,0-5.4-.071,2.877,2.877,0,0,0,1.7,2.705c-4.163.591-4.013,5.111-4.013,5.111l9.832.129s.263-4.566-3.854-5.224" transform="translate(-133.485 0)" fill="#a7e446"/>
            <path id="Trazado_248054" data-name="Trazado 248054" d="M397.047,240.817h.934l2.038-2.84v-1.864s1.443-.088,1.273,2.352.014,1.82.014,1.82,3.065.012,3.32.278a31.417,31.417,0,0,1,.3,4.889,1.788,1.788,0,0,1-1.266,1.8,1.337,1.337,0,0,1-.33.044c-.765,0-4.67-.621-4.67-.621h-1.613Z" transform="translate(-197.59 -117.501)" fill="#a7e446"/>
            <path id="Trazado_248055" data-name="Trazado 248055" d="M391.726,244.458l.574,6.387h1.6v-6.258Z" transform="translate(-194.942 -121.654)" fill="#a7e446"/>
            <path id="Trazado_248056" data-name="Trazado 248056" d="M40.423,23.542a3.241,3.241,0,0,0-6.392.19,3.241,3.241,0,0,0-6.393-.134,4.374,4.374,0,0,0,.785,3.157,12.986,12.986,0,0,0,2.285,2.415c1.164,1.036,2.239,2.009,3.4,3.045,1.154-1.046,2.137-2.028,3.291-3.074a12.994,12.994,0,0,0,2.264-2.435,4.373,4.373,0,0,0,.758-3.163" transform="translate(-13.726 -10.414)" fill="#a7e446"/>
          </g>
        </g>
        <g id="Grupo_157259" data-name="Grupo 157259">
          <g id="Grupo_157258" data-name="Grupo 157258" clip-path="url(#clip-path)">
            <path id="Trazado_248057" data-name="Trazado 248057" d="M363.593,355.653c-1.116,1.594-3.286,1.066-4.292.093a8.109,8.109,0,0,1-1.818-3.728c-.884-3.073-1.775-6.3-1.118-9.426a5.241,5.241,0,0,1,1.2-2.563,2.737,2.737,0,0,1,2.593-.863,4,4,0,0,1,2.265,2.38,22.465,22.465,0,0,1,2.22,9.643,7.794,7.794,0,0,1-1.054,4.464" transform="translate(-177.232 -168.75)" fill="#fc4b52"/>
            <g id="Grupo_157257" data-name="Grupo 157257" transform="translate(178.906 170.345)" opacity="0.2">
              <g id="Grupo_157256" data-name="Grupo 157256">
                <g id="Grupo_157255" data-name="Grupo 157255" clip-path="url(#clip-path-9)">
                  <path id="Trazado_248058" data-name="Trazado 248058" d="M363.593,355.653c-1.116,1.594-3.286,1.066-4.292.093a8.109,8.109,0,0,1-1.818-3.728c-.884-3.073-1.775-6.3-1.118-9.426a5.241,5.241,0,0,1,1.2-2.563,2.737,2.737,0,0,1,2.593-.863,4,4,0,0,1,2.265,2.38,22.465,22.465,0,0,1,2.22,9.643,7.794,7.794,0,0,1-1.054,4.464" transform="translate(-356.138 -339.095)"/>
                </g>
              </g>
            </g>
            <path id="Trazado_248059" data-name="Trazado 248059" d="M353.164,387.237a9.673,9.673,0,0,0-6-.729,4.987,4.987,0,0,0-2.965,1.324,2.134,2.134,0,0,0-.031,2.96,2.842,2.842,0,0,0,1.869.474c1.587-.019,3.347-.3,4.615.657.723.545,1.2,1.45,2.069,1.718a2.044,2.044,0,0,0,2.249-1,3.494,3.494,0,0,0,.255-2.578,3.936,3.936,0,0,0-2.059-2.824" transform="translate(-170.984 -192.261)" fill="#fc4b52"/>
            <path id="Trazado_248060" data-name="Trazado 248060" d="M375.914,363.022a5.8,5.8,0,0,1-.9-5.339,10.293,10.293,0,0,1,3.162-4.586,17.021,17.021,0,0,1,5.662-3.341,6.037,6.037,0,0,1,2.546-.433,2.672,2.672,0,0,1,2.137,1.293c.6,1.136.024,2.515-.594,3.639a43.1,43.1,0,0,1-3.718,5.663,10.065,10.065,0,0,1-4.09,3.5c-1.7.65-3.464.573-4.364-.6" transform="translate(-186.487 -173.832)" fill="#fc4b52"/>
            <path id="Trazado_248061" data-name="Trazado 248061" d="M362.876,405.406a3.5,3.5,0,0,1-.1-.724c-.051-.527-.116-1.19-.192-1.977a28.479,28.479,0,0,0-.445-2.9,22.453,22.453,0,0,0-1.054-3.423,12.62,12.62,0,0,0-1.748-3.1,6.521,6.521,0,0,0-2.209-1.837,6.2,6.2,0,0,0-1.861-.58,3.472,3.472,0,0,1-.721-.1,3.4,3.4,0,0,1,.734-.012,5.641,5.641,0,0,1,1.941.505,6.507,6.507,0,0,1,2.33,1.853,12.312,12.312,0,0,1,1.812,3.159,20.908,20.908,0,0,1,1.046,3.478,24.508,24.508,0,0,1,.385,2.937c.063.839.087,1.52.1,1.989a3.378,3.378,0,0,1-.015.731" transform="translate(-176.439 -194.454)" fill="#263238"/>
            <path id="Trazado_248062" data-name="Trazado 248062" d="M367.189,384.527a1.432,1.432,0,0,1-.02-.336c0-.253,0-.571,0-.962,0-.834,0-2.042-.043-3.532-.074-2.981-.331-7.1-.826-11.621s-1.161-8.6-1.765-11.516c-.143-.732-.286-1.391-.421-1.967s-.239-1.077-.345-1.48l-.225-.934a1.422,1.422,0,0,1-.059-.332,1.436,1.436,0,0,1,.117.315l.279.921c.124.4.251.9.4,1.471s.309,1.232.466,1.962a109.162,109.162,0,0,1,1.855,11.527c.5,4.533.72,8.661.74,11.65.018,1.494-.014,2.7-.052,3.539-.024.39-.043.708-.059.96a1.4,1.4,0,0,1-.041.334" transform="translate(-180.888 -175.097)" fill="#263238"/>
            <path id="Trazado_248063" data-name="Trazado 248063" d="M370.806,378.977a6.435,6.435,0,0,1,.007-1c.037-.645.126-1.578.307-2.72a36.048,36.048,0,0,1,.885-3.964,35.091,35.091,0,0,1,1.658-4.69,25,25,0,0,1,4.867-7.579,12.352,12.352,0,0,1,1.145-1.064c.176-.149.331-.3.489-.414l.444-.306a6.489,6.489,0,0,1,.845-.542,29.954,29.954,0,0,0-2.771,2.472,26.334,26.334,0,0,0-4.746,7.552,37.444,37.444,0,0,0-1.667,4.647,40.341,40.341,0,0,0-.941,3.924c-.207,1.131-.328,2.054-.4,2.694a6.486,6.486,0,0,1-.123.995" transform="translate(-184.524 -177.507)" fill="#263238"/>
            <path id="Trazado_248064" data-name="Trazado 248064" d="M30.493,356.846a6.172,6.172,0,0,1,4.073,2.6,10.9,10.9,0,0,1,1.76,4.6c.529,3.162-.326,6.752-1.5,9.736-3.224-1.512-4.941-5.269-5.693-7.229-1.188-3.1-1.454-9.42,1.357-9.712" transform="translate(-14.076 -177.584)" fill="#a7e446"/>
            <path id="Trazado_248065" data-name="Trazado 248065" d="M50,390.749a5.265,5.265,0,0,1-.124-5.287,6.993,6.993,0,0,1,4.29-3.287,2.943,2.943,0,0,1,2.476.176,2.253,2.253,0,0,1,.818,2.131,4.565,4.565,0,0,1-1.014,2.144c-1.681,2.169-3.705,3.96-6.445,4.123" transform="translate(-24.498 -190.097)" fill="#a7e446"/>
            <path id="Trazado_248066" data-name="Trazado 248066" d="M48.849,404.114a2.436,2.436,0,0,1-.108-.665c-.045-.43-.1-1.053-.142-1.826a22.624,22.624,0,0,1,.369-6.042,11.328,11.328,0,0,1,2.746-5.381,7.431,7.431,0,0,1,1.427-1.171,2.068,2.068,0,0,1,.6-.3,15.651,15.651,0,0,0-1.844,1.647,11.88,11.88,0,0,0-2.582,5.287,26.153,26.153,0,0,0-.465,5.955,20.42,20.42,0,0,1,0,2.5" transform="translate(-24.159 -193.448)" fill="#263238"/>
            <path id="Trazado_248067" data-name="Trazado 248067" d="M34.169,366.393a6.535,6.535,0,0,1,.406,1.034c.241.673.572,1.652.968,2.866.793,2.428,1.834,5.8,2.891,9.552s1.929,7.173,2.52,9.658c.3,1.243.524,2.251.671,2.95a6.558,6.558,0,0,1,.193,1.094,6.561,6.561,0,0,1-.329-1.061c-.2-.751-.463-1.734-.781-2.921-.654-2.468-1.564-5.874-2.62-9.623s-2.057-7.128-2.788-9.574l-.859-2.9a6.565,6.565,0,0,1-.273-1.077" transform="translate(-17.002 -182.335)" fill="#263238"/>
            <path id="Trazado_248068" data-name="Trazado 248068" d="M30.565,398.368a12.321,12.321,0,0,0-8.8-7.014c-.976-.187-2.18-.16-2.722.673s-.078,1.951.507,2.756a10.526,10.526,0,0,0,11.025,3.855" transform="translate(-9.354 -194.71)" fill="#a7e446"/>
            <path id="Trazado_248069" data-name="Trazado 248069" d="M26.829,397.03a2.2,2.2,0,0,1,.642.065,5.269,5.269,0,0,1,.74.157,8.716,8.716,0,0,1,.962.289,12.94,12.94,0,0,1,2.371,1.105,13.853,13.853,0,0,1,4.575,4.43A12.96,12.96,0,0,1,37.3,405.41a8.673,8.673,0,0,1,.319.952,5.134,5.134,0,0,1,.181.734,2.238,2.238,0,0,1,.086.639c-.069.016-.245-.886-.822-2.23a14.482,14.482,0,0,0-1.223-2.249,14.64,14.64,0,0,0-4.471-4.329,14.453,14.453,0,0,0-2.287-1.149c-1.362-.534-2.269-.681-2.256-.749" transform="translate(-13.351 -197.577)" fill="#263238"/>
          </g>
        </g>
        <g id="Grupo_157261" data-name="Grupo 157261">
          <g id="Grupo_157260" data-name="Grupo 157260" clip-path="url(#clip-path)">
            <path id="Trazado_248070" data-name="Trazado 248070" d="M358.507,186.375a.635.635,0,0,1,.047.169,2.751,2.751,0,0,1,.039.51,3.873,3.873,0,0,1-.555,1.84,9.778,9.778,0,0,1-1.972,2.225l-2.777,2.621-.076.072-.08-.071-2.714-2.415a8.494,8.494,0,0,1-2.566-3.1,3.081,3.081,0,0,1,.067-2.585,3,3,0,0,1,1.966-1.5,2.72,2.72,0,0,1,2.257.533,2.9,2.9,0,0,1,1.108,1.841h-.216a2.926,2.926,0,0,1,2.028-2.31,2.666,2.666,0,0,1,2.344.426,2.781,2.781,0,0,1,.965,1.209,1.73,1.73,0,0,1,.135.53c-.018,0-.048-.185-.2-.5a2.827,2.827,0,0,0-.977-1.132,2.543,2.543,0,0,0-2.22-.36,2.747,2.747,0,0,0-1.864,2.171l-.105.728-.11-.727A2.68,2.68,0,0,0,352,184.866a2.483,2.483,0,0,0-2.059-.477,2.753,2.753,0,0,0-1.793,1.375,2.829,2.829,0,0,0-.051,2.37,8.343,8.343,0,0,0,2.491,3l2.7,2.43h-.156l2.8-2.591a9.954,9.954,0,0,0,1.983-2.153,3.963,3.963,0,0,0,.6-1.772c.028-.439-.03-.673-.012-.676" transform="translate(-172.984 -91.607)" fill="#263238"/>
            <path id="Trazado_248071" data-name="Trazado 248071" d="M340.43,172.041s.007.126.01.362.006.59.011,1.041c.006.919.014,2.257.024,3.975.012,3.442.03,8.4.052,14.514l-.1-.1,12.772-.019h.116v.116c0,1.916,0,3.965.006,6.07l-.207-.086,6.066-6.074.038-.037h.053l14,0h4.3l-.131.131c0-7.031.007-13.729.011-19.892l.12.12-26.723-.059-7.658-.033-2.043-.015-.529-.007c-.12,0-.184-.007-.184-.007s.055-.005.17-.007l.516-.007,2.018-.015,7.631-.033,26.8-.059h.12v.121c0,6.163.007,12.86.011,19.892v.13h-4.426l-14,0,.09-.037-6.074,6.066-.208.207V198c0-2.105,0-4.153.006-6.07l.116.116-12.772-.02h-.1v-.1c.022-6.137.04-11.117.052-14.573.011-1.708.019-3.039.024-3.953q.007-.664.011-1.023c0-.23.01-.342.01-.342" transform="translate(-169.367 -85.556)" fill="#263238"/>
            <path id="Trazado_248072" data-name="Trazado 248072" d="M377.815,190.743h-1.567v1.526h-.371v-1.526h-1.567v-.355h1.567v-1.534h.371v1.534h1.567Z" transform="translate(-186.275 -93.983)" fill="#263238"/>
            <path id="Trazado_248073" data-name="Trazado 248073" d="M384.184,186.506v5.774h-.421v-5.394h-1.411v-.379Z" transform="translate(-190.277 -92.815)" fill="#263238"/>
            <path id="Trazado_248074" data-name="Trazado 248074" d="M388.9,189.352c0-1.806.932-2.928,2.26-2.928s2.26,1.122,2.26,2.928-.932,2.928-2.26,2.928-2.26-1.122-2.26-2.928m4.1,0c0-1.609-.751-2.54-1.84-2.54s-1.839.932-1.839,2.54.751,2.54,1.839,2.54,1.84-.932,1.84-2.54" transform="translate(-193.538 -92.774)" fill="#263238"/>
            <path id="Trazado_248075" data-name="Trazado 248075" d="M399.706,189.352c0-1.806.931-2.928,2.26-2.928s2.26,1.122,2.26,2.928-.932,2.928-2.26,2.928-2.26-1.122-2.26-2.928m4.1,0c0-1.609-.75-2.54-1.84-2.54s-1.839.932-1.839,2.54.751,2.54,1.839,2.54,1.84-.932,1.84-2.54" transform="translate(-198.913 -92.774)" fill="#263238"/>
            <path id="Trazado_248076" data-name="Trazado 248076" d="M0,79.188H40.615v21.754H20.607l-6.639,6.639v-6.639H0Z" transform="translate(0 -39.408)" fill="#fc4b52"/>
            <path id="Trazado_248077" data-name="Trazado 248077" d="M13.7,94.845a3.767,3.767,0,0,1,.043.418c.021.292.05.676.085,1.154.066,1.015.158,2.426.269,4.144l-.1-.093,1.575-.091h.017c1.342.123,2.84.292,4.424.353a.953.953,0,0,0,.278-.028,1.121,1.121,0,0,0,.267-.069,1.374,1.374,0,0,0,.466-.31,1.712,1.712,0,0,0,.478-1.04,3.54,3.54,0,0,0-.019-.617q-.025-.321-.049-.645-.055-.649-.111-1.31c-.047-.507-.1-1.008-.157-1.5-.031-.245-.065-.491-.114-.721A1.517,1.517,0,0,0,21,94.33c-.01-.018,0-.016-.01-.027s-.019-.008-.037-.015a2.029,2.029,0,0,0-.331-.056,25.228,25.228,0,0,0-2.791,0l.114-.094a.446.446,0,0,1-.019.059l-.02.039a.208.208,0,0,1-.037.039.124.124,0,0,1-.093.027.148.148,0,0,1-.064-.022.1.1,0,0,1-.018-.016.208.208,0,0,1-.026-.033.13.13,0,0,1-.019-.044.4.4,0,0,1-.015-.057c-.012-.066-.016-.122-.022-.181l-.016-.339q0-.332,0-.657a10.68,10.68,0,0,0-.019-1.244,2.277,2.277,0,0,0-.352-1.063,1.04,1.04,0,0,0-.857-.445l.089-.105c.03.66.057,1.264.082,1.822v.029l-.015.023L14.642,94.82l-.012.019h-.02l-.677.012a1.8,1.8,0,0,1-.237-.005,1.036,1.036,0,0,1,.211-.028l.7-.06-.032.019,1.806-2.9-.014.052c-.033-.557-.069-1.16-.109-1.82l-.006-.1L16.346,90a1.24,1.24,0,0,1,1.053.518,2.478,2.478,0,0,1,.4,1.164,10.611,10.611,0,0,1,.031,1.271q0,.321.008.65l.017.326c.006.052.01.107.019.152a.133.133,0,0,0,.006.025s0,.009-.038.016-.059.058-.055.042c0,.017-.017-.035-.041-.032a.33.33,0,0,0-.048-.03l.007-.022.029-.091.085,0a24.635,24.635,0,0,1,2.828-.009,2.146,2.146,0,0,1,.387.067.683.683,0,0,1,.127.066.4.4,0,0,1,.081.13,1.686,1.686,0,0,1,.053.194c.054.25.087.5.12.745.063.5.113,1,.159,1.51q.056.662.11,1.313.025.325.049.647a3.724,3.724,0,0,1,.017.661,1.966,1.966,0,0,1-.555,1.2,1.635,1.635,0,0,1-.552.364,1.385,1.385,0,0,1-.32.082,1.194,1.194,0,0,1-.32.03c-1.618-.07-3.1-.25-4.446-.388h.017L14,100.665l-.1,0,0-.1c-.069-1.746-.127-3.179-.168-4.21-.014-.47-.026-.847-.034-1.135a2.507,2.507,0,0,1,0-.382" transform="translate(-6.813 -44.787)" fill="#fff"/>
            <path id="Trazado_248078" data-name="Trazado 248078" d="M8.447,98.852a3.273,3.273,0,0,1,.538-.035c.362-.013.906-.032,1.593-.039h.081l.006.084c.1,1.448.229,3.558.351,5.9l.011.207.007.131-.131.007-1.562.078-.117.006-.016-.116c-.253-1.808-.449-3.387-.581-4.495-.059-.51-.108-.939-.148-1.29a2.3,2.3,0,0,1-.032-.443,3.918,3.918,0,0,1,.1.5q.09.534.224,1.312c.184,1.108.432,2.633.688,4.382l-.133-.109,1.562-.085-.124.137-.011-.207c-.123-2.346-.217-4.458-.266-5.908l.087.084c-.643-.016-1.164-.042-1.534-.06a5.414,5.414,0,0,1-.595-.043" transform="translate(-4.201 -49.157)" fill="#fff"/>
            <path id="Trazado_248079" data-name="Trazado 248079" d="M40.781,99.51H39.067v1.669h-.406V99.51H36.947v-.388h1.715V97.444h.406v1.678h1.714Z" transform="translate(-18.387 -48.493)" fill="#fff"/>
            <path id="Trazado_248080" data-name="Trazado 248080" d="M47.747,94.876v6.316h-.46v-5.9H45.744v-.415Z" transform="translate(-22.765 -47.215)" fill="#fff"/>
            <path id="Trazado_248081" data-name="Trazado 248081" d="M52.908,97.989c0-1.976,1.02-3.2,2.472-3.2s2.472,1.227,2.472,3.2-1.019,3.2-2.472,3.2-2.472-1.227-2.472-3.2m4.484,0c0-1.759-.821-2.779-2.012-2.779s-2.012,1.02-2.012,2.779.821,2.779,2.012,2.779,2.012-1.019,2.012-2.779" transform="translate(-26.33 -47.17)" fill="#fff"/>
            <path id="Trazado_248082" data-name="Trazado 248082" d="M64.722,97.989c0-1.976,1.02-3.2,2.472-3.2s2.472,1.227,2.472,3.2-1.019,3.2-2.472,3.2-2.472-1.227-2.472-3.2m4.484,0c0-1.759-.821-2.779-2.012-2.779s-2.012,1.02-2.012,2.779.821,2.779,2.012,2.779,2.012-1.019,2.012-2.779" transform="translate(-32.209 -47.17)" fill="#fff"/>
          </g>
        </g>
      </g>
    </g>
  </g>
</svg>
