<svg xmlns="http://www.w3.org/2000/svg" width="122" height="122" viewBox="0 0 122 122">
  <g id="Grupo_155476" data-name="Grupo 155476" transform="translate(-388 -1405)">
    <g id="Elipse_5542" data-name="Elipse 5542" transform="translate(388 1405)" fill="#f5feff" stroke="#0082b2" stroke-width="2">
      <circle cx="61" cy="61" r="61" stroke="none"/>
      <circle cx="61" cy="61" r="60" fill="none"/>
    </g>
    <circle id="Elipse_5549" data-name="Elipse 5549" cx="43" cy="43" r="43" transform="translate(406 1423)" fill="#dff7f9"/>
    <g id="Grupo_157084" data-name="Grupo 157084" transform="translate(410.778 1407.86)">
      <g id="Grupo_157083" data-name="Grupo 157083" transform="translate(-6.86 19.14)">
        <path id="Trazado_247277" data-name="Trazado 247277" d="M28.887,47.725,22.909,27.49H9.01L16.1,51.5a6.653,6.653,0,0,0,6.393,4.771h0A6.66,6.66,0,0,0,28.887,47.725Z" transform="translate(5.832 20.317)" fill="#fc4b52"/>
        <path id="Trazado_247278" data-name="Trazado 247278" d="M13.677,14.99a11.787,11.787,0,1,0,0,23.573H35.044V14.99Z" transform="translate(-0.476 9.243)" fill="#fff"/>
        <path id="Trazado_247279" data-name="Trazado 247279" d="M52.69,72.1,19.48,49.282V25.709L52.69,2.89Z" transform="translate(15.107 -1.476)" fill="#a7e446"/>
        <path id="Trazado_247280" data-name="Trazado 247280" d="M42.146,14.68a6.494,6.494,0,0,0-1.056.057V39.328a6.379,6.379,0,0,0,1.056.057,12.352,12.352,0,1,0,0-24.7Z" transform="translate(34.25 8.969)" fill="#fc4b52"/>
        <rect id="Rectángulo_89818" data-name="Rectángulo 89818" width="7.543" height="69.211" transform="translate(67.797 1.414)" fill="#feca2e"/>
        <g id="Grupo_157082" data-name="Grupo 157082" transform="translate(0 0)">
          <path id="Trazado_247281" data-name="Trazado 247281" d="M29.318,10.75a1.455,1.455,0,0,0,.792-.245,1.425,1.425,0,0,0,.6-.905,1.428,1.428,0,0,0-2.206-1.433,1.528,1.528,0,0,0-.585.905,1.427,1.427,0,0,0,1.4,1.678Z" transform="translate(22.562 2.998)" fill="#12263f"/>
          <path id="Trazado_247282" data-name="Trazado 247282" d="M91.3,38.16A13.8,13.8,0,0,0,77.895,24.393V3.554A1.425,1.425,0,0,0,76.48,2.14H68.937a.069.069,0,0,0-.057.019c-.038,0-.075.019-.132.019a1.455,1.455,0,0,0-.547.189c-.019.019-.057.019-.094.038L55.3,11.192a1.416,1.416,0,0,0-.358,1.961,1.459,1.459,0,0,0,1.961.377L67.5,6.251V70.088l-30.381-20.9V27.109L50.7,17.774a1.42,1.42,0,0,0,.377-1.961,1.439,1.439,0,0,0-1.961-.358L35.293,24.94H14.341a13.2,13.2,0,0,0,0,26.4h.566L21.7,74.35a8.108,8.108,0,0,0,7.751,5.79A8.089,8.089,0,0,0,37.2,69.767L31.766,51.342h3.508L68.126,73.916a1.111,1.111,0,0,0,.151.075c.057.019.094.057.151.075a2,2,0,0,0,.358.075c.038,0,.075.019.132.019h7.543a1.425,1.425,0,0,0,1.414-1.414V51.908A13.772,13.772,0,0,0,91.3,38.16Zm-87.316,0A10.391,10.391,0,0,1,14.36,27.788H34.312V48.532H14.341A10.374,10.374,0,0,1,3.988,38.16ZM34.5,70.578A5.248,5.248,0,1,1,24.43,73.539l-6.563-22.2H28.824Zm40.565.773H70.351V4.969h4.715V71.351ZM77.895,49.1V27.2a10.954,10.954,0,0,1,0,21.895Z" transform="translate(-1.14 -2.14)" fill="#12263f"/>
        </g>
      </g>
    </g>
  </g>
</svg>
