<svg xmlns="http://www.w3.org/2000/svg" xmlns:xlink="http://www.w3.org/1999/xlink" width="400.001" height="609.637" viewBox="0 0 400.001 609.637">
  <defs>
    <clipPath id="clip-path">
      <rect id="Rectángulo_89993" data-name="Rectángulo 89993" width="400" height="414.334" fill="none"/>
    </clipPath>
    <clipPath id="clip-path-3">
      <rect id="Rectángulo_89968" data-name="Rectángulo 89968" width="43.865" height="27.616" fill="none"/>
    </clipPath>
    <clipPath id="clip-path-4">
      <rect id="Rectángulo_89969" data-name="Rectángulo 89969" width="3.893" height="3.845" fill="none"/>
    </clipPath>
    <clipPath id="clip-path-5">
      <rect id="Rectángulo_89970" data-name="Rectángulo 89970" width="43.621" height="28.838" fill="none"/>
    </clipPath>
    <clipPath id="clip-path-6">
      <rect id="Rectángulo_89971" data-name="Rectángulo 89971" width="3.9" height="3.931" fill="none"/>
    </clipPath>
    <clipPath id="clip-path-7">
      <rect id="Rectángulo_89972" data-name="Rectángulo 89972" width="49.765" height="3.586" fill="none"/>
    </clipPath>
    <clipPath id="clip-path-8">
      <rect id="Rectángulo_89976" data-name="Rectángulo 89976" width="125.277" height="124.643" fill="none"/>
    </clipPath>
    <clipPath id="clip-path-9">
      <rect id="Rectángulo_89984" data-name="Rectángulo 89984" width="97.423" height="93.25" fill="none"/>
    </clipPath>
    <clipPath id="clip-path-10">
      <rect id="Rectángulo_89987" data-name="Rectángulo 89987" width="24.976" height="25.283" fill="none"/>
    </clipPath>
    <clipPath id="clip-path-11">
      <rect id="Rectángulo_89991" data-name="Rectángulo 89991" width="13.042" height="43.119" fill="none"/>
    </clipPath>
  </defs>
  <g id="Grupo_157664" data-name="Grupo 157664" transform="translate(-1019.999 -7503.363)">
    <g id="Grupo_157330" data-name="Grupo 157330" transform="translate(2268.999 11897.863)">
      <rect id="Rectángulo_89998" data-name="Rectángulo 89998" width="5.001" height="194.385" transform="translate(-1048.159 -4394.499)" fill="#12263f"/>
      <rect id="Rectángulo_90103" data-name="Rectángulo 90103" width="5.001" height="194.385" transform="translate(-1048.159 -4014.572)" fill="#12263f"/>
      <rect id="Rectángulo_90068" data-name="Rectángulo 90068" width="5.001" height="194.385" transform="translate(-1054.841 -4204.535)" fill="#12263f"/>
      <rect id="Rectángulo_89999" data-name="Rectángulo 89999" width="5.001" height="194.72" transform="translate(-1249 -4394.5)" fill="#12263f"/>
      <rect id="Rectángulo_90128" data-name="Rectángulo 90128" width="5.001" height="194.72" transform="translate(-1249 -4014.573)" fill="#12263f"/>
      <rect id="Rectángulo_90044" data-name="Rectángulo 90044" width="5.001" height="194.72" transform="translate(-854 -4204.537)" fill="#12263f"/>
      <rect id="Rectángulo_90000" data-name="Rectángulo 90000" width="5.001" height="194.449" transform="translate(-854 -4394.499)" fill="#12263f"/>
      <rect id="Rectángulo_90090" data-name="Rectángulo 90090" width="5.001" height="194.449" transform="translate(-854 -4014.572)" fill="#12263f"/>
      <rect id="Rectángulo_90089" data-name="Rectángulo 90089" width="5.001" height="194.449" transform="translate(-1249 -4204.535)" fill="#12263f"/>
      <rect id="Rectángulo_90001" data-name="Rectángulo 90001" width="394.436" height="5.001" transform="translate(-1247.677 -4394.499)" fill="#12263f"/>
      <rect id="Rectángulo_90091" data-name="Rectángulo 90091" width="394.436" height="5.001" transform="translate(-1247.677 -4014.572)" fill="#12263f"/>
      <rect id="Rectángulo_90069" data-name="Rectángulo 90069" width="394.436" height="5.001" transform="translate(-1244.758 -4204.535)" fill="#12263f"/>
      <rect id="Rectángulo_90002" data-name="Rectángulo 90002" width="394.436" height="5.001" transform="translate(-1245.377 -4299.774)" fill="#12263f"/>
      <rect id="Rectángulo_90095" data-name="Rectángulo 90095" width="394.436" height="5.001" transform="translate(-1245.377 -3919.848)" fill="#12263f"/>
      <rect id="Rectángulo_90135" data-name="Rectángulo 90135" width="394.436" height="5.001" transform="translate(-1245.377 -3824.776)" fill="#12263f"/>
      <rect id="Rectángulo_90050" data-name="Rectángulo 90050" width="394.436" height="5.001" transform="translate(-1247.058 -4109.811)" fill="#12263f"/>
      <rect id="Rectángulo_90003" data-name="Rectángulo 90003" width="394.436" height="5.001" transform="translate(-1247.677 -4205.051)" fill="#12263f"/>
      <rect id="Rectángulo_90045" data-name="Rectángulo 90045" width="394.436" height="5.001" transform="translate(-1244.758 -4015.087)" fill="#12263f"/>
      <rect id="Rectángulo_90004" data-name="Rectángulo 90004" width="6.405" height="49.651" transform="translate(-1243.264 -4349.426)" fill="#a7e446"/>
      <rect id="Rectángulo_90127" data-name="Rectángulo 90127" width="6.405" height="49.651" transform="translate(-1243.264 -3969.5)" fill="#a7e446"/>
      <rect id="Rectángulo_90051" data-name="Rectángulo 90051" width="6.405" height="49.651" transform="translate(-861.14 -4159.463)" fill="#a7e446"/>
      <rect id="Rectángulo_90005" data-name="Rectángulo 90005" width="6.404" height="49.651" transform="translate(-1237.191 -4348.819) rotate(-7.288)" fill="#a7e446"/>
      <rect id="Rectángulo_90124" data-name="Rectángulo 90124" width="6.404" height="49.651" transform="translate(-1237.191 -3968.892) rotate(-7.288)" fill="#a7e446"/>
      <rect id="Rectángulo_90052" data-name="Rectángulo 90052" width="6.404" height="49.651" transform="translate(-867.107 -4109.605) rotate(-172.712)" fill="#a7e446"/>
      <rect id="Rectángulo_90006" data-name="Rectángulo 90006" width="49.651" height="4.819" transform="translate(-1224.571 -4304.593)" fill="#a7e446"/>
      <rect id="Rectángulo_90119" data-name="Rectángulo 90119" width="49.651" height="4.819" transform="translate(-1224.571 -3924.667)" fill="#a7e446"/>
      <rect id="Rectángulo_90053" data-name="Rectángulo 90053" width="49.651" height="4.819" transform="translate(-923.079 -4114.63)" fill="#a7e446"/>
      <rect id="Rectángulo_90007" data-name="Rectángulo 90007" width="49.651" height="4.819" transform="translate(-1219.558 -4314.334)" fill="#a7e446"/>
      <rect id="Rectángulo_90120" data-name="Rectángulo 90120" width="49.651" height="4.819" transform="translate(-1219.558 -3934.407)" fill="#a7e446"/>
      <rect id="Rectángulo_90055" data-name="Rectángulo 90055" width="49.651" height="4.819" transform="translate(-928.092 -4124.371)" fill="#a7e446"/>
      <rect id="Rectángulo_90008" data-name="Rectángulo 90008" width="49.651" height="4.819" transform="translate(-1214.745 -4319.269)" fill="#e0e0e0"/>
      <rect id="Rectángulo_90116" data-name="Rectángulo 90116" width="49.651" height="4.819" transform="translate(-1214.745 -3939.342)" fill="#e0e0e0"/>
      <rect id="Rectángulo_90056" data-name="Rectángulo 90056" width="49.651" height="4.819" transform="translate(-932.905 -4129.305)" fill="#e0e0e0"/>
      <rect id="Rectángulo_90009" data-name="Rectángulo 90009" width="69.304" height="4.819" transform="translate(-1224.571 -4309.4)" fill="#feca2e"/>
      <rect id="Rectángulo_90117" data-name="Rectángulo 90117" width="69.304" height="4.819" transform="translate(-1224.571 -3929.474)" fill="#feca2e"/>
      <rect id="Rectángulo_90054" data-name="Rectángulo 90054" width="69.304" height="4.819" transform="translate(-942.732 -4119.437)" fill="#feca2e"/>
      <rect id="Rectángulo_90010" data-name="Rectángulo 90010" width="101.924" height="78.613" transform="translate(-1151.324 -4283.663)" fill="#feca2e"/>
      <rect id="Rectángulo_90104" data-name="Rectángulo 90104" width="101.924" height="78.613" transform="translate(-1151.324 -3903.736)" fill="#feca2e"/>
      <rect id="Rectángulo_90057" data-name="Rectángulo 90057" width="101.924" height="78.613" transform="translate(-1048.598 -4093.699)" fill="#feca2e"/>
      <rect id="Rectángulo_90011" data-name="Rectángulo 90011" width="7.814" height="8.834" transform="translate(-1142.683 -4222.943)" fill="#fafafa"/>
      <rect id="Rectángulo_90129" data-name="Rectángulo 90129" width="7.814" height="8.834" transform="translate(-1142.683 -3843.017)" fill="#fafafa"/>
      <rect id="Rectángulo_90059" data-name="Rectángulo 90059" width="7.814" height="8.834" transform="translate(-963.13 -4032.98)" fill="#fafafa"/>
      <rect id="Rectángulo_90012" data-name="Rectángulo 90012" width="11.577" height="16.775" transform="translate(-1092.072 -4283.46)" fill="#ebebeb"/>
      <rect id="Rectángulo_90107" data-name="Rectángulo 90107" width="11.577" height="16.775" transform="translate(-1092.072 -3903.534)" fill="#ebebeb"/>
      <rect id="Rectángulo_90063" data-name="Rectángulo 90063" width="11.577" height="16.775" transform="translate(-1017.504 -4093.497)" fill="#ebebeb"/>
      <rect id="Rectángulo_90013" data-name="Rectángulo 90013" width="11.577" height="16.775" transform="translate(-1092.072 -4222.059)" fill="#ebebeb"/>
      <rect id="Rectángulo_90130" data-name="Rectángulo 90130" width="11.577" height="16.775" transform="translate(-1092.072 -3842.132)" fill="#ebebeb"/>
      <rect id="Rectángulo_90064" data-name="Rectángulo 90064" width="11.577" height="16.775" transform="translate(-1017.504 -4032.095)" fill="#ebebeb"/>
      <path id="Trazado_248268" data-name="Trazado 248268" d="M98.713,167.58c-.18,0-.326-17.29-.326-38.613s.146-38.618.326-38.618.324,17.286.324,38.618-.145,38.613-.324,38.613" transform="translate(-1224.597 -4372.089)" fill="#12263f"/>
      <path id="Trazado_248302" data-name="Trazado 248302" d="M98.713,167.58c-.18,0-.326-17.29-.326-38.613s.146-38.618.326-38.618.324,17.286.324,38.618-.145,38.613-.324,38.613" transform="translate(-1224.597 -3992.163)" fill="#12263f"/>
      <path id="Trazado_248285" data-name="Trazado 248285" d="M98.711,167.58c.18,0,.326-17.29.326-38.613s-.146-38.618-.326-38.618-.324,17.286-.324,38.618.145,38.613.324,38.613" transform="translate(-1070.826 -4182.126)" fill="#12263f"/>
      <rect id="Rectángulo_90014" data-name="Rectángulo 90014" width="101.924" height="78.613" transform="translate(-1038.215 -4378.6)" fill="#feca2e"/>
      <rect id="Rectángulo_90096" data-name="Rectángulo 90096" width="101.924" height="78.613" transform="translate(-1038.215 -3998.673)" fill="#feca2e"/>
      <rect id="Rectángulo_90070" data-name="Rectángulo 90070" width="101.924" height="78.613" transform="translate(-1161.708 -4188.637)" fill="#feca2e"/>
      <rect id="Rectángulo_90015" data-name="Rectángulo 90015" width="7.814" height="8.834" transform="translate(-1029.573 -4317.881)" fill="#fafafa"/>
      <rect id="Rectángulo_90102" data-name="Rectángulo 90102" width="7.814" height="8.834" transform="translate(-1029.573 -3937.954)" fill="#fafafa"/>
      <rect id="Rectángulo_90072" data-name="Rectángulo 90072" width="7.814" height="8.834" transform="translate(-1076.24 -4127.917)" fill="#fafafa"/>
      <rect id="Rectángulo_90016" data-name="Rectángulo 90016" width="11.577" height="16.775" transform="translate(-978.962 -4378.398)" fill="#ebebeb"/>
      <rect id="Rectángulo_90097" data-name="Rectángulo 90097" width="11.577" height="16.775" transform="translate(-978.962 -3998.471)" fill="#ebebeb"/>
      <rect id="Rectángulo_90078" data-name="Rectángulo 90078" width="11.577" height="16.775" transform="translate(-1130.613 -4188.435)" fill="#ebebeb"/>
      <rect id="Rectángulo_90017" data-name="Rectángulo 90017" width="11.577" height="16.775" transform="translate(-978.962 -4316.996)" fill="#ebebeb"/>
      <rect id="Rectángulo_90098" data-name="Rectángulo 90098" width="11.577" height="16.775" transform="translate(-978.962 -3937.069)" fill="#ebebeb"/>
      <rect id="Rectángulo_90079" data-name="Rectángulo 90079" width="11.577" height="16.775" transform="translate(-1130.613 -4127.033)" fill="#ebebeb"/>
      <path id="Trazado_248269" data-name="Trazado 248269" d="M189.344,91.51c-.18,0-.325-17.29-.325-38.613s.145-38.618.325-38.618.324,17.286.324,38.618-.145,38.613-.324,38.613" transform="translate(-1202.118 -4390.957)" fill="#12263f"/>
      <path id="Trazado_248297" data-name="Trazado 248297" d="M189.344,91.51c-.18,0-.325-17.29-.325-38.613s.145-38.618.325-38.618.324,17.286.324,38.618-.145,38.613-.324,38.613" transform="translate(-1202.118 -4011.03)" fill="#12263f"/>
      <path id="Trazado_248290" data-name="Trazado 248290" d="M189.343,91.51c.18,0,.325-17.29.325-38.613s-.145-38.618-.325-38.618-.324,17.286-.324,38.618.145,38.613.324,38.613" transform="translate(-1274.568 -4200.993)" fill="#12263f"/>
      <rect id="Rectángulo_90018" data-name="Rectángulo 90018" width="73.581" height="78.613" transform="translate(-931.936 -4378.6)" fill="#a7e446"/>
      <rect id="Rectángulo_90092" data-name="Rectángulo 90092" width="73.581" height="78.613" transform="translate(-931.936 -3998.673)" fill="#a7e446"/>
      <rect id="Rectángulo_90081" data-name="Rectángulo 90081" width="73.581" height="78.613" transform="translate(-1239.644 -4188.637)" fill="#a7e446"/>
      <rect id="Rectángulo_90019" data-name="Rectángulo 90019" width="7.814" height="8.834" transform="translate(-923.184 -4312.754)" fill="#fafafa"/>
      <rect id="Rectángulo_90099" data-name="Rectángulo 90099" width="7.814" height="8.834" transform="translate(-923.184 -3932.827)" fill="#fafafa"/>
      <rect id="Rectángulo_90082" data-name="Rectángulo 90082" width="7.814" height="8.834" transform="translate(-1182.629 -4122.791)" fill="#fafafa"/>
      <rect id="Rectángulo_90020" data-name="Rectángulo 90020" width="11.577" height="16.775" transform="translate(-891.012 -4378.398)" fill="#ebebeb"/>
      <rect id="Rectángulo_90093" data-name="Rectángulo 90093" width="11.577" height="16.775" transform="translate(-891.012 -3998.471)" fill="#ebebeb"/>
      <rect id="Rectángulo_90085" data-name="Rectángulo 90085" width="11.577" height="16.775" transform="translate(-1218.563 -4188.435)" fill="#ebebeb"/>
      <rect id="Rectángulo_90021" data-name="Rectángulo 90021" width="11.577" height="16.775" transform="translate(-891.012 -4316.996)" fill="#ebebeb"/>
      <rect id="Rectángulo_90094" data-name="Rectángulo 90094" width="11.577" height="16.775" transform="translate(-891.012 -3937.069)" fill="#ebebeb"/>
      <rect id="Rectángulo_90086" data-name="Rectángulo 90086" width="11.577" height="16.775" transform="translate(-1218.563 -4127.033)" fill="#ebebeb"/>
      <path id="Trazado_248270" data-name="Trazado 248270" d="M274.175,91.293c-.18,0-.324-17.29-.324-38.613s.145-38.618.324-38.618.324,17.286.324,38.618-.145,38.613-.324,38.613" transform="translate(-1181.078 -4391.011)" fill="#12263f"/>
      <path id="Trazado_248296" data-name="Trazado 248296" d="M274.175,91.293c-.18,0-.324-17.29-.324-38.613s.145-38.618.324-38.618.324,17.286.324,38.618-.145,38.613-.324,38.613" transform="translate(-1181.078 -4011.084)" fill="#12263f"/>
      <path id="Trazado_248294" data-name="Trazado 248294" d="M274.176,91.293c.18,0,.324-17.29.324-38.613s-.145-38.618-.324-38.618-.324,17.286-.324,38.618.145,38.613.324,38.613" transform="translate(-1465.272 -4201.047)" fill="#12263f"/>
      <rect id="Rectángulo_90022" data-name="Rectángulo 90022" width="59.434" height="45.84" transform="translate(-1035.03 -4250.822)" fill="#a7e446"/>
      <rect id="Rectángulo_90111" data-name="Rectángulo 90111" width="59.434" height="45.84" transform="translate(-1035.03 -3870.895)" fill="#a7e446"/>
      <rect id="Rectángulo_90071" data-name="Rectángulo 90071" width="59.434" height="45.84" transform="translate(-1122.403 -4060.858)" fill="#a7e446"/>
      <rect id="Rectángulo_90023" data-name="Rectángulo 90023" width="4.557" height="5.151" transform="translate(-1029.99 -4215.416)" fill="#fafafa"/>
      <rect id="Rectángulo_90131" data-name="Rectángulo 90131" width="4.557" height="5.151" transform="translate(-1029.99 -3835.489)" fill="#fafafa"/>
      <rect id="Rectángulo_90073" data-name="Rectángulo 90073" width="4.557" height="5.151" transform="translate(-1072.565 -4025.452)" fill="#fafafa"/>
      <rect id="Rectángulo_90024" data-name="Rectángulo 90024" width="6.751" height="9.781" transform="translate(-1000.478 -4250.704)" fill="#ebebeb"/>
      <rect id="Rectángulo_90112" data-name="Rectángulo 90112" width="6.751" height="9.781" transform="translate(-1000.478 -3870.777)" fill="#ebebeb"/>
      <rect id="Rectángulo_90075" data-name="Rectángulo 90075" width="6.751" height="9.781" transform="translate(-1104.271 -4060.74)" fill="#ebebeb"/>
      <rect id="Rectángulo_90025" data-name="Rectángulo 90025" width="6.751" height="9.781" transform="translate(-1000.478 -4214.899)" fill="#ebebeb"/>
      <rect id="Rectángulo_90132" data-name="Rectángulo 90132" width="6.751" height="9.781" transform="translate(-1000.478 -3834.972)" fill="#ebebeb"/>
      <rect id="Rectángulo_90076" data-name="Rectángulo 90076" width="6.751" height="9.781" transform="translate(-1104.271 -4024.936)" fill="#ebebeb"/>
      <path id="Trazado_248271" data-name="Trazado 248271" d="M183.4,161.056c-.18,0-.324-10.082-.324-22.516s.145-22.518.324-22.518.325,10.079.325,22.518-.145,22.516-.325,22.516" transform="translate(-1203.593 -4365.722)" fill="#12263f"/>
      <path id="Trazado_248299" data-name="Trazado 248299" d="M183.4,161.056c-.18,0-.324-10.082-.324-22.516s.145-22.518.324-22.518.325,10.079.325,22.518-.145,22.516-.325,22.516" transform="translate(-1203.593 -3985.795)" fill="#12263f"/>
      <path id="Trazado_248289" data-name="Trazado 248289" d="M183.4,161.056c.18,0,.324-10.082.324-22.516s-.145-22.518-.324-22.518-.325,10.079-.325,22.518.145,22.516.325,22.516" transform="translate(-1261.201 -4175.759)" fill="#12263f"/>
      <rect id="Rectángulo_90026" data-name="Rectángulo 90026" width="59.434" height="45.84" transform="translate(-918.835 -4250.822)" fill="#a7e446"/>
      <rect id="Rectángulo_90113" data-name="Rectángulo 90113" width="59.434" height="45.84" transform="translate(-918.835 -3870.895)" fill="#a7e446"/>
      <rect id="Rectángulo_90083" data-name="Rectángulo 90083" width="59.434" height="45.84" transform="translate(-1238.598 -4060.858)" fill="#a7e446"/>
      <rect id="Rectángulo_90027" data-name="Rectángulo 90027" width="4.557" height="5.151" transform="translate(-913.795 -4215.416)" fill="#fafafa"/>
      <rect id="Rectángulo_90133" data-name="Rectángulo 90133" width="4.557" height="5.151" transform="translate(-913.795 -3835.489)" fill="#fafafa"/>
      <rect id="Rectángulo_90084" data-name="Rectángulo 90084" width="4.557" height="5.151" transform="translate(-1188.76 -4025.452)" fill="#fafafa"/>
      <rect id="Rectángulo_90028" data-name="Rectángulo 90028" width="6.751" height="9.781" transform="translate(-884.283 -4250.704)" fill="#ebebeb"/>
      <rect id="Rectángulo_90114" data-name="Rectángulo 90114" width="6.751" height="9.781" transform="translate(-884.283 -3870.777)" fill="#ebebeb"/>
      <rect id="Rectángulo_90087" data-name="Rectángulo 90087" width="6.751" height="9.781" transform="translate(-1220.466 -4060.74)" fill="#ebebeb"/>
      <rect id="Rectángulo_90029" data-name="Rectángulo 90029" width="6.751" height="9.781" transform="translate(-884.283 -4214.899)" fill="#ebebeb"/>
      <rect id="Rectángulo_90134" data-name="Rectángulo 90134" width="6.751" height="9.781" transform="translate(-884.283 -3834.972)" fill="#ebebeb"/>
      <rect id="Rectángulo_90088" data-name="Rectángulo 90088" width="6.751" height="9.781" transform="translate(-1220.466 -4024.936)" fill="#ebebeb"/>
      <path id="Trazado_248272" data-name="Trazado 248272" d="M276.5,161.056c-.18,0-.324-10.082-.324-22.516s.145-22.518.324-22.518.324,10.079.324,22.518-.145,22.516-.324,22.516" transform="translate(-1180.501 -4365.722)" fill="#12263f"/>
      <path id="Trazado_248300" data-name="Trazado 248300" d="M276.5,161.056c-.18,0-.324-10.082-.324-22.516s.145-22.518.324-22.518.324,10.079.324,22.518-.145,22.516-.324,22.516" transform="translate(-1180.501 -3985.795)" fill="#12263f"/>
      <path id="Trazado_248295" data-name="Trazado 248295" d="M276.5,161.056c.18,0,.324-10.082.324-22.516s-.145-22.518-.324-22.518-.324,10.079-.324,22.518.145,22.516.324,22.516" transform="translate(-1470.501 -4175.759)" fill="#12263f"/>
      <rect id="Rectángulo_90030" data-name="Rectángulo 90030" width="107.108" height="28.419" transform="translate(-1155.267 -4328.66)" fill="#a7e446"/>
      <rect id="Rectángulo_90105" data-name="Rectángulo 90105" width="107.108" height="28.419" transform="translate(-1155.267 -3948.733)" fill="#a7e446"/>
      <rect id="Rectángulo_90058" data-name="Rectángulo 90058" width="107.108" height="28.419" transform="translate(-1049.84 -4138.697)" fill="#a7e446"/>
      <path id="Trazado_248273" data-name="Trazado 248273" d="M98.014,81.593c-.18,0-.324-6.415-.324-14.326s.145-14.326.324-14.326.324,6.412.324,14.326-.145,14.326-.324,14.326" transform="translate(-1224.77 -4381.368)" fill="#12263f"/>
      <path id="Trazado_248303" data-name="Trazado 248303" d="M98.014,81.593c-.18,0-.324-6.415-.324-14.326s.145-14.326.324-14.326.324,6.412.324,14.326-.145,14.326-.324,14.326" transform="translate(-1224.77 -4001.441)" fill="#12263f"/>
      <path id="Trazado_248286" data-name="Trazado 248286" d="M98.014,81.593c.18,0,.324-6.415.324-14.326s-.145-14.326-.324-14.326-.324,6.412-.324,14.326.145,14.326.324,14.326" transform="translate(-1069.257 -4191.404)" fill="#12263f"/>
      <rect id="Rectángulo_90031" data-name="Rectángulo 90031" width="10.466" height="13.977" transform="translate(-1092.594 -4328.659)" fill="#ebebeb"/>
      <rect id="Rectángulo_90108" data-name="Rectángulo 90108" width="10.466" height="13.977" transform="translate(-1092.594 -3948.732)" fill="#ebebeb"/>
      <rect id="Rectángulo_90065" data-name="Rectángulo 90065" width="10.466" height="13.977" transform="translate(-1015.871 -4138.695)" fill="#ebebeb"/>
      <rect id="Rectángulo_90032" data-name="Rectángulo 90032" width="86.24" height="22.881" transform="translate(-1242.866 -4227.722)" fill="#feca2e"/>
      <rect id="Rectángulo_90125" data-name="Rectángulo 90125" width="86.24" height="22.881" transform="translate(-1242.866 -3847.795)" fill="#feca2e"/>
      <rect id="Rectángulo_90046" data-name="Rectángulo 90046" width="86.24" height="22.881" transform="translate(-941.373 -4037.759)" fill="#feca2e"/>
      <path id="Trazado_248274" data-name="Trazado 248274" d="M23.373,157c-.18,0-.324-5.164-.324-11.534s.145-11.536.324-11.536.324,5.163.324,11.536S23.553,157,23.373,157" transform="translate(-1243.283 -4361.28)" fill="#12263f"/>
      <path id="Trazado_248309" data-name="Trazado 248309" d="M23.373,157c-.18,0-.324-5.164-.324-11.534s.145-11.536.324-11.536.324,5.163.324,11.536S23.553,157,23.373,157" transform="translate(-1243.283 -3981.353)" fill="#12263f"/>
      <path id="Trazado_248282" data-name="Trazado 248282" d="M23.373,157c.18,0,.324-5.164.324-11.534s-.145-11.536-.324-11.536-.324,5.163-.324,11.536S23.194,157,23.373,157" transform="translate(-901.463 -4171.316)" fill="#12263f"/>
      <rect id="Rectángulo_90033" data-name="Rectángulo 90033" width="8.427" height="11.253" transform="translate(-1192.402 -4227.535)" fill="#ebebeb"/>
      <rect id="Rectángulo_90126" data-name="Rectángulo 90126" width="8.427" height="11.253" transform="translate(-1192.402 -3847.608)" fill="#ebebeb"/>
      <rect id="Rectángulo_90048" data-name="Rectángulo 90048" width="8.427" height="11.253" transform="translate(-914.023 -4037.572)" fill="#ebebeb"/>
      <rect id="Rectángulo_90034" data-name="Rectángulo 90034" width="76.049" height="20.178" transform="translate(-1233.889 -4247.856)" fill="#a7e446"/>
      <rect id="Rectángulo_90118" data-name="Rectángulo 90118" width="76.049" height="20.178" transform="translate(-1233.889 -3867.93)" fill="#a7e446"/>
      <rect id="Rectángulo_90047" data-name="Rectángulo 90047" width="76.049" height="20.178" transform="translate(-940.158 -4057.893)" fill="#a7e446"/>
      <path id="Trazado_248275" data-name="Trazado 248275" d="M28.392,137.975c-.18,0-.324-4.554-.324-10.171s.145-10.173.324-10.173.324,4.554.324,10.173-.145,10.171-.324,10.171" transform="translate(-1242.038 -4365.323)" fill="#12263f"/>
      <path id="Trazado_248308" data-name="Trazado 248308" d="M28.392,137.975c-.18,0-.324-4.554-.324-10.171s.145-10.173.324-10.173.324,4.554.324,10.173-.145,10.171-.324,10.171" transform="translate(-1242.038 -3985.396)" fill="#12263f"/>
      <path id="Trazado_248283" data-name="Trazado 248283" d="M28.392,137.975c.18,0,.324-4.554.324-10.171s-.145-10.173-.324-10.173-.324,4.554-.324,10.173.145,10.171.324,10.171" transform="translate(-912.745 -4175.359)" fill="#12263f"/>
      <rect id="Rectángulo_90035" data-name="Rectángulo 90035" width="7.432" height="9.924" transform="translate(-1189.391 -4247.858)" fill="#ebebeb"/>
      <rect id="Rectángulo_90122" data-name="Rectángulo 90122" width="7.432" height="9.924" transform="translate(-1189.391 -3867.931)" fill="#ebebeb"/>
      <rect id="Rectángulo_90049" data-name="Rectángulo 90049" width="7.432" height="9.924" transform="translate(-916.04 -4057.895)" fill="#ebebeb"/>
      <rect id="Rectángulo_90036" data-name="Rectángulo 90036" width="76.048" height="20.178" transform="translate(-1031.752 -4270.949)" fill="#feca2e"/>
      <rect id="Rectángulo_90100" data-name="Rectángulo 90100" width="76.048" height="20.178" transform="translate(-1031.752 -3891.022)" fill="#feca2e"/>
      <rect id="Rectángulo_90074" data-name="Rectángulo 90074" width="76.049" height="20.178" transform="translate(-1142.295 -4080.985)" fill="#feca2e"/>
      <path id="Trazado_248276" data-name="Trazado 248276" d="M190.358,119.473c-.18,0-.324-4.554-.324-10.171s.145-10.173.324-10.173.324,4.554.324,10.173-.145,10.171-.324,10.171" transform="translate(-1201.867 -4369.912)" fill="#12263f"/>
      <path id="Trazado_248298" data-name="Trazado 248298" d="M190.358,119.473c-.18,0-.324-4.554-.324-10.171s.145-10.173.324-10.173.324,4.554.324,10.173-.145,10.171-.324,10.171" transform="translate(-1201.867 -3989.985)" fill="#12263f"/>
      <path id="Trazado_248291" data-name="Trazado 248291" d="M190.358,119.473c.18,0,.324-4.554.324-10.171s-.145-10.173-.324-10.173-.324,4.554-.324,10.173.145,10.171.324,10.171" transform="translate(-1276.849 -4179.949)" fill="#12263f"/>
      <rect id="Rectángulo_90037" data-name="Rectángulo 90037" width="7.432" height="9.924" transform="translate(-987.254 -4270.949)" fill="#ebebeb"/>
      <rect id="Rectángulo_90101" data-name="Rectángulo 90101" width="7.432" height="9.924" transform="translate(-987.254 -3891.022)" fill="#ebebeb"/>
      <rect id="Rectángulo_90077" data-name="Rectángulo 90077" width="7.432" height="9.924" transform="translate(-1118.177 -4080.985)" fill="#ebebeb"/>
      <rect id="Rectángulo_90038" data-name="Rectángulo 90038" width="39.101" height="27.229" transform="translate(-1212.272 -4346.613)" fill="#a7e446"/>
      <rect id="Rectángulo_90121" data-name="Rectángulo 90121" width="39.101" height="27.229" transform="translate(-1212.272 -3966.686)" fill="#a7e446"/>
      <rect id="Rectángulo_90060" data-name="Rectángulo 90060" width="39.101" height="27.229" transform="translate(-924.828 -4156.649)" fill="#a7e446"/>
      <path id="Trazado_248277" data-name="Trazado 248277" d="M45.158,65.515c-.18,0-.324-6.064-.324-13.544s.145-13.546.324-13.546.324,6.064.324,13.546-.145,13.544-.324,13.544" transform="translate(-1237.88 -4384.968)" fill="#12263f"/>
      <path id="Trazado_248305" data-name="Trazado 248305" d="M45.158,65.515c-.18,0-.324-6.064-.324-13.544s.145-13.546.324-13.546.324,6.064.324,13.546-.145,13.544-.324,13.544" transform="translate(-1237.88 -4005.042)" fill="#12263f"/>
      <path id="Trazado_248284" data-name="Trazado 248284" d="M45.158,65.515c.18,0,.324-6.064.324-13.544s-.145-13.546-.324-13.546-.324,6.064-.324,13.546.145,13.544.324,13.544" transform="translate(-950.436 -4195.005)" fill="#12263f"/>
      <path id="Trazado_248278" data-name="Trazado 248278" d="M50,38.369c.14,0,0,8.686,0,8.686h9.787V38.369Z" transform="translate(-1236.599 -4384.982)" fill="#ebebeb"/>
      <path id="Trazado_248304" data-name="Trazado 248304" d="M50,38.369c.14,0,0,8.686,0,8.686h9.787V38.369Z" transform="translate(-1236.599 -4005.055)" fill="#ebebeb"/>
      <path id="Trazado_248287" data-name="Trazado 248287" d="M59.785,38.369c-.14,0,0,8.686,0,8.686H50V38.369Z" transform="translate(-971.183 -4195.019)" fill="#ebebeb"/>
      <rect id="Rectángulo_90039" data-name="Rectángulo 90039" width="39.101" height="27.229" transform="translate(-967.045 -4232.348)" fill="#a7e446"/>
      <rect id="Rectángulo_90123" data-name="Rectángulo 90123" width="39.101" height="27.229" transform="translate(-967.045 -3852.421)" fill="#a7e446"/>
      <rect id="Rectángulo_90080" data-name="Rectángulo 90080" width="39.101" height="27.229" transform="translate(-1170.055 -4042.384)" fill="#a7e446"/>
      <path id="Trazado_248279" data-name="Trazado 248279" d="M241.65,157.072c-.18,0-.324-6.064-.324-13.544s.145-13.546.324-13.546.324,6.063.324,13.546-.145,13.544-.324,13.544" transform="translate(-1189.145 -4362.26)" fill="#12263f"/>
      <path id="Trazado_248306" data-name="Trazado 248306" d="M241.65,157.072c-.18,0-.324-6.064-.324-13.544s.145-13.546.324-13.546.324,6.063.324,13.546-.145,13.544-.324,13.544" transform="translate(-1189.145 -3982.333)" fill="#12263f"/>
      <path id="Trazado_248292" data-name="Trazado 248292" d="M241.65,157.072c.18,0,.324-6.064.324-13.544s-.145-13.546-.324-13.546-.324,6.063-.324,13.546.145,13.544.324,13.544" transform="translate(-1392.155 -4172.296)" fill="#12263f"/>
      <path id="Trazado_248280" data-name="Trazado 248280" d="M246.49,129.926c.14,0,0,8.686,0,8.686h9.787v-8.686Z" transform="translate(-1187.864 -4362.273)" fill="#ebebeb"/>
      <path id="Trazado_248307" data-name="Trazado 248307" d="M246.49,129.926c.14,0,0,8.686,0,8.686h9.787v-8.686Z" transform="translate(-1187.864 -3982.347)" fill="#ebebeb"/>
      <path id="Trazado_248293" data-name="Trazado 248293" d="M256.277,129.926c-.14,0,0,8.686,0,8.686H246.49v-8.686Z" transform="translate(-1412.902 -4172.31)" fill="#ebebeb"/>
      <rect id="Rectángulo_90040" data-name="Rectángulo 90040" width="59.718" height="46.06" transform="translate(-1119.048 -4375.164)" fill="#feca2e"/>
      <rect id="Rectángulo_90106" data-name="Rectángulo 90106" width="59.718" height="46.06" transform="translate(-1119.048 -3995.237)" fill="#feca2e"/>
      <rect id="Rectángulo_90061" data-name="Rectángulo 90061" width="59.718" height="46.06" transform="translate(-1038.669 -4185.201)" fill="#feca2e"/>
      <rect id="Rectángulo_90041" data-name="Rectángulo 90041" width="4.578" height="5.176" transform="translate(-1113.984 -4339.588)" fill="#fafafa"/>
      <rect id="Rectángulo_90115" data-name="Rectángulo 90115" width="4.578" height="5.176" transform="translate(-1113.984 -3959.661)" fill="#fafafa"/>
      <rect id="Rectángulo_90062" data-name="Rectángulo 90062" width="4.578" height="5.176" transform="translate(-988.593 -4149.625)" fill="#fafafa"/>
      <rect id="Rectángulo_90042" data-name="Rectángulo 90042" width="6.783" height="9.828" transform="translate(-1084.33 -4375.045)" fill="#ebebeb"/>
      <rect id="Rectángulo_90109" data-name="Rectángulo 90109" width="6.783" height="9.828" transform="translate(-1084.33 -3995.119)" fill="#ebebeb"/>
      <rect id="Rectángulo_90067" data-name="Rectángulo 90067" width="6.783" height="9.828" transform="translate(-1020.451 -4185.082)" fill="#ebebeb"/>
      <rect id="Rectángulo_90043" data-name="Rectángulo 90043" width="6.783" height="9.828" transform="translate(-1084.33 -4339.07)" fill="#ebebeb"/>
      <rect id="Rectángulo_90110" data-name="Rectángulo 90110" width="6.783" height="9.828" transform="translate(-1084.33 -3959.143)" fill="#ebebeb"/>
      <rect id="Rectángulo_90066" data-name="Rectángulo 90066" width="6.783" height="9.828" transform="translate(-1020.451 -4149.106)" fill="#ebebeb"/>
      <path id="Trazado_248281" data-name="Trazado 248281" d="M116.134,61.645c-.18,0-.324-10.13-.324-22.624s.145-22.625.324-22.625.324,10.128.324,22.625-.145,22.624-.324,22.624" transform="translate(-1220.276 -4390.432)" fill="#12263f"/>
      <path id="Trazado_248301" data-name="Trazado 248301" d="M116.134,61.645c-.18,0-.324-10.13-.324-22.624s.145-22.625.324-22.625.324,10.128.324,22.625-.145,22.624-.324,22.624" transform="translate(-1220.276 -4010.505)" fill="#12263f"/>
      <path id="Trazado_248288" data-name="Trazado 248288" d="M116.134,61.645c.18,0,.324-10.13.324-22.624s-.145-22.625-.324-22.625-.324,10.128-.324,22.625.145,22.624.324,22.624" transform="translate(-1109.992 -4200.469)" fill="#12263f"/>
    </g>
    <g id="Grupo_157329" data-name="Grupo 157329" transform="translate(1020 7698.667)">
      <g id="Grupo_157328" data-name="Grupo 157328" clip-path="url(#clip-path)">
        <g id="Grupo_157327" data-name="Grupo 157327">
          <g id="Grupo_157326" data-name="Grupo 157326" clip-path="url(#clip-path)">
            <path id="Trazado_248187" data-name="Trazado 248187" d="M268.852,23.081l2.328,46.211a14.217,14.217,0,1,1-28.391,1.538c-.243-4.4-.417-8-.417-8s-11.165-.371-12.637-11.444c-.851-6.4-1.51-21.065-1.917-32.317A14.6,14.6,0,0,1,240.534,3.995l6.618-.818a20.523,20.523,0,0,1,21.7,19.9" transform="translate(28.16 0.431)" fill="#ffc09d"/>
            <path id="Trazado_248188" data-name="Trazado 248188" d="M240.77,56.347a26.471,26.471,0,0,0,13.75-6.031s-2.556,8.5-13.608,8.855Z" transform="translate(29.763 6.915)" fill="#ff9b6c"/>
            <path id="Trazado_248189" data-name="Trazado 248189" d="M230.787,26.484c.219.182,1.3-.852,2.981-1.056,1.68-.227,3.02.5,3.178.265.079-.1-.163-.452-.749-.781a4.271,4.271,0,0,0-2.574-.467,4.127,4.127,0,0,0-2.342,1.1c-.47.466-.6.861-.493.942" transform="translate(28.524 3.354)" fill="#12263f"/>
            <path id="Trazado_248190" data-name="Trazado 248190" d="M244.7,28.9a1.583,1.583,0,0,0,1.7,1.413,1.519,1.519,0,0,0,1.44-1.628,1.583,1.583,0,0,0-1.7-1.413A1.521,1.521,0,0,0,244.7,28.9" transform="translate(30.248 3.748)" fill="#12263f"/>
            <path id="Trazado_248191" data-name="Trazado 248191" d="M231.755,30.471a1.583,1.583,0,0,0,1.7,1.412,1.519,1.519,0,0,0,1.44-1.628,1.583,1.583,0,0,0-1.7-1.413,1.521,1.521,0,0,0-1.442,1.629" transform="translate(28.648 3.963)" fill="#12263f"/>
            <path id="Trazado_248192" data-name="Trazado 248192" d="M245.281,24.921c.219.182,1.3-.852,2.982-1.056,1.679-.227,3.02.5,3.178.265.079-.1-.162-.452-.749-.781a4.277,4.277,0,0,0-2.575-.467,4.127,4.127,0,0,0-2.342,1.1c-.467.465-.6.861-.493.942" transform="translate(30.316 3.14)" fill="#12263f"/>
            <path id="Trazado_248193" data-name="Trazado 248193" d="M241.86,38.7a11.112,11.112,0,0,0-2.794-.162c-.436.008-.853-.028-.961-.316a2.248,2.248,0,0,1,.131-1.325q.416-1.655.872-3.471c1.2-4.935,2.007-8.973,1.81-9.02s-1.327,3.915-2.524,8.851q-.426,1.824-.816,3.484a2.561,2.561,0,0,0-.017,1.736,1.088,1.088,0,0,0,.783.549,2.887,2.887,0,0,0,.743.013,10.9,10.9,0,0,0,2.772-.339" transform="translate(29.347 3.354)" fill="#12263f"/>
            <path id="Trazado_248194" data-name="Trazado 248194" d="M246.436,37.474c-.276.017-.056,1.868-1.462,3.374s-3.376,1.543-3.36,1.8c-.011.119.478.3,1.3.226a4.563,4.563,0,0,0,2.817-1.4,4.074,4.074,0,0,0,1.108-2.815c-.022-.781-.282-1.215-.406-1.189" transform="translate(29.867 5.15)" fill="#12263f"/>
            <path id="Trazado_248195" data-name="Trazado 248195" d="M244.711,19.435c.222.442,1.876.016,3.88.013,2-.043,3.669.345,3.88-.1.093-.214-.237-.615-.935-.985a6.68,6.68,0,0,0-5.912.069c-.689.386-1.01.8-.912,1.005" transform="translate(30.248 2.433)" fill="#12263f"/>
            <path id="Trazado_248196" data-name="Trazado 248196" d="M230.006,22c.343.35,1.454-.195,2.846-.386,1.387-.24,2.608-.058,2.83-.5.1-.21-.137-.576-.7-.878a4.118,4.118,0,0,0-4.573.711c-.445.458-.558.877-.406,1.05" transform="translate(28.424 2.726)" fill="#12263f"/>
            <path id="Trazado_248197" data-name="Trazado 248197" d="M261.943,28.475c.176-.1,7.255-3.184,7.931,4.428s-7.014,6.727-7.046,6.509-.884-10.937-.884-10.937" transform="translate(32.38 3.817)" fill="#ffc09d"/>
            <path id="Trazado_248198" data-name="Trazado 248198" d="M264.548,36.032c.031-.027.139.081.37.164a1.3,1.3,0,0,0,.981-.068c.769-.367,1.324-1.705,1.239-3.08a4.445,4.445,0,0,0-.536-1.865,1.524,1.524,0,0,0-1.075-.928.67.67,0,0,0-.74.433c-.082.222-.02.37-.06.387-.019.02-.173-.113-.14-.433a.857.857,0,0,1,.254-.5.99.99,0,0,1,.708-.26,1.849,1.849,0,0,1,1.472,1.057,4.567,4.567,0,0,1,.643,2.079c.088,1.539-.561,3.044-1.619,3.461a1.392,1.392,0,0,1-1.216-.093c-.249-.166-.3-.333-.28-.349" transform="translate(32.701 4.106)" fill="#ff9b6c"/>
            <path id="Trazado_248199" data-name="Trazado 248199" d="M269.745,31.278a3.963,3.963,0,0,0-3.38,2.316c-.357,1.143-.316,2.383-.671,3.526s-1.335,2.259-2.511,2.127a2.333,2.333,0,0,1-1.77-1.538,6.546,6.546,0,0,1-.317-2.443c.015-3.6.327-7.2.037-10.781a18.492,18.492,0,0,0-3.453-10.036c-2.216-2.809-5.883-4.624-9.362-3.9-2.306.478-4.292,1.97-6.565,2.583a9.126,9.126,0,0,1-7.911-1.63c-.282-.222-1.545-.858-1.545-.858A4.429,4.429,0,0,1,232.8,8.2c4.07-4.861,12.192-7.082,18.437-6.287a21.989,21.989,0,0,1,15.75,9.852c3.3,5.427,3.49,13.518,2.755,19.513" transform="translate(28.714 0.241)" fill="#12263f"/>
            <path id="Trazado_248200" data-name="Trazado 248200" d="M239.162,6.475c4.165-.336,12.25.278,15.827,2.464.424.258.9.717.692,1.169-.158.342-.6.4-.975.439a56.979,56.979,0,0,0-11.053,3.071,19.728,19.728,0,0,1-7.181,1.981,7.178,7.178,0,0,1-6.421-3.162l-1.007.522c1.818-3.808,5.953-6.149,10.118-6.484" transform="translate(28.313 0.878)" fill="#12263f"/>
            <path id="Trazado_248201" data-name="Trazado 248201" d="M227.525,17.805a14.143,14.143,0,0,1,7.709-4.74c9.375-1.989,25.267-.959,35.415,14.55,0,0,1.054-5.613.646-8.99C271.024,16.37,268.072,3.1,253.911.565c0,0-21.525-5.406-26.386,17.24" transform="translate(28.125 0)" fill="#fc4b52"/>
            <g id="Grupo_157301" data-name="Grupo 157301" transform="translate(255.65)" opacity="0.2">
              <g id="Grupo_157300" data-name="Grupo 157300">
                <g id="Grupo_157299" data-name="Grupo 157299" clip-path="url(#clip-path-3)">
                  <path id="Trazado_248202" data-name="Trazado 248202" d="M227.525,17.805a13.452,13.452,0,0,1,8.633-5.33c8.432-1.426,24.927.525,34.492,15.14,0,0,1.054-5.613.646-8.99C271.024,16.37,268.072,3.1,253.911.565c0,0-21.525-5.406-26.386,17.24" transform="translate(-227.525 0)"/>
                </g>
              </g>
            </g>
            <path id="Trazado_248203" data-name="Trazado 248203" d="M270.753,24.934c-4.932-6.459-11.632-10.492-18.741-13.854s-18.533-6.144-26.306-7.237a16.281,16.281,0,0,0-7.009.119c-2.256.688-4.325,2.519-4.619,4.885-.37,2.962,5.2,6.773,7.779,8.225a77.963,77.963,0,0,0,7.715,3.412s-.712-5.342,7.586-7.462c11.314-2.888,33.98,12.166,33.6,11.911" transform="translate(26.461 0.484)" fill="#fc4b52"/>
            <path id="Trazado_248204" data-name="Trazado 248204" d="M315.24,328.6l17.983,17.256s-17.761,20.512-15.47,24.762l43.278-25.286-26.791-30.48Z" transform="translate(38.968 43.269)" fill="#feca2e"/>
            <g id="Grupo_157304" data-name="Grupo 157304" transform="translate(382.756 378.872)" opacity="0.6">
              <g id="Grupo_157303" data-name="Grupo 157303">
                <g id="Grupo_157302" data-name="Grupo 157302" clip-path="url(#clip-path-4)">
                  <path id="Trazado_248205" data-name="Trazado 248205" d="M342.013,333.174a2.034,2.034,0,0,1,2.434,1.236,1.993,1.993,0,0,1-1.19,2.452,2.147,2.147,0,0,1-2.57-1.323,2.06,2.06,0,0,1,1.516-2.413" transform="translate(-340.647 -333.096)" fill="#fff"/>
                </g>
              </g>
            </g>
            <g id="Grupo_157307" data-name="Grupo 157307" transform="translate(356.379 385.496)" opacity="0.6">
              <g id="Grupo_157306" data-name="Grupo 157306">
                <g id="Grupo_157305" data-name="Grupo 157305" clip-path="url(#clip-path-5)">
                  <path id="Trazado_248206" data-name="Trazado 248206" d="M360.793,342.025l-2.73-3.105-40.355,25.515a3.53,3.53,0,0,0-.23,3.322Z" transform="translate(-317.172 -338.919)" fill="#fff"/>
                </g>
              </g>
            </g>
            <path id="Trazado_248207" data-name="Trazado 248207" d="M330.516,342.447c.137.2,1.229-.357,2.663-.331,1.434-.013,2.52.56,2.658.357.165-.163-.918-1.217-2.655-1.217-1.736-.016-2.83,1.027-2.666,1.191" transform="translate(40.855 46.897)" fill="#12263f"/>
            <path id="Trazado_248208" data-name="Trazado 248208" d="M327.592,346.484c.079.233,1.193.019,2.444.457,1.264.4,2.035,1.246,2.235,1.106.214-.091-.4-1.407-1.969-1.922s-2.829.157-2.71.359" transform="translate(40.494 47.54)" fill="#12263f"/>
            <path id="Trazado_248209" data-name="Trazado 248209" d="M328.742,352.881c.215-.075-.146-1.3-1.388-2.11s-2.49-.649-2.469-.42c-.01.246,1,.462,2.007,1.141,1.025.655,1.631,1.5,1.849,1.389" transform="translate(40.161 48.121)" fill="#12263f"/>
            <path id="Trazado_248210" data-name="Trazado 248210" d="M328.062,337.988c.2.135.973-.755,2.191-1.418,1.2-.687,2.36-.868,2.355-1.116.026-.227-1.342-.437-2.764.363s-1.985,2.072-1.782,2.171" transform="translate(40.548 46.072)" fill="#12263f"/>
            <path id="Trazado_248211" data-name="Trazado 248211" d="M325.531,334.639c.052.088.948-.3,2.112-1.358a11.371,11.371,0,0,0,1.789-2.1,12.007,12.007,0,0,0,.811-1.427,3.176,3.176,0,0,0,.327-.911,1.083,1.083,0,0,0-.6-1.174,1.332,1.332,0,0,0-1.2.1,3.3,3.3,0,0,0-.725.616,8.954,8.954,0,0,0-2.182,3.837,4.283,4.283,0,0,0-.165,2.534c.137.009.208-.949.736-2.344a10.153,10.153,0,0,1,1.22-2.279,9.4,9.4,0,0,1,.981-1.153c.374-.4.754-.65.993-.521.09.05.115.077.1.27a2.54,2.54,0,0,1-.243.668,13.331,13.331,0,0,1-.717,1.359,13.925,13.925,0,0,1-1.555,2.1c-1,1.114-1.762,1.678-1.688,1.789" transform="translate(40.24 45.016)" fill="#12263f"/>
            <path id="Trazado_248212" data-name="Trazado 248212" d="M326.636,334.618a4.08,4.08,0,0,0-.727-2.427,8.149,8.149,0,0,0-3.094-3.123,2.049,2.049,0,0,0-2.024-.223,1.19,1.19,0,0,0-.515,1.16,3.47,3.47,0,0,0,.271.925,5.6,5.6,0,0,0,.9,1.446,5.74,5.74,0,0,0,2.279,1.64,3.188,3.188,0,0,0,2.506.2,20.441,20.441,0,0,1-2.261-.759,5.771,5.771,0,0,1-1.921-1.589,5.184,5.184,0,0,1-.729-1.265c-.217-.5-.275-.971-.08-1.032a1.419,1.419,0,0,1,1.177.232,8.346,8.346,0,0,1,1.247.828,9.047,9.047,0,0,1,1.738,1.879c.838,1.22,1.1,2.144,1.236,2.1" transform="translate(39.589 45.166)" fill="#12263f"/>
            <path id="Trazado_248213" data-name="Trazado 248213" d="M198.09,328.243,193.8,351.659s-25.612,8.48-25.78,13.317l48.741.586,3.6-37.319Z" transform="translate(20.77 45.109)" fill="#feca2e"/>
            <g id="Grupo_157310" data-name="Grupo 157310" transform="translate(231.106 395.972)" opacity="0.6">
              <g id="Grupo_157309" data-name="Grupo 157309">
                <g id="Grupo_157308" data-name="Grupo 157308" clip-path="url(#clip-path-6)">
                  <path id="Trazado_248214" data-name="Trazado 248214" d="M208.077,348.205a2.066,2.066,0,0,1,1.471,2.319,1.962,1.962,0,0,1-2.258,1.5,2.181,2.181,0,0,1-1.545-2.465,2.029,2.029,0,0,1,2.519-1.292" transform="translate(-205.681 -348.13)" fill="#fff"/>
                </g>
              </g>
            </g>
            <g id="Grupo_157313" data-name="Grupo 157313" transform="translate(188.535 407.086)" opacity="0.6">
              <g id="Grupo_157312" data-name="Grupo 157312">
                <g id="Grupo_157311" data-name="Grupo 157311" clip-path="url(#clip-path-7)">
                  <path id="Trazado_248215" data-name="Trazado 248215" d="M216.789,361.486l.769-3.586-47.894.626a3.488,3.488,0,0,0-1.871,2.74Z" transform="translate(-167.793 -357.901)" fill="#fff"/>
                </g>
              </g>
            </g>
            <path id="Trazado_248216" data-name="Trazado 248216" d="M190.238,348.653c.015.247,1.237.326,2.457,1.089,1.24.73,1.887,1.784,2.108,1.68.224-.053-.178-1.52-1.672-2.417s-2.952-.577-2.893-.352" transform="translate(23.516 47.88)" fill="#12263f"/>
            <path id="Trazado_248217" data-name="Trazado 248217" d="M185.626,350.685c-.051.24,1.017.632,1.872,1.655.885,1,1.122,2.121,1.365,2.1.23.032.362-1.418-.725-2.669s-2.514-1.325-2.512-1.09" transform="translate(22.946 48.178)" fill="#12263f"/>
            <path id="Trazado_248218" data-name="Trazado 248218" d="M183.35,356.83c.222.047.53-1.2-.13-2.532s-1.816-1.844-1.914-1.634c-.133.206.627.912,1.153,2.018.552,1.092.648,2.13.891,2.149" transform="translate(22.41 48.459)" fill="#12263f"/>
            <path id="Trazado_248219" data-name="Trazado 248219" d="M192.044,343.941c.108.223,1.218-.148,2.6-.089,1.382.031,2.467.471,2.589.255.136-.182-.934-1.068-2.562-1.113s-2.751.758-2.626.947" transform="translate(23.738 47.136)" fill="#12263f"/>
            <path id="Trazado_248220" data-name="Trazado 248220" d="M300.623,178.59c.809.553,2.649,28.654,0,34.817l6.741,50.634s18.082,29.068,21.723,33.3,27.251,45.493,27.251,45.493l-26.656,23.276s-46.33-61.275-53.778-72.151c-11.683-17.062-25.476-81.027-25.476-81.027l-1.8-31.75Z" transform="translate(30.734 24.543)" fill="#12263f"/>
            <path id="Trazado_248221" data-name="Trazado 248221" d="M271.6,218.909c-.809,1.5-36.882,57.631-36.882,57.631s-5.473,29.732-6.687,42.846-10.082,46.833-10.082,46.833l-29.03-2.307s7.852-86.819,12.7-103.74,18.355-49.616,18.355-49.616l11.395-30.594,32.805.622Z" transform="translate(23.353 24.731)" fill="#12263f"/>
            <path id="Trazado_248222" data-name="Trazado 248222" d="M244.229,188.041a5.959,5.959,0,0,0,.181.908q.231.952.622,2.574l2.378,9.445c2.029,7.97,4.842,18.977,8.115,31.092s6.465,23.026,8.9,30.881c1.217,3.928,2.223,7.1,2.947,9.28q.529,1.582.84,2.509a6.04,6.04,0,0,0,.328.864,5.783,5.783,0,0,0-.225-.9q-.275-.94-.744-2.541l-2.783-9.328c-2.337-7.881-5.465-18.8-8.741-30.913-3.223-12.1-6.141-23.057-8.268-31.045-1.063-3.932-1.928-7.132-2.543-9.4q-.453-1.605-.719-2.548a5.992,5.992,0,0,0-.286-.879" transform="translate(30.19 25.842)" fill="#feca2e"/>
            <path id="Trazado_248223" data-name="Trazado 248223" d="M120.736,300.25,45.92,234.021,70.732,207l72.611,67.08Z" transform="translate(5.676 28.447)" fill="#feca2e"/>
            <path id="Trazado_248253" data-name="Trazado 248253" d="M0,0,8.673-.052l-.046,7.66L-.046,7.66Z" transform="translate(120.149 311.272) rotate(-48.832)" fill="#fafafa"/>
            <path id="Trazado_248224" data-name="Trazado 248224" d="M61.969,214.809,50.829,226.942l9.033,8,10.768-12.465Z" transform="translate(6.283 29.52)" fill="#ebebeb"/>
            <path id="Trazado_248225" data-name="Trazado 248225" d="M95.577,278.071c-.121-.108,5.01-6.25,11.461-13.716s11.78-13.436,11.9-13.328-5.009,6.248-11.462,13.718-11.78,13.434-11.9,13.326" transform="translate(11.814 34.497)" fill="#12263f"/>
            <path id="Trazado_248254" data-name="Trazado 248254" d="M0,0,77.19-.467,76.585,99.45l-77.19.467Z" transform="matrix(0.658, -0.753, 0.753, 0.658, 0, 319.604)" fill="#feca2e"/>
            <g id="Grupo_157316" data-name="Grupo 157316" transform="translate(0 261.189)" opacity="0.3">
              <g id="Grupo_157315" data-name="Grupo 157315">
                <g id="Grupo_157314" data-name="Grupo 157314" clip-path="url(#clip-path-8)">
                  <path id="Trazado_248255" data-name="Trazado 248255" d="M0,0,77.19-.467,76.585,99.45l-77.19.467Z" transform="matrix(0.658, -0.753, 0.753, 0.658, 0, 58.415)"/>
                </g>
              </g>
            </g>
            <path id="Trazado_248256" data-name="Trazado 248256" d="M0,0,8.674-.052l-.046,7.66L-.046,7.66Z" transform="translate(68.552 368.408) rotate(-48.832)" fill="#fafafa"/>
            <path id="Trazado_248257" data-name="Trazado 248257" d="M0,0,16.471-.1,16.4,11.25l-16.471.1Z" transform="matrix(0.658, -0.753, 0.753, 0.658, 62.388, 294.009)" fill="#ebebeb"/>
            <path id="Trazado_248258" data-name="Trazado 248258" d="M0,0,16.471-.1,16.4,11.25l-16.471.1Z" transform="matrix(0.658, -0.753, 0.753, 0.658, 22.974, 339.634)" fill="#ebebeb"/>
            <path id="Trazado_248226" data-name="Trazado 248226" d="M49.657,331.97c-.121-.108,10.878-13.043,24.566-28.887s24.887-28.607,25.007-28.5-10.874,13.039-24.568,28.889-24.885,28.605-25,28.5" transform="translate(6.138 37.735)" fill="#12263f"/>
            <path id="Trazado_248259" data-name="Trazado 248259" d="M0,0,64.584-.391l-.507,83.6L-.507,83.6Z" transform="translate(107.334 219.272) rotate(-48.831)" fill="#feca2e"/>
            <path id="Trazado_248260" data-name="Trazado 248260" d="M0,0,7.257-.044,7.218,6.365l-7.257.044Z" transform="translate(164.691 260.105) rotate(-48.83)" fill="#fafafa"/>
            <path id="Trazado_248261" data-name="Trazado 248261" d="M0,0,13.781-.083l-.058,9.5L-.058,9.5Z" transform="matrix(0.658, -0.753, 0.753, 0.658, 159.533, 197.857)" fill="#ebebeb"/>
            <path id="Trazado_248262" data-name="Trazado 248262" d="M0,0,13.781-.083l-.058,9.5L-.058,9.5Z" transform="matrix(0.658, -0.753, 0.753, 0.658, 126.556, 236.031)" fill="#ebebeb"/>
            <path id="Trazado_248227" data-name="Trazado 248227" d="M137.072,235.434c-.121-.108,9.065-10.944,20.518-24.2s20.839-23.921,20.96-23.814-9.064,10.942-20.519,24.2-20.837,23.92-20.959,23.812" transform="translate(16.944 25.756)" fill="#12263f"/>
            <path id="Trazado_248228" data-name="Trazado 248228" d="M138.97,275.63,64.154,209.4,88.966,182.38l72.611,67.08Z" transform="translate(7.93 25.064)" fill="#feca2e"/>
            <g id="Grupo_157319" data-name="Grupo 157319" transform="translate(72.084 207.444)" opacity="0.3">
              <g id="Grupo_157318" data-name="Grupo 157318">
                <g id="Grupo_157317" data-name="Grupo 157317" clip-path="url(#clip-path-9)">
                  <path id="Trazado_248229" data-name="Trazado 248229" d="M138.97,275.63,64.154,209.4,88.966,182.38l72.611,67.08Z" transform="translate(-64.154 -182.38)"/>
                </g>
              </g>
            </g>
            <path id="Trazado_248263" data-name="Trazado 248263" d="M0,0,8.673-.052l-.046,7.66L-.046,7.66Z" transform="translate(140.637 283.269) rotate(-48.832)" fill="#fafafa"/>
            <path id="Trazado_248264" data-name="Trazado 248264" d="M0,0,16.471-.1,16.4,11.25l-16.471.1Z" transform="matrix(0.658, -0.753, 0.753, 0.658, 95.058, 254.495)" fill="#ebebeb"/>
            <path id="Trazado_248230" data-name="Trazado 248230" d="M113.811,253.425c-.122-.107,4.89-6.2,11.195-13.607s11.516-13.328,11.638-13.221-4.889,6.2-11.2,13.608-11.515,13.327-11.637,13.22" transform="translate(14.068 31.14)" fill="#12263f"/>
            <path id="Trazado_248231" data-name="Trazado 248231" d="M71.717,347.125a20.257,20.257,0,1,0,20.255-20.5,20.381,20.381,0,0,0-20.255,20.5" transform="translate(8.865 44.886)" fill="#fc4b52"/>
            <g id="Grupo_157322" data-name="Grupo 157322" transform="translate(88.349 379.37)" opacity="0.3">
              <g id="Grupo_157321" data-name="Grupo 157321">
                <g id="Grupo_157320" data-name="Grupo 157320" clip-path="url(#clip-path-10)">
                  <path id="Trazado_248232" data-name="Trazado 248232" d="M78.63,346.175a12.489,12.489,0,1,0,12.488-12.641A12.565,12.565,0,0,0,78.63,346.175" transform="translate(-78.63 -333.534)" fill="#dff7f9"/>
                </g>
              </g>
            </g>
            <path id="Trazado_248233" data-name="Trazado 248233" d="M233.23,90.171c-.616.535-27.988,29.894-27.988,29.894L154.253,147.68l6.026,7.328c.736,3.537,53.362-12.894,61.762-21.038,5.669-5.5,23.224-21.384,23.224-21.384l-3.873-27.956Z" transform="translate(19.068 11.63)" fill="#ffc09d"/>
            <path id="Trazado_248234" data-name="Trazado 248234" d="M166.075,143.536l-8.827-3.474c-.456.715-10.445,6.171-15.689,7.438a80.133,80.133,0,0,0-11.534,3.971l.076.47c1.162,1.459,2.954,1.665,4.764,1.274,5.187-1.119,14.594-3.049,14.5-2.681-.133.522-6.124,4.707-6.489,7.3-.328,2.333,1.351,1.557,2.972.588s16.835-5.717,18.578-9.792,1.649-5.093,1.649-5.093" transform="translate(16.073 19.248)" fill="#ffc09d"/>
            <path id="Trazado_248235" data-name="Trazado 248235" d="M253.35,63.852l-12.8,5.277c-3.136.917-7.4,7.916-11.117,12.38L212.943,98.8l22.763,28.082Z" transform="translate(26.323 8.775)" fill="#fc4b52"/>
            <path id="Trazado_248236" data-name="Trazado 248236" d="M271.554,50.612l6.188,7.775s24.044,9.027,26.54,15.129c3.5,8.566-1.089,35.178-1.089,35.178l-6.353,57.331,8.686,31.723-79.707,1.38s4.836-83.17,5.959-91.973c.78-6.119,7.081-31.436,10.091-40.948l.642,3.277.361-1.49Z" transform="translate(27.914 6.955)" fill="#fc4b52"/>
            <path id="Trazado_248237" data-name="Trazado 248237" d="M233.155,86.056a1.04,1.04,0,0,0-.051.265c-.026.208-.057.466-.1.784-.076.733-.181,1.741-.315,3.018-.266,2.622-.607,6.418-1,11.113-.789,9.389-1.687,22.375-2.573,36.722s-1.725,27.337-2.416,36.731c-.348,4.663-.631,8.452-.83,11.124q-.135,1.921-.213,3.027c-.017.32-.03.578-.042.788a1.031,1.031,0,0,0,0,.27.945.945,0,0,0,.052-.265c.025-.208.056-.465.094-.784.076-.732.182-1.74.315-3.016.266-2.622.607-6.419,1-11.113.789-9.389,1.687-22.377,2.574-36.727s1.724-27.331,2.416-36.725c.347-4.663.63-8.452.829-11.125.091-1.28.162-2.291.213-3.026.017-.32.031-.579.043-.788a1.061,1.061,0,0,0,0-.271" transform="translate(27.889 11.826)" fill="#12263f"/>
            <path id="Trazado_248238" data-name="Trazado 248238" d="M241.149,66.942a11.537,11.537,0,0,1,.991,1.481c.619.959,1.475,2.387,2.672,4.026a11.955,11.955,0,0,0,1.028,1.208c.376.427.722.9,1.126,1.307a2.053,2.053,0,0,0,1.421.759,3.169,3.169,0,0,0,1.646-.7c2.246-1.482,4.691-3.151,7.25-4.917,5.114-3.54,9.731-6.771,13.131-9.023,1.7-1.132,3.087-2.021,4.056-2.623a10.23,10.23,0,0,1,1.54-.877,10.179,10.179,0,0,1-1.416,1.069l-3.948,2.778L257.613,70.6c-2.56,1.769-5.019,3.426-7.288,4.888a3.6,3.6,0,0,1-1.942.758,2.523,2.523,0,0,1-1.764-.935c-.429-.456-.766-.933-1.119-1.35a12.043,12.043,0,0,1-1.021-1.26c-1.174-1.7-1.971-3.155-2.534-4.156a9.435,9.435,0,0,1-.8-1.6" transform="translate(29.809 7.913)" fill="#12263f"/>
            <path id="Trazado_248239" data-name="Trazado 248239" d="M244.7,90.4a6.64,6.64,0,0,1-1.535.162c-.984.059-2.4.119-4.127.177l-.263.009.027-.273c.235-2.35.555-5.311.926-8.517.454-3.923.9-7.472,1.248-10.037.174-1.282.327-2.319.444-3.034a4.2,4.2,0,0,1,.243-1.1,4.2,4.2,0,0,1-.016,1.131c-.048.722-.138,1.766-.261,3.055-.245,2.577-.622,6.133-1.078,10.057-.371,3.206-.735,6.161-1.043,8.5l-.236-.264c1.727,0,3.144,0,4.129.027a6.551,6.551,0,0,1,1.54.107" transform="translate(29.517 9.315)" fill="#12263f"/>
            <path id="Trazado_248240" data-name="Trazado 248240" d="M244.305,79.982A2.042,2.042,0,0,1,245.5,82.4a1.928,1.928,0,0,1-2.348,1.238,1.887,1.887,0,0,1-1.1-2.411,1.965,1.965,0,0,1,2.253-1.245" transform="translate(29.906 10.987)" fill="#e0e0e0"/>
            <rect id="Rectángulo_89988" data-name="Rectángulo 89988" width="9.343" height="6.512" transform="translate(288.107 98.919)" fill="#fff"/>
            <path id="Trazado_248241" data-name="Trazado 248241" d="M261.094,91.368l-4.766-4.282.187-.212,4.578,4.113c1.7-1.555,4.2-3.863,4.337-4.071l.093.064h.172c0,.081,0,.191-4.507,4.3Z" transform="translate(31.686 11.939)" fill="#fc4b52"/>
            <path id="Trazado_248265" data-name="Trazado 248265" d="M0,0,.283,0,.254,4.734l-.283,0Z" transform="matrix(0.762, -0.647, 0.647, 0.762, 294.299, 101.894)" fill="#fc4b52"/>
            <path id="Trazado_248266" data-name="Trazado 248266" d="M0,0,4.854-.029l0,.282L0,.282Z" transform="matrix(0.622, -0.783, 0.783, 0.622, 287.999, 105.344)" fill="#fc4b52"/>
            <path id="Trazado_248242" data-name="Trazado 248242" d="M254.546,94.44a41.466,41.466,0,0,1,6.987-.3,41.472,41.472,0,0,1,6.989.3,41.472,41.472,0,0,1-6.989.3,41.466,41.466,0,0,1-6.987-.3" transform="translate(31.466 12.938)" fill="#fff"/>
            <g id="Grupo_157325" data-name="Grupo 157325" transform="translate(307.806 109.727)" opacity="0.3">
              <g id="Grupo_157324" data-name="Grupo 157324">
                <g id="Grupo_157323" data-name="Grupo 157323" clip-path="url(#clip-path-11)">
                  <path id="Trazado_248243" data-name="Trazado 248243" d="M283.449,139.589l-3.53-18.067-4.158-.172-1.817-24.88,4.209,20.084,4.538-1.027,4.294,23.337Z" transform="translate(-273.943 -96.47)"/>
                </g>
              </g>
            </g>
            <path id="Trazado_248244" data-name="Trazado 248244" d="M313.485,112.551l-35.171,7.96s-5.463-23.56-5.675-29.994,7.818-26.4,20.081-22.288c0,0,3.714-.76,7.091,4.264,1.36,2.022,13.674,40.058,13.674,40.058" transform="translate(33.702 9.3)" fill="#fc4b52"/>
            <path id="Trazado_248245" data-name="Trazado 248245" d="M273.426,87.441a19.806,19.806,0,0,1,.383-5.167,23.318,23.318,0,0,1,1.9-5.275,13.29,13.29,0,0,1,4.1-5.325,14.514,14.514,0,0,1,6.225-2.482,28.339,28.339,0,0,1,5.554-.268,20.959,20.959,0,0,1,3.725.471c.862.206,1.319.4,1.339.35.007-.017-.1-.078-.316-.182a7.334,7.334,0,0,0-.971-.373,17.512,17.512,0,0,0-3.753-.652,26.52,26.52,0,0,0-5.651.156,14.661,14.661,0,0,0-6.468,2.536,13.51,13.51,0,0,0-4.232,5.548,22.175,22.175,0,0,0-1.825,5.418,14.82,14.82,0,0,0-.252,3.852,8.654,8.654,0,0,0,.139,1.04c.047.235.082.357.1.354" transform="translate(33.765 9.407)" fill="#12263f"/>
            <path id="Trazado_248246" data-name="Trazado 248246" d="M242.874,158.547s-17.885,2.779-18.85,5.407-1.309,13.13.963,15.851,9.277,1.729,8.446-.555-4.23-1.5-4.23-1.5l-2.285-6.281,3.193-2.535s4.727,4.578,6.355,4.39,6.259,1.978,9.361-2.259,5.18-4.687,5.18-4.687Z" transform="translate(27.601 21.788)" fill="#ffc09d"/>
            <path id="Trazado_248247" data-name="Trazado 248247" d="M241.8,169.331c-.3.239-2.834,4.99-5.58,6.723s-6.618,3.693-7.692,1.965a11,11,0,0,1-1.364-3.748l10.988-5.515Z" transform="translate(28.081 23.192)" fill="#ffc09d"/>
            <path id="Trazado_248248" data-name="Trazado 248248" d="M71.874,369.835l-59-52.3a3.171,3.171,0,0,1-.29-4.435,3.078,3.078,0,0,1,4.38-.293L73.591,363c29.1-34.768,148.178-176.857,153.516-180.33,3.263-2.124,7.7-3.821,11.99-5.462a71.585,71.585,0,0,0,8.356-3.564A31.168,31.168,0,0,0,255.406,167a3.075,3.075,0,0,1,4.366-.445,3.167,3.167,0,0,1,.442,4.42,37.127,37.127,0,0,1-9.773,8.177,74.942,74.942,0,0,1-9.148,3.933c-3.952,1.512-8.036,3.073-10.75,4.818-5.681,4.774-95.269,111.1-154.254,181.595a3.1,3.1,0,0,1-2.138,1.1c-.076.006-.154.008-.23.008a3.085,3.085,0,0,1-2.045-.778M230.464,187.959l.015-.009-.015.009" transform="translate(1.46 22.792)" fill="#e0e0e0"/>
            <path id="Trazado_248249" data-name="Trazado 248249" d="M206.435,185.323c-.069.038-.139.08-.2.019-.08-.06,0-.272.084-.293l.278.521,0,0-.008,0-.017.007-.039.01a.222.222,0,0,1-.094,0,.165.165,0,0,1-.124-.106c-.017-.085.056-.123.125-.161s.145-.078.133-.166a.155.155,0,0,0-.113-.111.207.207,0,0,0-.09-.008l-.037.009-.016.007-.007,0,0,0,.279.52c.08-.016.149-.224.065-.28-.067-.058-.142-.014-.21.024" transform="translate(25.489 25.429)" fill="#12263f"/>
            <path id="Trazado_248250" data-name="Trazado 248250" d="M71.895,369.87a3.466,3.466,0,0,0,1.007.571,3.05,3.05,0,0,0,3.151-.7c1.958-2.348,4.846-5.812,8.595-10.307l32.314-38.641,49.555-58.9L196.7,226.3l16.307-19.043q4.2-4.834,8.48-9.761c1.439-1.632,2.864-3.291,4.347-4.914l2.214-2.455c.748-.814,1.557-1.6,2.337-2.4l.007-.008.021-.013a40.328,40.328,0,0,1,6.178-3.035c2.126-.875,4.288-1.678,6.446-2.514s4.32-1.691,6.393-2.743a32.074,32.074,0,0,0,5.82-3.883,33.368,33.368,0,0,0,4.97-5,2.891,2.891,0,0,0-.065-3.112,2.794,2.794,0,0,0-4.287-.44c-.369.4-.794.918-1.21,1.347a34.056,34.056,0,0,1-2.671,2.532,26.172,26.172,0,0,1-6.209,4c-4.494,2.03-9.21,3.518-13.727,5.561-1.127.512-2.24,1.057-3.32,1.663a14.667,14.667,0,0,0-1.566.977l-.671.59-.655.671c-1.748,1.789-3.428,3.68-5.121,5.56-6.735,7.566-13.435,15.346-20.191,23.209-23.614,27.551-46.2,54.338-67.473,79.571C111.826,317.933,91.906,341.645,73.8,363.2l-.162.193-.187-.167L23,318.444q-2.811-2.5-5.529-4.91a5.335,5.335,0,0,0-1.392-1.04,2.9,2.9,0,0,0-3.954,1.946,2.994,2.994,0,0,0,.891,2.991l2.552,2.267,4.955,4.4L38.3,339.9l24.853,22.122,6.523,5.83c1.473,1.322,2.219,2.018,2.219,2.018s-.78-.657-2.269-1.96l-6.571-5.776L38.113,340.116q-8.063-7.13-17.818-15.755l-4.964-4.392-2.556-2.26a3.375,3.375,0,0,1-1.01-3.368,3.277,3.277,0,0,1,4.463-2.205,5.723,5.723,0,0,1,1.5,1.1l5.538,4.9c15.011,13.289,31.971,28.3,50.51,44.712l-.348.026,59.2-70.584c21.261-25.243,43.842-52.036,67.457-79.591,6.76-7.864,13.459-15.643,20.2-23.217,1.7-1.884,3.375-3.771,5.143-5.58l.663-.678.745-.652a15.265,15.265,0,0,1,1.614-1.005c1.1-.618,2.227-1.169,3.365-1.685,4.555-2.059,9.283-3.55,13.725-5.557a25.558,25.558,0,0,0,6.079-3.914,33.746,33.746,0,0,0,2.627-2.489c.429-.445.776-.871,1.225-1.361a3.362,3.362,0,0,1,5.157.531,3.473,3.473,0,0,1,.076,3.742,33.319,33.319,0,0,1-5.094,5.139,32.6,32.6,0,0,1-5.925,3.949c-2.109,1.068-4.287,1.923-6.447,2.764s-4.323,1.637-6.436,2.506a39.855,39.855,0,0,0-6.091,2.985l.028-.02c-.763.787-1.544,1.541-2.288,2.35l-2.21,2.447c-1.48,1.617-2.906,3.276-4.346,4.906l-8.483,9.752-16.319,19.028-30.221,35.565-49.649,58.812L84.787,359.555c-3.781,4.481-6.668,7.945-8.67,10.256a3.1,3.1,0,0,1-3.232.676,2.506,2.506,0,0,1-.991-.616" transform="translate(1.44 22.757)" fill="#12263f"/>
            <path id="Trazado_248251" data-name="Trazado 248251" d="M309.169,108.8l2.989,26.642a15.079,15.079,0,0,1-9.144,15.632L245,175.1l-5.727-9.72,48.867-32.469-4.339-18.3" transform="translate(29.578 14.952)" fill="#ffc09d"/>
            <path id="Trazado_248252" data-name="Trazado 248252" d="M273.543,95.069a1.539,1.539,0,0,0,.048.425l.228,1.208.931,4.491c.852,3.892,2.02,9.23,3.362,15.362l.056.256.255-.057,6.993-1.574,19.91-4.587,6.019-1.451,1.631-.422a2.392,2.392,0,0,0,.561-.183,2.452,2.452,0,0,0-.584.076l-1.653.322-6.057,1.282L285.3,114.648l-6.989,1.591.311.2c-1.416-6.114-2.647-11.437-3.546-15.318-.448-1.845-.812-3.344-1.082-4.458-.125-.474-.228-.866-.312-1.189a1.522,1.522,0,0,0-.138-.4" transform="translate(33.813 13.065)" fill="#12263f"/>
          </g>
        </g>
      </g>
    </g>
  </g>
</svg>
