<svg xmlns="http://www.w3.org/2000/svg" width="87.957" height="85.237" viewBox="0 0 87.957 85.237">
  <g id="Grupo_157660" data-name="Grupo 157660" transform="translate(996.899 5688.619)">
    <g id="Grupo_157650" data-name="Grupo 157650" transform="translate(-1035.099 -5774.119)">
      <rect id="Rectángulo_89824" data-name="Rectángulo 89824" width="73.777" height="82.562" transform="translate(51.094 86.615)" fill="#fff"/>
      <path id="Rectángulo_89825" data-name="Rectángulo 89825" d="M-6-6H70.453V79.237H-6ZM67.777-3.324h-71.1V76.562h71.1Z" transform="translate(55.705 91.5)" fill="#12263f"/>
      <path id="Línea_460" data-name="Línea 460" d="M62.139-3.324H0V-6H62.139Z" transform="translate(52.915 106.84)" fill="#12263f"/>
      <path id="Línea_461" data-name="Línea 461" d="M4.727-3.324H0V-6H4.727Z" transform="translate(59.738 99.616)" fill="#12263f"/>
      <path id="Línea_462" data-name="Línea 462" d="M17.48-3.324H0V-6H17.48Z" transform="translate(75.256 99.616)" fill="#12263f"/>
      <path id="Línea_463" data-name="Línea 463" d="M36.387-3.324H0V-6H36.387Z" transform="translate(88.433 165.589)" fill="#12263f"/>
      <path id="Línea_464" data-name="Línea 464" d="M7.469-3.324H0V-6H7.469Z" transform="translate(51.377 165.589)" fill="#12263f"/>
      <path id="Trazado_247295" data-name="Trazado 247295" d="M219.486,248.681l-14.024,12.684a17.873,17.873,0,0,1,1.628-26.765Z" transform="translate(-129.881 -116.981)" fill="#a7e446"/>
      <path id="Trazado_247296" data-name="Trazado 247296" d="M263.121,225.74H249.1L236.7,210.32a15.247,15.247,0,0,1,9.766-3.619C255.652,206.7,263.121,215.239,263.121,225.74Z" transform="translate(-158.243 -94.177)" fill="#feca2e"/>
      <path id="Línea_465" data-name="Línea 465" d="M7.4-3.324H0V-6H7.4Z" transform="translate(43.64 174.062)" fill="#12263f"/>
      <path id="Línea_466" data-name="Línea 466" d="M3.389-3.324H0V-6H3.389Z" transform="translate(38.2 174.062)" fill="#12263f"/>
      <g id="Grupo_157088" data-name="Grupo 157088" transform="translate(76.599 131.563)">
        <path id="Trazado_247297" data-name="Trazado 247297" d="M264.59,304.2c0,9.677-7.555,17.528-16.868,17.528a16.4,16.4,0,0,1-11.522-4.74L250.407,304.2Z" transform="translate(-236.2 -304.2)" fill="#fc4b52"/>
      </g>
      <g id="Grupo_157089" data-name="Grupo 157089" transform="translate(68.054 111.698)">
        <path id="Elipse_5693" data-name="Elipse 5693" d="M13.866-6A19.866,19.866,0,1,1-6,13.866,19.888,19.888,0,0,1,13.866-6Zm0,37.056a17.19,17.19,0,1,0-17.19-17.19A17.21,17.21,0,0,0,13.866,31.056Z" transform="translate(6 6)" fill="#12263f"/>
        <path id="Trazado_247298" data-name="Trazado 247298" d="M202.224,301.961l-1.751-2.023L216.457,286.1h16.106v2.676H217.454Z" transform="translate(-194.147 -267.572)" fill="#12263f"/>
        <path id="Línea_467" data-name="Línea 467" d="M9.382,12.779-4.419-2.249l1.971-1.81,13.8,15.027Z" transform="translate(12.441 7.992)" fill="#12263f"/>
      </g>
    </g>
  </g>
</svg>
