<svg xmlns="http://www.w3.org/2000/svg" width="88.539" height="112.22" viewBox="0 0 88.539 112.22">
  <g id="Grupo_157658" data-name="Grupo 157658" transform="translate(992.539 6123)">
    <g id="Grupo_157648" data-name="Grupo 157648" transform="translate(-1001.54 -6125.22)">
      <path id="Trazado_247285" data-name="Trazado 247285" d="M32.992,72.228l7.5-7.5H66.724l20.614-28.11L79.842,31,64.85,45.992H29.244L18,57.236Z" transform="translate(7.866 25.346)" fill="#e5e6eb"/>
      <rect id="Rectángulo_89819" data-name="Rectángulo 89819" width="18.551" height="29.152" transform="translate(10.873 91.952) rotate(-45)" fill="#feca2e"/>
      <rect id="Rectángulo_89820" data-name="Rectángulo 89820" width="18.551" height="6.626" transform="translate(26.803 107.881) rotate(-45)" fill="#12263f"/>
      <path id="Trazado_247286" data-name="Trazado 247286" d="M41.244,46.5V39h3.748V50.244H30V46.5Z" transform="translate(18.354 32.338)" fill="#d9dae2"/>
      <circle id="Elipse_5690" data-name="Elipse 5690" cx="15" cy="15" r="15" transform="translate(37.54 34.22)" fill="#a7e446"/>
      <ellipse id="Elipse_5691" data-name="Elipse 5691" cx="11.5" cy="11" rx="11.5" ry="11" transform="translate(74.539 19.22)" fill="#a7e446"/>
      <circle id="Elipse_5692" data-name="Elipse 5692" cx="7.5" cy="7.5" r="7.5" transform="translate(12.54 15.22)" fill="#a7e446"/>
      <path id="Trazado_247288" data-name="Trazado 247288" d="M39.25,43.572a5.674,5.674,0,0,0-.375-8.366l-4.859-4.048a1.921,1.921,0,0,1-.129-2.833,1.97,1.97,0,0,1,2.717,0l2.938,2.938,2.65-2.65-2.938-2.94a5.6,5.6,0,0,0-2.134-1.312V19.133a13.644,13.644,0,0,0-3.748,0V24.36a5.647,5.647,0,0,0-1.762,9.677l4.859,4.05a1.92,1.92,0,1,1-2.588,2.832L30.943,37.98l-2.65,2.65,2.938,2.94a5.59,5.59,0,0,0,2.134,1.312v3.96a13.645,13.645,0,0,0,3.748,0v-3.95a5.622,5.622,0,0,0,2.136-1.319Z" transform="translate(16.862 14.862)" fill="#12263f"/>
      <line id="Línea_451" data-name="Línea 451" y2="13" transform="translate(52.54 15.22)" fill="none" stroke="#fc4b52" stroke-linejoin="round" stroke-width="1"/>
      <line id="Línea_452" data-name="Línea 452" y2="13" transform="translate(44.54 11.22)" fill="none" stroke="#fc4b52" stroke-linejoin="round" stroke-width="1"/>
      <line id="Línea_453" data-name="Línea 453" y2="13" transform="translate(59.54 11.22)" fill="none" stroke="#fc4b52" stroke-linejoin="round" stroke-width="1"/>
      <line id="Línea_454" data-name="Línea 454" y2="7" transform="translate(20.54 2.22)" fill="none" stroke="#fc4b52" stroke-linejoin="round" stroke-width="1"/>
      <line id="Línea_455" data-name="Línea 455" y2="11" transform="translate(27.54 2.22)" fill="none" stroke="#fc4b52" stroke-linejoin="round" stroke-width="1"/>
      <line id="Línea_456" data-name="Línea 456" y2="4" transform="translate(12.54 2.22)" fill="none" stroke="#fc4b52" stroke-linejoin="round" stroke-width="1"/>
      <line id="Línea_457" data-name="Línea 457" y2="9" transform="translate(78.539 6.22)" fill="none" stroke="#fc4b52" stroke-linejoin="round" stroke-width="1"/>
      <line id="Línea_458" data-name="Línea 458" y2="9" transform="translate(85.539 4.22)" fill="none" stroke="#fc4b52" stroke-linejoin="round" stroke-width="1"/>
      <line id="Línea_459" data-name="Línea 459" y2="5" transform="translate(93.539 2.22)" fill="none" stroke="#fc4b52" stroke-linejoin="round" stroke-width="1"/>
      <path id="Trazado_247289" data-name="Trazado 247289" d="M96.328,36l-7.5-5.622a1.874,1.874,0,0,0-2.449.174L71.94,44.992H37.11a1.874,1.874,0,0,0-1.325.549L26.8,54.523l-1.486-1.486a1.874,1.874,0,0,0-2.65,0L9.549,66.155a1.874,1.874,0,0,0,0,2.65L30.163,89.419a1.874,1.874,0,0,0,2.65,0L45.931,76.3a1.874,1.874,0,0,0,0-2.65l-1.486-1.486L49.13,67.48H74.59a1.874,1.874,0,0,0,1.512-.765l20.614-28.11A1.874,1.874,0,0,0,96.328,36ZM31.488,85.444,13.524,67.48,23.992,57.012,41.956,74.976ZM73.64,63.732H48.354a1.874,1.874,0,0,0-1.325.549l-5.234,5.234L29.453,57.173l8.433-8.433H61.472v7.5H48.354v3.748H63.346A1.874,1.874,0,0,0,65.22,58.11V48.74h7.5a1.874,1.874,0,0,0,1.325-.549L87.884,34.348,92.6,37.882Z" transform="translate(0 24.472)" fill="#12263f"/>
    </g>
  </g>
</svg>
