<svg xmlns="http://www.w3.org/2000/svg" width="122" height="122" viewBox="0 0 122 122">
  <g id="Grupo_146848" data-name="Grupo 146848" transform="translate(-1090 -1405)">
    <g id="Elipse_5544" data-name="Elipse 5544" transform="translate(1090 1405)" fill="#f5feff" stroke="#0082b2" stroke-width="2">
      <circle cx="61" cy="61" r="61" stroke="none"/>
      <circle cx="61" cy="61" r="60" fill="none"/>
    </g>
    <circle id="Elipse_5553" data-name="Elipse 5553" cx="43" cy="43" r="43" transform="translate(1108 1423)" fill="#dff7f9"/>
    <g id="Grupo_157128" data-name="Grupo 157128" transform="translate(1114.939 1430.137)">
      <g id="Grupo_157126" data-name="Grupo 157126" transform="translate(1.161 1.161)">
        <g id="Grupo_157110" data-name="Grupo 157110" transform="translate(34.839)">
          <path id="Trazado_247335" data-name="Trazado 247335" d="M44.935,1A18.581,18.581,0,1,1,31.441,32.355h3.043a3.427,3.427,0,0,0,2.648-1.231,13.937,13.937,0,1,0-3.414-19.8A17.925,17.925,0,0,0,31,7.294,18.54,18.54,0,0,1,44.935,1Z" transform="translate(-31 -1)" fill="#ccd1d9"/>
        </g>
        <g id="Grupo_157111" data-name="Grupo 157111" transform="translate(37.556 4.645)">
          <path id="Trazado_247336" data-name="Trazado 247336" d="M44.558,5a13.935,13.935,0,1,1-7.8,25.479,3.433,3.433,0,0,0,.836-2.253V25.9a3.446,3.446,0,0,0-2.323-3.275V18.935a18.575,18.575,0,0,0-1.928-8.257A13.887,13.887,0,0,1,44.558,5Z" transform="translate(-33.34 -5)" fill="#a7e446"/>
        </g>
        <g id="Grupo_157112" data-name="Grupo 157112" transform="translate(46.452 16.258)">
          <path id="Trazado_247337" data-name="Trazado 247337" d="M43.323,15a2.324,2.324,0,0,1,.917,4.459,2.4,2.4,0,0,1-.917.186,2.323,2.323,0,0,1,0-4.645Z" transform="translate(-41 -15)" fill="#feca2e"/>
        </g>
        <g id="Grupo_157113" data-name="Grupo 157113" transform="translate(6.968 4.645)">
          <path id="Trazado_247338" data-name="Trazado 247338" d="M7,18.935a13.935,13.935,0,1,1,27.871,0h-.395A15.831,15.831,0,0,1,28.4,17.728a15.874,15.874,0,0,1-5.145-3.437,11.6,11.6,0,0,1-9.29,4.645Z" transform="translate(-7 -5)" fill="#b27946"/>
        </g>
        <g id="Grupo_157114" data-name="Grupo 157114" transform="translate(0 47.369)">
          <path id="Trazado_247339" data-name="Trazado 247339" d="M31.786,42l-.975-.209-1.939,10.7L21.9,47.84l-6.968,4.645L13.008,41.871c-.081-.012-.163-.023-.232-.035L12.021,42A13.92,13.92,0,0,0,1,55.621v3.832h9.29V64.1H33.516V59.453h6.968V47.922A13.908,13.908,0,0,0,31.786,42Z" transform="translate(-1 -41.79)" fill="#feca2e"/>
        </g>
        <g id="Grupo_157115" data-name="Grupo 157115" transform="translate(20.903 46.452)">
          <path id="Trazado_247340" data-name="Trazado 247340" d="M27.907,41.917l-1.939,10.7L19,47.968,23.645,41Z" transform="translate(-19 -41)" fill="#ffc729"/>
        </g>
        <g id="Grupo_157116" data-name="Grupo 157116" transform="translate(12.008 47.45)">
          <path id="Trazado_247341" data-name="Trazado 247341" d="M16.368,42.023l3.867,5.806-6.968,4.645L11.34,41.86a11.67,11.67,0,0,0,1.928.163Z" transform="translate(-11.34 -41.86)" fill="#ffc729"/>
        </g>
        <g id="Grupo_157117" data-name="Grupo 157117" transform="translate(39.484 44.129)">
          <rect id="Rectángulo_89833" data-name="Rectángulo 89833" width="30" height="26" transform="translate(0.355 -0.29)" fill="#d3a06c"/>
        </g>
        <g id="Grupo_157118" data-name="Grupo 157118" transform="translate(44.129 44.129)">
          <rect id="Rectángulo_89834" data-name="Rectángulo 89834" width="7" height="12" transform="translate(-0.29 -0.29)" fill="#b27946"/>
        </g>
        <g id="Grupo_157119" data-name="Grupo 157119" transform="translate(32.516 65.032)">
          <rect id="Rectángulo_89835" data-name="Rectángulo 89835" width="7" height="5" transform="translate(0.323 -0.193)" fill="#f0d0b4"/>
        </g>
        <g id="Grupo_157120" data-name="Grupo 157120" transform="translate(0 65.032)">
          <rect id="Rectángulo_89836" data-name="Rectángulo 89836" width="9" height="5" transform="translate(-0.161 -0.193)" fill="#f0d0b4"/>
        </g>
        <g id="Grupo_157121" data-name="Grupo 157121" transform="translate(6.968 13.935)">
          <path id="Trazado_247342" data-name="Trazado 247342" d="M18.613,46.677a2.329,2.329,0,0,0,2.323-2.323,2.339,2.339,0,0,0-2.323-2.323H16.29a2.452,2.452,0,0,0-.3.023,1.075,1.075,0,0,0-.453-.3l-1-.383A11.608,11.608,0,0,1,7,30.5V17.645h6.968A11.6,11.6,0,0,0,23.258,13,15.874,15.874,0,0,0,28.4,16.437a15.831,15.831,0,0,0,6.074,1.208h.395V30.5a11.608,11.608,0,0,1-7.537,10.87l-1,.383a1.154,1.154,0,0,0-.755,1.08v2.683l-4.645,6.968-3.867-5.806Z" transform="translate(-7 -13)" fill="#f0d0b4"/>
        </g>
        <g id="Grupo_157122" data-name="Grupo 157122" transform="translate(2.323)">
          <path id="Trazado_247343" data-name="Trazado 247343" d="M40.161,19.581v3.693A3.219,3.219,0,0,0,39,23.065H35.516V19.581a13.935,13.935,0,0,0-27.871,0v3.484H4.161A3.219,3.219,0,0,0,3,23.274V19.581A18.591,18.591,0,0,1,34.726,6.435c.279.279.546.569.79.859a17.925,17.925,0,0,1,2.717,4.03A18.575,18.575,0,0,1,40.161,19.581Z" transform="translate(-3 -1)" fill="#aab2bd"/>
        </g>
        <g id="Grupo_157123" data-name="Grupo 157123" transform="translate(34.839 22.065)">
          <path id="Trazado_247344" data-name="Trazado 247344" d="M37.968,23.484v2.323a3.5,3.5,0,0,1-3.484,3.484H31V20h3.484a3.219,3.219,0,0,1,1.161.209A3.446,3.446,0,0,1,37.968,23.484Z" transform="translate(-31 -20)" fill="#aab2bd"/>
        </g>
        <g id="Grupo_157124" data-name="Grupo 157124" transform="translate(0 22.065)">
          <path id="Trazado_247345" data-name="Trazado 247345" d="M3.323,29.081A3.446,3.446,0,0,1,1,25.806V23.484a3.446,3.446,0,0,1,2.323-3.275A3.219,3.219,0,0,1,4.484,20H7.968v9.29H4.484A3.219,3.219,0,0,1,3.323,29.081Z" transform="translate(-1 -20)" fill="#aab2bd"/>
        </g>
        <g id="Grupo_157125" data-name="Grupo 157125" transform="translate(13.935 42.968)">
          <path id="Trazado_247346" data-name="Trazado 247346" d="M17.645,38a2.339,2.339,0,0,1,2.323,2.323,2.329,2.329,0,0,1-2.323,2.323H13V40.323a2.329,2.329,0,0,1,2.021-2.3,2.452,2.452,0,0,1,.3-.023Z" transform="translate(-13 -38)" fill="#aab2bd"/>
        </g>
      </g>
      <g id="Grupo_157127" data-name="Grupo 157127">
        <rect id="Rectángulo_89837" data-name="Rectángulo 89837" width="2" height="2" transform="translate(56 49)" fill="#12263f"/>
        <rect id="Rectángulo_89838" data-name="Rectángulo 89838" width="7" height="2" transform="translate(60 49)" fill="#12263f"/>
        <rect id="Rectángulo_89839" data-name="Rectángulo 89839" width="11" height="3" transform="translate(56 53)" fill="#12263f"/>
        <rect id="Rectángulo_89840" data-name="Rectángulo 89840" width="11" height="2" transform="translate(56 58)" fill="#12263f"/>
        <rect id="Rectángulo_89841" data-name="Rectángulo 89841" width="2" height="2" transform="translate(56 65)" fill="#12263f"/>
        <rect id="Rectángulo_89842" data-name="Rectángulo 89842" width="2" height="2" transform="translate(65 65)" fill="#12263f"/>
        <rect id="Rectángulo_89843" data-name="Rectángulo 89843" width="3" height="2" transform="translate(60 65)" fill="#12263f"/>
        <path id="Trazado_247347" data-name="Trazado 247347" d="M39.484,44.129v7.353A15,15,0,0,0,32.2,47.6l-4.325-.927V44.934l1-.375a12.844,12.844,0,0,0,8.119-9.915,19.528,19.528,0,0,0,12.945,4.84,19.742,19.742,0,1,0-13.923-33.7A19.732,19.732,0,0,0,2.323,19.742V22.71A4.63,4.63,0,0,0,0,26.71v2.323a4.63,4.63,0,0,0,2.323,4v4.13A12.781,12.781,0,0,0,9.2,48.48,15.185,15.185,0,0,0,0,62.362V72H72V44.129Zm6.968,2.323H51.1v9.29H46.452Zm-6.968,8.585v10H34.839V60.387H32.516v9.29h-9.29V56.751l6.632,4.422L31.9,49.925A12.68,12.68,0,0,1,39.484,55.037ZM16.258,47.613V46.452a1.163,1.163,0,0,1,1.161-1.161h2.323a1.161,1.161,0,0,1,0,2.323Zm1.315,2.323,2.881,4.323-4.531,3.021-1.34-7.37c.172.007.341.026.514.026Zm12.061-.509-1.427,7.851-4.531-3.021,3.563-5.344Zm-1.578-7.042-1,.375a2.33,2.33,0,0,0-1.509,2.173v2.328l-3.484,5.226-1.74-2.611a3.478,3.478,0,0,0-.583-6.909H17.477a2.254,2.254,0,0,0-.4-.208l-1-.376A10.5,10.5,0,0,1,9.29,32.6V20.9H15.1a12.846,12.846,0,0,0,9.4-4.123,16.88,16.88,0,0,0,10.345,4.106V32.6A10.5,10.5,0,0,1,28.056,42.385ZM40.062,11.671a12.821,12.821,0,0,1,8.712-4.634V9.29H51.1V7.027a12.72,12.72,0,0,1,7.007,2.9l-1.6,1.6,1.642,1.642,1.6-1.6a12.708,12.708,0,0,1,2.9,7.007H60.387V20.9H62.65a12.72,12.72,0,0,1-2.9,7.007l-1.6-1.6L56.5,27.953l1.6,1.6a12.708,12.708,0,0,1-7.007,2.9V30.194H48.774v2.265A12.669,12.669,0,0,1,43.728,30.9a4.625,4.625,0,0,0,.4-1.872V26.71a4.63,4.63,0,0,0-2.323-4V19.742A19.593,19.593,0,0,0,40.062,11.671ZM41.806,26.71v2.323a2.325,2.325,0,0,1-2.323,2.323H37.161V24.387h2.323A2.325,2.325,0,0,1,41.806,26.71ZM16.622,13.935A10.367,10.367,0,0,0,9.7,16.567,12.764,12.764,0,0,1,34.778,18.54a14.578,14.578,0,0,1-9.57-4.264l-.946-.946-.8,1.071A10.5,10.5,0,0,1,15.1,18.581H10.938a8.071,8.071,0,0,1,5.683-2.323h.8V13.935ZM49.935,2.323a17.419,17.419,0,0,1,0,34.839A17.229,17.229,0,0,1,39.5,33.675a4.6,4.6,0,0,0,2.753-.939,15.095,15.095,0,1,0,7.677-28.09,15.17,15.17,0,0,0-11.05,4.816,19.829,19.829,0,0,0-1.339-1.93A17.42,17.42,0,0,1,49.935,2.323ZM4.645,19.742a17.419,17.419,0,1,1,34.839,0v2.323H37.161V19.742h0v-1.16H37.1a15.081,15.081,0,0,0-30.075,0H6.968v1.16h0v2.323H4.645ZM2.323,26.71a2.325,2.325,0,0,1,2.323-2.323H6.968v6.968H4.645a2.325,2.325,0,0,1-2.323-2.323ZM4.645,37.161V33.677H7.018a12.839,12.839,0,0,0,7.668,10.641,3.445,3.445,0,0,0-.75,2.133v1.1A10.467,10.467,0,0,1,4.645,37.161Zm7.58,12.761,2.046,11.249L20.9,56.751V69.677h-9.29v-9.29H9.29v4.645H2.323v-2.67A12.837,12.837,0,0,1,12.225,49.923Zm-9.9,17.432H9.29v2.323H2.323Zm32.516,2.323V67.355h4.645v2.323Zm34.839,0H41.806V46.452h2.323V58.065h9.29V46.452H69.677Z" fill="#12263f"/>
        <path id="Trazado_247348" data-name="Trazado 247348" d="M19.887,33.387A4.645,4.645,0,0,1,15.629,30.6l-2.129.929a6.969,6.969,0,0,0,12.774,0L24.146,30.6A4.645,4.645,0,0,1,19.887,33.387Z" transform="translate(2.177 4.935)" fill="#12263f"/>
        <path id="Trazado_247349" data-name="Trazado 247349" d="M18.591,30.846l1.283-.642a2.325,2.325,0,0,0,1.039-3.117l-.519-1.038V24H18.072v2.323a1.164,1.164,0,0,0,.122.519l.642,1.283-1.283.642Z" transform="translate(2.831 3.871)" fill="#12263f"/>
        <path id="Trazado_247350" data-name="Trazado 247350" d="M25.484,20A3.488,3.488,0,0,0,22,23.484v2.323h2.323V23.484a1.161,1.161,0,1,1,2.323,0v2.323h2.323V23.484A3.488,3.488,0,0,0,25.484,20Z" transform="translate(3.548 3.226)" fill="#12263f"/>
        <path id="Trazado_247351" data-name="Trazado 247351" d="M14.645,23.484v2.323h2.323V23.484a3.484,3.484,0,1,0-6.968,0v2.323h2.323V23.484a1.161,1.161,0,1,1,2.323,0Z" transform="translate(1.613 3.226)" fill="#12263f"/>
        <path id="Trazado_247352" data-name="Trazado 247352" d="M43.484,21.29c.075,0,.146-.017.221-.022l2.2,5.125,2.134-.915L45.84,20.357a3.457,3.457,0,0,0-1.195-5.82V12H42.323v2.536a3.475,3.475,0,0,0,1.161,6.754Zm0-4.645a1.161,1.161,0,1,1-1.161,1.161A1.163,1.163,0,0,1,43.484,16.645Z" transform="translate(6.452 1.935)" fill="#12263f"/>
      </g>
    </g>
  </g>
</svg>
