<svg xmlns="http://www.w3.org/2000/svg" width="122" height="122" viewBox="0 0 122 122">
  <g id="Grupo_146846" data-name="Grupo 146846" transform="translate(-388 -1405)">
    <g id="Elipse_5542" data-name="Elipse 5542" transform="translate(388 1405)" fill="#f5feff" stroke="#0082b2" stroke-width="2">
      <circle cx="61" cy="61" r="61" stroke="none"/>
      <circle cx="61" cy="61" r="60" fill="none"/>
    </g>
    <circle id="Elipse_5549" data-name="Elipse 5549" cx="43" cy="43" r="43" transform="translate(406 1423)" fill="#dff7f9"/>
    <g id="Grupo_157129" data-name="Grupo 157129" transform="translate(411.474 1430.078)">
      <path id="Trazado_247353" data-name="Trazado 247353" d="M79.556,38.808C78.9,30.518,81.1,21.059,75.73,14.46c-2-2.462-5.273-3.478-9.248-3.876-5.123-.515-11.424.349-15.819.055-6.393-.411-28.466-.344-33.95,3.376-6.47,4.394-5.478,7.8-5.746,18.774-.283,11.373-.324,16.384-.971,26.462-.391,6.1-.437,16.877,9.893,19.293,6.65,1.542,34.767.463,45.616-.4,9.538-.761,12.514-7.524,13.953-13.825C80.492,59.786,79.834,42.431,79.556,38.808Z" transform="translate(-7.956 -9.003)" fill="#a7e446"/>
      <path id="Trazado_247354" data-name="Trazado 247354" d="M80.351,26.751c-.133,4.515-2.872,6.411-6.411,6.411s-5.845-2.955-6.411-6.411S70.4,20.34,73.939,20.34a6.347,6.347,0,0,1,6.411,6.411Z" transform="translate(-38.378 -9.735)" fill="#feca2e"/>
      <path id="Trazado_247355" data-name="Trazado 247355" d="M83.428,86.215c.032-2.508-3.033-2.453-4.064-4.276a7.005,7.005,0,0,1-.46-3.77c.032-1.57.051-3.134.028-4.7-.041-3.337-.069-6.674-.06-10.015,0-1.542.29-3.222-1.224-4.193-1.146-.732-3.337-.5-4.6-.506a75.6,75.6,0,0,0-8.607.069c-2.016.216-4.8-.115-5.017,2.568-.106,1.293-.322,2.923.81,3.829.644.52,1.514.617,2.172,1.141A4.142,4.142,0,0,1,63.918,69.5c.092,2.145,0,4.317,0,6.444,0,2.5.612,6.025-1.942,7.488-.506.29-1.1.368-1.588.672a2.628,2.628,0,0,0-1.16,2.232,5.826,5.826,0,0,0,.295,3.134,2.656,2.656,0,0,0,2.4,1.28c1.519.046,3.061,0,4.6,0H77.574c1.381,0,3.309.354,4.557-.318C83.7,89.6,83.41,87.748,83.428,86.215Z" transform="translate(-33.893 -30.417)" fill="#feca2e"/>
      <path id="Trazado_247356" data-name="Trazado 247356" d="M76.013,28.6c-.051,2.016-1.178,3.636-2.182,5.284s-3.493,2.3-5.293,2.228a7.837,7.837,0,0,1-7.64-7.521A7.4,7.4,0,0,1,68.547,21,7.579,7.579,0,0,1,76.013,28.6Zm-2.5,0c.221-2.785-2.38-5.063-5.16-4.957A4.949,4.949,0,0,0,63.319,28.6a5.252,5.252,0,0,0,5.229,4.952C71.493,33.574,73.293,31.287,73.509,28.6Z" transform="translate(-31.831 -11.091)" fill="#12263f"/>
      <path id="Trazado_247357" data-name="Trazado 247357" d="M76.776,89.34c0-1.7,1.109-3.185-.856-4.05-1.1-.46-2.163-.179-3.079-1.27a3.005,3.005,0,0,1-.686-1.841c-.212-2.3.364-4.81.1-7.166-.4-3.457.377-6.858.313-10.337-.051-2.706.074-4.2-1.671-4.722-2.094-.621-7.995.216-11.507.253-.815,0-1.634.023-2.444,0-1.491-.046-4.566-1.1-5.772.17-.764.8-.11,6.683.2,6.9a11.088,11.088,0,0,0,2.03,1.059,3.564,3.564,0,0,1,2.812,3.1,38.326,38.326,0,0,1,.433,6.5,34.463,34.463,0,0,1-.46,4.386,3.75,3.75,0,0,1-2.177,3.222c-.46.189-1.22.074-1.579.272A2.431,2.431,0,0,0,51.323,87.4c0,1.128-.368,4.073-.074,4.985.571,1.7,2.633,1.528,4.115,1.528,2.255-.055,4.506-.46,6.757-.4a78.1,78.1,0,0,0,11.368-.028c.709-.083,2.246.212,2.762-.285C76.979,92.433,76.808,90.877,76.776,89.34Zm-7.765,1.841C66.9,91.452,60.2,90.928,53.947,91c.037-.727-.23-2.467.175-2.927.525-.589,1.887-.851,2.55-1.505a6.269,6.269,0,0,0,1.813-4.142c.115-1.546,0-3.144,0-4.685a47.146,47.146,0,0,0,0-6.6,5.882,5.882,0,0,0-2.522-4.257c-.6-.4-2.145-.529-2.541-.921s-.189-3.019-.212-3.636c5.463.2,11.332.175,16.809.124.041,4.916-.221,10.02-.152,14.945.037,2.72-.331,6.26,1.528,8.473a5.564,5.564,0,0,0,1.381,1.2c.087.055,1.772.626,1.772.695,0,.971.1,3,.115,3.282-.654.046-4.349-.041-5.652.11Z" transform="translate(-26.39 -31.992)" fill="#12263f"/>
      <path id="Trazado_247358" data-name="Trazado 247358" d="M2.445,40.148c-.18-2.955-.46-5.905-.515-8.865s.156-5.85.235-8.777c.115-4.1-.792-8.943.534-12.887A12.286,12.286,0,0,1,14.09,1.4c4.575-.239,9.168-.239,13.748-.318C34.525.947,41.185.86,47.891.758,50.851.712,53.806.5,56.765.459c2.762-.028,5.643-.06,8.285.99A12.593,12.593,0,0,1,72.929,12.5c.2,5.427.249,10.936.161,16.367-.051,2.969-.281,5.928-.428,8.892-.143,2.872.046,5.735-.032,8.607-.11,3.99-.359,7.981-.539,11.967a13.163,13.163,0,0,1-4.515,9.813C63.7,71.395,58.629,71.188,53.856,71c-4.142-.156-8.248-.5-12.376-.322-4.87.2-9.739.419-14.6.612-2.076.083-4.142.1-6.218.092-3.631,0-7.516.207-10.8-1.579A15.146,15.146,0,0,1,2.307,58.236a65.068,65.068,0,0,1-.1-10.158C2.3,45.422,2.417,42.785,2.445,40.148Zm2.1-.028c.115,5.229.083,10.462.184,15.695.055,2.789.12,5.362,1.68,7.824a11.686,11.686,0,0,0,4.6,4.179,12.045,12.045,0,0,0,5.137,1.036c2.191.1,4.386.055,6.577.032,7.875-.083,15.746-.851,23.616-.7,4.856.092,9.932.921,14.728.087a10.328,10.328,0,0,0,8.446-8.437c.285-1.8.281-3.682.4-5.491.161-2.439.318-4.879.391-7.318.051-1.869-.166-3.682-.17-5.56,0-5.063.649-10.126.631-15.189,0-4.547,0-9.141-.193-13.684a10.236,10.236,0,0,0-7.272-9.205A25.147,25.147,0,0,0,56.217,2.9c-2.531,0-5.063.166-7.585.207-5.132.087-10.255.083-15.387.262-4.906.166-9.817.239-14.728.387-3.254.1-6.715-.115-9.564,1.717a10.268,10.268,0,0,0-4.142,5.1c-.792,2.223-.58,4.6-.414,6.9.368,5.1.391,10.153.29,15.267C4.622,35.223,4.567,37.671,4.548,40.12Z" transform="translate(0 0)" fill="#12263f"/>
    </g>
  </g>
</svg>
