<svg xmlns="http://www.w3.org/2000/svg" xmlns:xlink="http://www.w3.org/1999/xlink" width="610.001" height="521.666" viewBox="0 0 610.001 521.666">
  <defs>
    <clipPath id="clip-path">
      <rect id="Rectángulo_90164" data-name="Rectángulo 90164" width="3.2" height="3.402" fill="none"/>
    </clipPath>
    <clipPath id="clip-path-2">
      <rect id="Rectángulo_90165" data-name="Rectángulo 90165" width="41.112" height="3.507" fill="none"/>
    </clipPath>
    <clipPath id="clip-path-3">
      <rect id="Rectángulo_90166" data-name="Rectángulo 90166" width="23.427" height="26.651" fill="none"/>
    </clipPath>
    <clipPath id="clip-path-4">
      <rect id="Rectángulo_90167" data-name="Rectángulo 90167" width="3.39" height="3.65" fill="none"/>
    </clipPath>
    <clipPath id="clip-path-5">
      <rect id="Rectángulo_90168" data-name="Rectángulo 90168" width="200.745" height="122.183" fill="none"/>
    </clipPath>
    <clipPath id="clip-path-6">
      <rect id="Rectángulo_90169" data-name="Rectángulo 90169" width="204.529" height="118.694" fill="none"/>
    </clipPath>
    <clipPath id="clip-path-7">
      <rect id="Rectángulo_90170" data-name="Rectángulo 90170" width="202.362" height="122.419" fill="none"/>
    </clipPath>
    <clipPath id="clip-path-8">
      <rect id="Rectángulo_90171" data-name="Rectángulo 90171" width="35.54" height="37.066" fill="none"/>
    </clipPath>
  </defs>
  <g id="Grupo_157620" data-name="Grupo 157620" transform="translate(-810 -396.334)">
    <path id="Trazado_248310" data-name="Trazado 248310" d="M561.806,331.4v30.156h87.062V331.4Z" transform="translate(758.055 466.959)" fill="#ffeebc"/>
    <path id="Trazado_248311" data-name="Trazado 248311" d="M557.781,322.68v8.43h93.76v-8.43h-93.76Z" transform="translate(758.427 467.25)" fill="#feca2e"/>
    <path id="Trazado_248312" data-name="Trazado 248312" d="M609.25,361.266h43.836V331.11h3.044v-8.43H607.424v7.651Z" transform="translate(753.837 467.25)" fill="#feca2e"/>
    <rect id="Rectángulo_90136" data-name="Rectángulo 90136" width="17.656" height="4.54" transform="translate(1332.037 803.223)" fill="#feca2e"/>
    <rect id="Rectángulo_90137" data-name="Rectángulo 90137" width="22.671" height="9.586" transform="translate(1329.765 813.437)" fill="#fff"/>
    <path id="Trazado_248313" data-name="Trazado 248313" d="M537.261,318.221l7.174,32.745H529.706Zm102.329,0,7.176,32.745H632.037Zm1.494-6.469,7.631-33.08V346.58ZM528.4,277.8l7.435,33.939-7.149,30.985Zm10.349,33.957,8.127-35.226v72.312Zm91.42-36.524,8,36.507-7.69,33.33Zm-99.549-.575H544.4l-7.064,30.612Zm24.966,0h65.865v76.314H555.931Zm77.365,0h13.768l-7.062,30.612ZM528,187.08H546.88v78.548H528.648l-.062-.282-.236.059Zm27.2,0h66.249v78.548h-65.9Zm74.575,0h18.934v78.548H630.978l-.063-.282-.786.2Zm18.934-9.156v.13h-.525ZM537.261,140.794l8.164,37.26h-16.76Zm101.311,0,8.163,37.261h-16.76Zm-99.819-6.469L546.88,99.1v72.311Zm90.636-35.435,7.762,35.415-7.463,32.337Zm10.674,35.433,8.652-37.5v76.983ZM527.6,96.707l8.238,37.6-7.919,34.328Zm2.047-3.932h15.771l-8.089,35.063Zm25.136,0h66.67v85.279H555.164Zm76.172,0h15.772l-8.088,35.062ZM648.715-81.586V83.748H629.323l-.361-165.334h-7.506V83.748H554.748l-.361-165.334H546.88V83.748H527.544l-.361-165.334h-7.506V415.42h9.338l-.248-55.428H546.88V415.42h9.335l-.246-55.428h65.486V415.42h9.337l-.245-55.428h18.168V415.42h9.335L656.222-81.586Z" transform="translate(761.95 477.92)" fill="#feca2e"/>
    <rect id="Rectángulo_90138" data-name="Rectángulo 90138" width="12.401" height="61.561" transform="translate(1365.191 594.769)" fill="#feca2e"/>
    <path id="Trazado_248314" data-name="Trazado 248314" d="M621.068,169.106a2.461,2.461,0,1,1-2.457-2.617,2.54,2.54,0,0,1,2.457,2.617" transform="translate(753.029 472.453)" fill="#fff7de"/>
    <rect id="Rectángulo_90139" data-name="Rectángulo 90139" width="3.794" height="25.16" transform="translate(1369.638 611.076)" fill="#fff7de"/>
    <rect id="Rectángulo_90140" data-name="Rectángulo 90140" width="12.401" height="61.561" transform="translate(1352.594 594.769)" fill="#fedd77"/>
    <path id="Trazado_248315" data-name="Trazado 248315" d="M607.187,169.106a2.462,2.462,0,1,1-2.457-2.617,2.54,2.54,0,0,1,2.457,2.617" transform="translate(754.313 472.453)" fill="#fff7de"/>
    <rect id="Rectángulo_90141" data-name="Rectángulo 90141" width="3.794" height="25.16" transform="translate(1357.041 611.076)" fill="#fff7de"/>
    <rect id="Rectángulo_90142" data-name="Rectángulo 90142" width="12.401" height="61.561" transform="translate(1340.599 594.769)" fill="#ffeebc"/>
    <path id="Trazado_248316" data-name="Trazado 248316" d="M593.97,169.106a2.462,2.462,0,1,1-2.457-2.617,2.54,2.54,0,0,1,2.457,2.617" transform="translate(755.535 472.453)" fill="#feca2e"/>
    <rect id="Rectángulo_90143" data-name="Rectángulo 90143" width="3.794" height="25.16" transform="translate(1345.047 611.076)" fill="#feca2e"/>
    <path id="Trazado_248317" data-name="Trazado 248317" d="M567.2,181.555,582.1,127.4,576.96,125l-15.282,54.594Z" transform="translate(758.066 473.836)" fill="#ffeebc"/>
    <path id="Trazado_248318" data-name="Trazado 248318" d="M543.434,274.377v-9.322h61.807l.2,9.322Z" transform="translate(759.753 469.169)" fill="#ffeebc"/>
    <path id="Trazado_248319" data-name="Trazado 248319" d="M605.535,266.63s-54.817.43-58.366,1.319c-.764.192-1.54,3.776,0,4.106s58.366.82,58.366.82Z" transform="translate(759.49 469.117)" fill="#fff"/>
    <path id="Trazado_248320" data-name="Trazado 248320" d="M551.346,264.354v-9.322h48.962l.156,9.322Z" transform="translate(759.021 469.503)" fill="#fedd77"/>
    <path id="Trazado_248321" data-name="Trazado 248321" d="M600.541,256.607s-43.424.43-46.235,1.319c-.607.193-1.223,3.777,0,4.106s46.235.822,46.235.822Z" transform="translate(758.813 469.451)" fill="#fff7de"/>
    <path id="Trazado_248322" data-name="Trazado 248322" d="M551.106,254.827v-9.32h48.96l.156,9.32Z" transform="translate(759.044 469.82)" fill="#feca2e"/>
    <path id="Trazado_248323" data-name="Trazado 248323" d="M600.3,247.081s-43.423.428-46.234,1.32c-.606.191-1.223,3.777,0,4.1s46.234.821,46.234.821Z" transform="translate(758.835 469.769)" fill="#fff7de"/>
    <rect id="Rectángulo_90144" data-name="Rectángulo 90144" width="15.202" height="75.461" transform="translate(1367.955 487.398)" fill="#ffeebc"/>
    <path id="Trazado_248324" data-name="Trazado 248324" d="M628.308,73.006A3.016,3.016,0,1,1,625.3,69.8a3.113,3.113,0,0,1,3.011,3.208" transform="translate(750.563 471.75)" fill="#feca2e"/>
    <rect id="Rectángulo_90145" data-name="Rectángulo 90145" width="4.651" height="30.839" transform="translate(1373.407 507.392)" fill="#feca2e"/>
    <rect id="Rectángulo_90146" data-name="Rectángulo 90146" width="15.198" height="75.461" transform="translate(1352.517 487.398)" fill="#fedd77"/>
    <path id="Trazado_248325" data-name="Trazado 248325" d="M614.427,73.006a3.016,3.016,0,1,1-3.009-3.208,3.113,3.113,0,0,1,3.009,3.208" transform="translate(749.004 471.75)" fill="#fff7de"/>
    <rect id="Rectángulo_90147" data-name="Rectángulo 90147" width="4.649" height="30.839" transform="translate(1357.968 507.392)" fill="#fff7de"/>
    <rect id="Rectángulo_90148" data-name="Rectángulo 90148" width="15.2" height="75.461" transform="translate(1337.813 487.398)" fill="#feca2e"/>
    <path id="Trazado_248326" data-name="Trazado 248326" d="M601.211,73.006A3.017,3.017,0,1,1,598.2,69.8a3.114,3.114,0,0,1,3.011,3.208" transform="translate(747.518 471.75)" fill="#fff7de"/>
    <rect id="Rectángulo_90149" data-name="Rectángulo 90149" width="4.651" height="30.839" transform="translate(1343.263 507.392)" fill="#fff7de"/>
    <path id="Trazado_248327" data-name="Trazado 248327" d="M403.346,387.72V410.4H399.79v2.462h3.556v15.183h66.465V414.234h-4.923v-3.009h4.923v-4.513H472v-2.052h-2.6V387.72Z" transform="translate(773.035 465.083)" fill="#ffeebc"/>
    <path id="Trazado_248328" data-name="Trazado 248328" d="M457.5,387.786V427.8h17.651V413.981h-4.924v-2.756l4.924.093V406.8l2.231,0-.043-2.333-2.6-.068V387.72Z" transform="translate(767.699 465.083)" fill="#feca2e"/>
    <path id="Trazado_248329" data-name="Trazado 248329" d="M453.409,413.387c0,.139-12.027.251-26.859.251s-26.863-.112-26.863-.251,12.025-.251,26.863-.251,26.859.113,26.859.251" transform="translate(773.044 464.236)" fill="#feca2e"/>
    <path id="Trazado_248330" data-name="Trazado 248330" d="M453.409,411c0,.139-12.027.251-26.859.251s-26.863-.112-26.863-.251,12.025-.251,26.863-.251,26.859.113,26.859.251" transform="translate(773.044 464.315)" fill="#feca2e"/>
    <path id="Trazado_248331" data-name="Trazado 248331" d="M457.211,404.588c0,.139-12.028.251-26.859.251s-26.863-.112-26.863-.251,12.025-.251,26.863-.251,26.859.113,26.859.251" transform="translate(772.692 464.529)" fill="#feca2e"/>
    <path id="Trazado_248332" data-name="Trazado 248332" d="M457.577,422.069c0,.139-12.028.251-26.859.251s-26.863-.112-26.863-.251,12.025-.251,26.863-.251,26.859.113,26.859.251" transform="translate(772.659 463.946)" fill="#feca2e"/>
    <path id="Trazado_248333" data-name="Trazado 248333" d="M203.287,419.411c-1.4-1.276-4.515-5.321-2.111-10.025.88-1.726,2.753-2.578,4.448-3.338a17.732,17.732,0,0,0,4.876-2.691c2.645-2.4,3.374-6.376,5.128-9.573,2.015-3.67,5.776-6.419,9.75-6.226,4.549.22,8.344,4.179,10.065,8.692s1.78,9.525,1.815,14.4c.021,2.7-.092,5.733-1.95,7.554-1.712,1.678-4.291,1.7-6.613,1.623l-24.865-.814" transform="translate(791.48 465.088)" fill="#ffeebc"/>
    <path id="Trazado_248334" data-name="Trazado 248334" d="M249.334,345.166H183.94l11.78,74.817a8.189,8.189,0,0,0,5.583,6.66c.075.026.153.044.23.067.194.053.382.124.582.16a7.829,7.829,0,0,0,1.33.163l.011.072.319-.054h29.147a7.681,7.681,0,0,0,1.6-.17,8.166,8.166,0,0,0,6.616-7.312l5.678-51.55.256-2.049h-.03l2.249-20.415ZM237,392.889h-6.711l.677-21.713h7.776Zm2.393-21.713h6.424l-2.392,21.713h-5.775Zm-19.173,45.784L219.81,398.1h9.663l-.588,18.864ZM209.77,398.1h9.39l.407,18.864h-8.422Zm.726,18.864h-7.874c-.748-5.093-1.722-11.712-2.775-18.864h9.272Zm-1.106-24.071-1.584-21.713h10.772l.47,21.713Zm10.307,0-.469-21.713h11.086l-.677,21.713Zm-.582-26.92-.435-20.109H231.1l-.627,20.109Zm-.65,0H207.426l-1.467-20.109h12.072Zm-11.69,0H195.095c-.413-2.777-.8-5.407-1.16-7.771-1.218-8.13-1.676-11.187-1.93-12.338h13.3Zm.38,5.208,1.584,21.713h-9.66c-.325-2.2-.653-4.431-.983-6.661-.757-5.126-1.516-10.25-2.228-15.051Zm-8.732,21.713h-6.311l-3.419-21.713h6.518c1,6.71,2.1,14.178,3.212,21.713m.767,5.208c.962,6.528,1.909,12.964,2.775,18.864H195.9L192.933,398.1Zm30.345,18.864.588-18.864h6.455l-1.513,18.864Zm1.59-50.992.627-20.109h9.016l-1.613,20.109Zm-39.74-20.109c.26,1.454,1.453,9.366,3.052,20.109h-6.564l-3.165-20.109Zm49.386,71.1h-5.054l1.513-18.864h5.619Zm5.617-50.992h-6.581l1.613-20.109H248.6Z" transform="translate(792.992 466.5)" fill="#feca2e"/>
    <rect id="Rectángulo_90150" data-name="Rectángulo 90150" width="32.324" height="68.248" transform="translate(810 550.464)" fill="#fedd77"/>
    <rect id="Rectángulo_90151" data-name="Rectángulo 90151" width="34.925" height="68.248" transform="translate(843.566 550.464)" fill="#fedd77"/>
    <rect id="Rectángulo_90152" data-name="Rectángulo 90152" width="34.925" height="65.942" transform="translate(843.566 623.48)" fill="#fedd77"/>
    <path id="Trazado_248335" data-name="Trazado 248335" d="M80.4,71.607h36.78V11.066h1.243V71.607h29.932V9.722H80.4Z" transform="translate(802.566 477.676)" fill="#fedd77"/>
    <path id="Trazado_249363" data-name="Trazado 249363" d="M80.4,71.607h36.78V11.066h1.243V71.607h29.932V9.722H80.4Z" transform="translate(802.566 407.708)" fill="#fedd77"/>
    <rect id="Rectángulo_90153" data-name="Rectángulo 90153" width="29.932" height="68.248" transform="translate(920.99 550.464)" fill="#fedd77"/>
    <rect id="Rectángulo_90154" data-name="Rectángulo 90154" width="29.932" height="65.942" transform="translate(920.99 623.48)" fill="#fedd77"/>
    <rect id="Rectángulo_90155" data-name="Rectángulo 90155" width="32.324" height="65.942" transform="translate(810 623.48)" fill="#fedd77"/>
    <rect id="Rectángulo_90156" data-name="Rectángulo 90156" width="36.78" height="65.942" transform="translate(882.968 623.48)" fill="#fedd77"/>
    <rect id="Rectángulo_90157" data-name="Rectángulo 90157" width="32.324" height="59.422" transform="translate(810 690.603)" fill="#fedd77"/>
    <rect id="Rectángulo_90158" data-name="Rectángulo 90158" width="29.932" height="59.422" transform="translate(920.99 690.602)" fill="#fedd77"/>
    <path id="Trazado_248336" data-name="Trazado 248336" d="M32.324,71.607V11.066h1.242V71.607H68.492V9.722H0V71.607Z" transform="translate(810 477.676)" fill="#fedd77"/>
    <path id="Trazado_249362" data-name="Trazado 249362" d="M32.324,71.607V11.066h1.242V71.607H68.492V9.722H0V71.607Z" transform="translate(810 407.708)" fill="#fedd77"/>
    <rect id="Rectángulo_90159" data-name="Rectángulo 90159" width="36.78" height="59.422" transform="translate(882.968 690.603)" fill="#fedd77"/>
    <rect id="Rectángulo_90160" data-name="Rectángulo 90160" width="34.925" height="59.422" transform="translate(843.566 690.602)" fill="#fedd77"/>
    <rect id="Rectángulo_90161" data-name="Rectángulo 90161" width="36.78" height="68.248" transform="translate(882.968 550.464)" fill="#fedd77"/>
    <path id="Trazado_248337" data-name="Trazado 248337" d="M57.03,358.123A17.479,17.479,0,0,1,68.5,356.637a9.285,9.285,0,0,1,5.669,2.7c1.416,1.666,1.684,4.6.058,6.028a5.182,5.182,0,0,1-3.575.966c-3.033-.038-6.4-.607-8.822,1.338-1.383,1.109-2.3,2.952-3.956,3.5a3.824,3.824,0,0,1-4.3-2.038,7.533,7.533,0,0,1-.486-5.251,8.072,8.072,0,0,1,3.937-5.752" transform="translate(805.114 466.13)" fill="#fedd77"/>
    <path id="Trazado_248338" data-name="Trazado 248338" d="M48.44,340.015c2.135,3.247,6.283,2.172,8.206.19s2.736-4.855,3.476-7.594c1.691-6.258,3.4-12.824,2.138-19.2a10.984,10.984,0,0,0-2.3-5.219A5.046,5.046,0,0,0,55,306.437c-2.092.589-3.391,2.771-4.331,4.847a48.227,48.227,0,0,0-4.245,19.638c-.011,3.164.339,6.481,2.015,9.093" transform="translate(805.707 467.796)" fill="#fedd77"/>
    <path id="Trazado_248339" data-name="Trazado 248339" d="M39.683,345.033c2.317-2.93,2.757-7.2,1.726-10.872a21.034,21.034,0,0,0-6.046-9.341,32.176,32.176,0,0,0-10.825-6.8,10.917,10.917,0,0,0-4.869-.881,5.074,5.074,0,0,0-4.086,2.633c-1.139,2.314-.047,5.121,1.134,7.412a88.713,88.713,0,0,0,7.111,11.534c2.131,2.926,4.572,5.814,7.82,7.136s6.622,1.167,8.344-1.233" transform="translate(808.604 467.436)" fill="#fedd77"/>
    <path id="Trazado_248340" data-name="Trazado 248340" d="M48.482,390.815a7.468,7.468,0,0,0,.193-1.475c.1-1.074.221-2.422.368-4.026.176-1.695.408-3.711.85-5.906a47.832,47.832,0,0,1,2.016-6.971,26.17,26.17,0,0,1,3.342-6.307,12.692,12.692,0,0,1,4.225-3.742,11.281,11.281,0,0,1,3.558-1.179A6.3,6.3,0,0,0,64.412,361a6.024,6.024,0,0,0-1.4-.023A10.244,10.244,0,0,0,59.3,362a12.606,12.606,0,0,0-4.457,3.773,25.577,25.577,0,0,0-3.463,6.434,44.721,44.721,0,0,0-2,7.085,53.007,53.007,0,0,0-.738,5.981c-.12,1.71-.165,3.094-.187,4.051a7.368,7.368,0,0,0,.029,1.49" transform="translate(805.521 465.975)" fill="#feca2e"/>
    <path id="Trazado_248341" data-name="Trazado 248341" d="M48.742,386.345a3.094,3.094,0,0,0,.037-.684c0-.515,0-1.163,0-1.958,0-1.7,0-4.158.082-7.193.141-6.072.632-12.607,1.58-21.82.9-8.663,2.1-18.746,3.374-25.3.272-1.491.547-2.832.806-4.007s.456-2.192.66-3.014c.175-.773.317-1.4.429-1.9a3.062,3.062,0,0,0,.113-.676,2.975,2.975,0,0,0-.223.642c-.14.493-.317,1.114-.534,1.875-.237.814-.479,1.823-.756,3s-.592,2.508-.89,4a235.745,235.745,0,0,0-3.548,23.477c-.949,9.232-1.378,17.638-1.416,23.726-.034,3.043.027,5.507.1,7.208.046.795.083,1.442.113,1.957a3.028,3.028,0,0,0,.078.68" transform="translate(805.521 467.346)" fill="#feca2e"/>
    <path id="Trazado_248342" data-name="Trazado 248342" d="M46.74,370.3a13.83,13.83,0,0,0-.014-2.046c-.071-1.314-.24-3.213-.588-5.54a77.244,77.244,0,0,0-1.692-8.073,69.024,69.024,0,0,0-3.169-9.552,51.3,51.3,0,0,0-9.307-15.436,24.3,24.3,0,0,0-2.189-2.168c-.336-.3-.633-.6-.936-.843L28,326.022a11.916,11.916,0,0,0-1.616-1.1,58.4,58.4,0,0,1,5.3,5.034,54.176,54.176,0,0,1,9.074,15.38,78.914,78.914,0,0,1,3.187,9.465c.831,2.966,1.383,5.694,1.8,7.992.4,2.3.626,4.184.765,5.486a13.934,13.934,0,0,0,.235,2.026" transform="translate(807.561 467.175)" fill="#feca2e"/>
    <path id="Trazado_248343" data-name="Trazado 248343" d="M32.6,401.453l1.526,22.258H60.973L62.5,401.453Z" transform="translate(806.985 464.625)" fill="#feca2e"/>
    <rect id="Rectángulo_90162" data-name="Rectángulo 90162" width="35.691" height="8.774" transform="translate(836.996 857.305)" fill="#feca2e"/>
    <path id="Trazado_248344" data-name="Trazado 248344" d="M29.746,423.6v2.432h35.1V423.6Z" transform="translate(807.25 463.888)" fill="#fedd77"/>
    <path id="Trazado_248345" data-name="Trazado 248345" d="M33.238,430.393l-1.644-4.28H63.74l-1.918,4.28Z" transform="translate(807.079 463.804)" fill="#feca2e"/>
    <path id="Trazado_248346" data-name="Trazado 248346" d="M62.046,408.87a.931.931,0,0,1-.125.2l-.4.566-1.564,2.132-.07.095-.067-.1-3.842-5.66H56.2l-3.782,5.705-.119.179-.133-.168-4.486-5.685.258,0-.246.331-4.011,5.356-.134.179-.123-.187-3.784-5.7.221.012L35.2,411.779l-.083.1-.063-.113-1.459-2.612c-.153-.283-.277-.512-.375-.7a1.126,1.126,0,0,1-.114-.248,1.139,1.139,0,0,1,.156.22l.415.67,1.532,2.564-.146-.013,4.586-5.725.116-.145.1.156,3.818,5.677-.257-.007c1.271-1.7,2.614-3.5,4-5.364l.247-.331.127-.17.132.166,4.473,5.7-.251.011,3.821-5.676.112-.166.11.166,3.76,5.722-.136,0,1.626-2.077.436-.538a.923.923,0,0,1,.162-.173" transform="translate(806.939 464.482)" fill="#ffeebc"/>
    <path id="Trazado_248347" data-name="Trazado 248347" d="M62.895,401.295c0,.1-6.727.178-15.022.178s-15.023-.079-15.023-.178,6.725-.178,15.023-.178,15.022.079,15.022.178" transform="translate(806.963 464.637)" fill="#ffeebc"/>
    <path id="Trazado_248348" data-name="Trazado 248348" d="M64.123,426.355c0,.1-7.31.178-16.326.178s-16.328-.079-16.328-.178,7.308-.178,16.328-.178,16.326.079,16.326.178" transform="translate(807.09 463.802)" fill="#ffeebc"/>
    <path id="Trazado_248349" data-name="Trazado 248349" d="M557.788,344.689c-.081.107-.752-.324-1.5-.961s-1.29-1.242-1.21-1.35.752.323,1.5.961,1.29,1.242,1.209,1.35" transform="translate(758.678 466.594)" fill="#12263f"/>
    <path id="Trazado_248350" data-name="Trazado 248350" d="M578.321,310.621a26.7,26.7,0,0,0-.7-9.035c-.9-2.885-2.988-5.537-5.782-6.154-3.189-.7-6.456,1.441-8.243,4.341s-2.4,6.421-2.93,9.844a369.938,369.938,0,0,0-4,71.454l13.049,1.95c5.732-24.943,7.56-46.745,8.6-72.4" transform="translate(758.558 468.162)" fill="#a7e446"/>
    <path id="Trazado_248351" data-name="Trazado 248351" d="M570.446,295.327a.848.848,0,0,1-.059.221l-.215.63q-.32.882-.869,2.4c-.182.524-.425,1.089-.619,1.737s-.407,1.352-.633,2.105-.473,1.563-.731,2.417q-.32,1.308-.673,2.756a127.741,127.741,0,0,0-2.52,13.756c-.706,5.228-1.17,11.017-1.534,17.1-.667,12.178-.771,23.233-1.065,31.227-.14,4-.269,7.232-.412,9.464l-.163,2.57c-.022.269-.04.488-.054.668a.115.115,0,1,1-.047,0c0-.181,0-.4.007-.671.019-.629.044-1.489.076-2.573.088-2.234.166-5.469.263-9.466.211-7.993.262-19.048.93-31.246.365-6.093.842-11.9,1.574-17.135a121.727,121.727,0,0,1,2.627-13.781l.708-2.756q.407-1.279.768-2.414l.672-2.1c.207-.645.463-1.208.658-1.727q.6-1.5.952-2.37c.1-.246.189-.447.259-.611a.807.807,0,0,1,.1-.2" transform="translate(758.143 468.161)" fill="#12263f"/>
    <path id="Trazado_248352" data-name="Trazado 248352" d="M572.445,295.335a10.052,10.052,0,0,1,1.595,2.876,22.563,22.563,0,0,1,1.19,8.992c-.347,7.68-.993,18.264-1.851,29.949s-1.82,22.252-2.589,29.889c-.385,3.818-.719,6.906-.965,9.038q-.187,1.547-.3,2.452c-.035.255-.064.464-.088.637a.762.762,0,0,1-.046.215.782.782,0,0,1,0-.22c.012-.174.026-.385.043-.642q.078-.908.21-2.463c.2-2.183.475-5.264.816-9.052.686-7.644,1.59-18.208,2.453-29.892s1.555-22.267,1.986-29.923a23.062,23.062,0,0,0-1.029-8.908,19.12,19.12,0,0,0-1.426-2.947" transform="translate(757.354 468.16)" fill="#12263f"/>
    <path id="Trazado_248353" data-name="Trazado 248353" d="M582.237,332.485a6.768,6.768,0,0,1-2.473-.682,6.948,6.948,0,0,1-2.316-1.148,6.792,6.792,0,0,1,2.473.682,7,7,0,0,1,2.316,1.148" transform="translate(756.608 466.984)" fill="#12263f"/>
    <path id="Trazado_248354" data-name="Trazado 248354" d="M583.958,317.894a7.8,7.8,0,0,1-2.352,1.393,7.566,7.566,0,0,1-2.544.941,7.831,7.831,0,0,1,2.353-1.394,7.593,7.593,0,0,1,2.543-.94" transform="translate(756.459 467.41)" fill="#12263f"/>
    <path id="Trazado_248355" data-name="Trazado 248355" d="M583.166,305.92c-.009.137-.88.185-1.945.106s-1.923-.253-1.914-.39.88-.185,1.946-.106,1.922.253,1.913.39" transform="translate(756.437 467.822)" fill="#12263f"/>
    <path id="Trazado_248356" data-name="Trazado 248356" d="M568.5,298.145c-.109.073-.681-.685-1.276-1.694a5.073,5.073,0,0,1-.882-1.959c.11-.073.681.685,1.277,1.694a5.073,5.073,0,0,1,.881,1.958" transform="translate(757.637 468.188)" fill="#12263f"/>
    <path id="Trazado_248357" data-name="Trazado 248357" d="M563.441,305.493c0,.137-.832.23-1.853.207s-1.847-.154-1.843-.291.832-.229,1.853-.206,1.846.153,1.843.29" transform="translate(758.245 467.832)" fill="#12263f"/>
    <path id="Trazado_248358" data-name="Trazado 248358" d="M559.917,319.918c-.048.128-.921-.128-1.95-.57s-1.824-.9-1.776-1.03.921.129,1.95.57,1.824.9,1.776,1.031" transform="translate(758.574 467.396)" fill="#12263f"/>
    <path id="Trazado_248359" data-name="Trazado 248359" d="M559.573,332.141c.026.134-.717.414-1.66.624s-1.73.274-1.756.139.717-.415,1.66-.625,1.73-.273,1.756-.138" transform="translate(758.577 466.937)" fill="#12263f"/>
    <path id="Trazado_248360" data-name="Trazado 248360" d="M557.9,352.046c.023.135-.767.4-1.762.589s-1.822.235-1.845.1.766-.4,1.762-.589,1.822-.235,1.845-.1" transform="translate(758.749 466.273)" fill="#12263f"/>
    <path id="Trazado_248361" data-name="Trazado 248361" d="M556.842,363.036c.06.123-.6.619-1.469,1.11s-1.628.792-1.688.67.6-.618,1.469-1.11,1.628-.791,1.688-.67" transform="translate(758.806 465.906)" fill="#12263f"/>
    <path id="Trazado_248362" data-name="Trazado 248362" d="M565.916,375.372c-.112.068-.685-.775-1.281-1.883a5.825,5.825,0,0,1-.877-2.131c.112-.068.686.775,1.281,1.883a5.806,5.806,0,0,1,.877,2.131" transform="translate(757.876 465.628)" fill="#12263f"/>
    <path id="Trazado_248363" data-name="Trazado 248363" d="M568.4,354.784c.09.1-.549.92-1.427,1.838s-1.663,1.581-1.753,1.483.549-.92,1.427-1.838,1.663-1.581,1.753-1.483" transform="translate(757.739 466.181)" fill="#12263f"/>
    <path id="Trazado_248364" data-name="Trazado 248364" d="M567.918,343.817c-.094.094-.687-.424-1.323-1.156s-1.076-1.4-.982-1.495.687.424,1.323,1.157,1.076,1.4.982,1.493" transform="translate(757.704 466.634)" fill="#12263f"/>
    <path id="Trazado_248365" data-name="Trazado 248365" d="M569.654,330.014c.1.092-.437.891-1.189,1.785s-1.441,1.547-1.536,1.455.436-.891,1.189-1.785,1.44-1.547,1.536-1.455" transform="translate(757.582 467.006)" fill="#12263f"/>
    <path id="Trazado_248366" data-name="Trazado 248366" d="M570.63,319.821c-.09.1-.833-.524-1.659-1.389s-1.423-1.645-1.333-1.743.833.524,1.66,1.389,1.422,1.645,1.332,1.743" transform="translate(757.516 467.449)" fill="#12263f"/>
    <path id="Trazado_248367" data-name="Trazado 248367" d="M572.691,306.3a5.037,5.037,0,0,1-.833,1.973c-.571,1.019-1.124,1.788-1.233,1.718a5.044,5.044,0,0,1,.833-1.973c.571-1.019,1.123-1.788,1.233-1.718" transform="translate(757.241 467.796)" fill="#12263f"/>
    <path id="Trazado_248368" data-name="Trazado 248368" d="M576.413,293.665a4.9,4.9,0,0,1-.737,1.975c-.52,1.026-1.034,1.8-1.147,1.739a4.9,4.9,0,0,1,.737-1.975c.52-1.026,1.034-1.8,1.147-1.739" transform="translate(756.88 468.217)" fill="#12263f"/>
    <path id="Trazado_248369" data-name="Trazado 248369" d="M580.551,299.4c.055.124-.467.513-1.166.87s-1.311.544-1.367.421.466-.512,1.166-.869,1.311-.545,1.367-.421" transform="translate(756.556 468.026)" fill="#12263f"/>
    <path id="Trazado_248370" data-name="Trazado 248370" d="M580.424,344.7a5.016,5.016,0,0,1-2.552-.658,5.293,5.293,0,0,1-2.214-1.507,12.4,12.4,0,0,1,2.4,1.05,12.553,12.553,0,0,1,2.37,1.116" transform="translate(756.774 466.589)" fill="#12263f"/>
    <path id="Trazado_248371" data-name="Trazado 248371" d="M578.826,354.378c.024.134-.761.41-1.755.614s-1.82.261-1.844.126.761-.409,1.756-.614,1.819-.26,1.843-.126" transform="translate(756.813 466.196)" fill="#12263f"/>
    <path id="Trazado_248372" data-name="Trazado 248372" d="M576.751,370.705c-.075.1-1.073-.623-1.987-1.857a5.551,5.551,0,0,1-1.246-2.484,16.038,16.038,0,0,1,1.612,2.175,16.294,16.294,0,0,1,1.622,2.166" transform="translate(756.974 465.794)" fill="#12263f"/>
    <path id="Trazado_248373" data-name="Trazado 248373" d="M553.968,378.306c-.083-.1.446-.734,1.184-1.406s1.4-1.132,1.487-1.028-.446.734-1.184,1.406-1.4,1.132-1.487,1.028" transform="translate(758.78 465.478)" fill="#12263f"/>
    <path id="Trazado_248374" data-name="Trazado 248374" d="M546.285,342.219c-.849-2.826-2.443-6.118-5.227-6.161a4.628,4.628,0,0,0-3.915,2.791,10.857,10.857,0,0,0-1.058,5.114,141.133,141.133,0,0,0,5.984,37.023h10.189a136.636,136.636,0,0,0-5.973-38.767" transform="translate(760.434 466.804)" fill="#a7e446"/>
    <path id="Trazado_248375" data-name="Trazado 248375" d="M525.237,323.7c-1.424-6.067-5.673-9.345-10.607-9.648-4.5.841-6.25,5.563-6.785,10.4s.875,9.65,2.267,14.29q6.706,22.341,13.413,44.682l12.675-1.474C532.188,362,529.884,343.5,525.237,323.7" transform="translate(763.055 467.537)" fill="#a7e446"/>
    <path id="Trazado_248376" data-name="Trazado 248376" d="M541.391,336.058a11.536,11.536,0,0,0-.863,1.536,10.728,10.728,0,0,0-.477,4.8c.2,2.063.419,4.547.744,7.269s.793,5.713,1.366,8.83c1.152,6.235,2.449,11.83,3.273,15.908.417,2.038.732,3.693.931,4.84.084.528.155.965.212,1.324a1.835,1.835,0,0,1,.044.468,1.732,1.732,0,0,1-.135-.448c-.081-.355-.18-.785-.3-1.305l-1.074-4.8c-.906-4.053-2.254-9.636-3.411-15.89-.574-3.126-1.024-6.127-1.334-8.868-.162-1.371-.27-2.679-.374-3.9s-.218-2.353-.272-3.4a10.429,10.429,0,0,1,.641-4.9,4.265,4.265,0,0,1,1.028-1.455" transform="translate(760.1 466.804)" fill="#12263f"/>
    <path id="Trazado_248377" data-name="Trazado 248377" d="M515.145,313.656a17.982,17.982,0,0,0-1.532,2.192,16.155,16.155,0,0,0-1.93,7.065,34.642,34.642,0,0,0,1.568,10.869l3.617,13.056c2.528,9.255,4.815,17.629,6.488,23.753.8,3.007,1.448,5.459,1.915,7.214.206.818.372,1.472.5,1.968a4.071,4.071,0,0,1,.143.7,3.99,3.99,0,0,1-.233-.667l-.582-1.942-2.057-7.17c-1.706-6.113-4.04-14.474-6.619-23.713l-3.583-13.072a34.25,34.25,0,0,1-1.484-11.017,15.832,15.832,0,0,1,2.1-7.144,8.17,8.17,0,0,1,1.685-2.09" transform="translate(762.725 467.55)" fill="#12263f"/>
    <path id="Trazado_248378" data-name="Trazado 248378" d="M534.071,380.5a3.929,3.929,0,0,1-.286-.647c-.167-.433-.437-1.063-.722-1.9-.6-1.659-1.379-4.1-2.18-7.17s-1.6-6.763-2.362-10.889c-.735-4.134-1.541-8.668-2.387-13.43-.882-4.753-1.863-9.25-3-13.264a76.878,76.878,0,0,0-3.7-10.4,56.414,56.414,0,0,0-3.417-6.559c-.437-.757-.832-1.3-1.068-1.7a3.928,3.928,0,0,1-.355-.608,3.792,3.792,0,0,1,.43.548c.261.377.682.907,1.143,1.649a49.985,49.985,0,0,1,3.563,6.514,73.312,73.312,0,0,1,3.809,10.422c1.168,4.026,2.165,8.538,3.049,13.3.833,4.765,1.627,9.3,2.351,13.44.741,4.123,1.5,7.817,2.259,10.885s1.481,5.52,2.032,7.2c.259.844.5,1.484.639,1.929a4.173,4.173,0,0,1,.2.683" transform="translate(762.42 467.541)" fill="#12263f"/>
    <path id="Trazado_248379" data-name="Trazado 248379" d="M510.28,337.286c.031.133-.659.426-1.54.654s-1.619.3-1.65.171.659-.426,1.54-.654,1.62-.3,1.65-.171" transform="translate(763.113 466.765)" fill="#12263f"/>
    <path id="Trazado_248380" data-name="Trazado 248380" d="M508.688,327.747a14.721,14.721,0,0,1-4.287.179,6.956,6.956,0,0,1,4.287-.179" transform="translate(763.362 467.09)" fill="#12263f"/>
    <path id="Trazado_248381" data-name="Trazado 248381" d="M510.415,318.963c-.083.1-.772-.372-1.538-1.064s-1.32-1.338-1.236-1.442.771.371,1.538,1.064,1.32,1.338,1.236,1.442" transform="translate(763.063 467.457)" fill="#12263f"/>
    <path id="Trazado_248382" data-name="Trazado 248382" d="M514.919,310.991c.129.031.094.687.074,1.481s-.024,1.451-.154,1.473-.336-.638-.311-1.488.27-1.5.392-1.466" transform="translate(762.426 467.639)" fill="#12263f"/>
    <path id="Trazado_248383" data-name="Trazado 248383" d="M523.485,314.788c.1.078-.205.743-.693,1.485s-.968,1.28-1.074,1.2.2-.744.692-1.486.968-1.279,1.075-1.2" transform="translate(761.763 467.513)" fill="#12263f"/>
    <path id="Trazado_248384" data-name="Trazado 248384" d="M529,324.6c.049.127-.608.532-1.466.9s-1.594.571-1.642.445.607-.532,1.466-.9,1.593-.571,1.642-.445" transform="translate(761.375 467.187)" fill="#12263f"/>
    <path id="Trazado_248385" data-name="Trazado 248385" d="M532.316,334.7a3.753,3.753,0,0,1-2.009.934,3.611,3.611,0,0,1-2.192.081,39.426,39.426,0,0,1,4.2-1.015" transform="translate(761.17 466.85)" fill="#12263f"/>
    <path id="Trazado_248386" data-name="Trazado 248386" d="M517,331.735c-.122-.041-.034-.715.2-1.506s.521-1.4.643-1.358.035.715-.2,1.506-.521,1.4-.643,1.358" transform="translate(762.202 467.043)" fill="#12263f"/>
    <path id="Trazado_248387" data-name="Trazado 248387" d="M519.2,344.38a4.911,4.911,0,0,1,.574-2.029c.435-1.066.882-1.886,1-1.832a4.888,4.888,0,0,1-.573,2.029c-.435,1.066-.883,1.886-1,1.832" transform="translate(761.997 466.655)" fill="#12263f"/>
    <path id="Trazado_248388" data-name="Trazado 248388" d="M513.417,347.941c-.05.129-.853-.1-1.825-.427s-1.757-.621-1.729-.757.874-.049,1.868.283,1.735.776,1.686.9" transform="translate(762.857 466.449)" fill="#12263f"/>
    <path id="Trazado_248389" data-name="Trazado 248389" d="M516.63,358.321c.075.112-.468.661-1.213,1.227s-1.409.935-1.484.823.468-.661,1.213-1.227,1.409-.934,1.484-.823" transform="translate(762.481 466.063)" fill="#12263f"/>
    <path id="Trazado_248390" data-name="Trazado 248390" d="M519.1,368.626c.031.133-.641.421-1.5.644s-1.579.295-1.61.162.641-.422,1.5-.645,1.579-.295,1.61-.161" transform="translate(762.291 465.721)" fill="#12263f"/>
    <path id="Trazado_248391" data-name="Trazado 248391" d="M532.721,343.312c.064.115-.509.6-1.346.937s-1.57.374-1.592.243.633-.386,1.428-.708,1.444-.593,1.51-.472" transform="translate(761.016 466.563)" fill="#12263f"/>
    <path id="Trazado_248392" data-name="Trazado 248392" d="M534.672,359.3c-.054.124-.739-.1-1.528-.491s-1.385-.818-1.33-.942.739.1,1.528.492,1.384.817,1.33.941" transform="translate(760.828 466.078)" fill="#12263f"/>
    <path id="Trazado_248393" data-name="Trazado 248393" d="M538,370.764a4.581,4.581,0,0,1-2.018-.575c-1.067-.446-1.895-.911-1.848-1.038a4.583,4.583,0,0,1,2.018.575c1.067.446,1.895.911,1.848,1.038" transform="translate(760.613 465.702)" fill="#12263f"/>
    <path id="Trazado_248394" data-name="Trazado 248394" d="M519.962,379.709c-.063-.125.768-.72,1.728-1.527s1.7-1.522,1.8-1.428-.514.984-1.515,1.818-1.959,1.255-2.016,1.137" transform="translate(761.924 465.448)" fill="#12263f"/>
    <path id="Trazado_248395" data-name="Trazado 248395" d="M528.915,373.865c-.133.016-.311-.729-.63-1.6s-.65-1.549-.54-1.631.637.515.975,1.452.319,1.763.2,1.774" transform="translate(761.206 465.652)" fill="#12263f"/>
    <path id="Trazado_248396" data-name="Trazado 248396" d="M526.415,360.12c-.075.111-.607-.159-1.188-.6s-.991-.9-.916-1.006.607.159,1.188.6.991.9.916,1.006" transform="translate(761.522 466.057)" fill="#12263f"/>
    <path id="Trazado_248397" data-name="Trazado 248397" d="M547.513,338.549c.076.11-.442.655-1.157,1.218s-1.358.928-1.434.818.442-.655,1.157-1.218,1.358-.928,1.434-.818" transform="translate(759.616 466.722)" fill="#12263f"/>
    <path id="Trazado_248398" data-name="Trazado 248398" d="M550.607,347.248c.012.132-.8.314-1.8.2s-1.761-.476-1.722-.6.816,0,1.771.108,1.742.157,1.752.3" transform="translate(759.416 466.446)" fill="#12263f"/>
    <path id="Trazado_248399" data-name="Trazado 248399" d="M536.916,349.215c.027.13-.724.418-1.694.484s-1.751-.107-1.74-.241.776-.186,1.709-.254,1.7-.127,1.725.011" transform="translate(760.674 466.368)" fill="#12263f"/>
    <path id="Trazado_248400" data-name="Trazado 248400" d="M538.153,340.932c-.009.131-.768.153-1.6-.256s-1.312-1.032-1.224-1.125.661.308,1.419.674,1.421.566,1.4.708" transform="translate(760.503 466.688)" fill="#12263f"/>
    <path id="Trazado_248401" data-name="Trazado 248401" d="M551.813,356.543c-.069.116-.846-.274-1.736-.87s-1.556-1.175-1.487-1.291.846.274,1.736.871,1.556,1.175,1.487,1.291" transform="translate(759.277 466.194)" fill="#12263f"/>
    <rect id="Rectángulo_90163" data-name="Rectángulo 90163" width="66.336" height="12.523" transform="translate(1275.093 846.374)" fill="#fc4b52"/>
    <path id="Trazado_248402" data-name="Trazado 248402" d="M517.936,391.455,526,428.879h39.536l8.826-37.424Z" transform="translate(762.11 464.958)" fill="#fc4b52"/>
    <path id="Trazado_248403" data-name="Trazado 248403" d="M578.722,394.032c0,.137-14.963.248-33.416.248s-33.42-.111-33.42-.248,14.96-.248,33.42-.248,33.416.111,33.416.248" transform="translate(762.67 464.881)" fill="#12263f"/>
    <path id="Trazado_248404" data-name="Trazado 248404" d="M544.713,349.405c-.109.072-.563-.49-1.013-1.257s-.726-1.448-.616-1.521.562.49,1.012,1.258.726,1.447.617,1.52" transform="translate(759.788 466.452)" fill="#12263f"/>
    <path id="Trazado_248405" data-name="Trazado 248405" d="M544.9,359.8a4.158,4.158,0,0,1,.348-1.9c.314-1.007.667-1.788.79-1.745a4.172,4.172,0,0,1-.348,1.9c-.314,1.006-.667,1.788-.79,1.745" transform="translate(759.621 466.135)" fill="#12263f"/>
    <path id="Trazado_248406" data-name="Trazado 248406" d="M548.291,370.729c-.116.059-.612-.787-1.107-1.889a5.374,5.374,0,0,1-.686-2.1c.116-.059.612.786,1.107,1.889a5.392,5.392,0,0,1,.686,2.1" transform="translate(759.473 465.781)" fill="#12263f"/>
    <path id="Trazado_248407" data-name="Trazado 248407" d="M540.755,379.581c-.1-.09.3-.745.884-1.464s1.139-1.229,1.236-1.139-.3.745-.884,1.465-1.139,1.228-1.236,1.138" transform="translate(760.002 465.44)" fill="#12263f"/>
    <path id="Trazado_248408" data-name="Trazado 248408" d="M538.853,363.665c-.023.135-.661.128-1.426-.015s-1.367-.37-1.345-.506.661-.128,1.426.016,1.368.369,1.345.5" transform="translate(760.433 465.904)" fill="#12263f"/>
    <path id="Trazado_248409" data-name="Trazado 248409" d="M481.614,272.993h10.409S469.185,101.729,470.465,53.415l-1.616,219.578Z" transform="translate(766.649 476.221)" fill="#e0e0e0"/>
    <path id="Trazado_248410" data-name="Trazado 248410" d="M419.285.119s38.9-2.546,37.859,43.331c-3.013,132.719,11.642,232.564,11.642,232.564H323.01V4.863Z" transform="translate(780.134 477.997)" fill="#ebebeb"/>
    <path id="Trazado_248411" data-name="Trazado 248411" d="M316.729,348.4l101.127-.064c12.164-.007,22.019-10.514,22.016-23.468L439.823,54.82c0-12.962-9.872-23.467-22.042-23.459l-101.127.063c-12.163.008-22.018,10.514-22.016,23.469l.05,270.051c0,12.962,9.872,23.467,22.041,23.459" transform="translate(782.757 476.955)" fill="#a7e446"/>
    <path id="Trazado_248412" data-name="Trazado 248412" d="M317.444,41.3l19.606-.012,57.263-.036,6.9,0,17.161-.011c8.523,0,15.435,7.351,15.436,16.429l.048,263.589c0,9.074-6.9,16.432-15.418,16.438l-100.926.063c-8.522,0-15.435-7.352-15.436-16.43l-.048-263.589c0-9.074,6.9-16.431,15.418-16.437" transform="translate(782.074 476.626)" fill="#ebebeb"/>
    <path id="Trazado_248413" data-name="Trazado 248413" d="M330.652.094l96.782.958c-14.189-.7-17.2,5.315-19.527,9.148a19.474,19.474,0,0,0,1.077,22.457,19.9,19.9,0,0,0,11.492,7.193l-106.05.021c-6.172-6.453-7.457-13.324-6.543-19.508C309.624,8.585,319.459.094,330.652.094" transform="translate(781.557 477.997)" fill="#ebebeb"/>
    <path id="Trazado_248414" data-name="Trazado 248414" d="M448.1,5.534a4.054,4.054,0,0,1-.613-.4,16.68,16.68,0,0,0-1.759-1.1A22.508,22.508,0,0,0,438.6,1.656a23.725,23.725,0,0,0-10.993.624c-4.014,1.2-7.779,4.547-10.13,9a21.213,21.213,0,0,0-2.115,13.926,16.514,16.514,0,0,0,2.429,5.684A19.793,19.793,0,0,0,421.3,34.9a23.588,23.588,0,0,0,6.449,4.017c1.659.676,2.626.9,2.611.958a3.914,3.914,0,0,1-.7-.154,18.438,18.438,0,0,1-1.974-.621,22.587,22.587,0,0,1-6.6-3.924,19.834,19.834,0,0,1-3.621-4.041,16.8,16.8,0,0,1-2.534-5.82,21.559,21.559,0,0,1,2.127-14.278c2.406-4.562,6.277-7.988,10.416-9.2a23.666,23.666,0,0,1,11.174-.532,21.694,21.694,0,0,1,7.163,2.554,13.649,13.649,0,0,1,1.728,1.194,4.167,4.167,0,0,1,.557.48" transform="translate(771.673 477.971)" fill="#12263f"/>
    <path id="Trazado_248415" data-name="Trazado 248415" d="M456.017,8.2a11.767,11.767,0,0,1,2.142,1.579,32.088,32.088,0,0,1,5.08,5.831,33.858,33.858,0,0,1,2.852,4.893,26.713,26.713,0,0,1,2.189,6.445c.518,2.436.308,5.1.4,7.861q.112,4.172.234,8.807c.2,6.172.458,12.933.771,20.188.021,3.643-.041,7.393-.06,11.267-.038,3.871-.005,7.85-.013,11.935.038,16.332.33,34.287.986,53.121,1.281,37.686,3.9,71.722,6.19,96.3,1.177,12.289,2.223,22.225,2.98,29.086.379,3.42.675,6.079.877,7.9q.142,1.338.217,2.056c.045.464.057.7.057.7s-.044-.235-.105-.7q-.093-.716-.263-2.05l-.965-7.889c-.814-6.855-1.91-16.785-3.13-29.073-2.377-24.58-5.049-58.624-6.33-96.323-.656-18.84-.935-36.8-.949-53.14.013-4.083-.013-8.068.033-11.936.026-3.865.1-7.629.084-11.247-.3-7.258-.538-14.02-.713-20.2q-.131-4.631-.2-8.812c-.084-2.784.135-5.424-.364-7.812a26.593,26.593,0,0,0-2.13-6.392,34.094,34.094,0,0,0-2.8-4.887A33.127,33.127,0,0,0,458.1,9.862c-.317-.3-.615-.547-.874-.754a7.471,7.471,0,0,0-.66-.507c-.365-.254-.547-.4-.547-.4" transform="translate(767.836 477.727)" fill="#12263f"/>
    <path id="Trazado_248416" data-name="Trazado 248416" d="M431.943,208.44s-1.272,106.493-9.256,122l-140.811-1.948,2.868-12.775L431.991,122.9Z" transform="translate(783.938 473.905)" fill="#e0e0e0"/>
    <path id="Trazado_248417" data-name="Trazado 248417" d="M431.547,58.237s-2.524,235.952-16.735,256.594H277.592s31.57-177.054,22.175-256.523Z" transform="translate(784.333 476.06)" fill="#f5f5f5"/>
    <path id="Trazado_248418" data-name="Trazado 248418" d="M432.737,58.237S430.213,294.189,416,314.831H277.592s22-174.379,22-252.739" transform="translate(784.333 476.06)" fill="#fafafa"/>
    <path id="Trazado_248419" data-name="Trazado 248419" d="M299.57,62.093s.007.422,0,1.251-.021,2.067-.037,3.684-.045,3.634-.074,6.013-.048,5.134-.193,8.237c-.388,12.418-1.313,30.478-2.964,53.048-3.381,45.133-9.624,108.289-18.507,180.538l-.228-.277,71.065-.007,67.345.006-.186.1a24.405,24.405,0,0,0,2.5-6.238c.585-2.192,1.1-4.4,1.523-6.621.87-4.436,1.531-8.881,2.117-13.294,1.163-8.828,2.007-17.539,2.741-26.074,1.448-17.076,2.425-33.466,3.24-48.992,1.595-31.057,2.494-58.668,3.159-81.667s1.029-41.392,1.271-54.033c.114-6.315.2-11.2.262-14.505.03-1.646.053-2.9.068-3.751s.036-1.273.036-1.273.009.43.005,1.274-.015,2.1-.027,3.752c-.043,3.309-.1,8.19-.184,14.507-.191,12.641-.523,31.035-1.133,54.039s-1.489,50.618-3.057,81.681c-.8,15.531-1.767,31.925-3.2,49.011-.73,8.542-1.57,17.257-2.73,26.1-.585,4.419-1.245,8.872-2.116,13.326-.424,2.229-.941,4.449-1.531,6.66a24.758,24.758,0,0,1-2.571,6.39l-.063.1h-.123l-67.345.007-71.065-.007H277.3l.034-.278c8.907-72.235,15.209-135.38,18.67-180.5,1.691-22.562,2.661-40.615,3.1-53.028.157-3.1.188-5.853.231-8.234s.083-4.388.114-6.011.06-2.848.078-3.683.04-1.251.04-1.251" transform="translate(784.36 476.06)" fill="#12263f"/>
    <path id="Trazado_248420" data-name="Trazado 248420" d="M433.833,57.361s-.3-16.412-15.436-16.43-104.46,0-104.46,0-11.886,3.512-11.886,17.6l93.32,7.642Z" transform="translate(782.072 476.637)" fill="#fafafa"/>
    <path id="Trazado_248421" data-name="Trazado 248421" d="M330.61.091a1.522,1.522,0,0,1-.253,0c-.166-.006-.415-.012-.742,0a18,18,0,0,0-2.866.261A19.412,19.412,0,0,0,322.3,1.6,20.079,20.079,0,0,0,316.93,4.8a27.352,27.352,0,0,0-8.876,14.4,20.53,20.53,0,0,0,.4,10.461,22.235,22.235,0,0,0,2.268,5.147,22.952,22.952,0,0,0,3.517,4.576l-.145-.058,26.668.042,55.928.189,16.947.116,4.608.057,1.2.027c.27.009.408.027.408.027s-.139.016-.408.024l-1.2.022-4.608.038-16.947.045-55.928-.043L314.1,39.8h-.087l-.059-.057a23.266,23.266,0,0,1-3.589-4.69,22.574,22.574,0,0,1-2.3-5.257,20.938,20.938,0,0,1-.372-10.689,27.515,27.515,0,0,1,9.077-14.541A20.024,20.024,0,0,1,322.23,1.39a19.056,19.056,0,0,1,4.5-1.2,16.235,16.235,0,0,1,2.888-.187,5.8,5.8,0,0,1,.995.085" transform="translate(781.599 478)" fill="#12263f"/>
    <path id="Trazado_248422" data-name="Trazado 248422" d="M431.992,156.493s.015.285.022.841.009,1.392.016,2.467c0,2.184,0,5.379,0,9.489-.017,8.24-.068,20.163-.221,34.9-.171,14.732-.369,32.276-.976,51.748-.309,9.734-.744,19.959-1.673,30.518s-2.207,21.46-3.98,32.547c-.7,4.337-1.447,8.618-2.266,12.615l-.04.2h-.19c-39.464-.094-74.666-.786-100-1.246l-29.906-.637-8.09-.208-2.1-.068c-.473-.018-.714-.04-.714-.04s.242-.012.715-.01l2.1.02,8.092.117,29.908.482c25.338.37,60.541,1,100,1.087l-.23.2c.814-3.978,1.565-8.259,2.259-12.588,1.771-11.073,3.053-21.963,3.985-32.509s1.378-20.758,1.7-30.488c.631-19.464.863-37.007,1.077-51.736.156-14.724.283-26.641.37-34.892.038-4.11.067-7.305.087-9.488q.02-1.612.031-2.467c.009-.556.026-.841.026-.841" transform="translate(783.938 472.786)" fill="#12263f"/>
    <path id="Trazado_248423" data-name="Trazado 248423" d="M435.833,68.952a83.941,83.941,0,0,1-12.957,0,83.943,83.943,0,0,1,12.957,0" transform="translate(770.9 475.711)" fill="#12263f"/>
    <path id="Trazado_248424" data-name="Trazado 248424" d="M435.833,65.223a83.621,83.621,0,0,1-12.957,0,83.941,83.941,0,0,1,12.957,0" transform="translate(770.9 475.835)" fill="#12263f"/>
    <path id="Trazado_248425" data-name="Trazado 248425" d="M435.833,61.494a83.941,83.941,0,0,1-12.957,0,83.941,83.941,0,0,1,12.957,0" transform="translate(770.9 475.96)" fill="#12263f"/>
    <path id="Trazado_248426" data-name="Trazado 248426" d="M318.485,70.956a2.05,2.05,0,0,1,.279-.019l.774-.028,2.86-.073-.079.086c-.01-.676-.021-1.413-.034-2.209,0-.411-.033-.8,0-1.271a1.129,1.129,0,0,1,.96-.94c.461-.01.867-.032,1.366-.008a1.165,1.165,0,0,1,.938,1.176c.011,1.03.022,2.106.034,3.222l-.132-.139,3.607-.039-.137.149c-.013-1.548-.026-3.148-.04-4.788q-.005-.613-.01-1.22a1.255,1.255,0,0,0-.507-.908l-1.577-1.656-1.521-1.6-.737-.776c-.254-.26-.453-.529-.746-.594a.924.924,0,0,0-.828.169c-.219.2-.452.475-.672.7l-1.3,1.391c-.814.9-1.663,1.725-2.279,2.5a2.894,2.894,0,0,0-.182,1.435c0,.476,0,.928,0,1.354q-.007,1.244-.013,2.181c-.005.557-.011,1.018-.014,1.395-.005.322-.011.495-.017.5a3.731,3.731,0,0,1-.025-.462c-.01-.371-.022-.825-.036-1.374q-.02-.943-.047-2.2-.011-.653-.024-1.38-.005-.368-.011-.756a1.669,1.669,0,0,1,.2-.8c.667-.871,1.464-1.642,2.284-2.569l1.285-1.4c.231-.242.42-.482.7-.735a1.167,1.167,0,0,1,1.045-.219,1.953,1.953,0,0,1,.867.66l.741.772,1.526,1.593,1.581,1.653a3.206,3.206,0,0,1,.4.465,1.317,1.317,0,0,1,.189.648q.005.609.01,1.226c.012,1.639.024,3.24.034,4.788v.148h-.138l-3.607.024h-.133V70.9c-.005-1.117-.011-2.192-.015-3.222a.913.913,0,0,0-.729-.933c-.416-.023-.9-.009-1.309,0a.909.909,0,0,0-.778.747c-.035.386-.008.837-.016,1.228,0,.8,0,1.534,0,2.21v.086H322.4l-2.908-.021-.757-.014a1.284,1.284,0,0,1-.25-.015" transform="translate(780.565 476.034)" fill="#12263f"/>
    <path id="Trazado_248427" data-name="Trazado 248427" d="M361.706,64.782h-1.762V63.412h5.14v1.371h-1.755v4.742h-1.623Z" transform="translate(776.719 475.888)" fill="#fc4b52"/>
    <path id="Trazado_248428" data-name="Trazado 248428" d="M369.735,68.336h-2.426l-.452,1.187H365.2l2.533-6.112h1.6l2.541,6.112h-1.689Zm-.476-1.275-.737-1.956-.739,1.956Z" transform="translate(776.232 475.888)" fill="#fc4b52"/>
    <path id="Trazado_248429" data-name="Trazado 248429" d="M372.62,68.97l.533-1.275a3.467,3.467,0,0,0,1.894.6c.672,0,.935-.2.935-.5,0-.969-3.263-.261-3.263-2.532,0-1.092.837-1.983,2.542-1.983a4.087,4.087,0,0,1,2.082.533l-.5,1.284a3.234,3.234,0,0,0-1.591-.472c-.68,0-.926.245-.926.55,0,.935,3.255.236,3.255,2.489,0,1.065-.837,1.973-2.542,1.973a4.317,4.317,0,0,1-2.419-.672" transform="translate(775.547 475.892)" fill="#fc4b52"/>
    <path id="Trazado_248430" data-name="Trazado 248430" d="M381.123,67.306l-.607.69v1.527H378.91V63.411h1.605v2.541l2.222-2.541h1.788l-2.345,2.707,2.468,3.406h-1.885Z" transform="translate(774.965 475.888)" fill="#fc4b52"/>
    <path id="Trazado_248431" data-name="Trazado 248431" d="M385.126,68.97l.533-1.275a3.464,3.464,0,0,0,1.894.6c.672,0,.935-.2.935-.5,0-.969-3.263-.261-3.263-2.532,0-1.092.837-1.983,2.542-1.983a4.089,4.089,0,0,1,2.082.533l-.5,1.284a3.234,3.234,0,0,0-1.591-.472c-.68,0-.926.245-.926.55,0,.935,3.255.236,3.255,2.489,0,1.065-.837,1.973-2.542,1.973a4.317,4.317,0,0,1-2.419-.672" transform="translate(774.391 475.892)" fill="#fc4b52"/>
    <path id="Trazado_248432" data-name="Trazado 248432" d="M431.881,85.421c0,.139-29.291.251-65.415.251s-65.422-.112-65.422-.251,29.285-.251,65.422-.251,65.415.112,65.415.251" transform="translate(782.165 475.162)" fill="#e0e0e0"/>
    <path id="Trazado_248433" data-name="Trazado 248433" d="M433.125,135.217c0,.139-29.291.251-65.415.251s-65.422-.112-65.422-.251,29.285-.251,65.422-.251,65.415.112,65.415.251" transform="translate(782.05 473.504)" fill="#e0e0e0"/>
    <path id="Trazado_248434" data-name="Trazado 248434" d="M430.965,182.986c0,.139-30.521.251-68.16.251s-68.166-.112-68.166-.251,30.513-.251,68.166-.251,68.16.112,68.16.251" transform="translate(782.757 471.912)" fill="#e0e0e0"/>
    <path id="Trazado_248435" data-name="Trazado 248435" d="M428.581,229.562c0,.139-31.3.251-69.909.251s-69.916-.112-69.916-.251,31.3-.251,69.916-.251,69.909.112,69.909.251" transform="translate(783.301 470.36)" fill="#e0e0e0"/>
    <path id="Trazado_248436" data-name="Trazado 248436" d="M423.679,281.953c0,.139-31.422.251-70.174.251s-70.18-.112-70.18-.251,31.414-.251,70.18-.251,70.174.112,70.174.251" transform="translate(783.804 468.614)" fill="#e0e0e0"/>
    <path id="Trazado_248437" data-name="Trazado 248437" d="M329.007,119.32a1.986,1.986,0,0,1-.023-.32c-.007-.241-.014-.531-.025-.884-.013-.818-.031-1.922-.053-3.3-.026-2.862-.062-6.848-.1-11.609l.2.218-15.122.035c-.054.054.446-.476.235-.249v2.19q0,1.088,0,2.154,0,2.132-.006,4.164c-.008,2.7-.016,5.253-.024,7.6l-.2-.218,10.9.11,3.095.057.829.026a1.537,1.537,0,0,1,.3.024,8.121,8.121,0,0,1-1.046.05l-3.049.056-11.029.111-.2,0v-.219c-.007-2.346-.015-4.9-.024-7.6q0-2.03-.006-4.164,0-1.066,0-2.154v-2.19c-.211.223.287-.309.238-.254l15.122.034h.206l0,.217c-.043,4.818-.078,8.851-.1,11.748-.022,1.355-.04,2.442-.053,3.248a9.8,9.8,0,0,1-.047,1.114" transform="translate(781.005 474.57)" fill="#12263f"/>
    <path id="Trazado_248438" data-name="Trazado 248438" d="M418.616,110.409c0,.139-17.267.251-38.562.251s-38.566-.112-38.566-.251,17.263-.251,38.566-.251,38.562.112,38.562.251" transform="translate(778.426 474.33)" fill="#12263f"/>
    <path id="Trazado_248439" data-name="Trazado 248439" d="M381.279,117.016c0,.139-8.908.251-19.894.251s-19.9-.112-19.9-.251,8.907-.251,19.9-.251,19.894.112,19.894.251" transform="translate(778.426 474.109)" fill="#12263f"/>
    <path id="Trazado_248440" data-name="Trazado 248440" d="M329.834,94.411c.623.172-.566,7.2-3.228,15.5-.331,1.037-.669,2.045-1.007,3.013l-.508,1.421-.253.686-.065.175c-.043.105-.089.21-.137.311a2.61,2.61,0,0,1-.4.552,2.134,2.134,0,0,1-2.3.511,2.182,2.182,0,0,1-.945-.719l-.16-.244-.083-.155-.149-.287c-.388-.761-.714-1.478-1-2.139-1.114-2.649-1.55-4.385-1.265-4.536s1.271,1.308,2.728,3.677l1.2,1.906.165.251.079.117a.05.05,0,0,1,.021.018.108.108,0,0,0,.07.014c.047,0,.11-.042.1-.062s0-.013,0-.018,0-.013,0-.016l.052-.165c.071-.229.143-.46.216-.694q.221-.7.448-1.429l.954-3c2.631-8.207,4.825-14.869,5.464-14.689" transform="translate(780.574 474.854)" fill="#fc4b52"/>
    <path id="Trazado_248441" data-name="Trazado 248441" d="M327.184,169.526a1.866,1.866,0,0,1-.023-.32c-.007-.241-.015-.531-.025-.884-.013-.818-.031-1.922-.053-3.3-.026-2.862-.062-6.848-.1-11.609l.2.217-15.122.035c-.054.054.446-.476.235-.249v2.19q0,1.088,0,2.154,0,2.132-.006,4.164c-.008,2.7-.016,5.253-.024,7.6l-.2-.217,10.9.111,3.095.056.829.026a1.545,1.545,0,0,1,.3.024,8.29,8.29,0,0,1-1.046.049l-3.049.057-11.029.111-.2,0v-.219c-.007-2.346-.015-4.9-.024-7.6q0-2.03-.006-4.164,0-1.066,0-2.154v-2.19c-.211.223.287-.309.238-.254l15.122.034h.206l0,.217c-.043,4.818-.078,8.851-.1,11.748-.022,1.355-.04,2.442-.054,3.248a9.708,9.708,0,0,1-.046,1.114" transform="translate(781.173 472.897)" fill="#12263f"/>
    <path id="Trazado_248442" data-name="Trazado 248442" d="M416.794,160.616c0,.139-17.267.251-38.562.251s-38.566-.112-38.566-.251,17.263-.251,38.566-.251,38.562.112,38.562.251" transform="translate(778.594 472.657)" fill="#12263f"/>
    <path id="Trazado_248443" data-name="Trazado 248443" d="M324.606,216.249a1.969,1.969,0,0,1-.023-.32c-.006-.241-.015-.531-.025-.884-.013-.818-.031-1.922-.053-3.3-.026-2.862-.062-6.848-.1-11.609l.2.218-15.122.035c-.054.054.446-.476.235-.249v1.1c0,.366,0,.73,0,1.092q0,1.088,0,2.154,0,2.132-.006,4.164c-.008,2.7-.015,5.253-.024,7.6l-.2-.217,10.9.111,3.1.056.829.026a1.638,1.638,0,0,1,.3.024,8.285,8.285,0,0,1-1.046.049l-3.049.057-11.029.111-.2,0v-.219c-.007-2.346-.015-4.9-.024-7.6q0-2.03-.006-4.164,0-1.066,0-2.154c0-.363,0-.726,0-1.092v-1.1c-.211.223.287-.309.238-.254l15.122.034h.206l0,.217c-.043,4.818-.078,8.851-.1,11.748-.022,1.355-.04,2.442-.053,3.248a9.805,9.805,0,0,1-.047,1.114" transform="translate(781.411 471.341)" fill="#12263f"/>
    <path id="Trazado_248444" data-name="Trazado 248444" d="M414.216,207.339c0,.139-17.267.251-38.562.251s-38.566-.112-38.566-.251,17.263-.251,38.566-.251,38.562.112,38.562.251" transform="translate(778.832 471.101)" fill="#12263f"/>
    <path id="Trazado_248445" data-name="Trazado 248445" d="M320.57,265.7a1.849,1.849,0,0,1-.023-.32c-.007-.241-.015-.532-.024-.884-.013-.818-.031-1.922-.053-3.3-.026-2.862-.062-6.848-.1-11.609l.2.218-15.122.034c-.054.054.446-.476.235-.249v2.19q0,1.088,0,2.154,0,2.132-.006,4.165c-.008,2.7-.016,5.253-.024,7.6l-.2-.218,10.9.111,3.095.056.829.026a1.65,1.65,0,0,1,.3.024,8.377,8.377,0,0,1-1.046.05l-3.049.056-11.029.111-.2,0V265.7c-.007-2.346-.015-4.9-.024-7.6q0-2.03-.006-4.165,0-1.066,0-2.154c0-.362,0-.726,0-1.092v-1.1c-.211.223.287-.309.238-.254l15.122.034h.206l0,.217c-.043,4.818-.078,8.851-.1,11.748-.022,1.355-.04,2.442-.053,3.248a9.805,9.805,0,0,1-.047,1.114" transform="translate(781.785 469.693)" fill="#12263f"/>
    <path id="Trazado_248446" data-name="Trazado 248446" d="M410.18,256.789c0,.139-17.267.251-38.562.251s-38.567-.112-38.567-.251,17.264-.251,38.567-.251,38.562.112,38.562.251" transform="translate(779.205 469.453)" fill="#12263f"/>
    <path id="Trazado_248447" data-name="Trazado 248447" d="M318.176,312.6a1.867,1.867,0,0,1-.023-.32c-.007-.241-.015-.532-.025-.884-.013-.818-.031-1.922-.053-3.3-.026-2.862-.062-6.848-.1-11.609l.2.217-15.122.035c-.054.054.446-.476.235-.249v2.19q0,1.088,0,2.154,0,2.132-.006,4.164c-.008,2.7-.016,5.253-.024,7.6l-.2-.217,10.9.11,3.095.057.829.026a1.555,1.555,0,0,1,.3.024,8.268,8.268,0,0,1-1.045.049l-3.049.057-11.029.111-.2,0V312.6c-.007-2.346-.015-4.9-.024-7.6q0-2.03-.006-4.164,0-1.066,0-2.154V296.5c-.211.223.287-.309.238-.254l15.122.034h.206l0,.218c-.043,4.818-.078,8.851-.1,11.748-.022,1.355-.04,2.442-.054,3.248a9.994,9.994,0,0,1-.046,1.114" transform="translate(782.006 468.131)" fill="#12263f"/>
    <path id="Trazado_248448" data-name="Trazado 248448" d="M410.742,302.861c0,.139-17.267.251-38.562.251s-38.566-.112-38.566-.251,17.263-.251,38.566-.251,38.562.112,38.562.251" transform="translate(779.153 467.918)" fill="#12263f"/>
    <path id="Trazado_248449" data-name="Trazado 248449" d="M397,213.755c0,.139-13.572.251-30.31.251s-30.314-.112-30.314-.251,13.57-.251,30.314-.251,30.31.112,30.31.251" transform="translate(778.898 470.887)" fill="#12263f"/>
    <path id="Trazado_248450" data-name="Trazado 248450" d="M358.152,264.853c0,.139-5.493.251-12.268.251s-12.27-.112-12.27-.251,5.492-.251,12.27-.251,12.268.112,12.268.251" transform="translate(779.153 469.185)" fill="#12263f"/>
    <path id="Trazado_248451" data-name="Trazado 248451" d="M419.511.271c0,.139-19.311.251-43.125.251s-43.13-.112-43.13-.251S352.562.02,376.386.02s43.125.112,43.125.251" transform="translate(779.187 477.999)" fill="#12263f"/>
    <path id="Trazado_248452" data-name="Trazado 248452" d="M584.214,430.16c0,.139-125.226.251-279.663.251-154.491,0-279.69-.112-279.69-.251s125.2-.251,279.69-.251c154.438,0,279.663.112,279.663.251" transform="translate(807.701 463.677)" fill="#12263f"/>
    <path id="Trazado_248453" data-name="Trazado 248453" d="M189.609,163.714s23.245,34.764,27.6,36.3c14.917,5.279,31.4-31.267,31.4-31.267l-8.865,2.079L223.47,181.756l-17.763-25.865-16.1,9.869" transform="translate(792.469 472.807)" fill="#a57e6d"/>
    <path id="Trazado_248454" data-name="Trazado 248454" d="M223.132,193.221a4.3,4.3,0,0,1-.225-1.689,12.2,12.2,0,0,1,.672-4.059,11.705,11.705,0,0,1,1.964-3.553c.659-.795,1.164-1.172,1.2-1.128a20.434,20.434,0,0,0-2.721,4.855,21.388,21.388,0,0,0-.891,5.574" transform="translate(789.39 471.91)" fill="#755246"/>
    <path id="Trazado_248455" data-name="Trazado 248455" d="M226.732,404.5l3.321,16.636,10.938,1.047,4.607-5.517L241.381,396.8Z" transform="translate(789.036 464.78)" fill="#a57e6d"/>
    <path id="Trazado_248456" data-name="Trazado 248456" d="M153.363,401.716c-.155.543,0,21.285,0,21.285l6.136,3.877,8.014-5.117,1.7-20.046Z" transform="translate(795.826 464.616)" fill="#a57e6d"/>
    <path id="Trazado_248457" data-name="Trazado 248457" d="M146.012,216.214s-7.861,15.857-11.238,28.818-6.6,20.366-3.128,32,8.12,55.75,10.4,67.394c1.88,9.583,6.049,47.131,9.028,59.032h17.07l1.738-133.3s30.294,74.85,33.77,83.843,13.657,47.343,13.657,47.343l17.63-2.909s-10.677-66.388-13.905-82.257-12.415-58.981-16.14-72.47-3.337-22.848-8.621-29.409Z" transform="translate(797.966 470.86)" fill="#12263f"/>
    <path id="Trazado_248458" data-name="Trazado 248458" d="M176.372,218.967c-.014-.024.088-.144.339-.246a1.589,1.589,0,0,1,1.128.013,1.745,1.745,0,0,1,1.115,1.361,2.078,2.078,0,0,1-.807,2.043,1.8,1.8,0,0,1-2.076-.125,1.926,1.926,0,0,1-.174-2.749c.2-.2.342-.242.357-.218a2.612,2.612,0,0,0-.508,1.328,1.47,1.47,0,0,0,.579,1.262,1.418,1.418,0,0,0,1.573.074,1.638,1.638,0,0,0,.627-1.538,1.423,1.423,0,0,0-.81-1.108,2.235,2.235,0,0,0-1.343-.1" transform="translate(793.782 470.716)" fill="#a7e446"/>
    <path id="Trazado_248459" data-name="Trazado 248459" d="M180.894,253.352a1.416,1.416,0,0,1-.414.13,12.118,12.118,0,0,1-1.216.215,15.846,15.846,0,0,1-4.536-.081,10.905,10.905,0,0,1-1.493-.329,1.83,1.83,0,0,1-.758-.469,1.789,1.789,0,0,1-.407-.882c-.141-1.25-.132-2.482-.208-3.837-.105-2.69-.221-5.636-.343-8.726-.231-6.194-.412-11.8-.521-15.86-.042-1.969-.077-3.592-.1-4.808,0-.519,0-.95,0-1.309a1.694,1.694,0,0,1,.031-.457,1.669,1.669,0,0,1,.064.453c.025.358.056.788.093,1.305.064,1.214.15,2.835.253,4.8.194,4.055.429,9.66.66,15.854.108,3.091.211,6.037.306,8.728.06,1.325.047,2.653.157,3.773a1.253,1.253,0,0,0,.9,1.064,11.268,11.268,0,0,0,1.429.346,17.5,17.5,0,0,0,4.465.238c1.059-.078,1.64-.191,1.647-.15" transform="translate(794.199 470.772)" fill="#a7e446"/>
    <path id="Trazado_248460" data-name="Trazado 248460" d="M206.876,231.575a2.607,2.607,0,0,1-.7.553,8.308,8.308,0,0,1-2.2.975,9.364,9.364,0,0,1-7.65-1.144,10.6,10.6,0,0,1-4.362-6.792,9.713,9.713,0,0,1-.155-2.531,2.9,2.9,0,0,1,.153-.914,18.791,18.791,0,0,0,.329,3.367,10.645,10.645,0,0,0,4.284,6.441,9.441,9.441,0,0,0,7.32,1.226,16.08,16.08,0,0,0,2.978-1.182" transform="translate(792.268 470.613)" fill="#a7e446"/>
    <path id="Trazado_248461" data-name="Trazado 248461" d="M184.152,224.323a34.874,34.874,0,0,1-.245-8.114,35.012,35.012,0,0,1,.245,8.114" transform="translate(793.009 470.797)" fill="#a7e446"/>
    <path id="Trazado_248462" data-name="Trazado 248462" d="M187.437,223.729a22.954,22.954,0,0,1-.018-4,22.865,22.865,0,0,1,.211-4,22.585,22.585,0,0,1-.193,8" transform="translate(792.677 470.813)" fill="#a7e446"/>
    <path id="Trazado_248463" data-name="Trazado 248463" d="M200.873,221.825a1.681,1.681,0,0,1-.454.134l-1.319.289c-1.145.247-2.814.547-4.883.867a126.158,126.158,0,0,1-32.6.7c-2.079-.231-3.758-.459-4.912-.656l-1.329-.231a1.7,1.7,0,0,1-.458-.115,1.667,1.667,0,0,1,.471.014l1.339.137c1.16.137,2.842.311,4.92.5a145.984,145.984,0,0,0,32.522-.7c2.07-.275,3.743-.521,4.9-.708l1.332-.2a1.647,1.647,0,0,1,.47-.035" transform="translate(795.676 470.61)" fill="#a7e446"/>
    <path id="Trazado_248464" data-name="Trazado 248464" d="M155.11,224.526a7,7,0,0,1-1.309,2.193,12.866,12.866,0,0,1-4.734,3.731,12.059,12.059,0,0,1-5.807,1.05,6.134,6.134,0,0,1-2.39-.515c.016-.084.924.137,2.4.16a13.226,13.226,0,0,0,5.609-1.157,14.03,14.03,0,0,0,4.669-3.5c1.01-1.152,1.49-2,1.558-1.958" transform="translate(796.975 470.52)" fill="#a7e446"/>
    <path id="Trazado_248465" data-name="Trazado 248465" d="M181.18,247.62c-.131,0-.285-4.72-.345-10.547s0-10.55.127-10.552.285,4.719.345,10.548,0,10.549-.127,10.551" transform="translate(793.282 470.453)" fill="#a7e446"/>
    <path id="Trazado_248466" data-name="Trazado 248466" d="M174.067,271.065a40.884,40.884,0,0,1-.128-6.206,40.922,40.922,0,0,1,.346-6.2,41.11,41.11,0,0,1,.127,6.207,40.86,40.86,0,0,1-.345,6.2" transform="translate(793.92 469.383)" fill="#a7e446"/>
    <path id="Trazado_248467" data-name="Trazado 248467" d="M203.082,258.768a18.7,18.7,0,0,1-2.844.553c-1.761.294-4.191.711-6.863,1.24s-5.081,1.071-6.824,1.47a18.648,18.648,0,0,1-2.841.573,15.134,15.134,0,0,1,2.763-.919c1.727-.489,4.133-1.087,6.816-1.619s5.128-.893,6.9-1.1a14.819,14.819,0,0,1,2.889-.2" transform="translate(793.014 469.38)" fill="#a7e446"/>
    <path id="Trazado_248468" data-name="Trazado 248468" d="M205.628,263.356a25.156,25.156,0,0,1-3.323.125c-2.051.034-4.883.1-8.006.271s-5.948.41-7.992.6a25.242,25.242,0,0,1-3.318.236,3.121,3.121,0,0,1,.874-.215c.566-.107,1.389-.237,2.409-.376,2.039-.279,4.868-.574,8-.746s5.976-.182,8.032-.125c1.027.028,1.859.068,2.432.113a3.09,3.09,0,0,1,.889.119" transform="translate(793.08 469.234)" fill="#a7e446"/>
    <path id="Trazado_248469" data-name="Trazado 248469" d="M165.06,260.2a17.211,17.211,0,0,1-2.335-.987,53.874,53.874,0,0,0-5.689-2.133,53.239,53.239,0,0,0-5.88-1.436,17.052,17.052,0,0,1-2.469-.495,9.861,9.861,0,0,1,2.518.142,36.217,36.217,0,0,1,5.963,1.305,36.611,36.611,0,0,1,5.693,2.291,10.436,10.436,0,0,1,2.2,1.312" transform="translate(796.252 469.501)" fill="#a7e446"/>
    <path id="Trazado_248470" data-name="Trazado 248470" d="M247.9,415.439l.039,1.3s20.935,8.219,21.268,12.395l-41.1,1.036.235-14.582c6.178,2.86,12.58,3.039,19.557-.149" transform="translate(788.908 464.159)" fill="#fc4b52"/>
    <g id="Grupo_157333" data-name="Grupo 157333" transform="translate(1020.36 884.217)" opacity="0.6">
      <g id="Grupo_157332" data-name="Grupo 157332">
        <g id="Grupo_157331" data-name="Grupo 157331" clip-path="url(#clip-path)">
          <path id="Trazado_248471" data-name="Trazado 248471" d="M232.951,420.3a1.806,1.806,0,0,0-1.115,2.07,1.607,1.607,0,0,0,1.917,1.195,1.907,1.907,0,0,0,1.17-2.2,1.643,1.643,0,0,0-2.123-1.007" transform="translate(-231.792 -420.217)" fill="#fff"/>
        </g>
      </g>
    </g>
    <g id="Grupo_157336" data-name="Grupo 157336" transform="translate(1017.019 890.822)" opacity="0.6">
      <g id="Grupo_157335" data-name="Grupo 157335">
        <g id="Grupo_157334" data-name="Grupo 157334" clip-path="url(#clip-path-2)">
          <path id="Trazado_248472" data-name="Trazado 248472" d="M228.11,430.557l.056-3.507,39.372.291s1.848.8,1.672,2.18Z" transform="translate(-228.11 -427.05)" fill="#fff"/>
        </g>
      </g>
    </g>
    <path id="Trazado_248473" data-name="Trazado 248473" d="M249.748,416.9c0,.214-1,.336-1.976,1.049-.989.684-1.477,1.623-1.664,1.544-.186-.038.085-1.322,1.276-2.162s2.4-.627,2.364-.43" transform="translate(787.249 464.116)" fill="#12263f"/>
    <path id="Trazado_248474" data-name="Trazado 248474" d="M254.65,418.756c.051.206-.81.592-1.472,1.513-.687.9-.838,1.882-1.037,1.878-.188.039-.355-1.21.488-2.339s2.012-1.256,2.021-1.052" transform="translate(786.701 464.052)" fill="#12263f"/>
    <path id="Trazado_248475" data-name="Trazado 248475" d="M257.726,424.252c-.182.05-.485-1.011.005-2.194s1.418-1.673,1.506-1.5c.118.173-.478.817-.866,1.8-.409.968-.447,1.871-.645,1.9" transform="translate(786.194 463.989)" fill="#12263f"/>
    <path id="Trazado_248476" data-name="Trazado 248476" d="M167.16,420.578s-10.916,8.253-16.2,1.109l-1.38,3.461-6.208,24.661a3.376,3.376,0,0,0,1.746,3.96,2.863,2.863,0,0,0,3.176-.647c4.49-4.55,20.929-21.372,20.768-23.655L169,423.412a3.077,3.077,0,0,0-1.84-2.834" transform="translate(796.754 463.988)" fill="#fc4b52"/>
    <g id="Grupo_157339" data-name="Grupo 157339" transform="translate(942.408 891.349)" opacity="0.6">
      <g id="Grupo_157338" data-name="Grupo 157338">
        <g id="Grupo_157337" data-name="Grupo 157337" clip-path="url(#clip-path-3)">
          <path id="Trazado_248477" data-name="Trazado 248477" d="M145.9,454.168l23.417-26.574-.005,1.323c.117,1.434-.47,2-1.11,2.918-1.894,2.721-7.138,8.808-19.573,21.52a2.875,2.875,0,0,1-2.729.812" transform="translate(-145.898 -427.594)" fill="#fff"/>
        </g>
      </g>
    </g>
    <g id="Grupo_157342" data-name="Grupo 157342" transform="translate(961.646 887.109)" opacity="0.6">
      <g id="Grupo_157341" data-name="Grupo 157341">
        <g id="Grupo_157340" data-name="Grupo 157340" clip-path="url(#clip-path-4)">
          <path id="Trazado_248478" data-name="Trazado 248478" d="M167.845,423.509a2.016,2.016,0,0,0-.506,2.525,1.683,1.683,0,0,0,2.345.558,2.129,2.129,0,0,0,.524-2.678,1.737,1.737,0,0,0-2.5-.291" transform="translate(-167.095 -423.209)" fill="#fff"/>
        </g>
      </g>
    </g>
    <path id="Trazado_248479" data-name="Trazado 248479" d="M152.733,440.881c-.166.086-.82-1.552-2.56-2.439-1.714-.943-3.335-.509-3.372-.7-.025-.076.347-.317,1.033-.418a4.43,4.43,0,0,1,2.625.507,4.805,4.805,0,0,1,1.963,1.924c.34.643.384,1.1.311,1.129" transform="translate(796.427 463.432)" fill="#12263f"/>
    <path id="Trazado_248480" data-name="Trazado 248480" d="M150.463,445.243c-.14.134-1.076-.885-2.59-1.353-1.5-.506-2.814-.211-2.861-.406-.083-.16,1.33-.816,3.048-.25,1.723.545,2.557,1.927,2.4,2.01" transform="translate(796.592 463.24)" fill="#12263f"/>
    <path id="Trazado_248481" data-name="Trazado 248481" d="M156.8,435.352c-.138.148-1.572-1.428-3.866-2.376-2.281-.988-4.337-.89-4.343-1.1-.047-.166,2.132-.591,4.58.461,2.459,1.026,3.77,2.927,3.628,3.014" transform="translate(796.261 463.619)" fill="#12263f"/>
    <path id="Trazado_248482" data-name="Trazado 248482" d="M157.435,427.668c-.079.187-1.7-.541-3.8-.631-2.105-.121-3.778.442-3.841.248-.08-.154,1.608-1.058,3.871-.933,2.263.1,3.865,1.171,3.772,1.316" transform="translate(796.15 463.796)" fill="#12263f"/>
    <path id="Trazado_248483" data-name="Trazado 248483" d="M152.3,426.8a2.873,2.873,0,0,1,.165-1.169,8.4,8.4,0,0,1,1.4-2.866,3.451,3.451,0,0,1,1.739-1.42,1.174,1.174,0,0,1,1.289.548,2.213,2.213,0,0,1,.211,1.476,4.286,4.286,0,0,1-4.379,3.381,5,5,0,0,1-4.279-3.644,1.922,1.922,0,0,1,.182-1.5,1.14,1.14,0,0,1,1.333-.413,4.253,4.253,0,0,1,1.713,1.429,9.316,9.316,0,0,1,1.546,2.776,2.933,2.933,0,0,1,.256,1.148,14.783,14.783,0,0,0-2.141-3.6,3.953,3.953,0,0,0-1.522-1.206.608.608,0,0,0-.728.22,1.324,1.324,0,0,0-.065,1,4.459,4.459,0,0,0,3.745,3.115,3.715,3.715,0,0,0,3.756-2.814,1.61,1.61,0,0,0-.107-1.037.637.637,0,0,0-.707-.313,3.108,3.108,0,0,0-1.494,1.173A12.441,12.441,0,0,0,152.3,426.8" transform="translate(796.28 463.97)" fill="#12263f"/>
    <path id="Trazado_248484" data-name="Trazado 248484" d="M190.8,131.2c-1.706-1.455-3.706-2.467-5.487-3.817s-3.412-4.926-3.821-7.213l-13.965,1.334a62.556,62.556,0,0,0-1.8,18.087c.122,2.589.478,5.355,2.109,7.28,1.789,2.112,4.64,2.68,7.277,3.129l12.784,2.174a7.177,7.177,0,0,0,4.5-.207,6.359,6.359,0,0,0,2.722-3.63A16.059,16.059,0,0,0,190.8,131.2" transform="translate(794.683 473.996)" fill="#12263f"/>
    <path id="Trazado_248485" data-name="Trazado 248485" d="M136.3,142.942c-.746-4.419.05-8.913.435-13.329a155.99,155.99,0,0,0-.035-19.679,119.617,119.617,0,0,1,.33-19.6c.8-6.342,2.727-12.411,5.965-15.824s7.911-3.61,11.133.583L152.9,91.87a518.175,518.175,0,0,1,.69,71.416,33.3,33.3,0,0,1-12.94.131,2.717,2.717,0,0,1-2.36-1.865c-.529-1.626.2-3.395.477-5.1a16.607,16.607,0,0,0-.68-6.9,65.058,65.058,0,0,1-1.786-6.61" transform="translate(797.426 475.604)" fill="#12263f"/>
    <path id="Trazado_248486" data-name="Trazado 248486" d="M149.3,76.555a10.728,10.728,0,0,1,4.5-2.875,3.433,3.433,0,0,1,2.125-.14,1.7,1.7,0,0,1,1.186,1.7l-4.2,6.316a2.73,2.73,0,0,1-3.18.156,3.1,3.1,0,0,1-1.693-2.014,3.779,3.779,0,0,1,1.26-3.146" transform="translate(796.315 475.554)" fill="#feca2e"/>
    <path id="Trazado_248487" data-name="Trazado 248487" d="M175.188,139.6h0" transform="translate(793.802 473.349)" fill="#ffbe9d"/>
    <path id="Trazado_248488" data-name="Trazado 248488" d="M180.654,95.015c-.737-9.153-8.058-16.5-16.832-16.249-9.309.261-16.447,8.5-15.906,18.111l3.1,38.663a3.489,3.489,0,0,0,.837,2,14.455,14.455,0,0,0,10.23,4.915,14.991,14.991,0,0,0,9.2-3.566,3.413,3.413,0,0,0,1.173-3.048l-1.137-9.923h0a18.883,18.883,0,0,0,2.4-.492c2.056-.884,7.038-2.552,7.243-11.3a184.464,184.464,0,0,0-.3-19.108" transform="translate(796.326 475.376)" fill="#a57e6d"/>
    <path id="Trazado_248489" data-name="Trazado 248489" d="M172.68,110.01a9.2,9.2,0,0,1,2.3-.626c.363-.07.7-.173.746-.44a2.027,2.027,0,0,0-.331-1.117q-.621-1.35-1.3-2.831c-1.819-4.034-3.166-7.363-3.01-7.439s1.757,3.135,3.576,7.17q.659,1.492,1.26,2.852a2.312,2.312,0,0,1,.3,1.489.943.943,0,0,1-.56.609,2.366,2.366,0,0,1-.615.14,8.926,8.926,0,0,1-2.361.193" transform="translate(794.183 474.75)" fill="#12263f"/>
    <path id="Trazado_248490" data-name="Trazado 248490" d="M180.729,101.189a1.381,1.381,0,0,1-1.179,1.511,1.294,1.294,0,0,1-1.469-1.147,1.381,1.381,0,0,1,1.177-1.511,1.3,1.3,0,0,1,1.471,1.147" transform="translate(793.535 474.667)" fill="#12263f"/>
    <path id="Trazado_248491" data-name="Trazado 248491" d="M181.128,98.308c-.128.247-1.286-.545-2.709-.314-1.425.2-2.316,1.312-2.508,1.113-.092-.087.01-.513.395-1.012a3.146,3.146,0,0,1,1.963-1.164,3.065,3.065,0,0,1,2.2.527c.508.362.721.739.657.851" transform="translate(793.738 474.771)" fill="#12263f"/>
    <path id="Trazado_248492" data-name="Trazado 248492" d="M165.919,102.577a1.38,1.38,0,0,1-1.179,1.51,1.293,1.293,0,0,1-1.469-1.146,1.382,1.382,0,0,1,1.178-1.512,1.3,1.3,0,0,1,1.47,1.148" transform="translate(794.904 474.621)" fill="#12263f"/>
    <path id="Trazado_248493" data-name="Trazado 248493" d="M165.817,99.831c-.173.228-1.3-.726-2.849-.7-1.554,0-2.668.969-2.843.743-.085-.1.083-.508.571-.947a3.441,3.441,0,0,1,4.543-.035c.489.433.663.837.578.94" transform="translate(795.196 474.733)" fill="#12263f"/>
    <path id="Trazado_248494" data-name="Trazado 248494" d="M172.39,127.446s-5.632.973-12.89-2.828c0,0,2.881,7.443,13.206,5.589Z" transform="translate(795.252 473.849)" fill="#755246"/>
    <path id="Trazado_248495" data-name="Trazado 248495" d="M172.049,114.2a2.529,2.529,0,0,0-2.393-.819,2.353,2.353,0,0,0-1.56,1.045,1.631,1.631,0,0,0,.021,1.8,1.685,1.685,0,0,0,1.919.346,5.425,5.425,0,0,0,1.747-1.292,1.645,1.645,0,0,0,.376-.477.52.52,0,0,0-.044-.558" transform="translate(794.481 474.224)" fill="#755246"/>
    <path id="Trazado_248496" data-name="Trazado 248496" d="M166.58,94c-.1.421-1.552.371-3.213.75-1.668.342-2.976.992-3.233.649-.115-.165.085-.571.6-1.02a5.337,5.337,0,0,1,2.337-1.126,5.234,5.234,0,0,1,2.573.06c.642.2.981.488.938.687" transform="translate(795.196 474.897)" fill="#12263f"/>
    <path id="Trazado_248497" data-name="Trazado 248497" d="M180.672,94.9c-.285.357-1.478.059-2.9.111-1.418.009-2.6.357-2.9.014-.129-.168.044-.52.552-.868a4.433,4.433,0,0,1,2.326-.675,4.37,4.37,0,0,1,2.341.575c.517.326.7.67.574.843" transform="translate(793.834 474.886)" fill="#12263f"/>
    <path id="Trazado_248498" data-name="Trazado 248498" d="M164.384,76.521a4.73,4.73,0,0,0-3.973-1.641c-6.442-.038-12.925,5.1-15.682,11.3s-1.791,14.665,1.644,20.469l2.424.073c4.881-1.079,11.164-16.979,16.964-26.123.72-1.137-.57-3.008-1.376-4.077" transform="translate(796.767 475.505)" fill="#12263f"/>
    <path id="Trazado_248499" data-name="Trazado 248499" d="M179.168,79.051c-3.074-2.784-7.891-6.017-13.06-2.945-.583,1.758,1.331,3.624,2.857,4.651,2.233,1.505,4.136,2.46,5.617,3.555,2.993,2.215,6.85,6.048,7.767,10.82.057.3.122,9.711.4,9.62.36-.118,1.1-11.617,1.174-14.3.163-5.717-1.681-8.62-4.755-11.4" transform="translate(794.651 475.506)" fill="#12263f"/>
    <path id="Trazado_248500" data-name="Trazado 248500" d="M150.045,104.394c-.158-.062-6.316-1.611-5.794,4.97s6.618,4.664,6.614,4.475-.82-9.445-.82-9.445" transform="translate(796.665 474.528)" fill="#a57e6d"/>
    <path id="Trazado_248501" data-name="Trazado 248501" d="M148.942,111.592c-.029-.018-.1.09-.276.2a1.021,1.021,0,0,1-.8.09,2.86,2.86,0,0,1-1.435-2.434,4.062,4.062,0,0,1,.171-1.668,1.31,1.31,0,0,1,.74-.953.538.538,0,0,1,.661.257c.1.177.069.311.1.32.018.015.123-.122.052-.39a.731.731,0,0,0-.275-.391.778.778,0,0,0-.609-.114,1.571,1.571,0,0,0-1.044,1.122,4.15,4.15,0,0,0-.227,1.868c.145,1.322.88,2.506,1.8,2.7a1.108,1.108,0,0,0,.97-.262c.179-.181.2-.331.177-.34" transform="translate(796.503 474.452)" fill="#755246"/>
    <path id="Trazado_248502" data-name="Trazado 248502" d="M180.823,80.374a6.517,6.517,0,0,1-1.761.493,23.9,23.9,0,0,1-8.758.055,6.483,6.483,0,0,1-1.766-.472,10.863,10.863,0,0,1,1.8.185,33.491,33.491,0,0,0,8.678-.054,10.741,10.741,0,0,1,1.8-.207" transform="translate(794.417 475.322)" fill="#fff"/>
    <path id="Trazado_248503" data-name="Trazado 248503" d="M184.048,84.912a3.474,3.474,0,0,1-1.3.518,9.82,9.82,0,0,1-6.582-.626,3.57,3.57,0,0,1-1.191-.754,18.033,18.033,0,0,0,4.469,1.231,17.846,17.846,0,0,0,4.6-.368" transform="translate(793.821 475.2)" fill="#fff"/>
    <path id="Trazado_248504" data-name="Trazado 248504" d="M144.324,88.626c0-.084,1.352-.011,3.49-.363a25.039,25.039,0,0,0,3.693-.914,33.335,33.335,0,0,0,4.314-1.832,36.814,36.814,0,0,0,4.029-2.47,34.253,34.253,0,0,0,3.028-2.441c1.649-1.5,2.54-2.573,2.594-2.521a4.726,4.726,0,0,1-.591.789,11.32,11.32,0,0,1-.76.865c-.3.328-.651.7-1.065,1.085a30.019,30.019,0,0,1-3.008,2.536,33.5,33.5,0,0,1-4.059,2.525,30.514,30.514,0,0,1-4.379,1.825,22.437,22.437,0,0,1-3.758.839,12.388,12.388,0,0,1-1.469.136,7.724,7.724,0,0,1-1.113.017,4.205,4.205,0,0,1-.946-.076" transform="translate(796.655 475.398)" fill="#fff"/>
    <path id="Trazado_248505" data-name="Trazado 248505" d="M165.52,80.514a5.425,5.425,0,0,1-.382.976,12.232,12.232,0,0,1-.527,1.107c-.226.42-.457.915-.78,1.42a27.3,27.3,0,0,1-2.4,3.439,28.323,28.323,0,0,1-3.578,3.61,26.714,26.714,0,0,1-4.172,2.8,23.282,23.282,0,0,1-3.738,1.586c-.542.2-1.053.3-1.493.423a9.538,9.538,0,0,1-1.143.243,4.7,4.7,0,0,1-.986.126c-.015-.083,1.386-.305,3.538-1.067a25.707,25.707,0,0,0,3.66-1.646,28.309,28.309,0,0,0,4.1-2.786,29.98,29.98,0,0,0,3.549-3.537A30.288,30.288,0,0,0,163.6,83.86c1.255-2.013,1.847-3.382,1.916-3.346" transform="translate(796.471 475.317)" fill="#fff"/>
    <path id="Trazado_248506" data-name="Trazado 248506" d="M162.172,74.877a2.171,2.171,0,0,1,1.243-.077,5.2,5.2,0,0,1,2.727,1.354,4.778,4.778,0,0,1,.6.682,4.034,4.034,0,0,1,.4.761,9.221,9.221,0,0,1,.511,1.33,2.117,2.117,0,0,1,.065,1.326c-.064,0-.05-.5-.323-1.234a12.962,12.962,0,0,0-.57-1.254,4,4,0,0,0-.38-.685,4.879,4.879,0,0,0-.557-.618,5.792,5.792,0,0,0-2.521-1.377c-.721-.166-1.192-.139-1.2-.208" transform="translate(795.005 475.509)" fill="#fff"/>
    <path id="Trazado_248507" data-name="Trazado 248507" d="M144.951,104.191a1.586,1.586,0,0,0-.089-.335c-.063-.218-.18-.531-.3-.943a31.438,31.438,0,0,1-.867-3.532,26.777,26.777,0,0,1-.462-5.374,22.484,22.484,0,0,1,1.034-6.487,16.854,16.854,0,0,1,1.359-3.083,17.722,17.722,0,0,1,1.789-2.543,21.128,21.128,0,0,1,3.84-3.51,28.681,28.681,0,0,1,2.952-1.855c.357-.2.644-.343.833-.45a1.412,1.412,0,0,0,.284-.174,1.328,1.328,0,0,0-.308.118c-.2.09-.493.211-.859.4a24.139,24.139,0,0,0-3.015,1.782,20.474,20.474,0,0,0-3.923,3.5,17.714,17.714,0,0,0-1.833,2.575A16.9,16.9,0,0,0,144,87.42,22.248,22.248,0,0,0,142.973,94a25.825,25.825,0,0,0,.526,5.421,26.845,26.845,0,0,0,.96,3.527c.135.409.269.715.349.927a1.545,1.545,0,0,0,.142.313" transform="translate(796.78 475.472)" fill="#fff"/>
    <path id="Trazado_248508" data-name="Trazado 248508" d="M172.769,115.938c.022-.206-1.4-.415-3.029-1.194-1.634-.76-2.782-1.9-2.865-1.749a5.546,5.546,0,0,0,2.7,2.382c1.7.81,3.192.72,3.2.561" transform="translate(794.571 474.236)" fill="#12263f"/>
    <path id="Trazado_248509" data-name="Trazado 248509" d="M179.967,133.962l-8.873-1.12L150.1,135.727l-10.718,6.363,18.624,8.369,13.546-2.961Z" transform="translate(797.112 473.574)" fill="#a57e6d"/>
    <path id="Trazado_248510" data-name="Trazado 248510" d="M143.9,138.3l-14.858,6.478,3.332,30.4s5.531-2.1,8.495,13.256a151.621,151.621,0,0,1,3.014,25.195l54.074-2.05s-1.976-36.821-2.963-45.027l-3.631-31.349L177.4,132.725S163.965,156.9,143.9,138.3" transform="translate(798.069 473.578)" fill="#a7e446"/>
    <path id="Trazado_248511" data-name="Trazado 248511" d="M197.269,135.292s6.593-.509,11.786,9.2c3.953,7.391,5.351,10.237,5.351,10.237l-15.322,9.538-6.122-17.825Z" transform="translate(792.158 473.493)" fill="#a7e446"/>
    <path id="Trazado_248512" data-name="Trazado 248512" d="M127.6,145.087s-5.922,3.584-9.035,8.207a112.27,112.27,0,0,0-6.918,13.13l18.115,10.754,2.7-5.523Z" transform="translate(799.677 473.166)" fill="#a7e446"/>
    <path id="Trazado_248513" data-name="Trazado 248513" d="M134.566,171.195c-.083-.033.387-1.326.81-3.5a29.38,29.38,0,0,0,.48-3.855,28.976,28.976,0,0,0-1-9.415,28.906,28.906,0,0,0-1.279-3.642c-.87-2.017-1.6-3.166-1.526-3.217a3.571,3.571,0,0,1,.564.77,18.422,18.422,0,0,1,1.263,2.294,25.155,25.155,0,0,1,1.394,3.662,29.13,29.13,0,0,1,.94,4.739,29.429,29.429,0,0,1,.08,4.842,25.661,25.661,0,0,1-.589,3.9,18.958,18.958,0,0,1-.749,2.537,3.719,3.719,0,0,1-.388.885" transform="translate(797.791 473.084)" fill="#12263f"/>
    <path id="Trazado_248514" data-name="Trazado 248514" d="M198.328,150.059c-.146.031-.624-3.014-2.069-6.45-1.419-3.449-3.216-5.872-3.1-5.966a6.326,6.326,0,0,1,1.247,1.525,23.9,23.9,0,0,1,2.281,4.237,24.55,24.55,0,0,1,1.414,4.645,6.8,6.8,0,0,1,.223,2.009" transform="translate(792.141 473.414)" fill="#12263f"/>
    <path id="Trazado_248515" data-name="Trazado 248515" d="M183.039,132.774a2.015,2.015,0,0,1-.15.488c-.123.308-.264.786-.539,1.354a23.533,23.533,0,0,1-2.7,4.586,24.574,24.574,0,0,1-5.563,5.418,22.835,22.835,0,0,1-8.536,3.729,22.2,22.2,0,0,1-9.227-.189,23.06,23.06,0,0,1-7.026-2.911,22.012,22.012,0,0,1-4.074-3.236c-.448-.424-.742-.815-.962-1.056a1.921,1.921,0,0,1-.3-.4c.032-.032.5.472,1.39,1.308a24.239,24.239,0,0,0,4.116,3.071,23.5,23.5,0,0,0,6.952,2.767,22.231,22.231,0,0,0,9.049.148,22.865,22.865,0,0,0,8.385-3.622,25,25,0,0,0,5.542-5.256,25.879,25.879,0,0,0,2.8-4.449c.55-1.124.813-1.773.853-1.755" transform="translate(796.689 473.576)" fill="#12263f"/>
    <path id="Trazado_248516" data-name="Trazado 248516" d="M157.263,167.492a162.062,162.062,0,0,1-6.031-31.719c-.609-7.59-2.471-13.706-2.735-21.184l-4.043,7.644a221.54,221.54,0,0,0-4.482,29.238c-.264,3.081-.361,6.521,1.52,8.878,1.513,1.893,4.128,2.814,4.962,5.136.9,2.512-.414,6.229,1.822,7.48a2.835,2.835,0,0,0,3.379-.9,9.475,9.475,0,0,0,1.638-3.55c.205,1.955,2.332,3.988,3.712,2.679.919-.874.621-2.45.26-3.7" transform="translate(797.071 474.183)" fill="#12263f"/>
    <path id="Trazado_248517" data-name="Trazado 248517" d="M39.187,255.636h0c3.28,8.5,12.7,12.165,20.353,7.915L261.782,151.207,287.6,111.339l-44.4,7.225L45.6,236.05c-6.485,3.857-9.242,12.268-6.418,19.586" transform="translate(806.479 474.291)" fill="#fc4b52"/>
    <path id="Trazado_248518" data-name="Trazado 248518" d="M45.6,240.348c-6.486,3.856-9.242,12.267-6.418,19.586,3.28,8.5,12.7,12.164,20.352,7.915Z" transform="translate(806.479 469.992)" fill="#12263f"/>
    <g id="Grupo_157345" data-name="Grupo 157345" transform="translate(852.084 592.854)" opacity="0.4">
      <g id="Grupo_157344" data-name="Grupo 157344">
        <g id="Grupo_157343" data-name="Grupo 157343" clip-path="url(#clip-path-5)">
          <path id="Trazado_248519" data-name="Trazado 248519" d="M243.961,118.813,46.371,236.3l2.38,4.7L247.116,125.081Z" transform="translate(-46.371 -118.813)"/>
        </g>
      </g>
    </g>
    <g id="Grupo_157348" data-name="Grupo 157348" transform="translate(863.731 619.147)" opacity="0.4">
      <g id="Grupo_157347" data-name="Grupo 157347">
        <g id="Grupo_157346" data-name="Grupo 157346" clip-path="url(#clip-path-6)">
          <path id="Trazado_248520" data-name="Trazado 248520" d="M260.258,146.012,59.206,260.194l2.287,4.512L263.735,152.362Z" transform="translate(-59.206 -146.012)"/>
        </g>
      </g>
    </g>
    <g id="Grupo_157351" data-name="Grupo 157351" transform="translate(857.816 605.495)" opacity="0.4">
      <g id="Grupo_157350" data-name="Grupo 157350">
        <g id="Grupo_157349" data-name="Grupo 157349" clip-path="url(#clip-path-7)">
          <path id="Trazado_248521" data-name="Trazado 248521" d="M251.666,131.889,52.688,248.048l3.172,6.26L255.05,138.36Z" transform="translate(-52.688 -131.889)"/>
        </g>
      </g>
    </g>
    <g id="Grupo_157354" data-name="Grupo 157354" transform="translate(1049.674 588.432)" opacity="0.4">
      <g id="Grupo_157353" data-name="Grupo 157353">
        <g id="Grupo_157352" data-name="Grupo 157352" clip-path="url(#clip-path-8)">
          <path id="Trazado_248522" data-name="Trazado 248522" d="M282.68,151.3,264.092,118.66l27.183-4.423,8.358,10.887Z" transform="translate(-264.092 -114.238)" fill="#fff"/>
        </g>
      </g>
    </g>
    <path id="Trazado_248523" data-name="Trazado 248523" d="M245.2,172.521l3.617-4.078s-.426-9.291,1.064-11.557l.776-1.369s-.773-4.518,1.508-5.562c.644-1.708,1.476-2.4,2.608-1.453,0,0-.638-3.4,2.34-3.851s3.83,13.935,3.83,13.935,1.489,6.458-1.915,6.458c0,0-1.915,2.266-4.041,2.492,0,0-.639,3.852-3.617,3.626Z" transform="translate(787.328 473.182)" fill="#a57e6d"/>
    <path id="Trazado_248524" data-name="Trazado 248524" d="M254.5,166.593c.019-.017.179.117.34.46a2.756,2.756,0,0,1,.172,1.594,3.651,3.651,0,0,1-1.118,2.064,6.822,6.822,0,0,1-2.374,1.383,16.031,16.031,0,0,1-4.74,1,5.539,5.539,0,0,1-2-.112,29.171,29.171,0,0,0,6.58-1.364,6.905,6.905,0,0,0,2.244-1.258,3.262,3.262,0,0,0,.893-3.769" transform="translate(787.367 472.45)" fill="#755246"/>
    <path id="Trazado_248525" data-name="Trazado 248525" d="M258.166,160.871c-.145,0-.152-2.891-.8-6.362-.633-3.477-1.656-6.155-1.521-6.213a6.171,6.171,0,0,1,.789,1.707,27.96,27.96,0,0,1,1.659,8.969,6.4,6.4,0,0,1-.122,1.9" transform="translate(786.346 473.06)" fill="#755246"/>
    <path id="Trazado_248526" data-name="Trazado 248526" d="M255.323,162.514c-.14.012-.4-2.812-1.077-6.222s-1.5-6.106-1.372-6.156a23.317,23.317,0,0,1,1.834,6.052,23.754,23.754,0,0,1,.615,6.325" transform="translate(786.62 472.998)" fill="#755246"/>
    <path id="Trazado_248527" data-name="Trazado 248527" d="M260.723,162.826c.108-.072.554.817.263,1.94s-1.087,1.656-1.146,1.534c-.089-.11.459-.712.69-1.666.252-.946.064-1.761.193-1.809" transform="translate(785.976 472.575)" fill="#755246"/>
    <path id="Trazado_248528" data-name="Trazado 248528" d="M251.6,163.249a20.77,20.77,0,0,1-.273-3.529,20.631,20.631,0,0,1-.136-3.539,15.7,15.7,0,0,1,.409,7.068" transform="translate(786.779 472.797)" fill="#755246"/>
    <path id="Trazado_248529" data-name="Trazado 248529" d="M110.917,167.16s-12,26.962-13.816,30.979-4.749,11.456,0,15.622,37.816,4.434,37.816,4.434l1.644-14.208-21.751-5.61L127.6,177.914Z" transform="translate(801.26 472.431)" fill="#a57e6d"/>
    <path id="Trazado_248530" data-name="Trazado 248530" d="M143.414,205.121a11.671,11.671,0,0,1,2.862-4.025c2.082-1.926,6.65-3.416,7.242-5.261s2.324-.414,1.919,1.885c-.258,1.465-3.087,5.3-3.087,5.3s3.322.887,5.532-.47,9.954-3.8,10.781-2.644c.937,1.3-1.091,1.739-1.961,2.265-.662.4-5.807,3.119-5.807,3.119s10.242-.372,11.531.147c1.4.565-.034,1.883-.679,1.911-.407.017-2.162,1.687-3.405,2.919a4.5,4.5,0,0,1-3.1,1.327l-2.38.037,7.229.809s1.25,1.217-.489,1.852c-.775.283-22.692,3.645-24.391,3.751-2.939.183-7.592.95-7.592.95l1.183-14.529Z" transform="translate(797.275 471.504)" fill="#a57e6d"/>
    <path id="Trazado_248531" data-name="Trazado 248531" d="M174.413,207.913a15.031,15.031,0,0,1-4.869,1.573,14.741,14.741,0,0,1-5.079.318c0-.149,2.258-.286,5-.814s4.908-1.218,4.952-1.077" transform="translate(794.793 471.073)" fill="#755246"/>
    <path id="Trazado_248532" data-name="Trazado 248532" d="M201.1,103.506,206.8,92.793a29.907,29.907,0,0,1-3.984-15.006c0-15.825,12.044-28.653,26.9-28.653s26.9,12.829,26.9,28.653-12.044,28.653-26.9,28.653a25.747,25.747,0,0,1-16.463-6l.009.013Z" transform="translate(791.406 476.363)" fill="#fff"/>
    <path id="Trazado_248533" data-name="Trazado 248533" d="M201.1,103.5l12.195-2.94.163-.04-.1-.144-.009-.013-.153.162a26.084,26.084,0,0,0,12.923,5.815,22.835,22.835,0,0,0,4.266.232c.734-.043,1.481-.062,2.235-.13l2.277-.365a26.3,26.3,0,0,0,9.084-3.8,28.033,28.033,0,0,0,7.764-7.716A29.574,29.574,0,0,0,256.3,83.474a31.117,31.117,0,0,0-.317-12.776A28.989,28.989,0,0,0,250.2,58.887a27.18,27.18,0,0,0-10.389-7.9,25.987,25.987,0,0,0-12.086-1.977A25.412,25.412,0,0,0,216.638,52.5a27.939,27.939,0,0,0-8.2,7.462,29.86,29.86,0,0,0-4.59,9.312,32.891,32.891,0,0,0-1.167,9.336,29.89,29.89,0,0,0,4.032,14.231l0-.114c-3.553,6.811-5.258,10.083-5.616,10.768.368-.679,2.13-3.916,5.8-10.658l.031-.056-.033-.057a29.832,29.832,0,0,1-3.908-14.122,32.631,32.631,0,0,1,1.19-9.221,29.555,29.555,0,0,1,4.559-9.173,27.576,27.576,0,0,1,8.1-7.334,25.052,25.052,0,0,1,10.929-3.422,25.621,25.621,0,0,1,11.893,1.959,26.771,26.771,0,0,1,10.221,7.777,28.566,28.566,0,0,1,5.689,11.62,30.7,30.7,0,0,1,.323,12.575,29.174,29.174,0,0,1-4.472,10.931,27.688,27.688,0,0,1-7.635,7.625,26.029,26.029,0,0,1-8.951,3.776l-2.247.37c-.744.069-1.483.09-2.208.137a22.507,22.507,0,0,1-4.217-.209,25.974,25.974,0,0,1-12.831-5.674l-.669-.548.515.711.009.013.062-.183L201.1,103.5" transform="translate(791.406 476.37)" fill="#12263f"/>
    <path id="Trazado_248534" data-name="Trazado 248534" d="M217.787,80.121l3.765-4.011,7.261,6.876,14.254-14.61,3.5,4.011L228.275,90.72Z" transform="translate(789.863 475.722)" fill="#fc4b52"/>
  </g>
</svg>
